<svg xmlns="http://www.w3.org/2000/svg" width="47.192" height="47.192" viewBox="0 0 47.192 47.192">
  <g id="add" transform="translate(-279 -140)">
    <g id="_1904677_add_addition_calculate_charge_create_icon" data-name="1904677_add_addition_calculate_charge_create_icon" transform="translate(279 140)">
      <path id="Path_18185" data-name="Path 18185" d="M23.6,0a23.6,23.6,0,1,0,23.6,23.6A23.6,23.6,0,0,0,23.6,0Zm0,44.979A21.384,21.384,0,1,1,44.979,23.6,21.384,21.384,0,0,1,23.6,44.979Z" fill="#40a3af"/>
      <path id="Path_18186" data-name="Path 18186" d="M55.278,44.586H46.8v-8.48a1.106,1.106,0,1,0-2.212,0v8.48h-8.48a1.106,1.106,0,1,0,0,2.212h8.48v8.48a1.106,1.106,0,0,0,2.212,0V46.8h8.48a1.106,1.106,0,0,0,0-2.212Z" transform="translate(-22.096 -22.096)" fill="#40a3af"/>
    </g>
  </g>
</svg>
