<svg xmlns="http://www.w3.org/2000/svg" width="128.953" height="39.829" viewBox="0 0 128.953 39.829">
  <path id="app" d="M23.108,66.937a5.607,5.607,0,0,0-5.587,5.587v28.67a5.6,5.6,0,0,0,5.587,5.572H140.886a5.613,5.613,0,0,0,5.587-5.565V72.524a5.607,5.607,0,0,0-5.587-5.587Zm0,2.29H140.886a3.287,3.287,0,0,1,3.3,3.3v28.663a3.294,3.294,0,0,1-3.3,3.289H23.108a3.286,3.286,0,0,1-3.3-3.282V72.524a3.287,3.287,0,0,1,3.3-3.3Zm22.044,4.7a5.406,5.406,0,0,0-3.526,1.832,5.032,5.032,0,0,0-1.252,3.695,4.528,4.528,0,0,0,3.557-1.694A5.279,5.279,0,0,0,45.152,73.928Zm33.051.305v6.458h.977V74.234Zm13.389,0v6.458h.977V74.234Zm27.586,0v6.458h.992V78.035a.967.967,0,0,1,.977-1.053c.58,0,.885.4.885,1.191v2.519h.992V78.066c0-1.16-.58-1.893-1.511-1.893a1.477,1.477,0,0,0-1.328.717h-.015V74.234Zm-33.28.016v5.267c0,.427,0,.839-.03,1.191h.84l.061-.687h.016a1.485,1.485,0,0,0,1.389.779,2.125,2.125,0,0,0,1.954-2.366c0-1.328-.748-2.244-1.816-2.244a1.515,1.515,0,0,0-1.4.733H86.89V74.249Zm-9.938.107a.574.574,0,0,0-.6.58.583.583,0,0,0,.58.6.557.557,0,0,0,.611-.6A.565.565,0,0,0,75.96,74.356Zm-14.778.2-1.969,6.137h1.023l.55-1.8h2l.58,1.8h1.053L62.4,74.555Zm55.569.611-.962.29v.809h-.641v.763h.641v2.229c0,1.114.458,1.542,1.236,1.542a2.133,2.133,0,0,0,.763-.107l-.031-.748a1.877,1.877,0,0,1-.442.046c-.4,0-.58-.275-.58-.824V77.012h1.1v-.748H116.75Zm-54.958.213h.015c.153.611.244.993.305,1.16l.519,1.6H61l.5-1.6c.137-.519.229-.9.29-1.16Zm34.333.794a2.164,2.164,0,0,0-2.091,2.381,2.045,2.045,0,0,0,2.2,2.229,3.664,3.664,0,0,0,1.481-.275l-.153-.687a3.246,3.246,0,0,1-1.191.213,1.271,1.271,0,0,1-1.389-1.313h2.946a3.314,3.314,0,0,0,.046-.443,1.866,1.866,0,0,0-1.847-2.107Zm13.739,0a1.6,1.6,0,0,0-1.4.779h-.031l-.046-.687h-.87c.015.458.031.87.031,1.267v3.16h.977V78.05a1.032,1.032,0,0,1,.992-1.084c.58,0,.886.4.886,1.176v2.549h.977l.03-2.656c0-1.145-.611-1.862-1.542-1.862Zm16.381,0a2.165,2.165,0,0,0-2.092,2.381,2.046,2.046,0,0,0,2.2,2.229,3.662,3.662,0,0,0,1.481-.275l-.153-.687a3.244,3.244,0,0,1-1.191.213,1.271,1.271,0,0,1-1.389-1.313h2.961a3.545,3.545,0,0,0,.031-.443,1.866,1.866,0,0,0-1.847-2.107Zm-22.273.015a2.149,2.149,0,0,0-2.214,2.336A2.106,2.106,0,0,0,103.9,80.8a2.182,2.182,0,0,0,2.214-2.336A2.1,2.1,0,0,0,103.973,76.188ZM72.005,76.2a2.8,2.8,0,0,0-1.527.382l.2.641a1.993,1.993,0,0,1,1.16-.336q.916,0,.916.87v.076c-1.633,0-2.58.565-2.58,1.664a1.284,1.284,0,0,0,1.359,1.3,1.508,1.508,0,0,0,1.3-.611h.03l.076.5.87.03a6.485,6.485,0,0,1-.061-1.053V78.035Q73.746,76.2,72.005,76.2Zm10.427,0a2.8,2.8,0,0,0-1.527.382l.2.641a1.994,1.994,0,0,1,1.16-.336q.916,0,.916.87v.076c-1.633,0-2.58.565-2.58,1.664a1.284,1.284,0,0,0,1.358,1.3,1.508,1.508,0,0,0,1.3-.611h.031l.076.5v.03h.87a6.485,6.485,0,0,1-.061-1.053V78.035q0-1.832-1.74-1.832Zm-17.327.061,1.618,4.427h.962l1.679-4.427H68.342L67.594,78.6c-.137.427-.244.794-.321,1.114h-.03c-.092-.351-.2-.717-.321-1.114l-.763-2.336Zm10.365,0v4.427h.977V76.264Zm20.579.6c.626,0,.977.473.977,1.16H94.981A1.155,1.155,0,0,1,96.05,76.86Zm30.135,0c.626,0,.977.473.977,1.16h-2.046a1.155,1.155,0,0,1,1.069-1.16Zm-22.258.03c.687,0,1.145.687,1.16,1.573,0,.87-.458,1.588-1.16,1.588s-1.16-.657-1.16-1.573S103.209,76.89,103.927,76.89Zm-15.953.061c.7,0,1.16.611,1.16,1.511,0,.962-.443,1.557-1.175,1.557a1.082,1.082,0,0,1-1.069-1.114v-.779a1.13,1.13,0,0,1,1.084-1.175ZM72.8,78.493v.672a.936.936,0,0,1-.962.9.629.629,0,0,1-.672-.687C71.166,78.753,71.7,78.493,72.8,78.493Zm10.427,0v.672a.936.936,0,0,1-.962.9.629.629,0,0,1-.671-.687c0-.626.534-.886,1.633-.886ZM44.792,79.709c-1.722-.021-3.347,1.12-4.234,1.12-.962,0-2.412-1.084-3.969-1.053a5.8,5.8,0,0,0-4.916,3.007c-2.122,3.679-.534,9.1,1.5,12.076,1.023,1.466,2.214,3.084,3.771,3.022,1.527-.061,2.091-.977,3.938-.977,1.817,0,2.366.977,3.954.931C46.465,97.8,47.5,96.37,48.48,94.9a11.723,11.723,0,0,0,1.664-3.4,5.29,5.29,0,0,1-3.206-4.84,5.4,5.4,0,0,1,2.6-4.565,5.565,5.565,0,0,0-4.4-2.366c-.115-.012-.231-.019-.346-.02Zm53.181,5.3a4.6,4.6,0,0,0-3.068.977,3.141,3.141,0,0,0-1.16,2.519c0,1.557,1.1,2.763,3.282,3.572a4.665,4.665,0,0,1,1.725.962,1.739,1.739,0,0,1,.519,1.282,1.674,1.674,0,0,1-.626,1.358,2.732,2.732,0,0,1-1.756.5A5.566,5.566,0,0,1,94,95.408l-.458,1.664a5.94,5.94,0,0,0,3.237.779,4.908,4.908,0,0,0,3.4-1.1,3.308,3.308,0,0,0,1.115-2.6A2.991,2.991,0,0,0,100.523,92a6.089,6.089,0,0,0-2.366-1.511,6.73,6.73,0,0,1-1.817-.962,1.54,1.54,0,0,1-.58-1.221,1.474,1.474,0,0,1,.5-1.13,2.374,2.374,0,0,1,1.649-.519,4.971,4.971,0,0,1,2.4.58l.5-1.634A6.065,6.065,0,0,0,97.973,85.012Zm-35.478.153L58.48,97.652h2.076l1.115-3.664h4.076l1.16,3.664h2.137L64.983,85.164Zm43.234,1.252-1.969.6V88.66h-1.313v1.5h1.313v4.549a3.575,3.575,0,0,0,.672,2.427,2.4,2.4,0,0,0,1.847.718,4.412,4.412,0,0,0,1.557-.229l-.061-1.527a3.584,3.584,0,0,1-.886.092c-.779,0-1.16-.55-1.16-1.664V90.156h2.214v-1.5h-2.214Zm-42.058.412h.03c.305,1.237.519,2.015.626,2.351l1.053,3.267H62.037l1.038-3.267c.275-1.038.473-1.817.6-2.351Zm65.919,1.588a3.848,3.848,0,0,0-3.145,1.45,5.122,5.122,0,0,0-1.114,3.389,4.566,4.566,0,0,0,1.191,3.313,4.409,4.409,0,0,0,3.3,1.236,7.633,7.633,0,0,0,3.023-.55l-.321-1.389a6.54,6.54,0,0,1-2.427.427,3.014,3.014,0,0,1-1.969-.626,2.638,2.638,0,0,1-.87-2.046h6a5.489,5.489,0,0,0-.717-3.755,3.366,3.366,0,0,0-2.946-1.45Zm-5.694.046a2.44,2.44,0,0,0-1.45.488,3.153,3.153,0,0,0-1.008,1.435h-.061L121.3,88.66h-1.74c.046.855.061,1.8.061,2.84v6.167h2V92.935a3.01,3.01,0,0,1,.5-1.786,1.887,1.887,0,0,1,1.633-.794,4.139,4.139,0,0,1,.626.061l.015-1.923a4.953,4.953,0,0,0-.5-.03Zm-48.272.015A3.355,3.355,0,0,0,72.586,90.1h-.031l-.107-1.435H70.693c.046,1.008.076,2,.076,2.962v9.694h2V96.583a2.766,2.766,0,0,0,2.565,1.282,3.672,3.672,0,0,0,2.778-1.191,5.078,5.078,0,0,0,1.252-3.633,4.848,4.848,0,0,0-1.084-3.3,3.281,3.281,0,0,0-2.656-1.267Zm10.351,0A3.355,3.355,0,0,0,82.936,90.1h-.03L82.8,88.66H81.043c.046,1.008.076,2,.076,2.962v9.694h2V96.583a2.766,2.766,0,0,0,2.565,1.282,3.672,3.672,0,0,0,2.779-1.191,5.078,5.078,0,0,0,1.252-3.633,4.773,4.773,0,0,0-1.084-3.3,3.281,3.281,0,0,0-2.656-1.267Zm27.57,0a4.223,4.223,0,0,0-3.267,1.328,4.951,4.951,0,0,0-1.221,3.435,4.8,4.8,0,0,0,1.176,3.313,4.033,4.033,0,0,0,3.16,1.313,4.219,4.219,0,0,0,3.3-1.374,4.9,4.9,0,0,0,1.191-3.4,4.784,4.784,0,0,0-1.145-3.3A4.143,4.143,0,0,0,113.544,88.477Zm15.907,1.344a1.744,1.744,0,0,1,1.587.84,2.825,2.825,0,0,1,.382,1.542l-4.152-.015a2.934,2.934,0,0,1,.6-1.557,1.893,1.893,0,0,1,1.588-.809Zm-15.984.122a1.969,1.969,0,0,1,1.8,1.069,4.093,4.093,0,0,1,.534,2.122,4.293,4.293,0,0,1-.55,2.152,2.033,2.033,0,0,1-1.8,1.084,2.008,2.008,0,0,1-1.817-1.069,4.053,4.053,0,0,1-.534-2.122,4.186,4.186,0,0,1,.534-2.168A1.983,1.983,0,0,1,113.468,89.943Zm-38.486.122a2.025,2.025,0,0,1,1.74.885,3.707,3.707,0,0,1,.6,2.168,3.769,3.769,0,0,1-.641,2.29,2.038,2.038,0,0,1-1.756.87,1.981,1.981,0,0,1-1.572-.672,2.444,2.444,0,0,1-.6-1.664v-1.5a2.572,2.572,0,0,1,.092-.611,2.359,2.359,0,0,1,.794-1.282,2.11,2.11,0,0,1,1.344-.488Zm10.366,0a2.025,2.025,0,0,1,1.74.885,3.707,3.707,0,0,1,.6,2.168,3.769,3.769,0,0,1-.641,2.29,2.192,2.192,0,0,1-3.328.2,2.444,2.444,0,0,1-.6-1.664v-1.5a2.571,2.571,0,0,1,.092-.611A2.45,2.45,0,0,1,84,90.553a2.11,2.11,0,0,1,1.344-.488Z" transform="translate(-17.521 -66.937)" fill="#fff"/>
</svg>
