<svg id="bilding" xmlns="http://www.w3.org/2000/svg" width="24.602" height="24.602" viewBox="0 0 24.602 24.602">
  <rect id="Rectangle_4684" data-name="Rectangle 4684" width="1" height="1" transform="translate(10 9)" fill="#83858b"/>
  <rect id="Rectangle_4685" data-name="Rectangle 4685" width="1" height="1" transform="translate(12 9)" fill="#83858b"/>
  <rect id="Rectangle_4686" data-name="Rectangle 4686" width="1" height="1" transform="translate(14 9)" fill="#83858b"/>
  <rect id="Rectangle_4687" data-name="Rectangle 4687" width="1" height="1" transform="translate(16 9)" fill="#83858b"/>
  <rect id="Rectangle_4688" data-name="Rectangle 4688" width="1" height="1" transform="translate(10 11)" fill="#83858b"/>
  <rect id="Rectangle_4689" data-name="Rectangle 4689" width="1" height="1" transform="translate(12 11)" fill="#83858b"/>
  <rect id="Rectangle_4690" data-name="Rectangle 4690" width="1" height="1" transform="translate(14 11)" fill="#83858b"/>
  <rect id="Rectangle_4691" data-name="Rectangle 4691" width="1" height="1" transform="translate(16 11)" fill="#83858b"/>
  <rect id="Rectangle_4692" data-name="Rectangle 4692" width="1" height="1" transform="translate(10 13)" fill="#83858b"/>
  <rect id="Rectangle_4693" data-name="Rectangle 4693" width="1" height="1" transform="translate(12 13)" fill="#83858b"/>
  <rect id="Rectangle_4694" data-name="Rectangle 4694" width="1" height="1" transform="translate(14 13)" fill="#83858b"/>
  <rect id="Rectangle_4695" data-name="Rectangle 4695" width="1" height="1" transform="translate(16 13)" fill="#83858b"/>
  <rect id="Rectangle_4696" data-name="Rectangle 4696" width="1" height="1" transform="translate(10 15)" fill="#83858b"/>
  <rect id="Rectangle_4697" data-name="Rectangle 4697" width="1" height="1" transform="translate(12 15)" fill="#83858b"/>
  <rect id="Rectangle_4698" data-name="Rectangle 4698" width="1" height="1" transform="translate(14 15)" fill="#83858b"/>
  <rect id="Rectangle_4699" data-name="Rectangle 4699" width="1" height="1" transform="translate(16 15)" fill="#83858b"/>
  <rect id="Rectangle_4700" data-name="Rectangle 4700" width="1" height="1" transform="translate(2 12)" fill="#83858b"/>
  <rect id="Rectangle_4701" data-name="Rectangle 4701" width="1" height="1" transform="translate(4 12)" fill="#83858b"/>
  <rect id="Rectangle_4702" data-name="Rectangle 4702" width="1" height="1" transform="translate(6 12)" fill="#83858b"/>
  <rect id="Rectangle_4703" data-name="Rectangle 4703" width="1" height="1" transform="translate(2 14)" fill="#83858b"/>
  <rect id="Rectangle_4704" data-name="Rectangle 4704" width="1" height="1" transform="translate(4 14)" fill="#83858b"/>
  <rect id="Rectangle_4705" data-name="Rectangle 4705" width="1" height="1" transform="translate(6 14)" fill="#83858b"/>
  <rect id="Rectangle_4706" data-name="Rectangle 4706" width="1" height="1" transform="translate(2 16)" fill="#83858b"/>
  <rect id="Rectangle_4707" data-name="Rectangle 4707" width="1" height="1" transform="translate(4 16)" fill="#83858b"/>
  <rect id="Rectangle_4708" data-name="Rectangle 4708" width="1" height="1" transform="translate(6 16)" fill="#83858b"/>
  <rect id="Rectangle_4709" data-name="Rectangle 4709" width="1" height="1" transform="translate(2 18)" fill="#83858b"/>
  <rect id="Rectangle_4710" data-name="Rectangle 4710" width="1" height="1" transform="translate(4 18)" fill="#83858b"/>
  <rect id="Rectangle_4711" data-name="Rectangle 4711" width="1" height="1" transform="translate(6 18)" fill="#83858b"/>
  <rect id="Rectangle_4712" data-name="Rectangle 4712" width="2" height="1" transform="translate(21 11)" fill="#83858b"/>
  <rect id="Rectangle_4713" data-name="Rectangle 4713" width="2" height="1" transform="translate(21 9)" fill="#83858b"/>
  <rect id="Rectangle_4714" data-name="Rectangle 4714" width="2" height="1" transform="translate(21 13)" fill="#83858b"/>
  <rect id="Rectangle_4715" data-name="Rectangle 4715" width="2" height="1" transform="translate(21 15)" fill="#83858b"/>
  <rect id="Rectangle_4716" data-name="Rectangle 4716" width="2" height="1" transform="translate(21 17)" fill="#83858b"/>
  <rect id="Rectangle_4717" data-name="Rectangle 4717" width="2" height="1" transform="translate(21 19)" fill="#83858b"/>
  <rect id="Rectangle_4718" data-name="Rectangle 4718" width="2" height="1" transform="translate(21 21)" fill="#83858b"/>
  <path id="Path_18183" data-name="Path 18183" d="M24.064,5.1H23.039V7.14L19.451,4.628V7.663H17.914V4.075H15.351V1H14.326V4.075H11.763V7.663H9.2v3.075H3.05V9.925l.637-.637a2.562,2.562,0,0,0,3.225-.325L7.274,8.6,3.651,4.976l-.362.362a2.567,2.567,0,0,0-.326,3.225L2.025,9.5v1.237H1V25.6H25.6V8.933L24.064,7.857ZM3.713,6.488,5.763,8.538a1.571,1.571,0,0,1-1.75-.3A1.54,1.54,0,0,1,3.713,6.488ZM12.788,5.1h4.1V7.663h-4.1ZM9.2,24.576H2.025V11.763H9.2Zm4.613,0V20.989h2.05v3.588Zm5.638,0H16.889V19.964h-4.1v4.613H10.226V8.688h9.226Zm5.125,0h-4.1V6.6l4.1,2.87Z" transform="translate(-1 -1)" fill="#83858b"/>
</svg>
