<svg xmlns="http://www.w3.org/2000/svg" xmlns:xlink="http://www.w3.org/1999/xlink" width="496" height="260.264" viewBox="0 0 496 260.264">
  <defs>
    <linearGradient id="linear-gradient" x1="0.5" y1="1" x2="0.5" gradientUnits="objectBoundingBox">
      <stop offset="0" stop-color="gray" stop-opacity="0.251"/>
      <stop offset="0.54" stop-color="gray" stop-opacity="0.122"/>
      <stop offset="1" stop-color="gray" stop-opacity="0.102"/>
    </linearGradient>
    <linearGradient id="linear-gradient-2" x1="0.5" y1="1" x2="0.5" y2="-0.001" xlink:href="#linear-gradient"/>
  </defs>
  <g id="contact_us" transform="translate(0 0.359)">
    <circle id="Ellipse_956" data-name="Ellipse 956" cx="45.237" cy="45.237" r="45.237" transform="translate(206.202 129.768)" fill="#79bcc4" opacity="0.3"/>
    <path id="Path_19213" data-name="Path 19213" d="M776.958,300.86a45.255,45.255,0,1,0,45.233,45.24A45.256,45.256,0,0,0,776.958,300.86Zm0,84.456a39.223,39.223,0,1,1,39.223-39.223,39.223,39.223,0,0,1-39.223,39.223Z" transform="translate(-525.518 -171.088)" opacity="0.1"/>
    <g id="Group_10320" data-name="Group 10320" transform="translate(192.403 17.743)" opacity="0.1">
      <ellipse id="Ellipse_924" data-name="Ellipse 924" cx="5.15" cy="6.743" rx="5.15" ry="6.743" transform="translate(19.41 139.196)" fill="#3f3d56"/>
      <path id="Path_19086" data-name="Path 19086" d="M529.245,447.856a8.146,8.146,0,0,0,1.077-4.123c0-3.725-2.308-6.743-5.155-6.743S520,440.018,520,443.742a8.146,8.146,0,0,0,1.077,4.123,8.422,8.422,0,0,0,0,8.241,8.422,8.422,0,0,0,0,8.241A8.119,8.119,0,0,0,520,468.47c0,3.72,2.308,6.743,5.15,6.743s5.155-3.023,5.155-6.743a8.12,8.12,0,0,0-1.077-4.123,8.422,8.422,0,0,0,0-8.241,8.422,8.422,0,0,0,0-8.241Z" transform="translate(-500.607 -330.767)" fill="#3f3d56"/>
      <ellipse id="Ellipse_925" data-name="Ellipse 925" cx="5.15" cy="6.743" rx="5.15" ry="6.743" transform="translate(19.41 97.991)" fill="#3f3d56"/>
      <ellipse id="Ellipse_926" data-name="Ellipse 926" cx="5.15" cy="6.743" rx="5.15" ry="6.743" transform="translate(19.41 89.75)" fill="#3f3d56"/>
      <path id="Path_19087" data-name="Path 19087" d="M482.431,242.362a24.021,24.021,0,0,1-1.919-2.824l13.531-2.222-14.636.109a24.719,24.719,0,0,1-.453-19.55l19.636,10.187-18.1-13.314a24.678,24.678,0,1,1,40.73,27.606,24.686,24.686,0,0,1,2.815,4.5L506.461,256l18.731-6.286a24.678,24.678,0,0,1-3.978,23.171,24.673,24.673,0,1,1-38.784,0,24.673,24.673,0,0,1,0-30.511Z" transform="translate(-477.149 -202.271)" fill="#2f55d4"/>
      <path id="Path_19088" data-name="Path 19088" d="M526.5,324.13a24.56,24.56,0,0,1-5.281,15.256,24.673,24.673,0,1,1-38.784,0C479.123,335.186,526.5,321.36,526.5,324.13Z" transform="translate(-477.149 -268.783)" opacity="0.1"/>
    </g>
    <g id="Group_10321" data-name="Group 10321" transform="translate(258.735 40.295)" opacity="0.1">
      <ellipse id="Ellipse_927" data-name="Ellipse 927" cx="3.851" cy="5.037" rx="3.851" ry="5.037" transform="translate(14.504 103.932)" fill="#3f3d56"/>
      <path id="Path_19089" data-name="Path 19089" d="M662.656,435.439a6.077,6.077,0,0,0,.8-3.077c0-2.783-1.724-5.041-3.847-5.041s-3.851,2.263-3.851,5.041a6.033,6.033,0,0,0,.806,3.077,6.291,6.291,0,0,0,0,6.159,6.291,6.291,0,0,0,0,6.159,6.032,6.032,0,0,0-.805,3.077c0,2.783,1.724,5.041,3.851,5.041s3.847-2.263,3.847-5.041a6.077,6.077,0,0,0-.8-3.077,6.336,6.336,0,0,0,0-6.159A6.336,6.336,0,0,0,662.656,435.439Z" transform="translate(-641.26 -348.025)" fill="#3f3d56"/>
      <ellipse id="Ellipse_928" data-name="Ellipse 928" cx="3.851" cy="5.037" rx="3.851" ry="5.037" transform="translate(14.504 73.14)" fill="#3f3d56"/>
      <ellipse id="Ellipse_929" data-name="Ellipse 929" cx="3.851" cy="5.037" rx="3.851" ry="5.037" transform="translate(14.504 66.981)" fill="#3f3d56"/>
      <path id="Path_19090" data-name="Path 19090" d="M627.666,281.975a17.652,17.652,0,0,1-1.435-2.109l10.115-1.661-10.938.081a18.482,18.482,0,0,1-.353-14.613l14.676,7.617L626.2,261.334a18.442,18.442,0,1,1,30.452,20.637,18.644,18.644,0,0,1,2.1,3.363l-13.124,6.82,14-4.7a18.446,18.446,0,0,1-2.973,17.315,18.437,18.437,0,1,1-28.964,0,18.437,18.437,0,0,1,0-22.8Z" transform="translate(-623.72 -252.103)" fill="#2f55d4"/>
      <path id="Path_19091" data-name="Path 19091" d="M660.6,342.972a18.36,18.36,0,0,1-3.946,11.4,18.437,18.437,0,1,1-28.964,0C625.215,351.235,660.6,340.9,660.6,342.972Z" transform="translate(-623.731 -301.7)" opacity="0.1"/>
    </g>
    <g id="Group_10322" data-name="Group 10322" transform="translate(445.106 -0.359)" opacity="0.1">
      <ellipse id="Ellipse_930" data-name="Ellipse 930" cx="5.15" cy="6.743" rx="5.15" ry="6.743" transform="translate(19.758 139.196)" fill="#3f3d56"/>
      <path id="Path_19092" data-name="Path 19092" d="M1080.267,407.856a8.146,8.146,0,0,1-1.077-4.123c0-3.725,2.308-6.743,5.155-6.743s5.15,3.019,5.15,6.743a8.145,8.145,0,0,1-1.077,4.123,8.422,8.422,0,0,1,0,8.241,8.422,8.422,0,0,1,0,8.241,8.119,8.119,0,0,1,1.077,4.123c0,3.72-2.308,6.743-5.15,6.743s-5.155-3.023-5.155-6.743a8.119,8.119,0,0,1,1.077-4.123,8.422,8.422,0,0,1,0-8.241A8.422,8.422,0,0,1,1080.267,407.856Z" transform="translate(-1059.436 -290.767)" fill="#3f3d56"/>
      <ellipse id="Ellipse_931" data-name="Ellipse 931" cx="5.15" cy="6.743" rx="5.15" ry="6.743" transform="translate(19.758 97.991)" fill="#3f3d56"/>
      <ellipse id="Ellipse_932" data-name="Ellipse 932" cx="5.15" cy="6.743" rx="5.15" ry="6.743" transform="translate(19.758 89.75)" fill="#3f3d56"/>
      <path id="Path_19093" data-name="Path 19093" d="M1079.728,202.363a24.013,24.013,0,0,0,1.919-2.824l-13.531-2.222,14.636.109a24.719,24.719,0,0,0,.452-19.55l-19.636,10.187,18.1-13.314a24.678,24.678,0,1,0-40.73,27.606,24.685,24.685,0,0,0-2.815,4.5L1055.7,216l-18.731-6.286a24.677,24.677,0,0,0,3.978,23.171,24.673,24.673,0,1,0,38.784,0,24.673,24.673,0,0,0,0-30.511Z" transform="translate(-1035.541 -162.271)" fill="#2f55d4"/>
      <path id="Path_19094" data-name="Path 19094" d="M1035.81,284.13a24.56,24.56,0,0,0,5.281,15.256,24.673,24.673,0,1,0,38.784,0C1083.183,295.186,1035.81,281.36,1035.81,284.13Z" transform="translate(-1035.688 -228.783)" opacity="0.1"/>
    </g>
    <g id="Group_10323" data-name="Group 10323" transform="translate(401.758 37.58)" opacity="0.1">
      <ellipse id="Ellipse_933" data-name="Ellipse 933" cx="3.851" cy="5.037" rx="3.851" ry="5.037" transform="translate(14.687 103.932)" fill="#3f3d56"/>
      <path id="Path_19095" data-name="Path 19095" d="M973.031,429.439a6.077,6.077,0,0,1-.8-3.077c0-2.783,1.724-5.041,3.847-5.041s3.851,2.263,3.851,5.041a6.033,6.033,0,0,1-.806,3.077,6.29,6.29,0,0,1,0,6.159,6.29,6.29,0,0,1,0,6.159,6.033,6.033,0,0,1,.806,3.077c0,2.783-1.724,5.042-3.851,5.042s-3.847-2.263-3.847-5.042a6.077,6.077,0,0,1,.8-3.077,6.336,6.336,0,0,1,0-6.159A6.336,6.336,0,0,1,973.031,429.439Z" transform="translate(-957.534 -342.025)" fill="#3f3d56"/>
      <ellipse id="Ellipse_934" data-name="Ellipse 934" cx="3.851" cy="5.037" rx="3.851" ry="5.037" transform="translate(14.687 73.141)" fill="#3f3d56"/>
      <ellipse id="Ellipse_935" data-name="Ellipse 935" cx="3.851" cy="5.037" rx="3.851" ry="5.037" transform="translate(14.687 66.981)" fill="#3f3d56"/>
      <path id="Path_19096" data-name="Path 19096" d="M972.7,275.975a17.655,17.655,0,0,0,1.435-2.109l-10.115-1.661,10.938.081a18.482,18.482,0,0,0,.353-14.613l-14.676,7.617,13.536-9.956a18.442,18.442,0,1,0-30.452,20.636,18.644,18.644,0,0,0-2.1,3.362l13.124,6.82-13.97-4.693a18.446,18.446,0,0,0,2.973,17.315,18.437,18.437,0,1,0,28.963,0,18.437,18.437,0,0,0,0-22.8Z" transform="translate(-939.756 -246.103)" fill="#2f55d4"/>
      <path id="Path_19097" data-name="Path 19097" d="M939.789,336.972a18.36,18.36,0,0,0,3.946,11.4,18.437,18.437,0,1,0,28.963,0C975.178,345.235,939.789,334.9,939.789,336.972Z" transform="translate(-939.769 -295.7)" opacity="0.1"/>
    </g>
    <g id="Group_10324" data-name="Group 10324" transform="translate(3.308 -0.283)" opacity="0.1">
      <ellipse id="Ellipse_936" data-name="Ellipse 936" cx="5.15" cy="6.743" rx="5.15" ry="6.743" transform="translate(19.415 139.12)" fill="#3f3d56"/>
      <path id="Path_19098" data-name="Path 19098" d="M111.432,407.856a8.146,8.146,0,0,0,1.077-4.123c0-3.725-2.308-6.743-5.15-6.743s-5.15,3.019-5.15,6.743a8.146,8.146,0,0,0,1.073,4.123,8.449,8.449,0,0,0,0,8.241,8.449,8.449,0,0,0,0,8.241,8.114,8.114,0,0,0-1.073,4.123c0,3.72,2.3,6.743,5.15,6.743s5.164-3.014,5.164-6.734a8.119,8.119,0,0,0-1.077-4.123,8.422,8.422,0,0,0,0-8.241,8.422,8.422,0,0,0,0-8.241Z" transform="translate(-82.794 -290.843)" fill="#3f3d56"/>
      <ellipse id="Ellipse_937" data-name="Ellipse 937" cx="5.15" cy="6.743" rx="5.15" ry="6.743" transform="translate(19.415 97.915)" fill="#3f3d56"/>
      <ellipse id="Ellipse_938" data-name="Ellipse 938" cx="5.15" cy="6.743" rx="5.15" ry="6.743" transform="translate(19.415 89.674)" fill="#3f3d56"/>
      <path id="Path_19099" data-name="Path 19099" d="M64.6,202.454a24.585,24.585,0,0,1-1.919-2.824l13.536-2.222-14.649.131a24.719,24.719,0,0,1-.453-19.55l19.641,10.187-18.1-13.314a24.673,24.673,0,1,1,40.73,27.606,24.682,24.682,0,0,1,2.815,4.5l-17.577,9.128,18.736-6.286a24.7,24.7,0,0,1-3.982,23.171,24.673,24.673,0,1,1-38.784,0,24.673,24.673,0,0,1,0-30.511Z" transform="translate(-59.309 -162.439)" fill="#2f55d4"/>
      <path id="Path_19100" data-name="Path 19100" d="M108.656,284.13a24.56,24.56,0,0,1-5.281,15.256,24.673,24.673,0,1,1-38.784,0C61.283,295.186,108.656,281.36,108.656,284.13Z" transform="translate(-59.309 -228.859)" opacity="0.1"/>
    </g>
    <g id="Group_10325" data-name="Group 10325" transform="translate(59.231 37.58)" opacity="0.1">
      <ellipse id="Ellipse_939" data-name="Ellipse 939" cx="3.851" cy="5.037" rx="3.851" ry="5.037" transform="translate(14.504 103.932)" fill="#3f3d56"/>
      <path id="Path_19101" data-name="Path 19101" d="M221.827,429.439a6.078,6.078,0,0,0,.8-3.077c0-2.783-1.72-5.041-3.847-5.041s-3.851,2.263-3.851,5.041a6.078,6.078,0,0,0,.806,3.077,6.291,6.291,0,0,0,0,6.159,6.291,6.291,0,0,0,0,6.159,6.078,6.078,0,0,0-.806,3.077c0,2.783,1.724,5.041,3.851,5.041s3.847-2.263,3.847-5.042a6.078,6.078,0,0,0-.8-3.077,6.336,6.336,0,0,0,0-6.159,6.336,6.336,0,0,0,0-6.159Z" transform="translate(-200.425 -342.025)" fill="#3f3d56"/>
      <ellipse id="Ellipse_940" data-name="Ellipse 940" cx="3.851" cy="5.037" rx="3.851" ry="5.037" transform="translate(14.504 73.141)" fill="#3f3d56"/>
      <ellipse id="Ellipse_941" data-name="Ellipse 941" cx="3.851" cy="5.037" rx="3.851" ry="5.037" transform="translate(14.504 66.981)" fill="#3f3d56"/>
      <path id="Path_19102" data-name="Path 19102" d="M186.826,275.975a18.2,18.2,0,0,1-1.435-2.109l10.115-1.661-10.938.081a18.482,18.482,0,0,1-.353-14.613l14.676,7.616-13.536-9.956a18.442,18.442,0,1,1,30.452,20.636,18.156,18.156,0,0,1,2.1,3.362l-13.124,6.82,14-4.7a18.446,18.446,0,0,1-2.973,17.315,18.437,18.437,0,1,1-28.964,0,18.437,18.437,0,0,1,0-22.8Z" transform="translate(-182.88 -246.103)" fill="#2f55d4"/>
      <path id="Path_19103" data-name="Path 19103" d="M219.765,336.972a18.36,18.36,0,0,1-3.946,11.4,18.437,18.437,0,1,1-28.963,0C184.366,345.235,219.765,334.9,219.765,336.972Z" transform="translate(-182.891 -295.7)" opacity="0.1"/>
    </g>
    <ellipse id="Ellipse_942" data-name="Ellipse 942" cx="248" cy="4.01" rx="248" ry="4.01" transform="translate(0 218.962)" fill="#2f55d4" opacity="0.1"/>
    <ellipse id="Ellipse_943" data-name="Ellipse 943" cx="248" cy="4.01" rx="248" ry="4.01" transform="translate(0 251.886)" fill="#2f55d4" opacity="0.1"/>
    <ellipse id="Ellipse_944" data-name="Ellipse 944" cx="248" cy="4.01" rx="248" ry="4.01" transform="translate(0 150.251)" fill="#2f55d4" opacity="0.1"/>
    <ellipse id="Ellipse_945" data-name="Ellipse 945" cx="248" cy="4.01" rx="248" ry="4.01" transform="translate(0 184.604)" fill="#2f55d4" opacity="0.1"/>
    <path id="Path_19104" data-name="Path 19104" d="M830.774,259.664a8.281,8.281,0,0,0-4.8.525,7.083,7.083,0,0,1-5.766,0,8.092,8.092,0,0,0-6.788.131,4.181,4.181,0,0,1-1.951.489c-2.752,0-5.037-2.77-5.512-6.422a5.376,5.376,0,0,0,1.358-1.48,7.724,7.724,0,0,1,13.789-.05,5.286,5.286,0,0,0,4.566,2.507h.072C827.959,255.342,829.855,257.1,830.774,259.664Z" transform="translate(-464.752 -209.912)" fill="#2f55d4" opacity="0.1"/>
    <path id="Path_19105" data-name="Path 19105" d="M839.139,235.831l-4.444,2.815,2.715-4.906a4.39,4.39,0,0,0-2.688-.955h-.072a5.138,5.138,0,0,1-.905-.068l-1.53.955.647-1.177a5.335,5.335,0,0,1-2.638-2l-2.715,1.711,1.7-3.1a7.886,7.886,0,0,0-6.037-3.05,8.281,8.281,0,0,0-6.915,4.263,5.164,5.164,0,0,1-4.566,2.462h-.149c-3.1,0-5.6,3.507-5.6,7.834s2.507,7.838,5.6,7.838a4.25,4.25,0,0,0,1.951-.489,8.083,8.083,0,0,1,6.788-.136,7.037,7.037,0,0,0,5.766,0,8.11,8.11,0,0,1,6.725.131,4.209,4.209,0,0,0,1.928.48c3.1,0,5.6-3.512,5.6-7.838A9.925,9.925,0,0,0,839.139,235.831Z" transform="translate(-464.741 -197.551)" fill="#2f55d4" opacity="0.1"/>
    <path id="Path_19106" data-name="Path 19106" d="M422.26,258.256a5.811,5.811,0,0,0-3.362.367,4.942,4.942,0,0,1-4.032,0,5.648,5.648,0,0,0-4.747.1,3,3,0,0,1-1.358.339c-1.923,0-3.525-1.937-3.86-4.494a3.766,3.766,0,0,0,.964-1.036,5.408,5.408,0,0,1,9.653-.036,3.707,3.707,0,0,0,3.2,1.756h.05C420.287,255.238,421.613,256.468,422.26,258.256Z" transform="translate(-245.193 -210.952)" fill="#2f55d4" opacity="0.1"/>
    <path id="Path_19107" data-name="Path 19107" d="M428.11,241.583,425,243.556l1.887-3.435a3.055,3.055,0,0,0-1.878-.67h-.054a3.39,3.39,0,0,1-.643-.05l-1.054.67.453-.824a3.756,3.756,0,0,1-1.846-1.4l-1.887,1.195,1.195-2.163a5.526,5.526,0,0,0-4.227-2.141,5.789,5.789,0,0,0-4.838,2.987,3.62,3.62,0,0,1-3.2,1.724h-.1c-2.168,0-3.924,2.453-3.924,5.485s1.756,5.485,3.924,5.485a2.942,2.942,0,0,0,1.358-.344,5.657,5.657,0,0,1,4.743-.091,4.861,4.861,0,0,0,4.037.027,5.675,5.675,0,0,1,4.707.09,2.933,2.933,0,0,0,1.358.335c2.163,0,3.919-2.457,3.919-5.485A6.938,6.938,0,0,0,428.11,241.583Z" transform="translate(-245.182 -202.303)" fill="#2f55d4" opacity="0.1"/>
    <path id="Path_19108" data-name="Path 19108" d="M321.59,336.666a5.8,5.8,0,0,1,3.358.367,4.951,4.951,0,0,0,4.037,0,5.666,5.666,0,0,1,4.747.091,2.927,2.927,0,0,0,1.358.344c1.923,0,3.525-1.941,3.856-4.5a3.688,3.688,0,0,1-.959-1.036,5.413,5.413,0,0,0-9.658-.032,3.707,3.707,0,0,1-3.2,1.756h-.05C323.559,333.666,322.228,334.892,321.59,336.666Z" transform="translate(-199.586 -253.878)" fill="#2f55d4" opacity="0.1"/>
    <path id="Path_19109" data-name="Path 19109" d="M307.66,320.028,310.773,322l-1.892-3.43a3.073,3.073,0,0,1,1.883-.674h.05a3.854,3.854,0,0,0,.647-.045l1.054.665-.453-.819a3.752,3.752,0,0,0,1.842-1.4l1.887,1.195-1.177-2.168a5.521,5.521,0,0,1,4.227-2.136,5.794,5.794,0,0,1,4.838,2.987,3.621,3.621,0,0,0,3.2,1.724h.109c2.163,0,3.919,2.457,3.919,5.485s-1.756,5.485-3.919,5.485a2.938,2.938,0,0,1-1.358-.339,5.648,5.648,0,0,0-4.747-.1,4.915,4.915,0,0,1-2.027.453,4.978,4.978,0,0,1-2.009-.425,5.666,5.666,0,0,0-4.7.09,2.932,2.932,0,0,1-1.358.335c-2.168,0-3.924-2.453-3.924-5.485a6.988,6.988,0,0,1,.8-3.376Z" transform="translate(-191.52 -245.25)" fill="#2f55d4" opacity="0.1"/>
    <path id="Path_19110" data-name="Path 19110" d="M710.167,594.6c1.181-2.19-.158-4.87-1.7-6.82s-3.421-3.983-3.381-6.467c.059-3.571,3.851-5.684,6.879-7.576a33.625,33.625,0,0,0,6.177-4.978,9.109,9.109,0,0,0,1.9-2.543,10.287,10.287,0,0,0,.57-4.526q-.195-7.644-.756-15.278" transform="translate(-409.53 -372.925)" fill="none" stroke="#3f3d56" stroke-miterlimit="10" stroke-width="4"/>
    <path id="Path_19111" data-name="Path 19111" d="M736.979,539.422a5.571,5.571,0,0,0-2.783-4.566l-1.249,2.466.041-2.987a5.571,5.571,0,1,0,3.992,5.087Z" transform="translate(-420.892 -366.19)" fill="#40a3af"/>
    <path id="Path_19112" data-name="Path 19112" d="M715.758,619.406a5.571,5.571,0,0,1-10.517-2.263,5.431,5.431,0,0,1,.362-2.263,5.575,5.575,0,0,1,10.409.059l-3.48,2.833,3.829-.905A5.539,5.539,0,0,1,715.758,619.406Z" transform="translate(-409.609 -408.467)" fill="#40a3af"/>
    <path id="Path_19113" data-name="Path 19113" d="M715.353,591.8a5.571,5.571,0,0,1-1.765-10.929l-.032,2.294,1.263-2.5h0a5.572,5.572,0,0,1,.521,11.133Z" transform="translate(-411.956 -391.673)" fill="#40a3af"/>
    <path id="Path_19114" data-name="Path 19114" d="M745.213,571.911a5.571,5.571,0,1,1,2.462-10.409l-.982,2.715,2-1.982a5.571,5.571,0,0,1-3.5,9.671Z" transform="translate(-428.289 -380.79)" fill="#40a3af"/>
    <path id="Path_19115" data-name="Path 19115" d="M736.217,544.6c-1.285.14-2.534.539-3.829.62a4.143,4.143,0,0,1-3.521-1.231,17.865,17.865,0,0,1-1.032-1.81,3.965,3.965,0,0,0-1.4-1.321,5.571,5.571,0,1,0,10.409,3.7C736.638,544.566,736.426,544.58,736.217,544.6Z" transform="translate(-420.882 -369.887)" opacity="0.1"/>
    <path id="Path_19116" data-name="Path 19116" d="M745.242,575.767a5.571,5.571,0,0,1-5.3-7.947,4.123,4.123,0,0,1,1.118,1.122,18.88,18.88,0,0,0,1.1,1.842,4.545,4.545,0,0,0,3.7,1.29c1.344-.068,2.643-.453,3.982-.566.186,0,.371-.027.561-.032A5.571,5.571,0,0,1,745.242,575.767Z" transform="translate(-428.318 -384.646)" opacity="0.1"/>
    <path id="Path_19117" data-name="Path 19117" d="M715.356,595.783a5.571,5.571,0,0,1-5.345-7.843,4.526,4.526,0,0,1,1.181,1.131,18.654,18.654,0,0,0,1.208,1.878,5.045,5.045,0,0,0,3.942,1.358c1.421-.059,2.715-.367,4.073-.453a5.58,5.58,0,0,1-5.06,3.928Z" transform="translate(-411.958 -395.66)" fill="#40a3af" opacity="0.1"/>
    <path id="Path_19118" data-name="Path 19118" d="M715.758,623.7a5.571,5.571,0,0,1-10.517-2.263,5.431,5.431,0,0,1,.362-2.263,5.562,5.562,0,0,1,1.222,1.091c.529.643.878,1.358,1.493,1.978a6.962,6.962,0,0,0,4.612,1.62,23.4,23.4,0,0,0,2.828-.163Z" transform="translate(-409.609 -412.757)" fill="#40a3af" opacity="0.1"/>
    <path id="Path_19119" data-name="Path 19119" d="M100.167,522.6c1.181-2.19-.158-4.869-1.7-6.82s-3.421-3.992-3.381-6.467c.059-3.571,3.851-5.684,6.879-7.576a33.625,33.625,0,0,0,6.177-4.978,9.111,9.111,0,0,0,1.9-2.543,10.286,10.286,0,0,0,.57-4.526q-.2-7.644-.756-15.278" transform="translate(-75.589 -333.509)" fill="none" stroke="#3f3d56" stroke-miterlimit="10" stroke-width="4"/>
    <path id="Path_19120" data-name="Path 19120" d="M126.979,467.422a5.571,5.571,0,0,0-2.783-4.566l-1.249,2.466.041-2.987a5.571,5.571,0,1,0,3.992,5.087Z" transform="translate(-86.951 -326.774)" fill="#40a3af"/>
    <path id="Path_19121" data-name="Path 19121" d="M105.758,547.406a5.571,5.571,0,0,1-10.517-2.263,5.431,5.431,0,0,1,.362-2.263,5.575,5.575,0,0,1,10.409.059l-3.48,2.833,3.829-.905A5.539,5.539,0,0,1,105.758,547.406Z" transform="translate(-75.667 -369.051)" fill="#40a3af"/>
    <path id="Path_19122" data-name="Path 19122" d="M105.353,519.8a5.571,5.571,0,0,1-1.765-10.929l-.032,2.294,1.263-2.5h0a5.573,5.573,0,1,1,.52,11.133Z" transform="translate(-78.014 -352.257)" fill="#40a3af"/>
    <path id="Path_19123" data-name="Path 19123" d="M135.213,499.911a5.571,5.571,0,1,1,2.462-10.409l-.982,2.715,2-1.982a5.571,5.571,0,0,1-3.5,9.671Z" transform="translate(-94.347 -341.374)" fill="#40a3af"/>
    <path id="Path_19124" data-name="Path 19124" d="M126.217,472.6c-1.285.14-2.534.539-3.829.62a4.142,4.142,0,0,1-3.521-1.231,17.864,17.864,0,0,1-1.032-1.81,3.964,3.964,0,0,0-1.4-1.321,5.571,5.571,0,1,0,10.409,3.7C126.638,472.566,126.426,472.58,126.217,472.6Z" transform="translate(-86.94 -330.471)" fill="#40a3af" opacity="0.1"/>
    <path id="Path_19125" data-name="Path 19125" d="M135.242,503.767a5.571,5.571,0,0,1-5.3-7.947,4.123,4.123,0,0,1,1.118,1.122,18.882,18.882,0,0,0,1.1,1.842,4.545,4.545,0,0,0,3.7,1.29c1.344-.068,2.643-.453,3.982-.566.186,0,.371-.027.561-.032A5.571,5.571,0,0,1,135.242,503.767Z" transform="translate(-94.377 -345.23)" fill="#40a3af" opacity="0.1"/>
    <path id="Path_19126" data-name="Path 19126" d="M105.356,523.783a5.571,5.571,0,0,1-5.345-7.843,4.525,4.525,0,0,1,1.181,1.131,18.663,18.663,0,0,0,1.208,1.878,5.045,5.045,0,0,0,3.942,1.358c1.421-.059,2.715-.367,4.073-.453A5.58,5.58,0,0,1,105.356,523.783Z" transform="translate(-78.017 -356.244)" opacity="0.1"/>
    <path id="Path_19127" data-name="Path 19127" d="M105.758,551.7a5.571,5.571,0,0,1-10.517-2.263,5.431,5.431,0,0,1,.362-2.263,5.563,5.563,0,0,1,1.222,1.091c.529.643.878,1.358,1.493,1.978a6.962,6.962,0,0,0,4.612,1.62A23.4,23.4,0,0,0,105.758,551.7Z" transform="translate(-75.667 -373.341)" opacity="0.1"/>
    <path id="Path_19128" data-name="Path 19128" d="M499.867,440.239c-1.181-2.186.158-4.865,1.7-6.815s3.417-3.982,3.376-6.467c-.054-3.575-3.847-5.684-6.879-7.576a33.49,33.49,0,0,1-6.173-4.978,8.951,8.951,0,0,1-1.9-2.539,10.429,10.429,0,0,1-.57-4.526q.2-7.644.756-15.278" transform="translate(-291.457 -288.427)" fill="none" stroke="#3f3d56" stroke-miterlimit="10" stroke-width="4"/>
    <path id="Path_19129" data-name="Path 19129" d="M478.383,385.062a5.567,5.567,0,0,1,2.779-4.566l1.249,2.466-.036-2.987a5.71,5.71,0,0,1,1.833-.222,5.571,5.571,0,1,1-5.824,5.308Z" transform="translate(-285.418 -281.687)" fill="#40a3af"/>
    <path id="Path_19130" data-name="Path 19130" d="M499.6,464.991a5.571,5.571,0,1,0-.267-4.485l3.48,2.833-3.829-.905A5.54,5.54,0,0,0,499.6,464.991Z" transform="translate(-296.697 -323.909)" fill="#40a3af"/>
    <path id="Path_19131" data-name="Path 19131" d="M500,437.435a5.571,5.571,0,0,0,1.77-10.929l.027,2.294-1.263-2.5h0a5.571,5.571,0,0,0-5.838,5.29,5.5,5.5,0,0,0,.24,1.9A5.566,5.566,0,0,0,500,437.435Z" transform="translate(-294.346 -307.168)" fill="#40a3af"/>
    <path id="Path_19132" data-name="Path 19132" d="M470.1,417.531a5.571,5.571,0,1,0-2.466-10.409l.987,2.715-2.027-1.941a5.526,5.526,0,0,0-1.81,3.847,5.389,5.389,0,0,0,.14,1.534,5.566,5.566,0,0,0,5.177,4.254Z" transform="translate(-277.971 -296.275)" fill="#40a3af"/>
    <path id="Path_19133" data-name="Path 19133" d="M479.294,390.243c1.285.14,2.534.539,3.824.62a4.161,4.161,0,0,0,3.525-1.231,17.834,17.834,0,0,0,1.027-1.81,3.978,3.978,0,0,1,1.407-1.321,5.571,5.571,0,1,1-10.409,3.7C478.874,390.2,479.082,390.22,479.294,390.243Z" transform="translate(-285.578 -285.383)" fill="#40a3af" opacity="0.1"/>
    <path id="Path_19134" data-name="Path 19134" d="M470.294,421.387a5.575,5.575,0,0,0,5.3-7.947,4.143,4.143,0,0,0-1.122,1.122,18.875,18.875,0,0,1-1.1,1.842,4.53,4.53,0,0,1-3.693,1.29c-1.344-.068-2.643-.453-3.982-.566-.186,0-.376-.027-.561-.032A5.566,5.566,0,0,0,470.294,421.387Z" transform="translate(-278.166 -300.131)" opacity="0.1"/>
    <path id="Path_19135" data-name="Path 19135" d="M500.3,441.423a5.566,5.566,0,0,0,5.345-7.843,4.448,4.448,0,0,0-1.177,1.131,18.67,18.67,0,0,1-1.208,1.878,5.055,5.055,0,0,1-3.946,1.358c-1.426-.059-2.715-.367-4.073-.453a5.567,5.567,0,0,0,5.06,3.928Z" transform="translate(-294.65 -311.157)" opacity="0.1"/>
    <path id="Path_19136" data-name="Path 19136" d="M500.34,469.336a5.571,5.571,0,0,0,10.16-4.526,5.349,5.349,0,0,0-1.222,1.091c-.529.643-.905,1.358-1.493,1.978a6.974,6.974,0,0,1-4.616,1.62,24.416,24.416,0,0,1-2.828-.163Z" transform="translate(-297.442 -328.253)" opacity="0.1"/>
    <circle id="Ellipse_946" data-name="Ellipse 946" cx="45.237" cy="45.237" r="45.237" transform="translate(307.633 62.356)" fill="#79bcc4" opacity="0.3"/>
    <path id="Path_19137" data-name="Path 19137" d="M826.208,387.534a34.272,34.272,0,0,0-7.241-4.838c-2.168-1.041-2.964-1.023-4.5.086-1.276.905-2.1,1.779-3.571,1.457s-4.372-2.512-7.182-5.313-4.992-5.689-5.3-7.178.548-2.3,1.462-3.575c1.1-1.534,1.136-2.331.086-4.5a34.706,34.706,0,0,0-4.842-7.241c-1.589-1.584-1.932-1.236-2.8-.905a16.2,16.2,0,0,0-2.566,1.358,7.742,7.742,0,0,0-3.077,3.254c-.62,1.321-1.321,3.774,2.285,10.2a56.883,56.883,0,0,0,10,13.337h0a56.965,56.965,0,0,0,13.382,10.02c6.417,3.62,8.875,2.9,10.2,2.285a7.6,7.6,0,0,0,3.249-3.077,15.993,15.993,0,0,0,1.358-2.566C827.443,389.467,827.8,389.114,826.208,387.534Z" transform="translate(-453.918 -268.274)" fill="#40a3af"/>
    <path id="Path_19138" data-name="Path 19138" d="M776.958,300.86a45.255,45.255,0,1,0,45.233,45.24A45.256,45.256,0,0,0,776.958,300.86Zm0,84.456a39.223,39.223,0,1,1,39.223-39.223,39.223,39.223,0,0,1-39.223,39.223Z" transform="translate(-424.088 -238.5)" opacity="0.1"/>
    <path id="Path_19139" data-name="Path 19139" d="M596.143,522.324,582.6,536.1a.244.244,0,0,0,0,.353l9.5,10.106a1.635,1.635,0,1,1-2.313,2.313l-9.454-10.069a.258.258,0,0,0-.362,0l-2.3,2.326a10.124,10.124,0,0,1-7.241,3.046,10.345,10.345,0,0,1-7.368-3.132l-2.213-2.263a.258.258,0,0,0-.362,0l-9.431,10.047a1.635,1.635,0,1,1-2.313-2.313l9.467-10.083a.271.271,0,0,0,0-.353L544.665,522.3a.249.249,0,0,0-.425.176v27.574a4.037,4.037,0,0,0,4.023,4.023h44.292a4.037,4.037,0,0,0,4.023-4.023V522.5a.249.249,0,0,0-.434-.177Z" transform="translate(-321.474 -359.686)" fill="#40a3af"/>
    <path id="Path_19140" data-name="Path 19140" d="M572.283,535.651a6.852,6.852,0,0,0,4.942-2.036l19.727-20.08a3.937,3.937,0,0,0-2.489-.905H550.139a3.91,3.91,0,0,0-2.489.905l19.731,20.08A6.825,6.825,0,0,0,572.283,535.651Z" transform="translate(-323.341 -354.432)" fill="#40a3af"/>
    <circle id="Ellipse_948" data-name="Ellipse 948" cx="45.237" cy="45.237" r="45.237" transform="translate(96.344 97.284)" fill="#79bcc4" opacity="0.3"/>
    <path id="Path_19142" data-name="Path 19142" d="M343.034,430.16,325,471.768l1.684,1.683,16.355-7.214,16.355,7.214,1.684-1.684Z" transform="translate(-201.453 -309.284)" fill="#40a3af"/>
    <path id="Path_19143" data-name="Path 19143" d="M310.078,378a45.229,45.229,0,1,0,.008,0Zm0,84.456a32.281,32.281,0,1,1,0,.018Z" transform="translate(-168.496 -280.73)" fill="#83858b" opacity="0.1"/>
    <path id="Path_19144" data-name="Path 19144" d="M814.8,580.11q-.616-1.5-1.263-3a8.891,8.891,0,0,0-1.543-2.666,2.823,2.823,0,0,0-.905-.679,3.859,3.859,0,0,0-1.181-.235,9.428,9.428,0,0,0-1.856-.05c-.24-.072-.511-.167-.778-.276a6.463,6.463,0,0,0,4.815-6c0-.091,0-.185,0-.276a6.449,6.449,0,0,0-6.422-6.476,6.336,6.336,0,0,0-3.371.964,6.051,6.051,0,0,0-6.788,3.272,7.48,7.48,0,0,0-2.308,5.566c0,.1,0,.195,0,.285.118,3.516,2.39,6.336,5.259,6.621a3.013,3.013,0,0,0-.833.557,5.15,5.15,0,0,0-1.118,3.412l-.068.905-1.521.543a.281.281,0,0,0-.068.493l1.453,1.036v.258a1.13,1.13,0,0,0,.027.294,2.078,2.078,0,0,0-.561.8,3.7,3.7,0,0,0-.131,1.466l.054,1.263a9.919,9.919,0,0,0,.385,2.81c.19.561,1.014,1.914,1.607,1.923a58.548,58.548,0,0,0-.692,7.739c-.068.068.122.131.453.186.326,2.5,1.389,9.5,3.276,12.586a26.55,26.55,0,0,1,.711,3.059s.539,6.657,1.249,8.635a43.962,43.962,0,0,1,1.217,7.042.692.692,0,0,0-.5.516c-.358,1.077-2.675,2.715-2.675,2.715a11.206,11.206,0,0,0-2,1.281c-.729.656-.7,1.249,2.534.878,6.245-.72,7.313-2.715,7.313-2.715s-.1-.335-.249-.769a8.357,8.357,0,0,0-.819-1.932c-.091-.086-.181.059-.29.285a38.748,38.748,0,0,1-.425-8.739,14.176,14.176,0,0,0-.715-5.218,9.881,9.881,0,0,1,0-3.417c.358-1.439-1.426-8.458-1.426-8.458l-1.023-5.168a1.484,1.484,0,0,1,.285.6l.027.1.027.149a.281.281,0,0,0,.072.14c.7,2.9,2.607,10.92,2.607,12.1,0,1.439,1.783,5.037,1.783,5.037s.711,5.938,1.96,8.273a11.994,11.994,0,0,1,.928,5.535h0a5.126,5.126,0,0,1-.57,1.837,4.369,4.369,0,0,0-.674,1.172l-.041.086s-.534,1.082-.177,1.263a8.766,8.766,0,0,0,4.281.539s.715-.905.715-1.258a5.661,5.661,0,0,0-.081-.643c-.131-.851-.376-2.19-.38-2.2a6.178,6.178,0,0,0-.453-2.19l-.181-5.037a23.251,23.251,0,0,0-1.249-10.078s-.905-3.236-.711-4.136-.357-10.436-.357-10.436l-.054-.136a10.3,10.3,0,0,1,.054-2.023,26.872,26.872,0,0,0-.715-6.834,5.931,5.931,0,0,1-.253-1.489c.041-.376.163-1.475.33-2.842a51.092,51.092,0,0,0,5.259-.453.656.656,0,0,0,.453-.181.634.634,0,0,0,.1-.367C816.817,585.251,815.826,582.617,814.8,580.11Zm-3.589,5.707c.186-1.29.385-2.539.584-3.467l.027.081a25.176,25.176,0,0,1,.86,2.851A9.7,9.7,0,0,1,811.21,585.817Z" transform="translate(-457.764 -380.617)" fill="url(#linear-gradient)"/>
    <path id="Path_19145" data-name="Path 19145" d="M802.37,648.253s1.068,9.608,3.381,13.341a25.9,25.9,0,0,1,.71,3.023s.534,6.58,1.245,8.535a47.083,47.083,0,0,1,1.245,7.3s2.489,2.842,3.381.534a37.483,37.483,0,0,1-.534-9.25,13.929,13.929,0,0,0-.71-5.159,9.651,9.651,0,0,1,0-3.376c.353-1.426-1.426-8.359-1.426-8.359L808.24,647.9Z" transform="translate(-462.786 -428.485)" fill="#be6f72"/>
    <path id="Path_19146" data-name="Path 19146" d="M814.786,721.668s-1.068,1.955-7.291,2.666c-3.231.367-3.254-.217-2.525-.869a11.267,11.267,0,0,1,1.991-1.267s2.313-1.6,2.666-2.666,1.6-.177,1.6-.177c1.779,2.666,2.136-.715,2.489-.358a8.027,8.027,0,0,1,.819,1.905C814.687,721.333,814.786,721.668,814.786,721.668Z" transform="translate(-463.998 -467.392)" fill="#ff6f61"/>
    <path id="Path_19147" data-name="Path 19147" d="M814.786,724s-1.068,1.955-7.291,2.666c-3.231.367-3.254-.217-2.525-.869.507.321,1.53.453,3.589-.376,2.964-1.213,5.114-1.914,5.978-2.186C814.687,723.67,814.786,724,814.786,724Z" transform="translate(-463.998 -469.73)" opacity="0.1"/>
    <path id="Path_19148" data-name="Path 19148" d="M817.408,671.732a13.931,13.931,0,0,0-.711-5.159,9.648,9.648,0,0,1,0-3.376c.353-1.426-1.426-8.359-1.426-8.359l-1.421-6.938-1.231.072,1.407,6.865s1.779,6.933,1.426,8.359a9.645,9.645,0,0,0,0,3.376,13.523,13.523,0,0,1,.71,5.159,37.483,37.483,0,0,0,.534,9.25,1.557,1.557,0,0,1-.516.733,1.163,1.163,0,0,0,1.76-.733A37.483,37.483,0,0,1,817.408,671.732Z" transform="translate(-468.398 -428.485)" opacity="0.1"/>
    <path id="Path_19149" data-name="Path 19149" d="M805.578,562.42a6.336,6.336,0,0,0-3.358.955,6.042,6.042,0,0,0-6.788,3.236,7.367,7.367,0,0,0-2.3,5.5c0,3.783,2.548,6.847,5.689,6.847a5.745,5.745,0,0,0,5.155-3.942,6.247,6.247,0,0,0,1.6.208,6.4,6.4,0,1,0,0-12.807Z" transform="translate(-457.726 -381.689)" fill="#3f3d56"/>
    <path id="Path_19150" data-name="Path 19150" d="M823.6,650.65l.534,1.421s.534,9.427.353,10.318.715,4.073.715,4.073a22.768,22.768,0,0,1,1.245,9.956l.177,4.978s.711,1.955.358,2.313-3.037-.317-3.037-.317.357-3.734-.905-6.046-1.955-8.182-1.955-8.182-1.779-3.557-1.779-4.978S816.46,651.2,816.46,651.2Z" transform="translate(-470.5 -429.991)" fill="#be6f72"/>
    <path id="Path_19151" data-name="Path 19151" d="M801.563,636.716s.181-6.4.905-8.359a13.275,13.275,0,0,0,.792-2.838s10.766,1.946,11.658,1.235a15.441,15.441,0,0,0,.358,2.666,25.572,25.572,0,0,1,.71,6.761c-.195,2.136,0,2.132,0,2.132s-7.3,1.068-7.472,0-.71-1.063-.71-1.063S801.21,637.051,801.563,636.716Z" transform="translate(-462.337 -416.233)" fill="#3f3d56"/>
    <g id="Group_10326" data-name="Group 10326" transform="translate(339.226 210.522)" opacity="0.1">
      <path id="Path_19152" data-name="Path 19152" d="M807.449,649.817s-4.5-.122-5.856-.367v.367c-.353.353,6.227.534,6.227.534a.453.453,0,0,1,.244.1C807.825,649.817,807.449,649.817,807.449,649.817Z" transform="translate(-801.58 -639.856)"/>
      <path id="Path_19153" data-name="Path 19153" d="M823.605,630.916a15.441,15.441,0,0,1-.358-2.666.765.765,0,0,1-.3.109,8.991,8.991,0,0,0,.3,2.023,28.244,28.244,0,0,1,.711,6.761c-.195,2.136,0,2.132,0,2.132s-5.77.846-7.168.281a2.15,2.15,0,0,0,.054.253c.177,1.068,7.472,0,7.472,0s-.181,0,0-2.132A26.441,26.441,0,0,0,823.605,630.916Z" transform="translate(-809.906 -628.25)"/>
      <path id="Path_19154" data-name="Path 19154" d="M807.449,649.817s-4.5-.122-5.856-.367v.367c-.353.353,6.227.534,6.227.534a.453.453,0,0,1,.244.1C807.825,649.817,807.449,649.817,807.449,649.817Z" transform="translate(-801.58 -639.856)"/>
      <path id="Path_19155" data-name="Path 19155" d="M823.605,630.916a15.441,15.441,0,0,1-.358-2.666.765.765,0,0,1-.3.109,8.991,8.991,0,0,0,.3,2.023,28.244,28.244,0,0,1,.711,6.761c-.195,2.136,0,2.132,0,2.132s-5.77.846-7.168.281a2.15,2.15,0,0,0,.054.253c.177,1.068,7.472,0,7.472,0s-.181,0,0-2.132A26.441,26.441,0,0,0,823.605,630.916Z" transform="translate(-809.906 -628.25)"/>
    </g>
    <path id="Path_19156" data-name="Path 19156" d="M814.269,584.968a2.358,2.358,0,0,0,.679.878,1.522,1.522,0,0,0,.638.276c-.4.231-.833.4-1.231.634a21.87,21.87,0,0,0-1.81,1.358,3.684,3.684,0,0,1-2.077.806,2.543,2.543,0,0,0,.29-2.53,2.363,2.363,0,0,1-.317-.878,1.577,1.577,0,0,1,.873-1.177c.339-.231.688-.453,1.041-.674.276-.172.692-.534,1.041-.521s.389.321.453.638A5.017,5.017,0,0,0,814.269,584.968Z" transform="translate(-467.204 -393.032)" fill="#be6f72"/>
    <path id="Path_19157" data-name="Path 19157" d="M814.269,584.968a2.358,2.358,0,0,0,.679.878,1.522,1.522,0,0,0,.638.276c-.4.231-.833.4-1.231.634a21.87,21.87,0,0,0-1.81,1.358,3.684,3.684,0,0,1-2.077.806,2.543,2.543,0,0,0,.29-2.53,2.363,2.363,0,0,1-.317-.878,1.577,1.577,0,0,1,.873-1.177c.339-.231.688-.453,1.041-.674.276-.172.692-.534,1.041-.521s.389.321.453.638A5.017,5.017,0,0,0,814.269,584.968Z" transform="translate(-467.204 -393.032)" opacity="0.1"/>
    <circle id="Ellipse_949" data-name="Ellipse 949" cx="4.091" cy="4.091" r="4.091" transform="translate(347.141 194.248)" fill="#be6f72"/>
    <path id="Path_19158" data-name="Path 19158" d="M834.709,724.522c0,.357-.71,1.245-.71,1.245a8.807,8.807,0,0,1-4.268-.534c-.357-.176.177-1.245.177-1.245l.041-.086a4.319,4.319,0,0,1,.674-1.159,5.064,5.064,0,0,0,.566-1.81c1.1-1.81,3.064.783,3.064.783s.249,1.358.38,2.181A6.175,6.175,0,0,1,834.709,724.522Z" transform="translate(-477.698 -468.116)" fill="#ff6f61"/>
    <path id="Path_19159" data-name="Path 19159" d="M834.709,728.874c0,.357-.71,1.245-.71,1.245a8.808,8.808,0,0,1-4.268-.534c-.357-.177.177-1.245.177-1.245l.041-.086a8.6,8.6,0,0,0,3.874.8l.81-.81C834.677,728.543,834.709,728.783,834.709,728.874Z" transform="translate(-477.698 -472.467)" opacity="0.1"/>
    <circle id="Ellipse_950" data-name="Ellipse 950" cx="4.001" cy="4.001" r="4.001" transform="translate(339.049 185.799)" fill="#be6f72"/>
    <path id="Path_19160" data-name="Path 19160" d="M801.332,598.845a5.022,5.022,0,0,0-1.113,3.372l-.136,1.769a8.93,8.93,0,0,0-.032,1.435c0,.294.072.593.1.905s.036.706.041,1.063v2.616a3.086,3.086,0,0,0,.29,1.57,1.068,1.068,0,0,0,1.358.489,1.548,1.548,0,0,0,.561-.869,13.508,13.508,0,0,0,.905-3.313c.036-.394.041-.787.077-1.181s.1-.806.163-1.2c.253-1.665.367-3.349.48-5.028.032-.5.48-2.457-.172-2.675-.317-.1-.973.222-1.276.33A3.594,3.594,0,0,0,801.332,598.845Z" transform="translate(-461.509 -401.045)" fill="#be6f72"/>
    <path id="Path_19161" data-name="Path 19161" d="M801.332,598.845a5.022,5.022,0,0,0-1.113,3.372l-.136,1.769a8.93,8.93,0,0,0-.032,1.435c0,.294.072.593.1.905s.036.706.041,1.063v2.616a3.086,3.086,0,0,0,.29,1.57,1.068,1.068,0,0,0,1.358.489,1.548,1.548,0,0,0,.561-.869,13.508,13.508,0,0,0,.905-3.313c.036-.394.041-.787.077-1.181s.1-.806.163-1.2c.253-1.665.367-3.349.48-5.028.032-.5.48-2.457-.172-2.675-.317-.1-.973.222-1.276.33A3.594,3.594,0,0,0,801.332,598.845Z" transform="translate(-461.509 -401.045)" opacity="0.1"/>
    <path id="Path_19162" data-name="Path 19162" d="M812.055,588.16a21.937,21.937,0,0,1-4.8,2.847s-1.055,1.2-1.235,1.493-.543,3.485-.905,4.2a3.4,3.4,0,0,0,0,3.91,6.779,6.779,0,0,1,.177,2.136c-.177.534-.824,2.489-.235,2.58s2.371,1.331,3.969.978,7.562,1.358,7.562,1.358.987-9.164,1.7-10.784l-1.6-.534s-4.444-2.666-1.779-6.757C814.9,589.586,812.4,589.052,812.055,588.16Z" transform="translate(-463.936 -395.781)" fill="#fe018a"/>
    <path id="Path_19163" data-name="Path 19163" d="M796.7,610.436l3.675,2.6a.272.272,0,0,0,.321,0l1-.747a.281.281,0,0,0,0-.425l-2.828-2.512a.271.271,0,0,0-.276-.054l-1.815.652a.276.276,0,0,0-.072.484Z" transform="translate(-459.622 -407.345)" fill="#3f3d56"/>
    <path id="Path_19164" data-name="Path 19164" d="M799.012,620.679a9.851,9.851,0,0,1-.385-2.774l-.054-1.254a3.622,3.622,0,0,1,.131-1.448,2.367,2.367,0,0,1,1.525-1.335,5.267,5.267,0,0,1,2.077-.149.534.534,0,0,1,.267.072.5.5,0,0,1,.145.244,1.638,1.638,0,0,1,.081,1.308,1.358,1.358,0,0,1-.416.43c-.493.353-1.068.588-1.534.973a.557.557,0,0,0-.208.263.612.612,0,0,0,0,.285,4.561,4.561,0,0,0,.235.729.719.719,0,0,0,.2.308c.086.072.2.1.29.167.195.158.6.367.579.615a20.282,20.282,0,0,1-.824,2.815C800.718,623.679,799.274,621.444,799.012,620.679Z" transform="translate(-460.695 -409.749)" fill="#be6f72"/>
    <g id="Group_10327" data-name="Group 10327" transform="translate(343.933 200.828)" opacity="0.1">
      <path id="Path_19165" data-name="Path 19165" d="M812.08,628.2h-.1a3.046,3.046,0,0,0,1.163,0h.113a4.076,4.076,0,0,0-1.177,0Z" transform="translate(-811.98 -618.505)"/>
      <path id="Path_19166" data-name="Path 19166" d="M830.717,606.83c-.638,1.435-1.579,9.2-1.747,10.748.625.163,1.036.281,1.036.281s.978-9.142,1.693-10.762Z" transform="translate(-821.281 -606.83)"/>
    </g>
    <path id="Path_19167" data-name="Path 19167" d="M819.38,595.708a1.358,1.358,0,0,0,.584.883,7.832,7.832,0,0,1,1.036,1.05,7.437,7.437,0,0,1,1.027,2.059,25.233,25.233,0,0,1,.855,2.815c-2.263,1.05-4.833,1-7.241,1.693a5.78,5.78,0,0,0-2.715,1.607,3.743,3.743,0,0,0-1,2.946.385.385,0,0,0,.054.177.38.38,0,0,0,.317.127,2.715,2.715,0,0,0,1.661-.57,7.9,7.9,0,0,0,1.272-1.249,2.047,2.047,0,0,1,.905-.67,14.811,14.811,0,0,1,4.073-.4,51.307,51.307,0,0,0,6.069-.48.489.489,0,0,0,.543-.543c.2-2.67-.792-5.277-1.81-7.752q-.611-1.489-1.258-2.964a8.78,8.78,0,0,0-1.539-2.634,2.714,2.714,0,0,0-.905-.67,3.828,3.828,0,0,0-1.213-.226,8.6,8.6,0,0,0-1.987-.036,4.236,4.236,0,0,0-.19,1.027,8.9,8.9,0,0,0,1.1,3.471C819.082,595.536,819.276,595.545,819.38,595.708Z" transform="translate(-468.008 -397.242)" fill="#be6f72"/>
    <path id="Path_19168" data-name="Path 19168" d="M811.862,606.67a3.317,3.317,0,0,0-.453,1.729,2.327,2.327,0,0,0,.113.706,2.29,2.29,0,0,0,1.444,1.358" transform="translate(-467.735 -405.914)" fill="none" stroke="#000" stroke-miterlimit="10" stroke-width="1" opacity="0.1"/>
    <path id="Path_19169" data-name="Path 19169" d="M807.591,572.1a2.077,2.077,0,0,0-.656.1,4.339,4.339,0,0,0-3.62-1.53c-2.163,0-3.915,1.118-3.915,2.494s1.751,2.489,3.915,2.489a5.506,5.506,0,0,0,2.349-.5,2.132,2.132,0,1,0,1.919-3.059Z" transform="translate(-461.161 -386.206)" fill="#3f3d56"/>
    <path id="Path_19170" data-name="Path 19170" d="M807.757,577.9a2.127,2.127,0,0,1-1.919-1.209,5.508,5.508,0,0,1-2.349.5c-2.159,0-3.91-1.113-3.91-2.489a1.487,1.487,0,0,1,0-.249,1.688,1.688,0,0,0-.2.783c0,1.358,1.751,2.489,3.915,2.489a5.507,5.507,0,0,0,2.349-.5,2.131,2.131,0,0,0,4.014-.529,2.123,2.123,0,0,1-1.9,1.2Z" transform="translate(-461.15 -388.275)" opacity="0.1"/>
    <path id="Path_19171" data-name="Path 19171" d="M795.414,567.661a6.042,6.042,0,0,1,6.788-3.236,6.4,6.4,0,0,1,9.739,4.915v-.534a6.4,6.4,0,0,0-9.762-5.431,6.042,6.042,0,0,0-6.788,3.236,7.367,7.367,0,0,0-2.3,5.5v.534A7.24,7.24,0,0,1,795.414,567.661Z" transform="translate(-457.704 -381.69)" opacity="0.1"/>
    <path id="Path_19172" data-name="Path 19172" d="M882.247,518.714c1.181-2.186-.158-4.87-1.7-6.82s-3.417-3.978-3.376-6.467c.054-3.571,3.847-5.68,6.879-7.576a33.443,33.443,0,0,0,6.173-4.978,9.02,9.02,0,0,0,1.9-2.539,10.43,10.43,0,0,0,.57-4.526q-.2-7.648-.756-15.278" transform="translate(-503.735 -331.385)" fill="none" stroke="#3f3d56" stroke-miterlimit="10" stroke-width="4"/>
    <path id="Path_19173" data-name="Path 19173" d="M909.049,463.506a5.562,5.562,0,0,0-2.779-4.562l-1.249,2.466.036-2.987a5.467,5.467,0,0,0-1.833-.222,5.571,5.571,0,1,0,5.824,5.3Z" transform="translate(-515.091 -324.632)" fill="#40a3af"/>
    <path id="Path_19174" data-name="Path 19174" d="M887.838,543.439a5.571,5.571,0,1,1,.267-4.489l-3.48,2.833,3.829-.905A5.539,5.539,0,0,1,887.838,543.439Z" transform="translate(-503.813 -366.854)" fill="#40a3af"/>
    <path id="Path_19175" data-name="Path 19175" d="M887.427,515.881a5.571,5.571,0,0,1-1.769-10.929l-.027,2.294,1.263-2.494h0a5.572,5.572,0,1,1,.52,11.133Z" transform="translate(-506.154 -350.117)" fill="#40a3af"/>
    <path id="Path_19176" data-name="Path 19176" d="M917.288,496a5.571,5.571,0,1,1,2.466-10.409l-.987,2.715,2.027-1.946a5.539,5.539,0,0,1,1.81,3.847,5.375,5.375,0,0,1-.14,1.534A5.571,5.571,0,0,1,917.288,496Z" transform="translate(-522.493 -339.233)" fill="#40a3af"/>
    <path id="Path_19177" data-name="Path 19177" d="M908.3,468.683c-1.285.145-2.539.543-3.829.625a4.15,4.15,0,0,1-3.525-1.236,17.292,17.292,0,0,1-1.027-1.81,4.005,4.005,0,0,0-1.4-1.321,5.571,5.571,0,1,0,10.409,3.7C908.712,468.646,908.5,468.66,908.3,468.683Z" transform="translate(-515.084 -328.325)" opacity="0.1"/>
    <path id="Path_19178" data-name="Path 19178" d="M917.315,499.857a5.576,5.576,0,0,1-5.3-7.947,4.123,4.123,0,0,1,1.122,1.118,17.845,17.845,0,0,0,1.1,1.842,4.533,4.533,0,0,0,3.693,1.294c1.344-.063,2.643-.453,3.982-.566.186,0,.376-.032.561-.036A5.571,5.571,0,0,1,917.315,499.857Z" transform="translate(-522.52 -343.089)" opacity="0.1"/>
    <path id="Path_19179" data-name="Path 19179" d="M887.427,519.852A5.566,5.566,0,0,1,882.083,512a4.592,4.592,0,0,1,1.177,1.131c.453.611.7,1.317,1.208,1.878a5.157,5.157,0,0,0,3.946,1.385c1.426-.032,2.715-.371,4.073-.475A5.571,5.571,0,0,1,887.427,519.852Z" transform="translate(-506.154 -354.087)" fill="#40a3af" opacity="0.1"/>
    <path id="Path_19180" data-name="Path 19180" d="M887.876,547.786a5.575,5.575,0,0,1-10.16-4.526,5.457,5.457,0,0,1,1.222,1.091c.534.647.883,1.358,1.494,1.982a7,7,0,0,0,4.616,1.62,24.418,24.418,0,0,0,2.828-.167Z" transform="translate(-503.852 -371.201)" fill="#40a3af" opacity="0.1"/>
    <path id="Path_19181" data-name="Path 19181" d="M1041.247,670.714c1.181-2.186-.158-4.87-1.7-6.82s-3.417-3.978-3.376-6.467c.054-3.571,3.847-5.68,6.879-7.576a33.445,33.445,0,0,0,6.173-4.978,9.02,9.02,0,0,0,1.9-2.539,10.429,10.429,0,0,0,.57-4.526q-.195-7.648-.756-15.278" transform="translate(-590.778 -414.596)" fill="none" stroke="#3f3d56" stroke-miterlimit="10" stroke-width="4"/>
    <path id="Path_19182" data-name="Path 19182" d="M1068.076,615.507a5.562,5.562,0,0,0-2.779-4.562l-1.249,2.466.036-2.987a5.466,5.466,0,0,0-1.81-.222,5.571,5.571,0,1,0,5.824,5.3Z" transform="translate(-602.162 -407.845)" fill="#40a3af"/>
    <path id="Path_19183" data-name="Path 19183" d="M1046.837,695.439a5.571,5.571,0,1,1,.267-4.489l-3.48,2.833,3.829-.905a5.539,5.539,0,0,1-.615,2.562Z" transform="translate(-590.857 -450.066)" fill="#40a3af"/>
    <path id="Path_19184" data-name="Path 19184" d="M1046.426,667.881a5.571,5.571,0,0,1-1.769-10.929l-.027,2.294,1.263-2.494h0a5.573,5.573,0,1,1,.521,11.133Z" transform="translate(-593.197 -433.328)" fill="#40a3af"/>
    <path id="Path_19185" data-name="Path 19185" d="M1076.288,648a5.571,5.571,0,1,1,2.467-10.409l-.987,2.715,2.027-1.946a5.54,5.54,0,0,1,1.81,3.847,5.383,5.383,0,0,1-.14,1.534A5.571,5.571,0,0,1,1076.288,648Z" transform="translate(-609.536 -422.445)" fill="#40a3af"/>
    <path id="Path_19186" data-name="Path 19186" d="M1067.3,620.683c-1.285.145-2.539.543-3.829.625a4.15,4.15,0,0,1-3.525-1.235,17.276,17.276,0,0,1-1.027-1.81,4,4,0,0,0-1.4-1.321,5.571,5.571,0,1,0,10.409,3.7C1067.712,620.646,1067.5,620.66,1067.3,620.683Z" transform="translate(-602.128 -411.536)" opacity="0.1"/>
    <path id="Path_19187" data-name="Path 19187" d="M1076.316,651.857a5.575,5.575,0,0,1-5.3-7.947,4.126,4.126,0,0,1,1.122,1.118,17.865,17.865,0,0,0,1.1,1.842,4.532,4.532,0,0,0,3.693,1.294c1.344-.063,2.643-.453,3.983-.566.186,0,.376-.032.561-.036A5.571,5.571,0,0,1,1076.316,651.857Z" transform="translate(-609.564 -426.301)" opacity="0.1"/>
    <path id="Path_19188" data-name="Path 19188" d="M1046.427,671.852a5.566,5.566,0,0,1-5.345-7.852,4.594,4.594,0,0,1,1.177,1.131c.453.611.7,1.317,1.208,1.878a5.157,5.157,0,0,0,3.946,1.385c1.426-.032,2.715-.371,4.073-.475A5.571,5.571,0,0,1,1046.427,671.852Z" transform="translate(-593.198 -437.299)" fill="#40a3af" opacity="0.1"/>
    <path id="Path_19189" data-name="Path 19189" d="M1046.876,699.786a5.575,5.575,0,0,1-10.16-4.526,5.457,5.457,0,0,1,1.222,1.091c.534.647.905,1.358,1.494,1.982a7,7,0,0,0,4.616,1.62A24.416,24.416,0,0,0,1046.876,699.786Z" transform="translate(-590.895 -454.412)" opacity="0.1"/>
    <path id="Path_19190" data-name="Path 19190" d="M456.6,572.538a4.439,4.439,0,0,0-1.769-3.584,245.122,245.122,0,0,0-7.811-8.974h0a4.416,4.416,0,0,0-.643-.149h-.765a5.1,5.1,0,0,0-4.924,4.354c-1.588-.367-3.041.109-3.308,1.113a1.358,1.358,0,0,0,.045.806,3.5,3.5,0,0,0,2.335,1.892l.154.045.231.059h.05a4,4,0,0,0-.38,1.715,3.955,3.955,0,0,0,2.132,3.53l-.1.063a1.412,1.412,0,0,0-.344.48,7.177,7.177,0,0,0-.665,1.6c-.113.48-.131.978-.272,1.453-.262.873-.932,1.611-1.009,2.521-.036.407.032.905-.258,1.168a1.409,1.409,0,0,1-.231.163,1.869,1.869,0,0,0-.5.529,1.756,1.756,0,0,1-.353.507c-.262.195-.692.177-.819.48s.2.661.127.991-.358.394-.561.579a2.014,2.014,0,0,0-.484.905,2.969,2.969,0,0,1-2.444-.625,4.567,4.567,0,0,1,.253.905,3.963,3.963,0,0,0-1.317-.661,4.159,4.159,0,0,1-1.4-1.041l.751-.1L429,578.195l-.982-.2.878,1.688a.539.539,0,0,0-.3.358,1.533,1.533,0,0,0-.032.575,10.289,10.289,0,0,0,.226,1.358l.253,1.186c.023.109.05.222.081.33a3.117,3.117,0,0,0-.982.109,8.541,8.541,0,0,0-2.041-.484,1.13,1.13,0,0,0-.453,0,1.172,1.172,0,0,0-.43.348,13.922,13.922,0,0,0-1.516,2.136,74.574,74.574,0,0,1-6.4,8.621c-1.539.625-3.091,1.217-4.643,1.81l-3.34,1.276a5.065,5.065,0,0,1-2.073.453c-.317,0-.711-.068-.905.2a1.9,1.9,0,0,0-.2.453l-.344.036h0a3.956,3.956,0,0,0-.8-1.475.507.507,0,0,0-.376.29c-.081.149-.131.312-.226.453-.176.263-.489.389-.711.611s-.362.566-.606.792a2.4,2.4,0,0,1-1.136.453,7.17,7.17,0,0,0-1.779.674,2.867,2.867,0,0,1-.656.3,2.467,2.467,0,0,1-.774.027l-1.765-.131a1.394,1.394,0,0,0-.475.023.9.9,0,0,0-.561.905,1.425,1.425,0,0,0,.561.973,3.594,3.594,0,0,0,1,.521,29.489,29.489,0,0,0,4.707,1.394v.357a8.033,8.033,0,0,0,3.62.86.562.562,0,0,0,.272-.05.6.6,0,0,0,.226-.353,14.559,14.559,0,0,0,.706-3.467h0a1.811,1.811,0,0,0,.638-.163c.606-.167,1.213.249,1.842.317a5.032,5.032,0,0,0,2.222-.643l.317-.1a3.478,3.478,0,0,1-.733.7c-.3.217-.643.38-.937.606a6.457,6.457,0,0,1-.8.615,4.992,4.992,0,0,1-.611.235,4.03,4.03,0,0,0-.873.453,1.769,1.769,0,0,0-.593.579.869.869,0,0,0-.05.815.86.86,0,0,0,.584.407,2.394,2.394,0,0,0,.72,0c.959-.072,1.914-.158,2.869-.244a7.643,7.643,0,0,0,1.2-.172c.208-.05.416-.118.625-.176a5.566,5.566,0,0,1,1.091-.163.906.906,0,0,1,.317.032c.222.072.38.3.606.344a.905.905,0,0,0,.453-.059,10.094,10.094,0,0,1,2.122-.226.876.876,0,0,0,.824-.367c.145-.29-.118-.756-.235-1.14a3.49,3.49,0,0,1-.1-.751,4.7,4.7,0,0,0-.525-1.783,4.656,4.656,0,0,1-.394-.815,20.585,20.585,0,0,0,3.906-1.982,6.984,6.984,0,0,1,2.227-1.073,6.055,6.055,0,0,1,2.8.326,63.624,63.624,0,0,1,6.413,2.236c1,.412,2,.846,3.028,1.159a4.719,4.719,0,0,0,1.077,1.045,4.978,4.978,0,0,0,2.331.638,30.553,30.553,0,0,0,3.281.122,5.535,5.535,0,0,0,2.444-.453,2.512,2.512,0,0,0,.511-.339,2.027,2.027,0,0,0,1.611-.593,3.906,3.906,0,0,0,1.226-1.937c.267-1.032.063-2.263.7-3.086.167-.226.389-.407.557-.634a1.783,1.783,0,0,0,.29-1.045.212.212,0,0,1,.027-.041,3.833,3.833,0,0,0,.272-1.041,5.946,5.946,0,0,1,.294-.824,25.438,25.438,0,0,0,.842-2.439,14.259,14.259,0,0,0,.389-1.675c.068-.453.109-.905.145-1.358a8.433,8.433,0,0,1,.412-2.1,17.051,17.051,0,0,0,.95-5.014v-.1a3.363,3.363,0,0,0,2.978-3.421,3.57,3.57,0,0,0-.312-1.462,4.525,4.525,0,0,0,.606-2.281ZM440.409,592.21c.05.177.109.348.167.52-.267-.258-.525-.525-.792-.787.1.036.213.068.312.109a1.685,1.685,0,0,1,.3.158Zm-1.281-.869c-1.566-1.358-3.376-2.412-4.978-3.729.873.43,1.724.932,2.566,1.412q1.5.855,3.037,1.643a2.485,2.485,0,0,1-.638.674Zm.665-3.421.077-.077v.539l-.421-.145a3.743,3.743,0,0,0,.33-.317Zm-13.771,3.666a12.955,12.955,0,0,0,1.665-2.376,16,16,0,0,0,2.485,2.774C428.791,591.807,427.407,591.658,426.022,591.586Z" transform="translate(-240.28 -380.272)" fill="url(#linear-gradient-2)"/>
    <path id="Path_19191" data-name="Path 19191" d="M415.35,438.25l.987.2,3.362,4.974-1.48.2Z" transform="translate(-227.381 -240.114)" fill="#2f2e41"/>
    <path id="Path_19192" data-name="Path 19192" d="M414.49,645.4a19.364,19.364,0,0,0,.987,2.566,24.429,24.429,0,0,0,3.281-.937,10.347,10.347,0,0,0-.683-.905,3.374,3.374,0,0,0-.928-.71,2.551,2.551,0,0,0-1.127,0C415.513,645.4,415,645.409,414.49,645.4Z" transform="translate(-250.443 -427.09)" fill="#fbbebe"/>
    <path id="Path_19193" data-name="Path 19193" d="M406.924,645a2.046,2.046,0,0,1-1.122-1.276,4.11,4.11,0,0,0-.855-1.525.489.489,0,0,0-.38.285c-.081.145-.131.308-.222.453-.181.258-.5.385-.724.6s-.362.557-.606.778a2.407,2.407,0,0,1-1.145.453,7.427,7.427,0,0,0-1.81.665,3.122,3.122,0,0,1-.665.3,2.632,2.632,0,0,1-.778,0l-1.783-.127a1.394,1.394,0,0,0-.453,0,.864.864,0,0,0-.566.905,1.357,1.357,0,0,0,.566.959,3.757,3.757,0,0,0,1.014.516,29.832,29.832,0,0,0,4.779,1.358v.353a8.273,8.273,0,0,0,3.643.846.615.615,0,0,0,.272-.045.6.6,0,0,0,.226-.353,14.121,14.121,0,0,0,.747-3.874,3.087,3.087,0,0,0-.077-1c-.1-.321.235-.186-.072-.312" transform="translate(-240.217 -425.365)" fill="#2f2e41"/>
    <path id="Path_19194" data-name="Path 19194" d="M453.471,631.834c-5.286.317-10.508-1.231-15.8-1.394a7.716,7.716,0,0,0-1.964.122,9.893,9.893,0,0,0-1.946.756c-2.838,1.321-5.775,2.417-8.707,3.507l-3.372,1.254a5.105,5.105,0,0,1-2.086.453c-.321,0-.715-.068-.905.2a3.3,3.3,0,0,0,.072,2.919c.118.294.317.615.634.647a1.841,1.841,0,0,0,.643-.163c.611-.163,1.222.249,1.855.317a5.215,5.215,0,0,0,2.24-.634,19.441,19.441,0,0,1,3.838-.652,17.194,17.194,0,0,0,6.01-2.494,7.014,7.014,0,0,1,2.24-1.059,6.2,6.2,0,0,1,2.819.321,64.708,64.708,0,0,1,6.467,2.2,30.139,30.139,0,0,0,3.376,1.235,12.219,12.219,0,0,0,7.571-.453c.846-.335,1.765-.905,1.81-1.837.032-.52-.376-.977-.643-1.426-.172-.285-.348-.57-.534-.846C456.182,633.495,455.078,631.739,453.471,631.834Z" transform="translate(-252.569 -418.918)" fill="#2f2e41"/>
    <path id="Path_19195" data-name="Path 19195" d="M453.471,631.834c-5.286.317-10.508-1.231-15.8-1.394a7.716,7.716,0,0,0-1.964.122,9.893,9.893,0,0,0-1.946.756c-2.838,1.321-5.775,2.417-8.707,3.507l-3.372,1.254a5.105,5.105,0,0,1-2.086.453c-.321,0-.715-.068-.905.2a3.3,3.3,0,0,0,.072,2.919c.118.294.317.615.634.647a1.841,1.841,0,0,0,.643-.163c.611-.163,1.222.249,1.855.317a5.215,5.215,0,0,0,2.24-.634,19.441,19.441,0,0,1,3.838-.652,17.194,17.194,0,0,0,6.01-2.494,7.014,7.014,0,0,1,2.24-1.059,6.2,6.2,0,0,1,2.819.321,64.708,64.708,0,0,1,6.467,2.2,30.139,30.139,0,0,0,3.376,1.235,12.219,12.219,0,0,0,7.571-.453c.846-.335,1.765-.905,1.81-1.837.032-.52-.376-.977-.643-1.426-.172-.285-.348-.57-.534-.846C456.182,633.495,455.078,631.739,453.471,631.834Z" transform="translate(-252.569 -418.918)" opacity="0.1"/>
    <path id="Path_19196" data-name="Path 19196" d="M436.92,643.338q1.24.421,2.5.778c.453-.774,1.358-1.312,1.552-2.2a.209.209,0,0,0,0-.118.217.217,0,0,0-.1-.086,4.742,4.742,0,0,0-1.964-.575c-.543-.032-.792.534-1.036.932C437.784,642.247,437.142,643.424,436.92,643.338Z" transform="translate(-262.723 -424.783)" fill="#fbbebe"/>
    <path id="Path_19197" data-name="Path 19197" d="M429.592,643.261a1.81,1.81,0,0,1-1.217-.8c-.113-.2-.24-.48-.475-.453s-.312.271-.362.484a13.579,13.579,0,0,1-.683,2.349,4.408,4.408,0,0,1-1.462,1.923c-.308.213-.647.371-.95.6a6.529,6.529,0,0,1-.8.606,4.767,4.767,0,0,1-.615.226,4.265,4.265,0,0,0-.878.453,1.743,1.743,0,0,0-.6.575.828.828,0,0,0-.045.8.855.855,0,0,0,.584.4,2.462,2.462,0,0,0,.729,0c.964-.068,1.928-.154,2.892-.24a8.345,8.345,0,0,0,1.208-.167l.629-.172a5.006,5.006,0,0,1,1.1-.163.856.856,0,0,1,.321.032c.222.072.38.294.611.339a1.022,1.022,0,0,0,.453-.059,9.988,9.988,0,0,1,2.141-.222.9.9,0,0,0,.833-.362c.181-.353-.118-.747-.24-1.127a3.62,3.62,0,0,1-.1-.738,4.5,4.5,0,0,0-.529-1.756c-.244-.453-.579-.95-.407-1.43a1.357,1.357,0,0,0,.163-.493C431.819,643.085,430.036,643.361,429.592,643.261Z" transform="translate(-254.236 -425.258)" fill="#2f2e41"/>
    <path id="Path_19198" data-name="Path 19198" d="M473.033,609.178a4.127,4.127,0,0,1-2.109-2.091c-.086-.2-.158-.412-.244-.611a4.644,4.644,0,0,0-1.258-1.751.62.62,0,0,0-.453-.195.493.493,0,0,0-.339.367,1.4,1.4,0,0,0-.036.566,10.076,10.076,0,0,0,.226,1.321l.258,1.168a2.563,2.563,0,0,0,.158.52,1.81,1.81,0,0,0,.43.511c.235.217.475.425.715.634a2.46,2.46,0,0,0,.453.312,2.629,2.629,0,0,0,.8.235,6.816,6.816,0,0,1,3,1.159s0-.783,0-.869a1.15,1.15,0,0,0-.226-.629,4.014,4.014,0,0,0-1.38-.647Z" transform="translate(-280.055 -404.742)" fill="#fbbebe"/>
    <path id="Path_19199" data-name="Path 19199" d="M473.033,609.178a4.127,4.127,0,0,1-2.109-2.091c-.086-.2-.158-.412-.244-.611a4.644,4.644,0,0,0-1.258-1.751.62.62,0,0,0-.453-.195.493.493,0,0,0-.339.367,1.4,1.4,0,0,0-.036.566,10.076,10.076,0,0,0,.226,1.321l.258,1.168a2.563,2.563,0,0,0,.158.52,1.81,1.81,0,0,0,.43.511c.235.217.475.425.715.634a2.46,2.46,0,0,0,.453.312,2.629,2.629,0,0,0,.8.235,6.816,6.816,0,0,1,3,1.159s0-.783,0-.869a1.15,1.15,0,0,0-.226-.629,4.014,4.014,0,0,0-1.38-.647Z" transform="translate(-280.055 -404.742)" opacity="0.1"/>
    <ellipse id="Ellipse_951" data-name="Ellipse 951" cx="1.285" cy="1.294" rx="1.285" ry="1.294" transform="translate(202.455 192.913)" fill="#2f2e41"/>
    <path id="Path_19200" data-name="Path 19200" d="M489.683,590.434a1.389,1.389,0,0,0-1.014.145,1.409,1.409,0,0,0-.348.475,6.9,6.9,0,0,0-.67,1.575c-.113.453-.131.964-.276,1.43-.262.86-.937,1.589-1.014,2.485-.036.4.032.873-.262,1.145a1.664,1.664,0,0,1-.231.167,1.738,1.738,0,0,0-.507.52,1.706,1.706,0,0,1-.358.493c-.262.195-.7.177-.824.453s.2.652.127.977-.362.389-.566.57a1.977,1.977,0,0,0-.489.905,3.019,3.019,0,0,1-2.462-.611,7.837,7.837,0,0,1,.385,2.815,1.149,1.149,0,0,1-.226.869,15.675,15.675,0,0,1,3.019.525,2.082,2.082,0,0,0,1.317,0,2.2,2.2,0,0,0,.606-.48,3.866,3.866,0,0,0,1.245-1.919,11.273,11.273,0,0,0,.023-1.3,7.322,7.322,0,0,1,.33-1.579,18.793,18.793,0,0,0,.575-3.249c.059-.679.647-1.222.955-1.81a8.863,8.863,0,0,0,1.217-3.62C490.253,591,490.108,590.479,489.683,590.434Z" transform="translate(-286.739 -397.004)" fill="#2f2e41"/>
    <path id="Path_19201" data-name="Path 19201" d="M489.683,590.434a1.389,1.389,0,0,0-1.014.145,1.409,1.409,0,0,0-.348.475,6.9,6.9,0,0,0-.67,1.575c-.113.453-.131.964-.276,1.43-.262.86-.937,1.589-1.014,2.485-.036.4.032.873-.262,1.145a1.664,1.664,0,0,1-.231.167,1.738,1.738,0,0,0-.507.52,1.706,1.706,0,0,1-.358.493c-.262.195-.7.177-.824.453s.2.652.127.977-.362.389-.566.57a1.977,1.977,0,0,0-.489.905,3.019,3.019,0,0,1-2.462-.611,7.837,7.837,0,0,1,.385,2.815,1.149,1.149,0,0,1-.226.869,15.675,15.675,0,0,1,3.019.525,2.082,2.082,0,0,0,1.317,0,2.2,2.2,0,0,0,.606-.48,3.866,3.866,0,0,0,1.245-1.919,11.273,11.273,0,0,0,.023-1.3,7.322,7.322,0,0,1,.33-1.579,18.793,18.793,0,0,0,.575-3.249c.059-.679.647-1.222.955-1.81a8.863,8.863,0,0,0,1.217-3.62C490.253,591,490.108,590.479,489.683,590.434Z" transform="translate(-286.739 -397.004)" opacity="0.1"/>
    <path id="Path_19202" data-name="Path 19202" d="M465.851,622.83a11.928,11.928,0,0,1-2.8-2.335c-1.7-1.6-3.774-2.715-5.562-4.222a39.181,39.181,0,0,0-3.543-2.978,8.856,8.856,0,0,0-3.8-1.326,1.01,1.01,0,0,0-.453,0,1.04,1.04,0,0,0-.43.339,13.676,13.676,0,0,0-1.534,2.1c-2.263,3.847-5.48,7.078-8.146,10.653a.679.679,0,0,0-.131.253.629.629,0,0,0,.1.394l.543,1.059c.3.6.792,1.29,1.444,1.172a1.579,1.579,0,0,0,.756-.484l2.435-2.331,2.552-2.439a19.579,19.579,0,0,0,3.992-4.716c.76,1.321,2.113,2.186,3.037,3.394.353.453.643.964.959,1.453.5.778,1.077,1.512,1.647,2.263l2.928,3.734a5.6,5.6,0,0,0,1.358,1.358,5.183,5.183,0,0,0,2.349.629,31.041,31.041,0,0,0,3.308.118,5.7,5.7,0,0,0,2.466-.453,2.236,2.236,0,0,0,1.335-1.987,2.914,2.914,0,0,0-.421-1.235A10.086,10.086,0,0,0,465.851,622.83Z" transform="translate(-264.111 -408.801)" fill="#2f2e41"/>
    <ellipse id="Ellipse_952" data-name="Ellipse 952" cx="0.991" cy="0.996" rx="0.991" ry="0.996" transform="translate(203.541 194.108)" fill="#e8e8f0"/>
    <path id="Path_19203" data-name="Path 19203" d="M501.828,588.769a1.905,1.905,0,0,1,.109,1.43,5.8,5.8,0,0,1-.638,1.317,6.266,6.266,0,0,1-.828,1.177,8.524,8.524,0,0,0,4.354-1.249,6.322,6.322,0,0,0,2.747-2.394,1.267,1.267,0,0,1-1.014-.19,3.621,3.621,0,0,1-.774-.72l-.765-.86a3.443,3.443,0,0,1-.453-.62,1.711,1.711,0,0,1-.2-1,5.826,5.826,0,0,1-1.014.842c-.548.357-1.149.615-1.7.968-.19.127-.625.326-.511.579S501.674,588.5,501.828,588.769Z" transform="translate(-297.513 -394.412)" fill="#fbbebe"/>
    <path id="Path_19204" data-name="Path 19204" d="M501.828,588.769a1.905,1.905,0,0,1,.109,1.43,5.8,5.8,0,0,1-.638,1.317,6.266,6.266,0,0,1-.828,1.177,8.524,8.524,0,0,0,4.354-1.249,6.322,6.322,0,0,0,2.747-2.394,1.267,1.267,0,0,1-1.014-.19,3.621,3.621,0,0,1-.774-.72l-.765-.86a3.443,3.443,0,0,1-.453-.62,1.711,1.711,0,0,1-.2-1,5.826,5.826,0,0,1-1.014.842c-.548.357-1.149.615-1.7.968-.19.127-.625.326-.511.579S501.674,588.5,501.828,588.769Z" transform="translate(-297.513 -394.412)" opacity="0.1"/>
    <path id="Path_19205" data-name="Path 19205" d="M496.223,592.666a1.29,1.29,0,0,0,0,1.493c.045.054.208.394.276.4a.249.249,0,0,0,.172-.091,11.347,11.347,0,0,0,.969-1.154,2.154,2.154,0,0,1,1.231-.806,2.661,2.661,0,0,1,1.7.53,1.61,1.61,0,0,1,.584.453,1.579,1.579,0,0,1,.19.647,31.17,31.17,0,0,1,.172,4.114,16.209,16.209,0,0,1-.195,2.964c-.1.5-.244,1-.312,1.507a9.614,9.614,0,0,0-.063,1.358v1.892a4.976,4.976,0,0,0,.072,1.036c.091.412.285.8.416,1.2a7.84,7.84,0,0,1,.276,1.417l.258,1.955a2.472,2.472,0,0,1-.231,1.81c-.167.222-.389.4-.561.625-.638.833-.453,2.023-.7,3.041a3.792,3.792,0,0,1-1.24,1.9,2.05,2.05,0,0,1-1.634.584,2.239,2.239,0,0,1-1.489-1.76,7.038,7.038,0,0,0-.765-2.294,6.085,6.085,0,0,0-1.512-1.263,2.611,2.611,0,0,1-1.181-1.534c-.05-.285,0-.579-.05-.869a2.05,2.05,0,0,0-1.263-1.661c-.407-.158-.905-.217-1.14-.588a2.747,2.747,0,0,0,1.19-1.6,8.209,8.209,0,0,0,.29-2.018l.136-2.263a7.558,7.558,0,0,1,.539-2.937c.2-.407.453-.792.656-1.195a12.968,12.968,0,0,0,.7-1.751c.326-.932.652-1.865.941-2.806a5.287,5.287,0,0,1,.516-1.308C495.413,593.268,495.766,592.757,496.223,592.666Z" transform="translate(-291.89 -398.16)" fill="#e8e8f0"/>
    <path id="Path_19206" data-name="Path 19206" d="M492.282,606.941h.6l.127-.905a1.886,1.886,0,0,1,.127-.529,3.165,3.165,0,0,1,.348-.507,6.616,6.616,0,0,0,.692-2.964,15.082,15.082,0,0,1,1.321-3.874l1.168-2.6a3.591,3.591,0,0,0,.253-.665,3.99,3.99,0,0,0,.072-.769c0-.4.127-1.869.14-2.263,0-.149-.33-.068-.4-.2-.145-.29-.344.493-.62.665a1.521,1.521,0,0,0-.539.787c-.253.652-.407,1.358-.643,2a4.1,4.1,0,0,1-1.091,1.774c-.24.208-.516.376-.742.6a4.062,4.062,0,0,0-.819,2.874C492.264,600.995,492.146,606.941,492.282,606.941Z" transform="translate(-292.995 -397.664)" fill="#2f2e41"/>
    <path id="Path_19207" data-name="Path 19207" d="M504.859,590.4a2.055,2.055,0,0,0-1.073,1.471,7.441,7.441,0,0,1-.543,1.81c-.733,1.276-2.6,1.647-3.123,3.028a5.566,5.566,0,0,0-.208,1.426c-.091.991-.416,1.946-.516,2.932a13.066,13.066,0,0,0,.054,2.3l.656,7.793a10.409,10.409,0,0,1-.195,3.43,3.3,3.3,0,0,0,1.964-.326c.611-.281,1.172-.665,1.765-.991a18.18,18.18,0,0,0,3.028-1.7,1.85,1.85,0,0,0,.407-.453,3.912,3.912,0,0,0,.272-1.023,5.521,5.521,0,0,1,.294-.806,23.728,23.728,0,0,0,.851-2.408,13.825,13.825,0,0,0,.389-1.647c.072-.453.113-.905.149-1.358a7.963,7.963,0,0,1,.416-2.059,16.588,16.588,0,0,0,.955-4.942,2.584,2.584,0,0,0-.05-.724,3.875,3.875,0,0,0-.4-.828c-.272-.511-.453-1.073-.688-1.593a7.834,7.834,0,0,0-2.675-2.81A2.037,2.037,0,0,0,504.859,590.4Z" transform="translate(-296.91 -396.971)" fill="#2f2e41"/>
    <path id="Path_19208" data-name="Path 19208" d="M472.719,615.391a4.72,4.72,0,0,1-1.245-.946c-.163-.19-.3-.4-.453-.593a3.082,3.082,0,0,0-1.566-.905,7.652,7.652,0,0,0-1.81-.177,3.285,3.285,0,0,0-1.208.145,1.231,1.231,0,0,0-.8.86,1.426,1.426,0,0,0,.611,1.267,2.878,2.878,0,0,0,1.217.588,9.746,9.746,0,0,0,1.1.131c2.163.226,4.1,1.4,5.992,2.476q2.5,1.421,5.1,2.643a10.589,10.589,0,0,0,.086-1.561c0-.389-.032-.987-.4-1.217a7.994,7.994,0,0,0-1.62-.484,25.508,25.508,0,0,1-3.263-1.322A16.245,16.245,0,0,1,472.719,615.391Z" transform="translate(-278.441 -409.25)" fill="#fbbebe"/>
    <ellipse id="Ellipse_953" data-name="Ellipse 953" cx="3.856" cy="3.878" rx="3.856" ry="3.878" transform="translate(199.884 186.157)" fill="#fbbebe"/>
    <path id="Path_19209" data-name="Path 19209" d="M502.43,599.585a6.183,6.183,0,0,0-.747,1.4c-.453.978-1.222,1.81-1.6,2.847s-.38,2.367-1.154,3.213a1.126,1.126,0,0,0-.339.489,2.335,2.335,0,0,1-.036.353c-.113.308-.615.321-.711.638-.027.091,0,.19-.045.281-.077.2-.348.235-.525.357-.376.253-.3.842-.566,1.208a1.018,1.018,0,0,1-.964.339,3.394,3.394,0,0,1-1-.376.965.965,0,0,0-.362-.113.747.747,0,0,0-.416.145,2.566,2.566,0,0,0-1.041,2.195,7.167,7.167,0,0,0,.6,2.457.985.985,0,0,0,.195.367.864.864,0,0,0,.959.072,4.531,4.531,0,0,1,.937-.421c.6-.109,1.181.3,1.788.267a2.485,2.485,0,0,0,1.2-.53,6.651,6.651,0,0,0,1.62-1.358c.262-.348.453-.742.688-1.113a14.292,14.292,0,0,1,.973-1.3l2.227-2.715a6.249,6.249,0,0,0,.6-.824,5.806,5.806,0,0,0,.453-1.245,9.535,9.535,0,0,0,.453-2.213,8.506,8.506,0,0,0-.163-1.855,6.56,6.56,0,0,0-.453-1.77C504.516,599.359,503.339,598.526,502.43,599.585Z" transform="translate(-293.381 -401.766)" fill="#2f2e41"/>
    <path id="Path_19210" data-name="Path 19210" d="M507.567,573.778a4.344,4.344,0,0,0-1.783-3.53,5.164,5.164,0,0,0-4.385-5.028,5.01,5.01,0,0,0-9.87.267c-1.6-.362-3.068.109-3.335,1.1s.864,2.263,2.552,2.715a4.755,4.755,0,0,0,1.638.163,5.014,5.014,0,0,0,3.448,2.15,5.145,5.145,0,0,0,3.765,3.883,4.322,4.322,0,0,0,1.163,1.607v.376a3.263,3.263,0,1,0,6.526,0,3.484,3.484,0,0,0-.312-1.444A4.362,4.362,0,0,0,507.567,573.778Z" transform="translate(-290.77 -381.019)" fill="#fe018a"/>
    <path id="Path_19211" data-name="Path 19211" d="M489.273,566.788c.267-.987,1.733-1.457,3.335-1.1a5.1,5.1,0,0,1,4.978-4.29h.33a4.9,4.9,0,0,0-1.421-.213,5.1,5.1,0,0,0-4.978,4.29c-1.6-.362-3.068.109-3.335,1.1s.864,2.263,2.552,2.715a4.978,4.978,0,0,0,.969.167C490.088,568.974,489.006,567.8,489.273,566.788Z" transform="translate(-290.765 -381.016)" opacity="0.1"/>
    <path id="Path_19212" data-name="Path 19212" d="M507.065,587.867a3.4,3.4,0,0,1,0-.371,4.227,4.227,0,0,1-1.163-1.607A5.132,5.132,0,0,1,502.137,582a5,5,0,0,1-3.453-2.145,4.345,4.345,0,0,1-.964-.027,5.027,5.027,0,0,0,3.326,1.978,5.145,5.145,0,0,0,3.765,3.883,4.323,4.323,0,0,0,1.163,1.607v.376a3.322,3.322,0,0,0,3.245,3.376A3.376,3.376,0,0,1,507.065,587.867Z" transform="translate(-296.007 -391.221)" opacity="0.1"/>
    <ellipse id="Ellipse_954" data-name="Ellipse 954" cx="0.593" cy="0.792" rx="0.593" ry="0.792" transform="translate(204.079 190.556) rotate(-37.22)" fill="#fbbebe"/>
  </g>
</svg>
