<svg xmlns="http://www.w3.org/2000/svg" width="128.938" height="39.364" viewBox="0 0 128.938 39.364">
  <path id="goo" d="M23.365,138.316a5.825,5.825,0,0,0-5.831,5.777V171.9a5.825,5.825,0,0,0,5.831,5.777H140.641a5.825,5.825,0,0,0,5.831-5.777v-27.81a5.831,5.831,0,0,0-5.831-5.777Zm0,3.028H140.641a2.746,2.746,0,0,1,2.8,2.749V171.9a2.747,2.747,0,0,1-2.8,2.75H23.365a2.747,2.747,0,0,1-2.8-2.75v-27.81A2.746,2.746,0,0,1,23.365,141.344Zm62.3,4.489a2.858,2.858,0,0,0-2.888,2.912A2.82,2.82,0,0,0,83.6,150.8a2.933,2.933,0,0,0,4.132,0,2.915,2.915,0,0,0,.842-2.061,2.837,2.837,0,0,0-.842-2.061A2.774,2.774,0,0,0,85.665,145.832Zm-25.268.019a2.893,2.893,0,0,0-2.066.832,2.721,2.721,0,0,0-.861,2.061,2.792,2.792,0,0,0,.861,2.08,2.862,2.862,0,0,0,2.066.832,2.769,2.769,0,0,0,2.066-.832,2.5,2.5,0,0,0,.688-1.853.872.872,0,0,0-.057-.4H60.378v.662h2.047a1.733,1.733,0,0,1-.478,1.134,2.132,2.132,0,0,1-1.568.624,2.17,2.17,0,0,1-1.53-.624,2.231,2.231,0,0,1,1.53-3.838,1.939,1.939,0,0,1,1.549.662l.5-.492a2.172,2.172,0,0,0-.88-.624,2.957,2.957,0,0,0-1.148-.227Zm3.787.095V151.5h3.29v-.68H64.911v-1.758h2.315V148.4H64.911v-1.758h2.563v-.7Zm4.055.019v.681h1.568v4.878h.727v-4.878H72.1v-.681Zm6.657,0v5.558h.727v-5.558Zm1.645,0v.681H78.11v4.878h.727v-4.878h1.568v-.681Zm13.026,0v5.558h.727v-3.46l-.038-1.078h.038l2.869,4.537h.746v-5.558h-.727v3.252l.038,1.078h-.038l-2.735-4.329Zm-60.275.123a1.217,1.217,0,0,0-.761.295l0,0-.077.076a1.882,1.882,0,0,0-.44,1.3v20.513a1.8,1.8,0,0,0,.44,1.3l.077.057.011-.011a1.571,1.571,0,0,0,1.882-.008l13.6-7.64,0,0s.1-.057.115-.038l4.591-2.571c1.3-.737,1.3-1.947,0-2.685l-4.591-2.59-.1-.057-.009.009L30.4,146.4a2.109,2.109,0,0,0-1.112-.312Zm56.373.407a2.076,2.076,0,0,1,1.53.624,2.361,2.361,0,0,1,0,3.214,2.107,2.107,0,0,1-1.53.624,2.076,2.076,0,0,1-1.53-.624,2.361,2.361,0,0,1,0-3.214A2.076,2.076,0,0,1,85.665,146.494ZM63.458,155.3a6.128,6.128,0,1,0,0,12.251,5.705,5.705,0,0,0,4.323-1.72,5.534,5.534,0,0,0,1.473-3.913,5.362,5.362,0,0,0-.1-1.04c0-.038-5.7-.038-5.7-.038v1.683h4.055a3.418,3.418,0,0,1-.918,2.1,4.17,4.17,0,0,1-3.137,1.229,4.443,4.443,0,1,1,3.06-7.694l1.186-1.172A5.9,5.9,0,0,0,63.458,155.3Zm46.539.378v11.589h1.741v-4.386h2.449a3.609,3.609,0,1,0,0-7.2Zm-13.811.019V167.29h1.76V155.7Zm22.8,0V167.29h1.76V155.7Zm-7.25,1.607h2.487a1.986,1.986,0,1,1,0,3.97h-2.487Zm13.313,2.307a3.275,3.275,0,0,0-3.118,1.777l1.549.643a1.9,1.9,0,0,1,3.443.643v.113a3.814,3.814,0,0,0-1.836-.454c-1.664,0-3.386.908-3.386,2.609a2.7,2.7,0,0,0,2.907,2.552,2.482,2.482,0,0,0,2.238-1.134h.057v.889h1.683V162.81C128.609,160.768,127.059,159.615,125.051,159.615Zm-51.187.019a3.952,3.952,0,1,0,4,3.951A3.914,3.914,0,0,0,73.863,159.633Zm8.723,0a3.952,3.952,0,1,0,4.017,3.951A3.914,3.914,0,0,0,82.586,159.633Zm8.569,0a3.944,3.944,0,0,0,0,7.884,2.764,2.764,0,0,0,2.1-.889h.058v.567a2.037,2.037,0,0,1-2.123,2.325,2.2,2.2,0,0,1-2.009-1.4l-1.53.624a3.815,3.815,0,0,0,3.539,2.325c2.066,0,3.787-1.191,3.787-4.1v-7.09H93.317v.624h-.058a2.825,2.825,0,0,0-2.1-.87Zm11.381,0a3.784,3.784,0,0,0-3.768,3.951,3.882,3.882,0,0,0,3.96,3.951,3.972,3.972,0,0,0,3.328-1.739l-1.358-.889a2.287,2.287,0,0,1-1.97,1.1,2.026,2.026,0,0,1-1.932-1.191l5.337-2.174a2.452,2.452,0,0,0-.172-.492A3.682,3.682,0,0,0,102.537,159.633Zm26.187.227,3.118,7.014-1.779,3.913H131.9l4.82-10.927h-1.951l-2.008,5.029H132.7l-2.085-5.029Zm-26.11,1.286a1.586,1.586,0,0,1,1.492.832c-.019.019-3.577,1.474-3.577,1.474A2.186,2.186,0,0,1,102.613,161.146Zm-11.3.038a2.409,2.409,0,0,1,0,4.783,2.4,2.4,0,0,1,0-4.783Zm-17.445.019a2.284,2.284,0,0,1,2.257,2.382,2.26,2.26,0,1,1-4.514,0A2.284,2.284,0,0,1,73.863,161.2Zm8.723,0a2.273,2.273,0,0,1,2.257,2.382,2.26,2.26,0,1,1-4.514,0A2.273,2.273,0,0,1,82.586,161.2Zm42.732,2.533a3.182,3.182,0,0,1,1.607.4,2.124,2.124,0,0,1-2.085,1.834c-.574,0-1.377-.284-1.377-.983C123.463,164.1,124.458,163.736,125.318,163.736Z" transform="translate(-17.534 -138.316)" fill="#fff"/>
</svg>
