<svg id="lock" xmlns="http://www.w3.org/2000/svg" width="21.958" height="21.959" viewBox="0 0 21.958 21.959">
  <rect id="Rectangle_2621" data-name="Rectangle 2621" width="21.959" height="21.959" transform="translate(0 0)" fill="none"/>
  <path id="Combined-Shape" d="M245.294,149.41v-2.47a4.941,4.941,0,0,1,9.783-.986.823.823,0,0,1-1.614.327,3.295,3.295,0,0,0-6.523.659v2.47H256a2.469,2.469,0,0,1,2.471,2.47v5.762a2.468,2.468,0,0,1-2.471,2.47H244.471a2.469,2.469,0,0,1-2.471-2.47V151.88a2.47,2.47,0,0,1,2.471-2.47Zm-.823,1.646a.825.825,0,0,0-.825.824v5.762a.824.824,0,0,0,.825.824H256a.824.824,0,0,0,.825-.824V151.88a.825.825,0,0,0-.825-.824Z" transform="translate(-239.255 -140.165)" fill="#83858b"/>
</svg>
