<svg xmlns="http://www.w3.org/2000/svg" width="23" height="21.467" viewBox="0 0 23 21.467">
  <path id="ma3hd" d="M39,36.6v.767a.383.383,0,0,1-.383.383h-1.15v.575a.575.575,0,0,1-.575.575H18.108a.575.575,0,0,1-.575-.575V37.75h-1.15A.383.383,0,0,1,16,37.366V36.6a.383.383,0,0,1,.237-.354l11.117-4.217a.383.383,0,0,1,.293,0l11.117,4.217A.383.383,0,0,1,39,36.6ZM37.85,51.166H17.15A1.15,1.15,0,0,0,16,52.316v.767a.383.383,0,0,0,.383.383H38.617A.383.383,0,0,0,39,53.083v-.767A1.15,1.15,0,0,0,37.85,51.166Zm-18.017-11.5v9.2H18.108a.575.575,0,0,0-.575.575V50.4H37.467v-.958a.575.575,0,0,0-.575-.575H35.167v-9.2H32.1v9.2H29.033v-9.2H25.967v9.2H22.9v-9.2Z" transform="translate(-16 -32)" fill="#fff"/>
</svg>
