<svg xmlns="http://www.w3.org/2000/svg" width="16.56" height="13.549" viewBox="0 0 16.56 13.549">
  <path id="mail" d="M708.56,259.257h0v9.033a2.263,2.263,0,0,1-2.258,2.258H694.258A2.263,2.263,0,0,1,692,268.291v-9.033h0A2.263,2.263,0,0,1,694.258,257H706.3A2.262,2.262,0,0,1,708.56,259.257Zm-1.586-.334a.757.757,0,0,0-.672-.417H694.258a.757.757,0,0,0-.672.417l6.694,4.686Zm.081,1.782-6.343,4.44a.753.753,0,0,1-.863,0l-6.343-4.44v7.587a.757.757,0,0,0,.753.753H706.3a.757.757,0,0,0,.753-.753Z" transform="translate(-692 -257)" fill="#83858b"/>
</svg>
