<svg xmlns="http://www.w3.org/2000/svg" width="23.4" height="30" viewBox="0 0 23.4 30">
  <g id="set-user" transform="translate(-18.8 -10)">
    <path id="Path_18898" data-name="Path 18898" d="M39.028,55.972A8.061,8.061,0,0,0,34.471,54.4c-.191.123-.221.217-.221.217l.375,1.811h-3L31.062,57.7v9.6H29.937V57.7l-.562-1.268h-3l.375-1.811s-.03-.094-.221-.217a8.027,8.027,0,0,0-4.579,1.594c-2.475,2.47-3.038,7.349-3.15,11.3H42.2C42.088,63.328,41.518,58.435,39.028,55.972Z" transform="translate(0 -27.294)" fill="#40a3af"/>
    <path id="Path_18899" data-name="Path 18899" d="M39.37,25.393a5.781,5.781,0,0,0,5.891-4.1c1.1-3.933.866-5.838.732-6.519C45.473,12.061,42.52,10,39.37,10s-6.1,2.061-6.626,4.759c-.135.692-.385,2.6.732,6.519A5.807,5.807,0,0,0,39.37,25.393Z" transform="translate(-8.816)" fill="#40a3af"/>
  </g>
</svg>
