<svg id="star" xmlns="http://www.w3.org/2000/svg" width="16" height="15.262" viewBox="0 0 16 15.262">
  <g id="_216411_star_icon" data-name="216411_star_icon" transform="translate(0 0)">
    <g id="Group_16932" data-name="Group 16932" transform="translate(0 0)">
      <path id="Path_18169" data-name="Path 18169" d="M9.122,8.943,4.075,9.5a.482.482,0,0,0-.4.329.474.474,0,0,0,.134.5c1.5,1.369,3.754,3.419,3.754,3.419s-.619,2.982-1.029,4.972a.483.483,0,0,0,.188.485.476.476,0,0,0,.515.027c1.767-1,4.413-2.514,4.413-2.514l4.411,2.515a.477.477,0,0,0,.705-.512c-.41-1.991-1.026-4.973-1.026-4.973s2.254-2.05,3.754-3.416a.483.483,0,0,0,.134-.5.478.478,0,0,0-.4-.327c-2.019-.226-5.048-.561-5.048-.561L12.084,4.316a.484.484,0,0,0-.437-.282.478.478,0,0,0-.434.282C10.376,6.167,9.122,8.943,9.122,8.943Z" transform="translate(-3.649 -4.034)" fill="#ffa101"/>
    </g>
  </g>
</svg>
