<svg xmlns="http://www.w3.org/2000/svg" width="78.87" height="101.878" viewBox="0 0 78.87 101.878">
  <g id="t1" transform="translate(-23.165 -23.558)">
    <path id="Path_19216" data-name="Path 19216" d="M608.349,642.545V613.16a1.554,1.554,0,0,1,1.553-1.553h3.526a1.554,1.554,0,0,1,1.553,1.553v29.385a1.555,1.555,0,0,1-1.553,1.553H609.9A1.555,1.555,0,0,1,608.349,642.545Z" transform="translate(-534.175 -518.99)" fill="#2f2e41"/>
    <path id="Path_19217" data-name="Path 19217" d="M579.156,642.545V613.16a1.554,1.554,0,0,1,1.553-1.553h3.526a1.554,1.554,0,0,1,1.553,1.553v29.385a1.554,1.554,0,0,1-1.553,1.553h-3.526A1.555,1.555,0,0,1,579.156,642.545Z" transform="translate(-511.955 -518.99)" fill="#2f2e41"/>
    <rect id="Rectangle_4779" data-name="Rectangle 4779" width="17.141" height="18.992" rx="6" transform="translate(65.432 84.468)" fill="#2f2e41"/>
    <path id="Path_19218" data-name="Path 19218" d="M423.46,375.764s-7.2,3.347-13.3,5.566c-3.783-8.54-9.233-8.22-9.233-8.22l-3.3,2.275.6,3.412-.163,5.579-.867,2.925,1.244.225.7.127.106-.1a7.214,7.214,0,0,0-.21,2.127l31.254-4.875S429.2,379.772,423.46,375.764Z" transform="translate(-373.455 -337.462)" fill="#e6e6e6"/>
    <rect id="Rectangle_4780" data-name="Rectangle 4780" width="6.392" height="32.251" rx="3.196" transform="matrix(-0.594, -0.804, 0.804, -0.594, 43.723, 86.214)" fill="#a0616a"/>
    <rect id="Rectangle_4781" data-name="Rectangle 4781" width="6.392" height="32.251" rx="3.196" transform="matrix(0.883, -0.469, 0.469, 0.883, 76.661, 64.418)" fill="#a0616a"/>
    <path id="Path_19219" data-name="Path 19219" d="M632.435,494.5l-5.086,3.372a1.52,1.52,0,0,1-2.079-.519l-5.617-10.585a1.519,1.519,0,0,1,.735-2.013l3.462-1.837a1.519,1.519,0,0,1,2.079.519l7.242,9.05A1.52,1.52,0,0,1,632.435,494.5Z" transform="translate(-542.662 -420.885)" fill="#d28f87"/>
    <path id="Path_19220" data-name="Path 19220" d="M527.313,491.048l3.306,4.39a1.433,1.433,0,0,0,2.026.064l8.737-8.2a1.433,1.433,0,0,0,.064-2.026l-2.413-2.571a1.433,1.433,0,0,0-2.026-.064l-9.63,6.381A1.433,1.433,0,0,0,527.313,491.048Z" transform="translate(-472.201 -420.535)" fill="#ccc"/>
    <rect id="Rectangle_4782" data-name="Rectangle 4782" width="18.886" height="36.9" rx="6" transform="translate(64.56 61.671)" fill="#d28f87"/>
    <circle id="Ellipse_958" data-name="Ellipse 958" cx="12.784" cy="12.784" r="12.784" transform="translate(61.125 33.882)" fill="#a0616a"/>
    <path id="Path_19221" data-name="Path 19221" d="M602.974,411.2a4.4,4.4,0,0,1-2.529-.6,1.943,1.943,0,0,1-.764-1.451,1.306,1.306,0,0,1,.444-1.073,1.685,1.685,0,0,1,1.6-.23l-.645-4.712.474-.065.757,5.54-.4-.181a1.446,1.446,0,0,0-1.478.013.84.84,0,0,0-.275.691,1.468,1.468,0,0,0,.569,1.082,3.952,3.952,0,0,0,2.261.511Z" transform="translate(-527.574 -360.263)" fill="#2f2e41"/>
    <rect id="Rectangle_4783" data-name="Rectangle 4783" width="2.573" height="0.478" transform="translate(68.587 43.273)" fill="#2f2e41"/>
    <rect id="Rectangle_4784" data-name="Rectangle 4784" width="2.573" height="0.478" transform="translate(76.708 43.273)" fill="#2f2e41"/>
    <path id="Path_19222" data-name="Path 19222" d="M557.262,335.622a4.693,4.693,0,0,1-3.853-4.236,6.889,6.889,0,0,1,3.1-6.017,13.236,13.236,0,0,1,6.91-2.123,18.993,18.993,0,0,1,12.982,4.279,11.976,11.976,0,0,1,4.138,5.727,5.547,5.547,0,0,1-1.511,5.687,3.816,3.816,0,0,1-2.929.9,7.278,7.278,0,0,1-3.409-1.516c-1.946-1.415-3.544-3.386-5.915-4.126a4.6,4.6,0,0,0-5.057,1.507,2.863,2.863,0,0,0-.457,1.2.371.371,0,0,0,.25.441.36.36,0,0,0,.441-.25c.279-1.98,2.714-2.719,4.422-2.267,2.491.659,4.163,2.882,6.207,4.295a7.543,7.543,0,0,0,3.615,1.443,4.488,4.488,0,0,0,3.154-.969,6.133,6.133,0,0,0,2.028-5.885,11.551,11.551,0,0,0-3.937-6.232,19.694,19.694,0,0,0-13.459-4.972,14.726,14.726,0,0,0-7.337,1.914,8.012,8.012,0,0,0-3.955,5.979,5.645,5.645,0,0,0,3.043,5.506,4.765,4.765,0,0,0,1.527.431C557.72,336.391,557.716,335.674,557.262,335.622Z" transform="translate(-491.798 -298.947)" fill="#2f2e41"/>
    <path id="Path_19223" data-name="Path 19223" d="M397.385,387.225l1.517-.488c.163-.311-.135-.112.007-.414,3.837-8.186.291-13.209.291-13.209L396.456,375c-.007-.015-.012-.032-.019-.047,0,0-.488-1.083-1.246-.271a19.23,19.23,0,0,1-.271,13l3.088,1.408,1.192-1.408.027-.135-2.133-.194Z" transform="translate(-371.729 -337.467)" fill="#83858b"/>
    <path id="Path_19224" data-name="Path 19224" d="M440.551,444.249c-12.188-2.708-23.536,2.9-23.536,2.9l-.031-.028-4.519-4.035-17.658-28.817,4.306.027c11.971-7.15,28.817-6.175,28.817-6.175C435.189,416.353,440.551,444.249,440.551,444.249Z" transform="translate(-371.642 -364.077)" fill="#fff"/>
    <path id="Path_19225" data-name="Path 19225" d="M416.985,466.852l-4.519-4.035L394.807,434l4.306.027S416.277,456.7,416.985,466.852Z" transform="translate(-371.642 -383.809)" fill="#83858b" opacity="0.79"/>
    <ellipse id="Ellipse_959" data-name="Ellipse 959" cx="6.988" cy="4.442" rx="6.988" ry="4.442" transform="translate(38.041 54.114) rotate(-17.052)" fill="#40a3af"/>
    <rect id="Rectangle_4785" data-name="Rectangle 4785" width="55.419" height="0.478" transform="translate(46.616 124.958)" fill="#3f3d56"/>
  </g>
</svg>
