<svg id="t2" xmlns="http://www.w3.org/2000/svg" width="80" height="96.379" viewBox="0 0 80 96.379">
  <path id="Path_18232" data-name="Path 18232" d="M306.479,398.437a3.769,3.769,0,0,0,5.707.907l11.618,6.663-.433-6.946L312.4,393.8a3.789,3.789,0,0,0-5.926,4.638Z" transform="translate(-305.928 -352.313)" fill="#ffb8b8"/>
  <path id="Path_18233" data-name="Path 18233" d="M540.811,623.572c-3.446,4.823-3.323,12.893-2.361,21.725h16.293l.708-1.653.945,1.653h15.349s-1.181-22.433-3.306-23.142S540.811,623.572,540.811,623.572Z" transform="translate(-504.478 -548.918)" fill="#202023"/>
  <circle id="Ellipse_883" data-name="Ellipse 883" cx="8.265" cy="8.265" r="8.265" transform="translate(41.807 4.156)" fill="#ffb8b8"/>
  <path id="Path_18234" data-name="Path 18234" d="M529,275.367l1.616,3.1,11.179,4.983-2.938,28.437-1.237,2.945.668,2.557-1.611,1.887c1.617,1.463,1.823,2.995.943,4.579l-5.148,1.179s-28.624,2.545-26.211-1.889c2.636-4.845,3.307-19.154-2.512-26.8-4.94-6.492-1.147-14.915-1.147-14.915l11.718-3.5,4.31-2.559Z" transform="translate(-471.938 -250.613)" fill="#d28f87"/>
  <path id="Path_18235" data-name="Path 18235" d="M606.648,106.179a.456.456,0,0,1,.439-.26c-3.784-.226-7.769.215-10.935,2.3a16.5,16.5,0,0,1-2.325,1.474.25.25,0,0,0-.051.426l.092.072a.251.251,0,0,1-.082.438h0a.251.251,0,0,0-.063.452l.7.454a.25.25,0,0,1,0,.421,1.243,1.243,0,0,1-.187.095.251.251,0,0,0-.079.421,2.5,2.5,0,0,1,.68.994,6.405,6.405,0,0,1,.316,1.923,2.375,2.375,0,0,1,2.235-1.548,9.834,9.834,0,0,1,2.855.493,15.8,15.8,0,0,0,6.269.241c-.708,1.421-.111,3.115.49,4.585l1.945-.834c2.672-1.508.811,4.871-.188,5.747,2.039.707,7.377-7.14,5.66-10.117-.893-1.548-.259-3.545-2.015-5.014-.861-.906-2.579-.5-3.457-1.256-.345-.3.181-1.089-.294-1.262A13.836,13.836,0,0,0,606.648,106.179Z" transform="translate(-552.804 -105.865)" fill="#2f2e41"/>
  <path id="Path_18236" data-name="Path 18236" d="M403.081,300.308c-1.517,6.733-5.406,22.454-9.353,25.741a2.3,2.3,0,0,1-.878.518c-13.871,3.379-18.316-5.241-18.316-5.241s3.717-1.812,3.812-5.352l7.5,2.326,6.535-14.706.962-.9.005-.005Z" transform="translate(-365.294 -272.695)" fill="#3f3d56"/>
  <path id="Path_18237" data-name="Path 18237" d="M764.746,642.563a3.769,3.769,0,0,0-.4-5.765l3.889-12.816-6.672,1.979-2.67,11.867a3.789,3.789,0,0,0,5.849,4.735Z" transform="translate(-694.416 -550.624)" fill="#ffb8b8"/>
  <path id="Path_18238" data-name="Path 18238" d="M767.513,330.044l3.082.717s12.739,24.786,9.669,29.509-6.83,20.359-6.83,20.359-5.562-1.106-7.688-3.939l3.892-18.544-4.014-15.585Z" transform="translate(-700.742 -296.275)" fill="#d28f87"/>
  <path id="Path_18239" data-name="Path 18239" d="M345.51,327.326l.111-39.919a3.051,3.051,0,0,1,3.056-3.039l30.148.084a3.051,3.051,0,0,1,3.039,3.056l-.111,39.919a3.051,3.051,0,0,1-3.056,3.039l-30.148-.084A3.051,3.051,0,0,1,345.51,327.326Z" transform="translate(-340.179 -258.485)" fill="#e6e6e6"/>
  <path id="Path_18240" data-name="Path 18240" d="M362.928,330.678,363,305.014a2.857,2.857,0,0,1,2.862-2.846l25.91.072a2.857,2.857,0,0,1,2.846,2.862l-.1,35.523a2.857,2.857,0,0,1-2.862,2.846l-16.05-.044A12.728,12.728,0,0,1,362.928,330.678Z" transform="translate(-355.251 -273.893)" fill="#fff"/>
  <path id="Path_18241" data-name="Path 18241" d="M417.449,370.292h-20.2a1.212,1.212,0,1,1,0-2.424h20.2a1.212,1.212,0,1,1,0,2.424Z" transform="translate(-383.236 -331.184)" fill="#40a3af"/>
  <path id="Path_18242" data-name="Path 18242" d="M401.691,328.792h-4.445a1.212,1.212,0,1,1,0-2.424h4.445a1.212,1.212,0,0,1,0,2.424Z" transform="translate(-383.385 -295.495)" fill="#40a3af"/>
  <path id="Path_18243" data-name="Path 18243" d="M417.449,411.792h-20.2a1.212,1.212,0,1,1,0-2.424h20.2a1.212,1.212,0,1,1,0,2.424Z" transform="translate(-383.236 -366.873)" fill="#40a3af"/>
  <path id="Path_18244" data-name="Path 18244" d="M417.449,453.292h-20.2a1.212,1.212,0,1,1,0-2.424h20.2a1.212,1.212,0,1,1,0,2.424Z" transform="translate(-383.236 -402.563)" fill="#40a3af"/>
  <circle id="Ellipse_884" data-name="Ellipse 884" cx="4.823" cy="4.823" r="4.823" transform="translate(28.286 56.293)" fill="#40a3af"/>
  <path id="Path_18245" data-name="Path 18245" d="M526.111,528.789a.536.536,0,0,1-.429-.215l-1.316-1.755a.537.537,0,1,1,.858-.644l.861,1.148,2.211-3.317a.537.537,0,0,1,.893.6l-2.632,3.947a.537.537,0,0,1-.432.239Z" transform="translate(-493.641 -465.19)" fill="#fff"/>
  <circle id="Ellipse_885" data-name="Ellipse 885" cx="2.29" cy="2.29" r="2.29" transform="translate(20.134 10.169)" fill="#f2f2f2"/>
  <circle id="Ellipse_886" data-name="Ellipse 886" cx="2.29" cy="2.29" r="2.29" transform="translate(10.991 79.606)" fill="#f2f2f2"/>
  <circle id="Ellipse_887" data-name="Ellipse 887" cx="2.29" cy="2.29" r="2.29" transform="translate(66.621 19.831)" fill="#f2f2f2"/>
</svg>
