<svg id="t3" xmlns="http://www.w3.org/2000/svg" width="123.272" height="80" viewBox="0 0 123.272 80">
  <path id="Path_18246" data-name="Path 18246" d="M788.008,414.9l6.976-10.374-6.962,11.49.015,1.167q-.764.006-1.513-.025l.346-15.006-.009-.116.013-.022.033-1.418-7.64-11.092,7.631,10.031.027.3.261-11.338-6.6-11.5,6.617,9.508-.069-23.488v-.078l0,.077.438,18.512,6.014-7.52-5.994,9.114.131,10.141,5.534-9.9-5.514,11.388.073,5.639,8.048-13.787-8.024,15.754Z" transform="translate(-693.93 -339.494)" fill="#e6e6e6"/>
  <path id="Path_18247" data-name="Path 18247" d="M944.359,417.078l6.976-10.374-6.962,11.49.015,1.167q-.764.006-1.513-.025l.346-15.006-.009-.116.013-.022.033-1.418-7.64-11.092,7.631,10.031.027.3.261-11.337-6.6-11.5,6.617,9.508-.069-23.488v-.078l0,.077.438,18.512,6.014-7.52-5.994,9.114.131,10.141,5.534-9.9L944.1,396.933l.073,5.639,8.048-13.787-8.024,15.754Z" transform="translate(-828.947 -341.344)" fill="#e6e6e6"/>
  <rect id="Rectangle_4762" data-name="Rectangle 4762" width="41.746" height="56.467" transform="translate(13.815)" fill="#e6e6e6"/>
  <rect id="Rectangle_4763" data-name="Rectangle 4763" width="38.804" height="52.488" transform="translate(15.286 1.99)" fill="#fff"/>
  <path id="Path_18248" data-name="Path 18248" d="M313.968,225.15H285.489a.871.871,0,1,1,0-1.741h28.479a.871.871,0,0,1,0,1.741Z" transform="translate(-264.978 -213.954)" fill="#e6e6e6"/>
  <path id="Path_18249" data-name="Path 18249" d="M313.968,284.78H285.489a.871.871,0,1,1,0-1.741h28.479a.871.871,0,0,1,0,1.741Z" transform="translate(-264.978 -266.133)" fill="#e6e6e6"/>
  <path id="Path_18250" data-name="Path 18250" d="M313.968,344.408H285.489a.87.87,0,1,1,0-1.741h28.479a.87.87,0,0,1,0,1.741Z" transform="translate(-264.978 -317.539)" fill="#e6e6e6"/>
  <path id="Path_18251" data-name="Path 18251" d="M313.968,404.038H285.489a.871.871,0,1,1,0-1.741h28.479a.871.871,0,0,1,0,1.741Z" transform="translate(-264.978 -368.946)" fill="#e6e6e6"/>
  <path id="Path_18252" data-name="Path 18252" d="M313.968,463.667H285.489a.871.871,0,1,1,0-1.741h28.479a.871.871,0,0,1,0,1.741Z" transform="translate(-264.978 -420.352)" fill="#e6e6e6"/>
  <path id="Path_18253" data-name="Path 18253" d="M308.29,225.15H284.661a.871.871,0,1,1,0-1.741H308.29a.871.871,0,0,1,0,1.741Z" transform="translate(-264.275 -213.954)" fill="#40a3af"/>
  <path id="Path_18254" data-name="Path 18254" d="M300.953,284.78H284.661a.871.871,0,0,1,0-1.741h16.291a.871.871,0,0,1,0,1.741Z" transform="translate(-264.275 -266.133)" fill="#40a3af"/>
  <path id="Path_18255" data-name="Path 18255" d="M292,344.408h-7.337a.87.87,0,1,1,0-1.741H292a.87.87,0,1,1,0,1.741Z" transform="translate(-264.275 -317.539)" fill="#40a3af"/>
  <path id="Path_18256" data-name="Path 18256" d="M310.529,404.038H284.661a.871.871,0,0,1,0-1.741h25.867a.871.871,0,0,1,0,1.741Z" transform="translate(-264.275 -368.946)" fill="#40a3af"/>
  <path id="Path_18257" data-name="Path 18257" d="M304.808,463.667H284.661a.871.871,0,0,1,0-1.741h20.147a.871.871,0,0,1,0,1.741Z" transform="translate(-264.275 -420.352)" fill="#40a3af"/>
  <rect id="Rectangle_4764" data-name="Rectangle 4764" width="122.619" height="0.3" transform="translate(0 77.692)" fill="#3f3d56"/>
  <path id="Path_18258" data-name="Path 18258" d="M641.612,401.018s-.944-6.922-2.517-5.034,0,4.719,0,4.719l1.258,1.573,1.258-.944Z" transform="translate(-571.599 -363.398)" fill="#9f616a"/>
  <path id="Path_18259" data-name="Path 18259" d="M650.926,429.561s-3.146-3.461-3.776-2.832-2.517.944-2.2,2.2,6.922,5.348,6.922,5.348Z" transform="translate(-577.396 -390.186)" fill="#d28f87"/>
  <path id="Path_18261" data-name="Path 18261" d="M788.8,443.924v2.517s.315,5.663-1.573,5.348-.944-5.034-.944-5.034l.315-2.832Z" transform="translate(-698.87 -405.102)" fill="#9f616a"/>
  <path id="Path_18262" data-name="Path 18262" d="M764.263,565.443s2.831,4.4,3.775,4.719,5.978,3.146,6.607,5.978l4.4,5.663-2.2,2.832s-10.068-10.7-12.9-11.641-5.663-5.663-5.663-5.663Z" transform="translate(-676.116 -511.588)" fill="#9f616a"/>
  <path id="Path_18263" data-name="Path 18263" d="M620.276,517.254s-5.978.944-5.034,4.719,10.068,11.641,10.068,11.641l.315,1.888,3.461.629,1.573-1.573-.315-.944s-3.776-3.461-4.09-4.719-3.775-6.292-5.348-6.607l2.2-1.258Z" transform="translate(-552.14 -469.153)" fill="#9f616a"/>
  <path id="Path_18264" data-name="Path 18264" d="M878.708,665.288s-1.258-1.888.629-1.573,3.146.629,3.146,1.888-1.573,10.068-3.461,9.439-.315-3.461-.315-3.461-.944-2.517-1.573-2.832-.629-1.888,0-1.888S879.022,665.917,878.708,665.288Z" transform="translate(-778.845 -595.073)" fill="#2f2e41"/>
  <path id="Path_18265" data-name="Path 18265" d="M667.351,624.34s0-1.573,1.258,0,1.888,2.832.629,3.775a63.292,63.292,0,0,1-5.663,3.146s-4.719.944-4.09-1.258c0,0,3.146-1.573,3.146-2.831s0-3.461.944-2.832S667.351,625.284,667.351,624.34Z" transform="translate(-590.099 -561.047)" fill="#2f2e41"/>
  <path id="Path_18266" data-name="Path 18266" d="M657.631,471.161s4.4.629,4.09,6.921c0,0,5.663,5.663,4.09,7.551s-5.034,5.348-6.292,4.4-5.034-8.18-5.034-8.18S645.675,485,644.1,483.431s-3.146-5.348-3.146-5.348l7.865-4.09Z" transform="translate(-575.014 -429.285)" fill="#202023"/>
  <circle id="Ellipse_888" data-name="Ellipse 888" cx="3.775" cy="3.775" r="3.775" transform="translate(67.52 19.318)" fill="#9f616a"/>
  <path id="Path_18267" data-name="Path 18267" d="M671.34,328.69s2.2,3.461,2.832,3.775-4.4,3.461-4.4,3.461,0-4.09-1.573-5.034Z" transform="translate(-597.428 -305.632)" fill="#9f616a"/>
  <path id="Path_18268" data-name="Path 18268" d="M671.654,348.989s5.034-1.573,5.978.944,3.146,7.236,2.832,10.382-.944,2.517,0,3.461,1.573.315,1.259,1.573-.629,1.259-.315,1.888-3.775,2.832-7.236,3.146l-3.461.315s0-5.663-.629-6.921-1.888-3.775-1.888-4.719v-2.5a9.552,9.552,0,0,1,1.258-4.739h0S671.34,348.989,671.654,348.989Z" transform="translate(-597.836 -323.299)" fill="#d28f87"/>
  <path id="Path_18269" data-name="Path 18269" d="M700.8,360.117s11.641.944,12.9,4.09,1.888,9.438.629,9.438-2.831.629-3.146,0-1.573-6.921-1.888-6.921-9.753-.944-9.753-.944S695.449,360.746,700.8,360.117Z" transform="translate(-623.813 -332.987)" fill="#d28f87"/>
  <path id="Path_18270" data-name="Path 18270" d="M639.492,301.358s-1-1.741-2.254-.229-3.29-1.267-2.977-1.86,1.417.027,3.31-.592,5.539-1.879,6.149,2.232-.844,3.681-.844,3.681-.667-3.643-1.269-2.6l-.6,1.047-.523.129Z" transform="translate(-568.312 -279.133)" fill="#2f2e41"/>
</svg>
