<svg id="t4" xmlns="http://www.w3.org/2000/svg" width="125.527" height="80" viewBox="0 0 125.527 80">
  <path id="Path_18271" data-name="Path 18271" d="M146.506,107.121l4.868,6.645a50.8,50.8,0,0,1,9,5.249l-1.161,1.813s-8.006-3.278-10.055-4.664l-3.741-5.865Z" transform="translate(-119.928 -88.377)" fill="#a0616a"/>
  <ellipse id="Ellipse_889" data-name="Ellipse 889" cx="1.491" cy="2.511" rx="1.491" ry="2.511" transform="translate(38.091 32.025) rotate(-55.653)" fill="#a0616a"/>
  <path id="Path_18272" data-name="Path 18272" d="M138.261,73.61l1.593-.452a1.787,1.787,0,0,1,1.45.913c.523.911,4.227,9.032,4.052,9.347s-.421.384-.106.56.6.087.388.35.082.841.082.841l-4.086,3.015Z" transform="translate(-113.983 -60.365)" fill="#d28f87"/>
  <path id="Path_18273" data-name="Path 18273" d="M103.986,411.894h1.943l.925-7.5h-2.868Z" transform="translate(-85.234 -333.5)" fill="#a0616a"/>
  <path id="Path_18274" data-name="Path 18274" d="M108.6,435.757h0a1.669,1.669,0,0,1,.092.549h0a.66.66,0,0,1-.66.66h-6.019a.45.45,0,0,1-.45-.45v-.25a1.924,1.924,0,0,1,.315-1.681s.762.727,1.9-.412l.336-.608,2.43,1.777,1.347.166c.295.036.556-.006.708.25Z" transform="translate(-83.191 -357.408)" fill="#2f2e41"/>
  <path id="Path_18275" data-name="Path 18275" d="M142.995,401.863l1.917.322,2.154-7.24-2.829-.475Z" transform="translate(-117.867 -325.364)" fill="#a0616a"/>
  <path id="Path_18276" data-name="Path 18276" d="M147.31,428.136h0a1.668,1.668,0,0,1,0,.557h0a.66.66,0,0,1-.76.541l-5.936-1a.45.45,0,0,1-.369-.518l.042-.247a1.924,1.924,0,0,1,.59-1.606s.631.843,1.942-.091l.432-.544,2.1,2.155,1.3.387C146.938,427.857,147.2,427.859,147.31,428.136Z" transform="translate(-115.612 -350.577)" fill="#2f2e41"/>
  <path id="Path_18277" data-name="Path 18277" d="M97.752,222.162s2.611,3.057,2.611,5.859.064,11.605.064,11.605-1.529,13.743-1.911,14.889a18.026,18.026,0,0,0-.573,3.057l-3.694-.892s-.51-12.929,1.019-15.986L91.575,230.25,90.3,259.8H86.013s-2.208-15.54-1.062-19.616c0,0-2.548-15.54-1.911-16.432s14.712-1.592,14.712-1.592Z" transform="translate(-67.982 -184.128)" fill="#2f2e41"/>
  <path id="Path_18278" data-name="Path 18278" d="M81.78,53.348l3.439.255,1.146,1.911s2.675,1.146,3.057,2.8.51,21.017.51,21.017l1.911,2.8-.127,2.42-15.285.764V82.992l-1.4-2.768s1.529-22.164,1.911-22.291,3.312-2.165,3.312-2.165l1.529-2.42Z" transform="translate(-61.499 -43.727)" fill="#d28f87"/>
  <circle id="Ellipse_890" data-name="Ellipse 890" cx="4.331" cy="4.331" r="4.331" transform="translate(17.507 0.485)" fill="#a0616a"/>
  <path id="Path_18279" data-name="Path 18279" d="M100.062,1.683A1.523,1.523,0,0,0,98.568.694h-.084A6.248,6.248,0,0,1,97.5.5a3.525,3.525,0,0,0-1.841.119A1.76,1.76,0,0,1,95.1.76a.452.452,0,0,1-.451-.294l-.034.51L94.428.563l-.126.548L93.9.654a.59.59,0,0,1-.241.535,2.221,2.221,0,0,1-.545.281A3,3,0,0,0,91.3,3.285a4.12,4.12,0,0,0,.008,1.666,3.49,3.49,0,0,0,.411,1.413,4.082,4.082,0,0,1,.52.792,5.93,5.93,0,0,0,.2.86,1.214,1.214,0,0,0,.7.511,3.171,3.171,0,0,1,.817.344c.241.174.52.674,1.045.647L95.17,9.2c.174-.142-.47-.029-.477-.254s.775-.363.665-.559c-.17-.3-.4-.56-.592-.847a1.554,1.554,0,0,1-.323-1.135.826.826,0,0,1,.218-.425c.327-.333.691-.187,1.045-.139a.652.652,0,0,0,.662-.216c.148-.247-.017-.561,0-.849a1.04,1.04,0,0,1,.5-.728,6.908,6.908,0,0,0,.762-.505.809.809,0,0,0,.288-.815,2.74,2.74,0,0,1,2.362-.216,5.717,5.717,0,0,0-.224-.83Z" transform="translate(-74.765 -0.351)" fill="#2f2e41"/>
  <g id="Group_17188" data-name="Group 17188" transform="translate(7.014 40.787)">
    <path id="Path_18280" data-name="Path 18280" d="M38.894,248.056V234.911a1.274,1.274,0,0,1,1.407-1.267,17.383,17.383,0,0,1,9.287.979.583.583,0,0,1,.583.583V248.4a.583.583,0,0,1-.583.583,25.219,25.219,0,0,0-9.771,0,.924.924,0,0,1-.923-.923Z" transform="translate(-38.894 -233.429)" fill="#e6e6e6"/>
    <path id="Path_18281" data-name="Path 18281" d="M38.894,252.025V238.74a1.275,1.275,0,0,1,1.274-1.274,18.091,18.091,0,0,1,9.42,0,.583.583,0,0,1,.583.583v13.056a.583.583,0,0,1-.581.582,18.849,18.849,0,0,0-9.772,1.26.924.924,0,0,1-.923-.923Z" transform="translate(-38.894 -236.227)" fill="#f2f2f2"/>
    <path id="Path_18282" data-name="Path 18282" d="M57.276,253.157H54.305a1.935,1.935,0,1,1,0-3.87h2.971a1.935,1.935,0,1,1,0,3.87Z" transform="translate(-49.94 -246.427)" fill="#e6e6e6"/>
  </g>
  <path id="Path_18283" data-name="Path 18283" d="M78.644,126.057l-.114,6.859s-.363,5.345-1.264,11.36l-2.148.137s.264-9.392.168-11.863l.152-5.489,3.206-1Z" transform="translate(-61.571 -104.049)" fill="#a0616a"/>
  <ellipse id="Ellipse_891" data-name="Ellipse 891" cx="1.491" cy="2.511" rx="1.491" ry="2.511" transform="matrix(0.999, -0.034, 0.034, 0.999, 13.163, 39.175)" fill="#a0616a"/>
  <path id="Path_18284" data-name="Path 18284" d="M74.774,77.637l-1.655.06a1.787,1.787,0,0,0-1.1,1.315C71.8,80.04,70.277,90.675,70.541,90.92s.518.236.273.5-.547.268-.262.452.181.825.181.825l4.577-.324Z" transform="translate(-57.735 -64.061)" fill="#d28f87"/>
  <path id="Path_18285" data-name="Path 18285" d="M323.914,73.247H279.885a2.554,2.554,0,0,1-.752-.113l-.026-.01C265.321,66.457,253.5,62.818,242.971,62l-.04-.008a2.425,2.425,0,0,1-1.741-2.313V2.428a2.382,2.382,0,0,1,1.02-1.957,2.526,2.526,0,0,1,2.225-.356l34.807,10.713a2.184,2.184,0,0,0,.643.1h44.029a2.463,2.463,0,0,1,2.493,2.426v57.47a2.463,2.463,0,0,1-2.493,2.426ZM279.255,72.8a2.189,2.189,0,0,0,.63.093h44.029a2.107,2.107,0,0,0,2.133-2.075V13.35a2.107,2.107,0,0,0-2.133-2.075H279.885a2.554,2.554,0,0,1-.752-.113L244.326.45a2.159,2.159,0,0,0-1.9.3,2.038,2.038,0,0,0-.872,1.674v57.25a2.074,2.074,0,0,0,1.47,1.973c10.567.825,22.42,4.473,36.234,11.152Z" transform="translate(-200.88)" fill="#3f3d56"/>
  <path id="Path_18286" data-name="Path 18286" d="M291.164,77.675c12-4.127,25.4-3.653,39.625-.412a2.823,2.823,0,0,0,3.5-2.682V22.354a2.773,2.773,0,0,0-2.158-2.678c-15.009-3.566-29.028-4.222-41.383.015a2.921,2.921,0,0,1-2.674-.423c-10.411-7.7-21.066-11.559-32.039-10.413a2.782,2.782,0,0,0-2.518,2.741v52.8a2.789,2.789,0,0,0,2.548,2.742,85.27,85.27,0,0,1,32.757,10.349,2.911,2.911,0,0,0,2.343.191Z" transform="translate(-210.984 -7.096)" fill="#f2f2f2"/>
  <path id="Path_18287" data-name="Path 18287" d="M306.281,88.247a4.5,4.5,0,0,1-2.332-.649A62.152,62.152,0,0,0,276.5,78.686a4.4,4.4,0,0,1-4.071-4.322V29.1a4.364,4.364,0,0,1,4.207-4.333c7.089-.322,15.7,2.76,27.087,9.7a4.181,4.181,0,0,0,3.215.479c10.825-2.833,22.559-2.916,35.874-.253a4.391,4.391,0,0,1,3.567,4.254V83.125a4.266,4.266,0,0,1-1.687,3.4,4.541,4.541,0,0,1-3.814.818c-12.6-2.923-23.411-2.712-33.066.646h0a4.66,4.66,0,0,1-1.532.261ZM277.648,25.1c-.336,0-.667.007-1,.022A4.008,4.008,0,0,0,272.79,29.1V74.364a4.043,4.043,0,0,0,3.74,3.971A62.519,62.519,0,0,1,304.139,87.3a4.182,4.182,0,0,0,3.553.356l.061.166-.061-.166c9.722-3.382,20.605-3.6,33.271-.657a4.176,4.176,0,0,0,3.507-.752,3.92,3.92,0,0,0,1.55-3.121V38.946a4.036,4.036,0,0,0-3.279-3.909c-13.258-2.652-24.939-2.571-35.708.248a4.551,4.551,0,0,1-3.5-.52c-10.794-6.574-19.061-9.666-25.884-9.666Z" transform="translate(-226.487 -20.284)" fill="#fff"/>
  <rect id="Rectangle_4765" data-name="Rectangle 4765" width="0.361" height="54.315" transform="matrix(1, -0.009, 0.009, 1, 79.763, 14.082)" fill="#fff"/>
  <rect id="Rectangle_4766" data-name="Rectangle 4766" width="0.361" height="26.599" transform="matrix(0.314, -0.949, 0.949, 0.314, 50.912, 11.95)" fill="#3f3d56"/>
  <rect id="Rectangle_4767" data-name="Rectangle 4767" width="0.361" height="26.599" transform="matrix(0.314, -0.949, 0.949, 0.314, 50.912, 18.128)" fill="#3f3d56"/>
  <rect id="Rectangle_4768" data-name="Rectangle 4768" width="0.361" height="26.599" transform="matrix(0.314, -0.949, 0.949, 0.314, 50.912, 24.628)" fill="#3f3d56"/>
  <rect id="Rectangle_4769" data-name="Rectangle 4769" width="0.361" height="26.599" transform="matrix(0.314, -0.949, 0.949, 0.314, 50.912, 31.127)" fill="#3f3d56"/>
  <rect id="Rectangle_4770" data-name="Rectangle 4770" width="30.266" height="0.361" transform="translate(85.054 19.82)" fill="#3f3d56"/>
  <rect id="Rectangle_4771" data-name="Rectangle 4771" width="30.266" height="0.361" transform="translate(85.054 25.977)" fill="#3f3d56"/>
  <rect id="Rectangle_4772" data-name="Rectangle 4772" width="30.266" height="0.361" transform="translate(85.054 32.133)" fill="#3f3d56"/>
  <rect id="Rectangle_4773" data-name="Rectangle 4773" width="30.266" height="0.361" transform="translate(85.054 38.289)" fill="#3f3d56"/>
  <rect id="Rectangle_4774" data-name="Rectangle 4774" width="30.266" height="0.361" transform="translate(85.054 44.445)" fill="#3f3d56"/>
  <rect id="Rectangle_4775" data-name="Rectangle 4775" width="30.266" height="0.361" transform="translate(85.054 50.602)" fill="#3f3d56"/>
  <path id="Path_18288" data-name="Path 18288" d="M9.785,369.165a.409.409,0,0,1-.3-.709l.028-.111-.011-.027a1.1,1.1,0,0,0-2.027.008,9.76,9.76,0,0,0-.858,2.443,3.251,3.251,0,0,0,.057,1.118,13.035,13.035,0,0,1-1.186-5.414,12.579,12.579,0,0,1,.078-1.4q.065-.573.179-1.138a13.186,13.186,0,0,1,2.615-5.589,3.509,3.509,0,0,0,1.459-1.514,2.677,2.677,0,0,0,.243-.731,3.3,3.3,0,0,1-.214-1.139c-.1-.15-.276-.225-.384-.372-.538-.729-1.279-.6-1.666.389-.826.417-.834,1.109-.327,1.774.323.423.367,1,.65,1.449l-.089.111A13.27,13.27,0,0,0,6.651,360.5a5.517,5.517,0,0,0-.329-2.562A9.24,9.24,0,0,0,4.9,355.882a1.132,1.132,0,0,0-2.017.556l0,.029q.116.065.227.139a.555.555,0,0,1-.224,1.01l-.011,0a5.523,5.523,0,0,0,.146.826c-.668,2.582.774,3.522,2.832,3.564.045.023.09.047.135.069a13.547,13.547,0,0,0-.729,3.431,12.848,12.848,0,0,0,.009,2.074l0-.025A3.4,3.4,0,0,0,4.1,365.6a25.5,25.5,0,0,0-3.114-1.591.637.637,0,0,0-.976.62l0,.026a3.726,3.726,0,0,1,.418.2q.116.065.227.139A.555.555,0,0,1,.433,366l-.011,0-.023,0A5.528,5.528,0,0,0,1.415,367.6c.417,2.254,2.21,2.467,4.128,1.811h0a13.542,13.542,0,0,0,.91,2.656H9.7c.012-.036.022-.073.033-.109a3.692,3.692,0,0,1-.9-.054l.723-.89L9.575,371l.368-.453h0a5.409,5.409,0,0,0-.158-1.378h0Z" transform="translate(0 -292.291)" fill="#f2f2f2"/>
  <path id="Path_18289" data-name="Path 18289" d="M46.246,452.713a.214.214,0,0,1-.215.215H.355a.215.215,0,1,1,0-.429H46.032a.214.214,0,0,1,.215.215Z" transform="translate(-0.115 -372.927)" fill="#ccc"/>
  <g id="Group_17190" data-name="Group 17190" transform="translate(59.05 43.986)">
    <path id="Path_18291" data-name="Path 18291" d="M336.664,266.879a8.741,8.741,0,0,1,2.157-5,8.621,8.621,0,0,1,7.6-2.771c.239.034.232.413-.009.379a8.354,8.354,0,0,0-4.975.837,8.244,8.244,0,0,0-4.391,6.567c-.021.242-.4.234-.379-.009h0Z" transform="translate(-336.663 -257.564)" fill="#fff"/>
    <path id="Path_18292" data-name="Path 18292" d="M387.107,250.96l2.915,1.438a.19.19,0,0,1,.033.3l-2.759,2.281c-.187.154-.45-.118-.261-.274l2.759-2.281.033.3-2.915-1.438c-.219-.108-.022-.432.195-.325Z" transform="translate(-377.772 -250.938)" fill="#fff"/>
  </g>
</svg>
