<svg xmlns="http://www.w3.org/2000/svg" width="129.79" height="80" viewBox="0 0 129.79 80">
  <g id="t5" transform="translate(0.02 0)">
    <path id="Path_18293" data-name="Path 18293" d="M140.86,139.142a26.706,26.706,0,0,1-.779,6.431q-.262,1.063-.609,2.083a24.622,24.622,0,0,1-.983,2.465q-.281.61-.594,1.195a16.1,16.1,0,0,1-1.341,6.459,16.635,16.635,0,0,1-8.064,8.326,16.932,16.932,0,0,1-7.2,1.656H35.71a21.528,21.528,0,0,1-10.845-2.905l-.051-.029q-.7-.413-1.373-.875a21.543,21.543,0,0,1-2.818-2.328,21,21,0,0,1-3.1-3.846,20.555,20.555,0,0,1-3.15-10.958,25.883,25.883,0,0,1-3.306-12.8,25.393,25.393,0,0,1,5.114-15.52,21.8,21.8,0,0,1,2.172-2.422,20.22,20.22,0,0,1,2.484-2.037,19.315,19.315,0,0,1,2.2-1.325c.318-.162.638-.316.963-.458.285-.127.574-.245.866-.357q.526-.2,1.064-.368T27,111.239q.771-.189,1.569-.307c.441-.065.882-.11,1.322-.145.35-.026.7-.041,1.06-.045h.193c.392,0,.782.015,1.169.042.041-.082.085-.165.126-.245.154-.295.314-.589.475-.876a.028.028,0,0,1,0-.008c.028-.051.055-.1.084-.149.13-.235.266-.468.4-.7.064-.11.127-.214.192-.318a.85.85,0,0,1,.045-.075q.1-.166.2-.331.51-.817,1.061-1.606l.094-.135c.057-.082.11-.161.174-.243.152-.213.309-.427.466-.637.11-.15.22-.3.339-.442q.43-.552.882-1.1t.939-1.09c.044-.05.088-.1.134-.147l.471-.515h0c.023-.024.043-.046.065-.068h0c.056-.061.11-.121.171-.18.252-.268.511-.531.771-.793a42.032,42.032,0,0,1,4.22-3.685c.058-.046.118-.091.176-.135.28-.211.564-.42.848-.625a44.65,44.65,0,0,1,4.894-3.059c.117-.067.236-.13.356-.192a46.68,46.68,0,0,1,4.682-2.16c.872-.346,1.763-.67,2.66-.967.6-.2,1.2-.383,1.8-.559q1.424-.411,2.867-.737a50.957,50.957,0,0,1,8.622-1.177q1.322-.067,2.674-.07a51.138,51.138,0,0,1,12.893,1.634.465.465,0,0,0,.4.209h.37c.161.044.321.088.482.135q1.348.389,2.657.849l.22.079a47.378,47.378,0,0,1,6.271,2.761,45.239,45.239,0,0,1,5.251,3.251q.387.278.763.561.456-.293.928-.561a18.231,18.231,0,0,1,3.844-1.642,17.5,17.5,0,0,1,8.622-.338,19.067,19.067,0,0,1,9.66,5.459,22.58,22.58,0,0,1,2.9,3.686c.061.095.121.191.18.288a24.318,24.318,0,0,1,1.845,3.685c.019.047.037.092.054.138a25.556,25.556,0,0,1,1.135,3.683c.013.064.029.127.042.191a26.566,26.566,0,0,1,.542,3.685.714.714,0,0,0,.009.136q.069.962.071,1.943c0,.585-.02,1.166-.056,1.743,0,.063-.009.128-.014.193-.01.167-.024.331-.039.5a20.928,20.928,0,0,1,2.356,2.227q.482.527.932,1.093a23.263,23.263,0,0,1,2.4,3.685A25.9,25.9,0,0,1,140.86,139.142Z" transform="translate(-11.09 -87.76)" fill="#6c63ff" opacity="0.1"/>
    <path id="Path_18294" data-name="Path 18294" d="M238.984,760.535c0,.764-2.583,1.48-7.089,2.1H146.653a21.157,21.157,0,0,1-10.8-2.945l-.05-.029a35.377,35.377,0,0,1,6.815-1.335h0l.143-.018c1.427-.178,3.022-.347,4.765-.507a1.073,1.073,0,0,0,.133-.012h0q2.074-.188,4.413-.353c.049,0,.1-.009.147-.011q.9-.066,1.842-.125h0l.241-.016c4.56-.289,9.744-.519,15.366-.671h.007q1.181-.034,2.387-.059,1.341-.033,2.715-.057c.7-.016,1.407-.027,2.117-.038h.016c3.2-.049,6.514-.074,9.9-.074,8.37,0,16.281.156,23.292.436h.02c1.078.042,2.136.089,3.168.138l.878.043q1.746.085,3.4.182h0C230.55,757.931,238.984,759.155,238.984,760.535Z" transform="translate(-121.86 -682.631)" fill="#6c63ff" opacity="0.1"/>
    <g id="Group_17191" data-name="Group 17191" transform="translate(68.344 43.124)" opacity="0.2">
      <path id="Path_18295" data-name="Path 18295" d="M672.392,739.069a2.122,2.122,0,0,1-.042.359q-1.168-.186-2.35-.336V739a1.89,1.89,0,0,1,.28-.949,1.041,1.041,0,0,1,1.895.058A1.89,1.89,0,0,1,672.392,739.069Z" transform="translate(-665.796 -708.958)" fill="#3f3d56"/>
      <ellipse id="Ellipse_892" data-name="Ellipse 892" cx="1.568" cy="1.198" rx="1.568" ry="1.198" transform="translate(4.217 29.691) rotate(-88.19)" fill="#3f3d56"/>
      <ellipse id="Ellipse_893" data-name="Ellipse 893" cx="1.568" cy="1.198" rx="1.568" ry="1.198" transform="translate(4.278 27.775) rotate(-88.19)" fill="#3f3d56"/>
      <ellipse id="Ellipse_894" data-name="Ellipse 894" cx="1.568" cy="1.198" rx="1.568" ry="1.198" transform="translate(4.338 25.859) rotate(-88.19)" fill="#3f3d56"/>
      <ellipse id="Ellipse_895" data-name="Ellipse 895" cx="1.568" cy="1.198" rx="1.568" ry="1.198" transform="translate(4.398 23.942) rotate(-88.19)" fill="#3f3d56"/>
      <path id="Path_18296" data-name="Path 18296" d="M634.011,491.9a5.528,5.528,0,0,1-.425-.671l3.163-.418-3.4-.082a5.75,5.75,0,0,1,.035-4.549l4.49,2.513-4.113-3.228a5.739,5.739,0,1,1,9.272,6.715,5.683,5.683,0,0,1,.621,1.067l-4.151,1.992,4.4-1.324a5.747,5.747,0,0,1-1.1,5.362,5.739,5.739,0,1,1-9.016-.284,5.739,5.739,0,0,1,.224-7.094Z" transform="translate(-632.44 -482.747)" fill="#6c63ff"/>
      <path id="Path_18297" data-name="Path 18297" d="M644.143,598.391A5.708,5.708,0,0,1,642.8,601.9a5.739,5.739,0,1,1-9.016-.284C633.048,600.615,644.163,597.747,644.143,598.391Z" transform="translate(-632.44 -585.365)" opacity="0.1"/>
    </g>
    <g id="Group_17192" data-name="Group 17192" transform="translate(51.621 43.124)" opacity="0.2">
      <path id="Path_18298" data-name="Path 18298" d="M520.392,739.069a2.116,2.116,0,0,1-.041.359q-1.168-.186-2.35-.336V739a1.889,1.889,0,0,1,.28-.949,1.041,1.041,0,0,1,1.895.058A1.888,1.888,0,0,1,520.392,739.069Z" transform="translate(-513.796 -708.958)" fill="#3f3d56"/>
      <ellipse id="Ellipse_896" data-name="Ellipse 896" cx="1.568" cy="1.198" rx="1.568" ry="1.198" transform="translate(4.215 29.691) rotate(-88.19)" fill="#3f3d56"/>
      <ellipse id="Ellipse_897" data-name="Ellipse 897" cx="1.568" cy="1.198" rx="1.568" ry="1.198" transform="translate(4.276 27.775) rotate(-88.19)" fill="#3f3d56"/>
      <ellipse id="Ellipse_898" data-name="Ellipse 898" cx="1.568" cy="1.198" rx="1.568" ry="1.198" transform="translate(4.336 25.859) rotate(-88.19)" fill="#3f3d56"/>
      <ellipse id="Ellipse_899" data-name="Ellipse 899" cx="1.568" cy="1.198" rx="1.568" ry="1.198" transform="translate(4.396 23.943) rotate(-88.19)" fill="#3f3d56"/>
      <path id="Path_18299" data-name="Path 18299" d="M482.011,491.9a5.548,5.548,0,0,1-.425-.671l3.163-.418-3.4-.082a5.751,5.751,0,0,1,.035-4.549l4.49,2.513-4.113-3.228a5.739,5.739,0,1,1,9.271,6.715,5.684,5.684,0,0,1,.621,1.067l-4.151,1.992,4.4-1.324a5.746,5.746,0,0,1-1.1,5.362,5.739,5.739,0,1,1-9.016-.284,5.739,5.739,0,0,1,.224-7.094Z" transform="translate(-480.44 -482.747)" fill="#6c63ff"/>
      <path id="Path_18300" data-name="Path 18300" d="M492.143,598.391A5.707,5.707,0,0,1,490.8,601.9a5.739,5.739,0,1,1-9.016-.284C481.048,600.615,492.163,597.747,492.143,598.391Z" transform="translate(-480.44 -585.365)" opacity="0.1"/>
    </g>
    <g id="Group_17193" data-name="Group 17193" transform="translate(90.853 16.511)" opacity="0.2">
      <path id="Path_18301" data-name="Path 18301" d="M917.963,738.177a4.164,4.164,0,0,1-.082.68q-2.249-.359-4.531-.642v-.185a3.637,3.637,0,0,1,.54-1.828,2.007,2.007,0,0,1,3.652.112A3.641,3.641,0,0,1,917.963,738.177Z" transform="translate(-905.273 -680.229)" fill="#3f3d56"/>
      <ellipse id="Ellipse_900" data-name="Ellipse 900" cx="3.02" cy="2.307" rx="3.02" ry="2.307" transform="translate(8.106 57.136) rotate(-88.19)" fill="#3f3d56"/>
      <ellipse id="Ellipse_901" data-name="Ellipse 901" cx="3.02" cy="2.307" rx="3.02" ry="2.307" transform="translate(8.222 53.447) rotate(-88.19)" fill="#3f3d56"/>
      <ellipse id="Ellipse_902" data-name="Ellipse 902" cx="3.02" cy="2.307" rx="3.02" ry="2.307" transform="translate(8.339 49.758) rotate(-88.19)" fill="#3f3d56"/>
      <ellipse id="Ellipse_903" data-name="Ellipse 903" cx="3.02" cy="2.307" rx="3.02" ry="2.307" transform="translate(8.327 45.91) rotate(-88.282)" fill="#3f3d56"/>
      <path id="Path_18302" data-name="Path 18302" d="M844.2,262.571a11.115,11.115,0,0,1-.818-1.29l6.088-.8-6.553-.158a11.069,11.069,0,0,1,.065-8.757l8.646,4.836-7.917-6.214a11.049,11.049,0,1,1,17.848,12.934,11.05,11.05,0,0,1,1.2,2.054l-7.992,3.838,8.473-2.552a11.052,11.052,0,0,1-2.107,10.313,11.049,11.049,0,1,1-17.359-.547,11.052,11.052,0,0,1,.43-13.654Z" transform="translate(-841.186 -244.965)" fill="#6c63ff"/>
      <path id="Path_18303" data-name="Path 18303" d="M863.744,467.407a11.007,11.007,0,0,1-2.574,6.753,11.049,11.049,0,1,1-17.359-.547C842.385,471.687,863.783,466.168,863.744,467.407Z" transform="translate(-841.222 -442.352)" opacity="0.1"/>
    </g>
    <path id="Path_18304" data-name="Path 18304" d="M157.82,104.292l1.174,0h1.655L162.742,70.8l20.726-34.067-.9-.952V33.37L160.152,70.012Z" transform="translate(-140.175 -29.636)" fill="#f1c0c0"/>
    <path id="Path_18305" data-name="Path 18305" d="M169.43,123.72h1.53l2.093-33.47L193.779,56.2l-.9-.952L171.5,89.74Z" transform="translate(-150.485 -49.067)" opacity="0.1"/>
    <path id="Path_18306" data-name="Path 18306" d="M126.91,660.4l52.672,4.11.045,0,50.975-3.2.038,0v-2.195l-56.168-1.051-46.861-.046h-.342l-.037.246Z" transform="translate(-112.724 -585.458)" fill="#f1c0c0"/>
    <path id="Path_18307" data-name="Path 18307" d="M126.91,660.4l52.672,4.11.045,0,50.975-3.2.038-.043v-2.109H230.6L179.582,660.9l-51.971-2.88H127.6l-.092.062-.28.185Z" transform="translate(-112.724 -585.458)" opacity="0.1"/>
    <path id="Path_18308" data-name="Path 18308" d="M126.91,660.886l53.7,4.11v-3.607l-53.092-2.818-.285.185Z" transform="translate(-112.724 -585.946)" opacity="0.1"/>
    <path id="Path_18309" data-name="Path 18309" d="M378.88,35.942l23.677,25.034-.732,44.035,2.011.239.034,0h2.011l.241-42.388,44.335,14.589.748,25.976,1.618.179.548.061L452.1,75.654,405.755,59.625,380.343,33.6H378.88Z" transform="translate(-338.527 -29.84)" fill="#f1c0c0"/>
    <path id="Path_18310" data-name="Path 18310" d="M620.65,291.7l.182.823,44.335,14.809.748,26.368,1.618.181-1.269-27.1Z" transform="translate(-553.238 -260.136)" opacity="0.1"/>
    <path id="Path_18311" data-name="Path 18311" d="M378.88,35.942l23.677,25.034-.732,44.035,2.011.239.548-45.716L378.88,33.6Z" transform="translate(-337.305 -29.84)" opacity="0.1"/>
    <path id="Path_18312" data-name="Path 18312" d="M621.42,428.953l16.261,3.2h.006l28.48,5.611,1.3-.523,0-.092-.085-1.819-45.944-9.284Z" transform="translate(-553.922 -379.111)" fill="#f1c0c0"/>
    <path id="Path_18313" data-name="Path 18313" d="M766.76,480.61l28.48,5.611,1.3-.523,0-.092Z" transform="translate(-682.996 -427.592)" opacity="0.1"/>
    <path id="Path_18314" data-name="Path 18314" d="M776.49,350.56l.44,24.213.227,12.422,2-.067,1.26-.042-.392-36.175-.869-.289-.19-.062Z" transform="translate(-690.985 -312.409)" fill="#f1c0c0"/>
    <path id="Path_18315" data-name="Path 18315" d="M776.65,350.51v.006l.422,24.213.227,12.422,2-.067V350.51Z" transform="translate(-691.114 -312.364)" opacity="0.1"/>
    <path id="Path_18316" data-name="Path 18316" d="M481.161,481.339a2.546,2.546,0,0,1,.336.218,2.216,2.216,0,0,1,.336.368,3.313,3.313,0,0,1,.876,2.126.865.865,0,0,1-.25.616,1.118,1.118,0,0,1-.742.177,1.579,1.579,0,0,1-.823-.146c-.244-.146-.448-.429-.736-.422a.38.38,0,0,1-.123,0c-.1-.033-.12-.163-.185-.246-.112-.149-.348-.112-.524-.047a.759.759,0,0,1-.544.087.565.565,0,0,1-.236-.236,5.2,5.2,0,0,1-.582-2.259c-.048-.475-.415-2.093.6-1.725a8.4,8.4,0,0,1,1.274.72Z" transform="translate(-426.474 -436.546)" fill="#3f3d56"/>
    <path id="Path_18317" data-name="Path 18317" d="M496.776,490.163a.5.5,0,0,0,.614-.025.926.926,0,0,0,.3-.58c.112-.035.169.112.241.2.125.152.38.15.495.312.079.112.062.267.117.394.073.163.253.248.376.38a1.3,1.3,0,0,1,.246.491l.184.551a2.722,2.722,0,0,1,.168.713.923.923,0,0,1-.213.682,1.807,1.807,0,0,1-1.361.244,1,1,0,0,1-.6-.739,9.318,9.318,0,0,1-.124-.987,3.865,3.865,0,0,0-.28-.938c-.1-.233-.369-.58-.365-.827C496.65,490.037,496.708,490.11,496.776,490.163Z" transform="translate(-443.11 -445.217)" fill="#3f3d56"/>
    <path id="Path_18318" data-name="Path 18318" d="M489.886,473.423a1.851,1.851,0,0,1-.091-.491,2.139,2.139,0,0,1,.308-.951l-1.279.173a.566.566,0,0,0-.414.181.448.448,0,0,0,0,.413,2.114,2.114,0,0,1,.152.4,1.986,1.986,0,0,0,.041.359.757.757,0,0,0,.164.232,7.755,7.755,0,0,1,.913,1.357c-.008-.013.771-.617.74-.814-.018-.112-.243-.246-.314-.354A1.8,1.8,0,0,1,489.886,473.423Z" transform="translate(-435.798 -429.576)" fill="#be6f72"/>
    <path id="Path_18319" data-name="Path 18319" d="M404.536,358.04v1.1l-18.878,3.682-.979.593H381.3V362.8l18.547-4.481Z" transform="translate(-339.442 -318.542)" fill="#f1c0c0"/>
    <path id="Path_18320" data-name="Path 18320" d="M404.536,367.89l-18.878,3.682-.979.593H381.3l18.685-4Z" transform="translate(-339.442 -327.297)" opacity="0.1"/>
    <path id="Path_18321" data-name="Path 18321" d="M439.633,721.2a1.463,1.463,0,0,0-1.78-.378.47.47,0,0,0-.163.128c-.112.157-.04.373-.03.566a1.7,1.7,0,0,1-.688,1.186,1.628,1.628,0,0,0-.448.607.568.568,0,0,0,.2.672.826.826,0,0,0,.307.085,3.313,3.313,0,0,0,1.086.03,1.176,1.176,0,0,0,.862-.6.632.632,0,0,1,.144-.238c.2-.156.5.027.723-.084.185-.092.192-.236.195-.426A2.47,2.47,0,0,0,439.633,721.2Z" transform="translate(-389.651 -650.919)" fill="#83858b"/>
    <path id="Path_18322" data-name="Path 18322" d="M469.354,714.631a3.684,3.684,0,0,1,.174,1.145,1.1,1.1,0,0,1-.1.652.891.891,0,0,1-.583.336,1.337,1.337,0,0,1-1.308-.365,1.38,1.38,0,0,1-.236-1.039c.036-.3.112-.654-.1-.867-.056-.057-.129-.1-.18-.159a.533.533,0,0,1-.033-.51,2.224,2.224,0,0,0,.176-.5,6.528,6.528,0,0,1,1.654.126c.189.093.16.249.217.437C469.106,714.144,469.258,714.38,469.354,714.631Z" transform="translate(-416.734 -644.367)" fill="#83858b"/>
    <path id="Path_18323" data-name="Path 18323" d="M433.409,578.835a1.244,1.244,0,0,1,.456.917,19.556,19.556,0,0,1-.112,2.89c-.016,1.353.376,2.731.041,4.041-.2.784-.03,1.679-.218,2.47-.056.235-.159.457-.213.692a3.018,3.018,0,0,0,.163,1.54,1.593,1.593,0,0,1,.1.417,1.5,1.5,0,0,1-.163.631l-.672,1.588c-.075.178-.37.207-.56.231a1.4,1.4,0,0,1-1.036-.148,1.326,1.326,0,0,1-.4-.935,14.318,14.318,0,0,1-.112-2,1.645,1.645,0,0,0-.046-.518,4.543,4.543,0,0,1-.234-.56,2.244,2.244,0,0,1,.135-.783,2.361,2.361,0,0,0-.011-.726c-.044-.358-.094-.716-.151-1.072a4.75,4.75,0,0,1,.112-1.489,4.1,4.1,0,0,0-.112-1.412,3.894,3.894,0,0,1-.14,1.119c-.059.178-.144.348-.2.529-.229.814.26,1.668.19,2.51a6.214,6.214,0,0,0-.143,1.172,3.943,3.943,0,0,0,.253.816,1.057,1.057,0,0,1,0,.834,2.791,2.791,0,0,0,.234,2.327,3.14,3.14,0,0,1,.172.387,4.628,4.628,0,0,1,.041.991.625.625,0,0,1-.525-.158c-.049-.052-.089-.112-.138-.166a1.367,1.367,0,0,0-.468-.292.616.616,0,0,0-.336-.077.67.67,0,0,0-.319.2,3.116,3.116,0,0,1-.352.268.416.416,0,0,1-.179.079.158.158,0,0,1-.165-.084.2.2,0,0,1-.012-.058,8.864,8.864,0,0,1-.066-1.018c0-.585-.7-.988-.789-1.567-.07-.467.061-.942.017-1.412a6.888,6.888,0,0,1-.084-.721c0-.157.036-.31.048-.466a3.49,3.49,0,0,0-.008-.518l-.035-.541a4.67,4.67,0,0,0-.281-1.567,5.325,5.325,0,0,1-.436-1.8c-.022-.392-.008-.783-.053-1.176a5.789,5.789,0,0,1-.1-1.063c.021-.275.112-.542.133-.817a4.176,4.176,0,0,0-.316-1.551,2.3,2.3,0,0,1-.067-1.558.511.511,0,0,1,.143-.208.623.623,0,0,1,.264-.1,20.5,20.5,0,0,1,5.844-.373A1.942,1.942,0,0,1,433.409,578.835Z" transform="translate(-380.471 -524.65)" fill="#3f3d56"/>
    <circle id="Ellipse_904" data-name="Ellipse 904" cx="1.793" cy="1.793" r="1.793" transform="translate(44.83 39.239)" fill="#be6f72"/>
    <path id="Path_18324" data-name="Path 18324" d="M425.692,465.417a.64.64,0,0,1,0,.312.706.706,0,0,1-.117.2,5.065,5.065,0,0,1-.574.625,1.04,1.04,0,0,0,.536.529,3.106,3.106,0,0,0,.74.212.775.775,0,0,0,.725-.125l1-.6a1.987,1.987,0,0,0,.414-.3,1.02,1.02,0,0,0,.289-.7.193.193,0,0,0-.036-.132.235.235,0,0,0-.137-.057,1.214,1.214,0,0,1-.783-.684,3.622,3.622,0,0,1-.272-1.038l-1.062.56c-.158.084-.314.168-.478.241-.1.047-.315.086-.388.181C425.4,464.817,425.655,465.206,425.692,465.417Z" transform="translate(-379.428 -422.178)" fill="#be6f72"/>
    <path id="Path_18325" data-name="Path 18325" d="M422.1,477.516a1.181,1.181,0,0,0-.344.464,1.21,1.21,0,0,0,.063.682,20.353,20.353,0,0,1,.672,2.886c.094.672.129,1.353.175,2.033.094,1.386.23,3.595.413,4.971a13.212,13.212,0,0,0,1.992-.237,31.106,31.106,0,0,0,3.745-.112c-.3-1.167-.591-3.161-.886-4.327a8.255,8.255,0,0,1-.271-1.4c-.026-.341-.01-.684-.006-1.028.01-.671-.027-1.343-.064-2.015a12.779,12.779,0,0,0-.271-2.333.434.434,0,0,0-.13-.256.526.526,0,0,0-.391-.035,1.7,1.7,0,0,1-1.162-.275c-.148-.1-.346-.224-.484-.112a.481.481,0,0,0-.112.238,1.192,1.192,0,0,1-.7.691,3.507,3.507,0,0,1-.992.2.486.486,0,0,1-.308-.035c-.159-.1-.17-.448-.37-.471C422.5,477.024,422.223,477.4,422.1,477.516Z" transform="translate(-376.54 -433.564)" fill="#3f3d56"/>
    <path id="Path_18326" data-name="Path 18326" d="M408.991,480.838a6.81,6.81,0,0,1-.9-1.455,3.237,3.237,0,0,0-.773-.851,2.31,2.31,0,0,1-.421-.357c-.106-.131-.187-.306-.348-.356a.421.421,0,0,0-.377.1,3.711,3.711,0,0,0-.28.3c-.475.491-1.308.56-1.684,1.128a.926.926,0,0,0-.2.42,3.253,3.253,0,0,0,.6,2.339.8.8,0,0,0,.414.336,1.3,1.3,0,0,0,.081.616,16.474,16.474,0,0,0,.762,2.076,5.024,5.024,0,0,0-.15.8c-.078.684-.006,1.378-.079,2.063-.06.56-.224,1.1-.229,1.665,0,.089.008.2.085.242a.257.257,0,0,0,.133.028l1.377.041a11.18,11.18,0,0,0,2.393-.1,1,1,0,0,0,.3-.1,1.011,1.011,0,0,0,.4-.783,6.829,6.829,0,0,0,.066-1.171,1.91,1.91,0,0,0,.869,1.3,1.95,1.95,0,0,0,.863.1,16.277,16.277,0,0,0,1.879-.194.247.247,0,0,0,.274-.288l.007-.611a34.088,34.088,0,0,0-.414-3.663,7.963,7.963,0,0,0-.13-1.165c-.039-.16-.1-.317-.131-.478a3.4,3.4,0,0,1-.056-.478l-.087-1.231c-.042-.57-.1-1.119-.144-1.688a8.167,8.167,0,0,0-.24-1.641c-.1-.336-.3-.716-.65-.758a1.341,1.341,0,0,0-.546.118,2.207,2.207,0,0,1-1.343-.006,1.892,1.892,0,0,0-.419-.112.411.411,0,0,0-.383.159.575.575,0,0,0-.059.282A14.927,14.927,0,0,1,408.991,480.838Z" transform="translate(-360.764 -434.161)" fill="#d28f87"/>
    <path id="Path_18327" data-name="Path 18327" d="M407.982,498.245a6.8,6.8,0,0,0-1.71-1.444,1.367,1.367,0,0,0-.85-.188.636.636,0,0,0-.546.6,3.858,3.858,0,0,0,.154.523,5.492,5.492,0,0,0,.045.611,1.036,1.036,0,0,0,.224.344l.792.939a5.1,5.1,0,0,0,1.1,1.06,1.659,1.659,0,0,0,1.466.2,1.8,1.8,0,0,0,.8-.738c.2-.314.336-.656.52-.979a4.861,4.861,0,0,1,1.119-1.358,1.243,1.243,0,0,1-.672-.336,1.109,1.109,0,0,1-.106-.192l-.181-.392a.448.448,0,0,0-.336.127,2.829,2.829,0,0,1-.25.254c-.158.119-.372.151-.515.287a1.352,1.352,0,0,0-.15.188A1.256,1.256,0,0,1,407.982,498.245Z" transform="translate(-361.535 -451.488)" fill="#3f3d56"/>
    <path id="Path_18328" data-name="Path 18328" d="M451.448,465.144a6.7,6.7,0,0,0,.481-2.358,1.077,1.077,0,0,1,.214-.585,1.115,1.115,0,0,1,.957-.224c.1.011.224.058.218.158a.2.2,0,0,1-.05.1,2.662,2.662,0,0,0-.553,1.468c.176.122.448-.129.617,0,.112.094.06.28-.007.414q-.234.467-.482.927a2.974,2.974,0,0,1-.511.738c-.142.137-.309.244-.453.378-.336.315-.538.759-.885,1.066a.181.181,0,0,1-.112.057.188.188,0,0,1-.118-.053,1.7,1.7,0,0,1-.423-.511c-.132-.244-.112-.316.1-.488A3.7,3.7,0,0,0,451.448,465.144Z" transform="translate(-401.899 -420.68)" fill="#be6f72"/>
    <path id="Path_18329" data-name="Path 18329" d="M410.175,495.123c.067.042.15.089.224.054a.233.233,0,0,0,.075-.073,2.639,2.639,0,0,0,.318-.553.211.211,0,0,0,.023-.09c0-.072-.064-.124-.123-.166a4.563,4.563,0,0,0-1.017-.484,2.1,2.1,0,0,0-.918-.181.875.875,0,0,0-.612.311c-.224.288.151.375.386.479A14.946,14.946,0,0,1,410.175,495.123Z" transform="translate(-364.363 -448.821)" fill="#d28f87"/>
    <path id="Path_18330" data-name="Path 18330" d="M423.666,515.943a.165.165,0,0,0,.047.141c.032-.159-.01-.327.023-.487.049-.241.283-.422.3-.664C423.611,514.849,423.669,515.683,423.666,515.943Z" transform="translate(-378.221 -467.767)" opacity="0.1"/>
    <path id="Path_18331" data-name="Path 18331" d="M551.708,358.04v1.1l-4.551.276-.138-1.1Z" transform="translate(-486.795 -318.513)" opacity="0.2"/>
    <path id="Path_18332" data-name="Path 18332" d="M415.521,440.718c.284-.232.12-.717.312-1.029a1,1,0,0,1,.487-.336,2.214,2.214,0,0,1,.711-.2.825.825,0,0,1,.672.247c.073.083.122.184.19.27a.727.727,0,0,0,.705.244c.149-.033.3-.147.293-.3a.422.422,0,0,0-.134-.24l-.32-.355a2.54,2.54,0,0,0-1.3-.931,2.232,2.232,0,0,0-1.11.149c-.144.048-.307.12-.347.266-.027.1.013.21-.01.312-.046.2-.306.271-.426.441s-.084.372-.119.56a4.883,4.883,0,0,0-.148.566c-.008.117.052.336.184.378S415.439,440.578,415.521,440.718Z" transform="translate(-370.508 -399.405)" fill="#3f3d56"/>
    <path id="Path_18333" data-name="Path 18333" d="M418.026,432.167a3.356,3.356,0,0,0-.6-1.361,2.384,2.384,0,0,0-1.06-.842,1.517,1.517,0,0,0-1.319.1,1.915,1.915,0,0,0-.659.831,2.224,2.224,0,0,0-.061,1.988c.134-.163.365-.09.569-.149a5.946,5.946,0,0,0,.714-.349C416.348,432.066,417.243,432.328,418.026,432.167Z" transform="translate(-369.75 -392.104)" fill="#fed253"/>
    <path id="Path_18334" data-name="Path 18334" d="M417.271,445.355a.684.684,0,0,1,.1-.579.073.073,0,0,1,.059-.027.077.077,0,0,1,.046.04,2.493,2.493,0,0,1,.21.412.427.427,0,0,0-.448.173" transform="translate(-372.505 -405.333)" opacity="0.1"/>
    <path id="Path_18335" data-name="Path 18335" d="M440.473,440.665l-.04-.4a.182.182,0,0,1,.008-.1.127.127,0,0,1,.163-.045.336.336,0,0,1,.131.131,2.344,2.344,0,0,1,.231.456,1.352,1.352,0,0,0-.545.007" transform="translate(-393.132 -401.205)" opacity="0.1"/>
    <path id="Path_18336" data-name="Path 18336" d="M400.447,502.21v.913l-.771.052H395.62v-.965Z" transform="translate(-352.069 -446.763)" opacity="0.1"/>
    <path id="Path_18337" data-name="Path 18337" d="M298.691,376.378v.965h-4.827L281.04,361.279v-.759h2.688Z" transform="translate(-250.164 -320.851)" fill="#f1c0c0"/>
    <path id="Path_18338" data-name="Path 18338" d="M298.691,376.378v.965h-4.827L281.04,361.279v-.759h2.688Z" transform="translate(-250.164 -320.851)" opacity="0.1"/>
    <path id="Path_18339" data-name="Path 18339" d="M298.691,376.378v.965h-4.827L281.04,361.279v-.759l12.893,15.858Z" transform="translate(-250.164 -320.851)" opacity="0.1"/>
    <path id="Path_18340" data-name="Path 18340" d="M296.54,727.821a.336.336,0,0,1-.293.4,1.994,1.994,0,0,0-.862.448.616.616,0,0,0,0,.874.848.848,0,0,0,.448.122,3.034,3.034,0,0,0,1.5-.187,2.22,2.22,0,0,1,1-.388c.187.011.386.1.553.013s.214-.322.215-.52a3.856,3.856,0,0,0-.185-1.219,4.906,4.906,0,0,0-.814-.112l-.863-.112c-.163-.021-.516-.144-.645-.008S296.54,727.658,296.54,727.821Z" transform="translate(-263.928 -656.596)" fill="#83858b"/>
    <path id="Path_18341" data-name="Path 18341" d="M352.923,695.682a2.7,2.7,0,0,0,.177.587,1.365,1.365,0,0,0,.566.776,1.011,1.011,0,0,0,.864-.041.712.712,0,0,0,.288-.218.867.867,0,0,0,.112-.5,2.745,2.745,0,0,0-.224-1.266c-.17-.336-.467-.625-.471-1l-1.02.2a.291.291,0,0,0-.15.059.258.258,0,0,0-.065.122A3.331,3.331,0,0,0,352.923,695.682Z" transform="translate(-315.255 -627.251)" fill="#83858b"/>
    <path id="Path_18342" data-name="Path 18342" d="M244.218,599.2a1.666,1.666,0,0,0,.163,1.058.819.819,0,0,0,.927.393.135.135,0,0,0,.084-.064.158.158,0,0,0-.015-.112,1.652,1.652,0,0,1,.035-1.245c.022-.051.07-.112.123-.092a.113.113,0,0,1,.05.051.586.586,0,0,1,.078.309,1.147,1.147,0,0,0-.009.3c.021.1.124.187.214.146a.224.224,0,0,0,.1-.144,4.77,4.77,0,0,0,.022-2.266.119.119,0,0,0-.133-.124c-.528-.053-.817-.179-1.119.312A3.067,3.067,0,0,0,244.218,599.2Z" transform="translate(-218.536 -541.116)" fill="#be6f72"/>
    <path id="Path_18343" data-name="Path 18343" d="M296.975,594.91a6.862,6.862,0,0,0-.23,3.226l.117.969c.04.327.079.653.137.976a2.584,2.584,0,0,1,.059.507,2.726,2.726,0,0,1-.079.5,5.816,5.816,0,0,0-.117,1.041c-.012.56.057,1.119.1,1.679a18.693,18.693,0,0,1-.039,3.349,1.256,1.256,0,0,0,.184.863,1.112,1.112,0,0,1,.162.266c.084.256-.112.513-.162.776a.783.783,0,0,0,.651.9,7.585,7.585,0,0,1,2.622.468c.085-.248-.1-.531-.016-.783.054-.157.2-.259.3-.391a1.136,1.136,0,0,0,.192-.683,2.492,2.492,0,0,0-.166-.926,2,2,0,0,1-.224-.753.95.95,0,0,0-.007-.386.6.6,0,0,0-.144-.18,2.276,2.276,0,0,1-.585-1.326,6.106,6.106,0,0,1,.047-1.471,2.5,2.5,0,0,1,.423-1.314,8.431,8.431,0,0,1,.236-3.274c.029-.1.075-.213.176-.236a.251.251,0,0,1,.215.085,1.469,1.469,0,0,1,.336.631,1.377,1.377,0,0,1,.105.765c-.027.112-.081.21-.112.318a.942.942,0,0,0,.034.657.632.632,0,0,1,.081.247.686.686,0,0,1-.067.215.99.99,0,0,0,.093.8,2.9,2.9,0,0,0,.523.641,2.35,2.35,0,0,0,.073,1.294.164.164,0,0,1,.015.124c-.02.042-.072.058-.112.088-.112.092-.043.265.032.385a8.822,8.822,0,0,0,.679.942c.224.267.2.784.537.88a1.011,1.011,0,0,0,.425,0,1.115,1.115,0,0,0,.857-.437,1.177,1.177,0,0,1,.2-.355c.1-.09.236-.105.293-.213s-.007-.248.012-.373.128-.224.162-.355c.083-.3-.27-.551-.318-.86-.069-.448.495-.784.471-1.231-.049-.973-.081-1.95-.131-2.922a21.085,21.085,0,0,1-.027-2.618,3.68,3.68,0,0,0-.087-1.616,2.165,2.165,0,0,0-1.841-1.187,9.065,9.065,0,0,0-2.284.224A14.434,14.434,0,0,1,296.975,594.91Z" transform="translate(-265.235 -538.948)" fill="#3f3d56"/>
    <circle id="Ellipse_905" data-name="Ellipse 905" cx="1.793" cy="1.793" r="1.793" transform="translate(32.226 42.165)" fill="#fbbebe"/>
    <path id="Path_18344" data-name="Path 18344" d="M307.412,495.918a.764.764,0,0,1-.731.462.9.9,0,0,0,.269.751A3.187,3.187,0,0,0,310,498.178a1.505,1.505,0,0,0,.6-.251,1.333,1.333,0,0,0,.459-.795,3.939,3.939,0,0,0,.044-.934.242.242,0,0,0-.049-.172.247.247,0,0,0-.157-.052,2.718,2.718,0,0,1-1.106-.234.788.788,0,0,1-.409-.95,4.012,4.012,0,0,1-.766.091c-.27.038-.54.081-.808.13a1.468,1.468,0,0,0-.379.072c-.162.084-.1.043-.064.195A.926.926,0,0,1,307.412,495.918Z" transform="translate(-274.131 -449.871)" fill="#fbbebe"/>
    <path id="Path_18345" data-name="Path 18345" d="M257.022,504.255a2.963,2.963,0,0,1-.717-.079,1.007,1.007,0,0,1-.589-.393c-.083-.125-.137-.283-.269-.354-.216-.112-.462.077-.635.251a2.306,2.306,0,0,1-.539.434c-.24.126-.519.171-.745.32a1.876,1.876,0,0,0-.448.484l-1.586,2.16c-.637.868-1.191,1.8-1.758,2.717a19.223,19.223,0,0,0-1.119,2.563.287.287,0,0,0-.035.172c.013.058.084.105.133.072-.167.166-.02.448-.059.68a.835.835,0,0,1-.266.417,2.1,2.1,0,0,1,.739.035,2.263,2.263,0,0,1,.7.336c.135-.021.123-.262.224-.351.06-.053.15-.046.229-.062.3-.058.417-.417.647-.62.191-.169.462-.224.665-.383.329-.259.4-.719.572-1.1.147-.323.377-.605.506-.937a4.038,4.038,0,0,1,.244-.646,1.849,1.849,0,0,1,.9-.644,1.485,1.485,0,0,1,.682-.182,6.33,6.33,0,0,0,.035,1.541c.039.179.094.354.141.532a10.011,10.011,0,0,1,.274,2.462,7.494,7.494,0,0,1,1.567-.188c.415-.012.829.042,1.245.034.492-.009.979-.1,1.472-.138a2.749,2.749,0,0,1,1.443.224,13.707,13.707,0,0,1,.059-2.126l.119-1.113a6.832,6.832,0,0,1,.149-.96c.065-.255.159-.5.23-.755a8.648,8.648,0,0,0,.158-2.783,3.509,3.509,0,0,0-.426-1.377,3.736,3.736,0,0,0-.269-.457,2.644,2.644,0,0,0-2.312-1.086.466.466,0,0,0-.166.036.551.551,0,0,0-.211.252A2.743,2.743,0,0,1,257.022,504.255Z" transform="translate(-222.304 -457.201)" fill="#3f3d56"/>
    <path id="Path_18346" data-name="Path 18346" d="M301.405,469.287c.05-.112.186-.153.269-.243.159-.17.087-.442.112-.672a.964.964,0,0,1,.638-.736,2.061,2.061,0,0,1,1.007-.064.976.976,0,0,1,.454.151c.058.043.112.1.167.137a.448.448,0,0,0,.609-.142,2.2,2.2,0,0,0-2.065-1.186,2.04,2.04,0,0,0-.824.1,1.373,1.373,0,0,0-.723.835,4.057,4.057,0,0,0-.176,1.119,4.209,4.209,0,0,0,0,.761,2.1,2.1,0,0,0,.374.959.291.291,0,0,0,.112.1C301.87,470.63,301.364,469.38,301.405,469.287Z" transform="translate(-268.959 -424.732)" fill="#3f3d56"/>
    <path id="Path_18347" data-name="Path 18347" d="M301.643,458.318a2.2,2.2,0,0,0-.837-1.313,3.088,3.088,0,0,0-1.125-.677,1.5,1.5,0,0,0-1.269.154,1.95,1.95,0,0,0-.618.849,2.674,2.674,0,0,0-.27,1.231,1.327,1.327,0,0,0,.6,1.065,1.13,1.13,0,0,1,.582-.375A28.507,28.507,0,0,1,301.643,458.318Z" transform="translate(-265.995 -415.589)" fill="#fed253"/>
    <path id="Path_18348" data-name="Path 18348" d="M303.034,472.72c.036,0,.059.037.077.067a2.832,2.832,0,0,1,.234.448c-.131.028-.356.059-.421-.056C302.89,473.12,302.931,472.714,303.034,472.72Z" transform="translate(-270.775 -430.214)" opacity="0.1"/>
    <path id="Path_18349" data-name="Path 18349" d="M326.327,466.075c-.027.026-.058-.027-.058-.065v-.434a.064.064,0,0,1,.008-.035.053.053,0,0,1,.037-.018c.091-.01.166.067.224.141a2.359,2.359,0,0,1,.229.382l-.473-.015" transform="translate(-291.558 -423.812)" opacity="0.1"/>
    <path id="Path_18350" data-name="Path 18350" d="M351.13,511.882a2.923,2.923,0,0,1,.329-.27,4.972,4.972,0,0,1,1.033-.421,1.363,1.363,0,0,0,.837-.693,1.647,1.647,0,0,0,.065-.672.672.672,0,0,0-.049-.276.55.55,0,0,0-.177-.193,2.558,2.558,0,0,0-1.692-.341,10.6,10.6,0,0,0-3.739.933.325.325,0,0,0-.157.112.319.319,0,0,0-.03.156,2.575,2.575,0,0,0,.126.975c.155.4.472.72.605,1.126.061.182.081.376.133.56a.783.783,0,0,0,.315.468c.442.264.859-.091,1.166-.366Z" transform="translate(-310.514 -462.526)" fill="#3f3d56"/>
    <path id="Path_18351" data-name="Path 18351" d="M296.026,506.165l-.567-1.238a4.34,4.34,0,0,1-.215-.529c-.065-.216-.1-.44-.157-.657-.2-.723-.7-1.325-.947-2.034a.386.386,0,0,0-.092-.171.3.3,0,0,0-.25-.045,3.9,3.9,0,0,0-.923.468c-.146.067-.3.112-.448.189a.56.56,0,0,0-.3.357.872.872,0,0,0,.122.5,5.675,5.675,0,0,1,.387,2.207,2.346,2.346,0,0,1-.315,1.455c-.574.783-.207,1.934.008,2.882.026.112.056.233.074.351a3.235,3.235,0,0,1,.026.448,3.5,3.5,0,0,1-.238,1.476,1.651,1.651,0,0,0,.672.19q.975.124,1.958.175a2.135,2.135,0,0,0,.614-.031,1.119,1.119,0,0,0,.827-1.1,1.384,1.384,0,0,0,.327.862,1.3,1.3,0,0,0,.858.264,15.939,15.939,0,0,0,2.585-.073.445.445,0,0,0,.159-.037c.166-.083.175-.311.161-.495-.025-.344-.05-.687-.092-1.029a4.2,4.2,0,0,1-.054-.658,3.8,3.8,0,0,1,.112-.672,7.613,7.613,0,0,0,.218-2.126,3.594,3.594,0,0,1-.021-.525,6.954,6.954,0,0,0,.2-1.164,19.049,19.049,0,0,0-.525-3.455.9.9,0,0,0-.306-.527c-.224-.15-.538-.072-.795-.167a1.994,1.994,0,0,1-.341-.2,1.567,1.567,0,0,0-.771-.237.654.654,0,0,0-.56.2.813.813,0,0,0-.112.305c-.162.683-.353,1.358-.543,2.032l-.182.647-.489,1.737C296.043,505.934,296.075,505.991,296.026,506.165Z" transform="translate(-261.111 -455.311)" fill="#d28f87"/>
    <path id="Path_18352" data-name="Path 18352" d="M325.377,400.25,336.2,411.627v.965h-4.827l-8.135-10.618" transform="translate(-287.7 -356.16)" fill="#f1c0c0"/>
    <path id="Path_18353" data-name="Path 18353" d="M325.377,400.25,336.2,411.627v.965h-4.827l-8.135-10.618" transform="translate(-287.7 -356.16)" opacity="0.1"/>
    <path id="Path_18354" data-name="Path 18354" d="M323.412,414.31l.035.012,8,9.791H336.2v.965h-4.827L323.24,414.46Z" transform="translate(-287.7 -368.655)" opacity="0.1"/>
    <path id="Path_18355" data-name="Path 18355" d="M339.33,500.5c-.392.171-.827.391-.945.8a.4.4,0,0,0,.4.538,1.343,1.343,0,0,0,.538-.1l2.311-.763c.063-.02.134-.05.15-.112a.192.192,0,0,0-.022-.112c-.072-.175-.142-.532-.292-.654-.123-.1-.367-.064-.516-.061A4.182,4.182,0,0,0,339.33,500.5Z" transform="translate(-302.332 -454.52)" fill="#be6f72"/>
    <path id="Path_18356" data-name="Path 18356" d="M361.494,499.216a3.718,3.718,0,0,1,1.147.178,2.044,2.044,0,0,1,.95.649.711.711,0,0,1,.15.293c.022.112.387.179.307.255.245-.039.187.076.435.074a.823.823,0,0,0,.666-.264.865.865,0,0,0,.131-.547.932.932,0,0,0-.074-.387,1.144,1.144,0,0,0-.607-.47l-2-.914a1.324,1.324,0,0,0-.369-.131,1.382,1.382,0,0,0-.326.008l-.905.1a1.358,1.358,0,0,1,.619,1.194" transform="translate(-322.48 -452.672)" fill="#3f3d56"/>
  </g>
</svg>
