<svg xmlns="http://www.w3.org/2000/svg" width="47.624" height="38.117" viewBox="0 0 47.624 38.117">
  <path id="upload-img" d="M3013.737,18646.09a3.8,3.8,0,0,0-2.8-1.191H2971.25a4.022,4.022,0,0,0-3.97,3.992v30.137a4.027,4.027,0,0,0,3.97,3.988h39.685a4.026,4.026,0,0,0,3.968-3.988v-30.137A3.777,3.777,0,0,0,3013.737,18646.09Zm-2.01,32.938a.8.8,0,0,1-.234.576.767.767,0,0,1-.561.213H2971.25a.763.763,0,0,1-.56-.213.808.808,0,0,1-.235-.576v-30.137a.8.8,0,0,1,.235-.58.755.755,0,0,1,.56-.213h39.685a.766.766,0,0,1,.558.213.8.8,0,0,1,.235.58v30.137Zm-33.335-18.234a4.773,4.773,0,1,0-4.761-4.779,4.574,4.574,0,0,0,1.388,3.379A4.7,4.7,0,0,0,2978.392,18660.793Zm7.145,7.119-3.969-3.955-7.937,7.947v4.748h34.924v-11.109l-10.32-10.328Z" transform="translate(-2967.28 -18644.898)" fill="#83858b" fill-rule="evenodd"/>
</svg>
