<svg xmlns="http://www.w3.org/2000/svg" width="23.5" height="23.5" viewBox="0 0 23.5 23.5">
  <g id="user" transform="translate(-12810.1 3948.601)">
    <g id="Group_10606" data-name="Group 10606" transform="translate(12815.361 -3948.6)">
      <path id="Path_9997" data-name="Path 9997" d="M34.788,23.646a6.473,6.473,0,1,1,6.488-6.458A6.5,6.5,0,0,1,34.788,23.646Zm0-10.554a4.081,4.081,0,1,0,4.1,4.066A4.1,4.1,0,0,0,34.788,13.092Z" transform="translate(-28.3 -10.7)" fill="#fff"/>
    </g>
    <g id="Group_10607" data-name="Group 10607" transform="translate(12816.359 -3936.271)">
      <path id="Path_9998" data-name="Path 9998" d="M37.127,55.723a8.574,8.574,0,0,1-4.993-1.614,1.2,1.2,0,1,1,1.405-1.943,6.192,6.192,0,0,0,3.588,1.166,5.986,5.986,0,0,0,3.588-1.166,1.2,1.2,0,1,1,1.405,1.943A8.574,8.574,0,0,1,37.127,55.723Z" transform="translate(-31.637 -51.937)" fill="#fff"/>
    </g>
    <g id="Group_10608" data-name="Group 10608" transform="translate(12810.1 -3936.287)">
      <path id="Path_9999" data-name="Path 9999" d="M33,63.071H11.9a1.2,1.2,0,0,1-1.2-1.2v-.9a9.249,9.249,0,0,1,7.205-9.059,1.106,1.106,0,0,1,.957.209,6.192,6.192,0,0,0,3.588,1.166,5.986,5.986,0,0,0,3.588-1.166,1.212,1.212,0,0,1,.957-.209A9.249,9.249,0,0,1,34.2,60.978v.9A1.2,1.2,0,0,1,33,63.071ZM13.092,60.679H31.808A6.826,6.826,0,0,0,26.965,54.4a8.57,8.57,0,0,1-9.029,0A6.857,6.857,0,0,0,13.092,60.679Z" transform="translate(-10.7 -51.884)" fill="#fff"/>
    </g>
  </g>
</svg>
