<svg xmlns="http://www.w3.org/2000/svg" xmlns:xlink="http://www.w3.org/1999/xlink" width="502.226" height="368.447" viewBox="0 0 502.226 368.447">
  <defs>
    <linearGradient id="linear-gradient" x1="0.5" y1="1" x2="0.5" gradientUnits="objectBoundingBox">
      <stop offset="0" stop-color="gray" stop-opacity="0.251"/>
      <stop offset="0.54" stop-color="gray" stop-opacity="0.122"/>
      <stop offset="1" stop-color="gray" stop-opacity="0.102"/>
    </linearGradient>
    <linearGradient id="linear-gradient-2" x1="9.926" x2="9.926" y2="0" xlink:href="#linear-gradient"/>
  </defs>
  <g id="a-w" transform="translate(0 0.001)">
    <path id="Path_20484" data-name="Path 20484" d="M202.978,327.358c-6.605,2-12.788,6.827-14.438,13.53-1.887,7.7,2.465,15.469,3.094,23.379,2.032,25.916-34.836,44.2-29.577,69.657,2.088,10.122,10.529,17.568,18.846,23.719,13.324,9.823,28.107,18.5,44.479,20.95,24.848,3.723,50.811-7.219,74.963-.3,19.481,5.579,34.388,21.93,53.734,27.963,14.726,4.594,30.593,2.784,45.891.923,8.25-1,16.892-2.155,23.549-7.105,12.375-9.214,13.154-27.411,21.44-40.451,12.8-20.11,40.859-24.059,64.387-20.151S555.722,453,579.56,452.213c5.094-.17,10.313-.861,14.757-3.362,5.4-3.037,9.055-8.389,12.282-13.685a221.438,221.438,0,0,0,32.108-110.031c.139-6.677-.1-13.644-3.238-19.537-3.97-7.456-11.906-11.916-19.806-14.917-18.97-7.219-39.925-8.4-58.514-16.542-17.929-7.853-32.449-21.626-48.062-33.428a256.006,256.006,0,0,0-105.442-46.959c-8.967-1.733-18.274-2.97-27.184-.969-10.266,2.3-19.115,8.7-27.071,15.593-21.167,18.326-38.131,40.936-57.637,61.02a328.145,328.145,0,0,1-43.788,37.76c-7.219,5.2-14.892,11.38-22.935,15.227C217.668,325.9,210.764,325.012,202.978,327.358Z" transform="translate(-136.512 -140.699)" fill="#7aa93c" opacity="0.2"/>
    <path id="Path_20485" data-name="Path 20485" d="M396.21,138.88s-19.929,26.467-5.672,57.318-24.848,80.418-24.848,80.418" transform="translate(-235.395 -115.089)" fill="none" stroke="#535461" stroke-miterlimit="10" stroke-width="2"/>
    <path id="Path_20486" data-name="Path 20486" d="M430.105,106.626c-1.583,6.812-9.158,10.87-9.158,10.87s-5-6.987-3.419-13.8,5.672-11.679,9.158-10.87S431.688,99.814,430.105,106.626Z" transform="translate(-260.354 -92.74)" fill="#8ed16f"/>
    <ellipse id="Ellipse_983" data-name="Ellipse 983" cx="3.976" cy="1.49" rx="3.976" ry="1.49" transform="translate(160.86 15.894) rotate(-76.9)" fill="#8ed16f"/>
    <ellipse id="Ellipse_984" data-name="Ellipse 984" cx="3.976" cy="1.49" rx="3.976" ry="1.49" transform="translate(160.86 15.894) rotate(-76.9)" opacity="0.3"/>
    <path id="Path_20487" data-name="Path 20487" d="M422.283,165.675c-6.579,2.372-14.1-1.784-14.1-1.784s3.145-8,9.73-10.364,12.891-1.547,14.1,1.784S428.862,163.3,422.283,165.675Z" transform="translate(-255.975 -121.527)" fill="#8ed16f"/>
    <ellipse id="Ellipse_985" data-name="Ellipse 985" cx="3.976" cy="1.49" rx="3.976" ry="1.49" transform="matrix(0.94, -0.34, 0.34, 0.94, 159.709, 37.447)" fill="#8ed16f"/>
    <ellipse id="Ellipse_986" data-name="Ellipse 986" cx="3.976" cy="1.49" rx="3.976" ry="1.49" transform="matrix(0.94, -0.34, 0.34, 0.94, 159.709, 37.447)" opacity="0.3"/>
    <path id="Path_20488" data-name="Path 20488" d="M419.313,212.445c-6.579,2.372-14.1-1.784-14.1-1.784s3.145-8,9.73-10.364,12.891-1.547,14.1,1.784S425.892,210.079,419.313,212.445Z" transform="translate(-254.537 -144.181)" fill="#8ed16f"/>
    <ellipse id="Ellipse_987" data-name="Ellipse 987" cx="3.976" cy="1.49" rx="3.976" ry="1.49" transform="translate(158.254 61.919) rotate(-19.8)" fill="#8ed16f"/>
    <ellipse id="Ellipse_988" data-name="Ellipse 988" cx="3.976" cy="1.49" rx="3.976" ry="1.49" transform="translate(158.254 61.919) rotate(-19.8)" opacity="0.3"/>
    <path id="Path_20489" data-name="Path 20489" d="M434.223,267.315c-6.579,2.372-14.1-1.784-14.1-1.784s3.145-8,9.73-10.364,12.891-1.547,14.1,1.784S440.8,264.959,434.223,267.315Z" transform="translate(-261.759 -170.758)" fill="#8ed16f"/>
    <ellipse id="Ellipse_989" data-name="Ellipse 989" cx="3.976" cy="1.49" rx="3.976" ry="1.49" transform="translate(165.943 90.225) rotate(-19.8)" fill="#8ed16f"/>
    <ellipse id="Ellipse_990" data-name="Ellipse 990" cx="3.976" cy="1.49" rx="3.976" ry="1.49" transform="translate(165.943 90.225) rotate(-19.8)" opacity="0.3"/>
    <path id="Path_20490" data-name="Path 20490" d="M424.523,317.5c-6.579,2.372-14.1-1.784-14.1-1.784s3.145-8,9.73-10.364,12.891-1.547,14.1,1.784S431.107,315.129,424.523,317.5Z" transform="translate(-257.06 -195.064)" fill="#8ed16f"/>
    <ellipse id="Ellipse_991" data-name="Ellipse 991" cx="3.976" cy="1.49" rx="3.976" ry="1.49" transform="matrix(0.94, -0.34, 0.34, 0.94, 160.955, 115.668)" fill="#8ed16f"/>
    <ellipse id="Ellipse_992" data-name="Ellipse 992" cx="3.976" cy="1.49" rx="3.976" ry="1.49" transform="matrix(0.94, -0.34, 0.34, 0.94, 160.955, 115.668)" opacity="0.3"/>
    <path id="Path_20491" data-name="Path 20491" d="M372.937,177.9c4.857,5.033,13.443,4.641,13.443,4.641s.706-8.565-4.151-13.6-10.875-7.105-13.443-4.641S368.079,172.869,372.937,177.9Z" transform="translate(-236.335 -126.901)" fill="#8ed16f"/>
    <ellipse id="Ellipse_993" data-name="Ellipse 993" cx="1.49" cy="3.976" rx="1.49" ry="3.976" transform="matrix(0.719, -0.695, 0.695, 0.719, 137.599, 44.53)" fill="#8ed16f"/>
    <ellipse id="Ellipse_994" data-name="Ellipse 994" cx="1.49" cy="3.976" rx="1.49" ry="3.976" transform="matrix(0.719, -0.695, 0.695, 0.719, 137.599, 44.53)" opacity="0.3"/>
    <path id="Path_20492" data-name="Path 20492" d="M367.527,332.892c4.857,5.033,13.443,4.641,13.443,4.641s.706-8.565-4.151-13.6-10.875-7.105-13.443-4.641S362.669,327.859,367.527,332.892Z" transform="translate(-233.715 -201.973)" fill="#8ed16f"/>
    <ellipse id="Ellipse_995" data-name="Ellipse 995" cx="1.49" cy="3.976" rx="1.49" ry="3.976" transform="matrix(0.719, -0.695, 0.695, 0.719, 134.802, 124.455)" fill="#8ed16f"/>
    <ellipse id="Ellipse_996" data-name="Ellipse 996" cx="1.49" cy="3.976" rx="1.49" ry="3.976" transform="matrix(0.719, -0.695, 0.695, 0.719, 134.802, 124.455)" opacity="0.3"/>
    <path id="Path_20493" data-name="Path 20493" d="M376.724,233.4c6.26,3.125,14.216-.124,14.216-.124s-2.191-8.307-8.446-11.432-12.623-3.094-14.216.124S370.464,230.274,376.724,233.4Z" transform="translate(-236.471 -154.152)" fill="#8ed16f"/>
    <ellipse id="Ellipse_997" data-name="Ellipse 997" cx="1.49" cy="3.976" rx="1.49" ry="3.976" transform="translate(139.015 72.799) rotate(-63.48)" fill="#8ed16f"/>
    <ellipse id="Ellipse_998" data-name="Ellipse 998" cx="1.49" cy="3.976" rx="1.49" ry="3.976" transform="translate(139.015 72.799) rotate(-63.48)" opacity="0.3"/>
    <path id="Path_20494" data-name="Path 20494" d="M381.815,287.969c6.26,3.125,14.216-.124,14.216-.124s-2.191-8.307-8.446-11.432-12.623-3.094-14.216.124S375.581,284.875,381.815,287.969Z" transform="translate(-238.938 -180.583)" fill="#8ed16f"/>
    <ellipse id="Ellipse_999" data-name="Ellipse 999" cx="1.49" cy="3.976" rx="1.49" ry="3.976" transform="translate(141.642 100.941) rotate(-63.48)" fill="#8ed16f"/>
    <ellipse id="Ellipse_1000" data-name="Ellipse 1000" cx="1.49" cy="3.976" rx="1.49" ry="3.976" transform="translate(141.642 100.941) rotate(-63.48)" opacity="0.3"/>
    <path id="Path_20495" data-name="Path 20495" d="M202.775,249.21s36.4,36.4,15.851,90.411,35.223,143.831,35.223,143.831-.6-.088-1.707-.284c-74.767-13.2-111.892-98.7-70.332-162.213C197.242,297.339,209.953,269.639,202.775,249.21Z" transform="translate(-137.944 -168.529)" fill="#8ed16f"/>
    <path id="Path_20496" data-name="Path 20496" d="M113,534.293s41.534-6.616,45.319,30.608,79.866,42.385,79.866,42.385-.516.34-1.428.949c-62.82,41.251-122.87,26.266-113.821-28.489C126.308,559.383,126.03,538.938,113,534.293Z" transform="translate(-113 -306.393)" fill="#8ed16f"/>
    <g id="Group_10836" data-name="Group 10836" transform="translate(0 227.444)" opacity="0.3">
      <path id="Path_20497" data-name="Path 20497" d="M113,534.293s41.534-6.616,45.319,30.608,79.866,42.385,79.866,42.385-.516.34-1.428.949c-62.82,41.251-122.87,26.266-113.821-28.489C126.308,559.383,126.03,538.938,113,534.293Z" transform="translate(-113 -533.838)" fill="#fff"/>
    </g>
    <ellipse id="Ellipse_1001" data-name="Ellipse 1001" cx="11.421" cy="29.798" rx="11.421" ry="29.798" transform="translate(42.896 167.844)" fill="#8ed16f"/>
    <ellipse id="Ellipse_1002" data-name="Ellipse 1002" cx="11.421" cy="29.798" rx="11.421" ry="29.798" transform="translate(42.896 167.844)" opacity="0.3"/>
    <ellipse id="Ellipse_1003" data-name="Ellipse 1003" cx="7.698" cy="17.134" rx="7.698" ry="17.134" transform="translate(23.599 287.076) rotate(-45)" fill="#8ed16f"/>
    <ellipse id="Ellipse_1004" data-name="Ellipse 1004" cx="7.698" cy="17.134" rx="7.698" ry="17.134" transform="translate(23.599 287.076) rotate(-45)" opacity="0.3"/>
    <path id="Path_20498" data-name="Path 20498" d="M571.346,358.2H300.978a12.318,12.318,0,0,0-12.318,12.318v158.47a12.318,12.318,0,0,0,12.318,12.318H571.346a12.318,12.318,0,0,0,12.318-12.318V370.518A12.318,12.318,0,0,0,571.346,358.2Z" transform="translate(-198.084 -221.32)" fill="url(#linear-gradient)"/>
    <rect id="Rectangle_3810" data-name="Rectangle 3810" width="288.059" height="178.796" rx="24.81" transform="translate(94.046 139.035)" fill="#7aa93c"/>
    <rect id="Rectangle_3811" data-name="Rectangle 3811" width="288.059" height="32.779" transform="translate(94.046 170.324)" fill="#7aa93c"/>
    <rect id="Rectangle_3812" data-name="Rectangle 3812" width="288.059" height="32.779" transform="translate(94.046 170.324)" opacity="0.3"/>
    <rect id="Rectangle_3813" data-name="Rectangle 3813" width="233.427" height="15.892" transform="translate(121.365 227.44)" fill="#d6d6e3"/>
    <circle id="Ellipse_1005" data-name="Ellipse 1005" cx="22.848" cy="22.848" r="22.848" transform="translate(117.884 260.219)" fill="#7aa93c"/>
    <circle id="Ellipse_1006" data-name="Ellipse 1006" cx="22.848" cy="22.848" r="22.848" transform="translate(117.884 260.219)" opacity="0.3"/>
    <path id="Path_20499" data-name="Path 20499" d="M822.2,242.334a5,5,0,0,0,2.2,2.784c4.739,3.13,15.041,2.465,16.279,2.465.263,0,.608.469.99,1.258,1.82,3.754,4.641,14.757,4.832,17.232.253,3,3.037,17.016,7.6,22.239.139.16.278.309.412.449,4.471,4.491,9.715-.449,9.715-.449l.753-2.614c-.211,1.031-.449,2.233-.686,3.578-.119.675-.237,1.392-.351,2.13a81.608,81.608,0,0,0-1.068,12.566,45.58,45.58,0,0,0,.2,4.579c.041.423.088.84.144,1.248a43.719,43.719,0,0,1,.34,5.589c-.041,11.1-2.872,24.9-2.872,24.9l.108-.036c-.067.345-.108.516-.108.516l.165-.052q-.118.768-.227,1.573c-.959,6.961-1.511,15.624-1.774,20.625a41.294,41.294,0,0,0,.351,7.9l5.033,35.429v16.5a29.131,29.131,0,0,0,.908,7.415c1.64,6.234.289,27.994-.469,38.317-.211,2.815-.376,4.785-.423,5.352V474l.144-.057v.18a2.916,2.916,0,0,1,.67-.2c-2,3.094-5.61,8.209-8.389,9.07a8.8,8.8,0,0,0-4.192,2.779l-.072.1-.1.144a3.094,3.094,0,0,0-.6,1.578,1.745,1.745,0,0,1-.093-.3c-.211,1.15.479,2.2,2.65,2.712a17.842,17.842,0,0,0,3.841.309c7.528,0,20.888-2.315,22.363-4.806v-8.59l.242.077v.077l.923.3,2.532-8.5c3.037-2.248.516-42.483,0-51.728-.464-8.425,4.749-41.942,5.672-47.846l-.124-.15.139-.861a3.659,3.659,0,0,1,.516.454,6.741,6.741,0,0,1,.789,1.165,15.59,15.59,0,0,1,1.119,2.31c5.094,12.705,7.389,49.037,7.389,52.3v34.166a35.575,35.575,0,0,0,1.392,9.967,42.749,42.749,0,0,1,1.083,5.187c.108.686.2,1.366.289,2.016s.175,1.392.242,2a4.166,4.166,0,0,0,.052.459.9.9,0,0,1,0,.211c.139,1.346.211,2.228.211,2.228a.517.517,0,0,1,.1-.2l.026.325a.7.7,0,0,1,.2-.32,4.882,4.882,0,0,1,.681-.557v4.342l-.124-.093V485c5.249,3.96,13.793,5.156,20.352,5.11,4.254,0,7.7-.516,8.895-1.114,1.712-.84.774-2.8-.784-4.3-1.207-1.165-2.779-2.063-3.774-1.949-1.66.18-7.338-6.25-10.313-9.771l.335-.15.474-.206V415.649s.763-22.492,3.037-44.736a79.14,79.14,0,0,0-3.893-33.186l-.072-.211.691.108c.732.113,1.124.18,1.124.18a4.287,4.287,0,0,0-.046-.516h.046s-.887-9.648-.9-21.765c0-13.736,1.16-30.484,5.961-39.962,2.764-5.455,3.687-9.8,3.609-13.221a13.83,13.83,0,0,0-2.47-8.456,6.7,6.7,0,0,0-2.841-2.248l-.1-.057H923.1a7.064,7.064,0,0,0-2.609-.516h-10.37a6.925,6.925,0,0,1-3.424-.9l-4.058-2.3c-1.351-2.955-1.547-6.616-1.258-10.05,0-.273.052-.547.077-.815l.294-.309c.227-.242.438-.516.645-.748a5.764,5.764,0,0,1-.046.608c-.052.325-.139.516-.279.557,2.217-.289,4.692-.727,6.054-2.439.057-.067.108-.139.16-.211a11.049,11.049,0,0,0,1-2.063,5.991,5.991,0,0,1,.758-1.382c.34-.443.784-.8,1.15-1.227l.062-.072c1.3-1.547,1.377-3.764,1.392-5.785.026-4.909-.119-10.313-3.4-13.994-2.728-3.063-7.08-4.223-11.21-4.357s-8.25.608-12.375.629c-2.805,0-6.188-.046-7.734,2.274-.758,1.14-.851,2.63-1.676,3.723-.474.629-1.2,1.17-1.243,1.954a2.006,2.006,0,0,0,.268,1.031v.036a7.3,7.3,0,0,0,5.342,3.584,13.3,13.3,0,0,0-1.031,1.423,13.551,13.551,0,0,0-2.063,7.219,8.429,8.429,0,0,0,.031.887,13.628,13.628,0,0,0,4.321,9.08c-.041.289-.082.577-.129.861l.093.083q.438.4.913.753l.113.088v.516a8.643,8.643,0,0,1-.031.9c-.031.294,0,.474-.031.712l-.067-.057-5.038-4.208-8.1-7.5s-20.254-14.742-21.27-7.734a5.048,5.048,0,0,0,.964,3.5c3.718,5.672,16.5,10.5,16.5,10.5a108.035,108.035,0,0,1,12.721,16.748c-.18.1-.361.191-.552.278-4.538,2.109-11.158,1.217-11.158,1.217-7.647,1.191-8.338,9.57-8.3,12.958v.7L848.354,243.9l-.031-.072a5.017,5.017,0,0,0-3.8-2.98C837.742,239.7,820.783,237.328,822.2,242.334Zm42.483,231.519a4.426,4.426,0,0,1,.449-.083l-.046.072Z" transform="translate(-456.473 -147.386)" fill="url(#linear-gradient-2)"/>
    <path id="Path_20500" data-name="Path 20500" d="M991.646,716.43s9.611,12.081,11.834,11.834,7.394,4.682,4.44,6.188-19.965,2.465-28.36-3.945v-9.658Z" transform="translate(-532.733 -394.835)" fill="#aca9c9"/>
    <path id="Path_20501" data-name="Path 20501" d="M895.242,717.86s-5.672,10.106-9.611,11.344-7.394,5.672-2.217,6.9,23.668-1.48,25.39-4.44V718.6Z" transform="translate(-484.896 -395.528)" fill="#aca9c9"/>
    <path id="Path_20502" data-name="Path 20502" d="M894.618,488.861l4.9,34.95v16.248a29.121,29.121,0,0,0,.887,7.312c1.6,6.151.284,27.612-.459,37.8-.242,3.321-.428,5.445-.428,5.445,3.2-1.48,16.763,3.2,16.763,3.2l1.372-4.667,1.093-3.713c2.96-2.217.516-41.906,0-51.048-.335-6.244,2.449-26.488,4.233-38.621.516-3.429.933-6.188,1.186-7.848.16-1.031.247-1.6.247-1.6a5.4,5.4,0,0,1,1.33,1.6,15.428,15.428,0,0,1,1.088,2.279c4.96,12.535,7.219,48.372,7.219,51.563v33.7A35.539,35.539,0,0,0,935.4,585.3a51.559,51.559,0,0,1,1.335,7.1c.351,2.676.516,4.831.516,4.831.247-1.48,15.531-8.137,15.531-8.137v-56.2s.737-22.172,2.96-44.128a78.726,78.726,0,0,0-2.836-29.69c-.614-2.1-1.227-3.878-1.758-5.285-.9-2.4-1.547-3.723-1.547-3.723H899.259c-.846.16-1.547,1.861-2.181,4.445-.412,1.733-.773,3.857-1.088,6.188-.933,6.863-1.469,15.407-1.727,20.347a41.182,41.182,0,0,0,.356,7.822Z" transform="translate(-491.393 -265.814)" fill="#618fd8"/>
    <g id="Group_10837" data-name="Group 10837" transform="translate(408.248 184.4)" opacity="0.1">
      <path id="Path_20503" data-name="Path 20503" d="M992.353,589.4v-56.2s.737-22.172,2.96-44.128a76.873,76.873,0,0,0-6.188-38.7h.985a77.32,77.32,0,0,1,6.188,38.7c-2.191,21.94-2.96,44.128-2.96,44.128v56.2s-15.283,6.657-15.531,8.137a7.385,7.385,0,0,0-.077-.9C981.061,594.32,992.353,589.4,992.353,589.4Z" transform="translate(-940.094 -450.36)"/>
      <path id="Path_20504" data-name="Path 20504" d="M906.1,722.328a3.823,3.823,0,0,0-1.356.278v-.248A8.794,8.794,0,0,1,906.1,722.328Z" transform="translate(-904.74 -582.086)"/>
      <path id="Path_20505" data-name="Path 20505" d="M937.892,619.735c2.96-2.217.516-41.906,0-51.048s5.672-48.067,5.672-48.067a4.3,4.3,0,0,1,.851.877c-.907,5.816-5.981,38.884-5.533,47.191.516,9.122,2.96,48.81,0,51.048l-2.465,8.379-.9-.3Z" transform="translate(-919.649 -484.392)"/>
    </g>
    <path id="Path_20506" data-name="Path 20506" d="M871.141,303.764l-5.156,18.243s-5.424,5.156-9.859,0-7.167-18.98-7.435-21.94-4.192-18.243-5.672-18.243-16.268.985-18-5.156c-1.382-4.94,15.129-2.578,21.739-1.47a4.9,4.9,0,0,1,3.7,2.939L860.6,302.346S865.964,296.123,871.141,303.764Z" transform="translate(-457.841 -180.369)" fill="#f7c4a7"/>
    <path id="Path_20507" data-name="Path 20507" d="M953.37,249.82s-6.409,18,1.727,24.4-29.1,8.137-29.1,8.137l5.053-4.806s3.573-14.175,1.109-26.009Z" transform="translate(-506.79 -168.825)" fill="#f7c4a7"/>
    <path id="Path_20508" data-name="Path 20508" d="M929.791,294.026s6.533-1.6,6.533-3.326l5.791,3.326H956.66s10.6,5.914,1.727,23.668-4.929,61.36-4.929,61.36-31.552-5.672-57.684,2.96c0,0,3.945-19.475,2.465-30.567s2.465-26.622,2.465-26.622l2.217-9.369s-.124-8.766-9.245-4.316c0,0-1.356-12.695,8.013-14.175,0,0,10.828,1.48,14.051-3.945C915.74,293.041,922.892,297.233,929.791,294.026Z" transform="translate(-491.1 -188.626)" opacity="0.1"/>
    <path id="Path_20509" data-name="Path 20509" d="M929.791,293.076s6.533-1.6,6.533-3.326l4.244,2.439a6.7,6.7,0,0,0,3.331.887h10.173a6.7,6.7,0,0,1,5.45,2.774c2.336,3.285,4.429,9.761-1.134,20.893-8.874,17.748-4.929,61.36-4.929,61.36s-31.552-5.672-57.684,2.96c0,0,3.945-19.475,2.465-30.567s2.465-26.586,2.465-26.586l2.217-9.369s-.124-8.766-9.245-4.316c0,0-1.32-12.344,7.626-14.108a2.527,2.527,0,0,1,.758-.052c1.913.2,10.828.846,13.685-3.986C915.74,292.086,922.891,296.278,929.791,293.076Z" transform="translate(-491.1 -188.165)" fill="#e14b5a"/>
    <path id="Path_20510" data-name="Path 20510" d="M974.783,321.5s-7.889,4.929-20.708,0c0,0-14.051-5.156-18.491-15.283s22.43,1.727,22.43,1.727,5.672,0,7.394-1.232S979.218,316.074,974.783,321.5Z" transform="translate(-511.193 -194.158)" opacity="0.1"/>
    <path id="Path_20511" data-name="Path 20511" d="M945.336,288.79s-7.889,4.929-20.708,0c0,0-14.051-5.156-18.491-15.283s-14.788-21.218-14.788-21.218-18-6.9-17.016-13.8,20.708,7.642,20.708,7.642l7.889,7.394,25.637,21.693s5.672,0,7.394-1.232S949.771,283.366,945.336,288.79Z" transform="translate(-481.746 -162.435)" fill="#f7c4a7"/>
    <path id="Path_20512" data-name="Path 20512" d="M937.49,252.977l21.2-1.727a48.655,48.655,0,0,0-2.212,10.039,13.546,13.546,0,0,1-18.975.516,24.093,24.093,0,0,0-.01-8.828Z" transform="translate(-512.355 -169.517)" opacity="0.1"/>
    <circle id="Ellipse_1007" data-name="Ellipse 1007" cx="13.556" cy="13.556" r="13.556" transform="translate(421.071 68.058)" fill="#f7c4a7"/>
    <path id="Path_20513" data-name="Path 20513" d="M948.286,234.158c-.794-1.31.82-3.016.289-4.45-.49-1.32-2.439-1.547-3.094-2.779-.516-1,0-2.217-.206-3.316a3.406,3.406,0,0,0-3.269-2.372,11.663,11.663,0,0,0-4.223.933,16.214,16.214,0,0,1-6.956,1.073,7.294,7.294,0,0,1-5.744-3.646,2.063,2.063,0,0,1-.263-1c.041-.773.753-1.3,1.212-1.923.8-1.078.9-2.547,1.629-3.671,1.5-2.289,4.78-2.233,7.513-2.243,4.022,0,8.023-.753,12.045-.619s8.25,1.274,10.916,4.3c3.2,3.635,3.341,8.957,3.315,13.8,0,2-.082,4.166-1.356,5.708-.371.449-.825.82-1.181,1.279-.773,1.031-.98,2.351-1.707,3.4-1.289,1.861-3.805,2.315-6.048,2.614.66-.088.113-4.507,0-4.914C950.725,234.3,950.256,234.338,948.286,234.158Z" transform="translate(-506.219 -149.6)" opacity="0.1"/>
    <path id="Path_20514" data-name="Path 20514" d="M948.286,233.208c-.794-1.31.82-3.016.289-4.45-.49-1.32-2.439-1.547-3.094-2.779-.516-1,0-2.217-.206-3.316a3.406,3.406,0,0,0-3.269-2.372,11.664,11.664,0,0,0-4.223.933,16.214,16.214,0,0,1-6.956,1.073,7.294,7.294,0,0,1-5.744-3.646,2.063,2.063,0,0,1-.263-1c.041-.773.753-1.3,1.212-1.923.8-1.078.9-2.547,1.629-3.671,1.5-2.289,4.78-2.233,7.513-2.243,4.022,0,8.023-.753,12.045-.619s8.25,1.274,10.916,4.3c3.2,3.635,3.341,8.957,3.315,13.8,0,2-.082,4.166-1.356,5.708-.371.449-.825.82-1.181,1.279-.773,1.031-.98,2.351-1.707,3.4-1.289,1.861-3.805,2.315-6.048,2.614.66-.088.113-4.507,0-4.914C950.725,233.321,950.256,233.383,948.286,233.208Z" transform="translate(-506.219 -149.139)" fill="#281c1c"/>
    <path id="Path_20515" data-name="Path 20515" d="M999.695,324.024s-6.657-17.258-11.834-17.748,9.859,0,9.859,0l4.929,8.874Z" transform="translate(-536.228 -196.064)" opacity="0.1"/>
    <path id="Path_20516" data-name="Path 20516" d="M1000.655,324.024S994,306.765,988.821,306.275s9.859,0,9.859,0l4.929,8.874Z" transform="translate(-536.693 -196.064)" fill="#e14b5a"/>
    <path id="Path_20517" data-name="Path 20517" d="M976.65,719.307c.351,2.676.516,4.831.516,4.831C977.413,722.659,992.7,716,992.7,716V712a6.794,6.794,0,0,0-1.165.057,21.991,21.991,0,0,0-8.25,3.372A75.27,75.27,0,0,1,976.65,719.307Z" transform="translate(-531.323 -392.685)" fill="#618fd8"/>
    <path id="Path_20518" data-name="Path 20518" d="M976.65,719.307c.351,2.676.516,4.831.516,4.831C977.413,722.659,992.7,716,992.7,716V712a6.794,6.794,0,0,0-1.165.057,21.991,21.991,0,0,0-8.25,3.372A75.27,75.27,0,0,1,976.65,719.307Z" transform="translate(-531.323 -392.685)" opacity="0.3"/>
    <path id="Path_20519" data-name="Path 20519" d="M904.5,717.221c3.2-1.48,16.763,3.2,16.763,3.2l1.372-4.667c-2.367-.479-4.718-1.078-7.028-1.789a23.375,23.375,0,0,1-3.156-1.165,21.144,21.144,0,0,0-2.1-.98,10.913,10.913,0,0,0-5.424-.047C904.686,715.1,904.5,717.221,904.5,717.221Z" transform="translate(-496.376 -392.424)" fill="#618fd8"/>
    <path id="Path_20520" data-name="Path 20520" d="M904.5,717.221c3.2-1.48,16.763,3.2,16.763,3.2l1.372-4.667c-2.367-.479-4.718-1.078-7.028-1.789a23.375,23.375,0,0,1-3.156-1.165,21.144,21.144,0,0,0-2.1-.98,10.913,10.913,0,0,0-5.424-.047C904.686,715.1,904.5,717.221,904.5,717.221Z" transform="translate(-496.376 -392.424)" opacity="0.3"/>
    <path id="Path_20521" data-name="Path 20521" d="M1007.66,746.185a1.475,1.475,0,0,0,.846-.98,1.449,1.449,0,0,1-.846,1.717c-2.96,1.48-19.965,2.465-28.36-3.945v-.737C987.695,748.649,1004.7,747.664,1007.66,746.185Z" transform="translate(-532.607 -407.336)" fill="#fff" opacity="0.4"/>
    <path id="Path_20522" data-name="Path 20522" d="M883.163,747.63c5.156,1.232,23.668-1.48,25.39-4.44v.737c-1.727,2.96-20.213,5.672-25.39,4.44-2.114-.516-2.79-1.547-2.578-2.676C880.75,746.526,881.524,747.217,883.163,747.63Z" transform="translate(-484.775 -407.797)" fill="#fff" opacity="0.4"/>
    <path id="Path_20523" data-name="Path 20523" d="M924.183,402.809s-5.424-1.727-6.9,0-14.128,5.775-14.128,5.775" transform="translate(-495.722 -242.555)" opacity="0.1"/>
    <rect id="Rectangle_3814" data-name="Rectangle 3814" width="26.375" height="0.557" transform="translate(393.459 92.52) rotate(180)" fill="#8ed16f"/>
    <rect id="Rectangle_3815" data-name="Rectangle 3815" width="26.375" height="0.557" transform="translate(393.459 93.077) rotate(180)" fill="#8ed16f"/>
    <rect id="Rectangle_3816" data-name="Rectangle 3816" width="26.375" height="0.557" transform="translate(393.459 93.077) rotate(180)" opacity="0.1"/>
    <rect id="Rectangle_3817" data-name="Rectangle 3817" width="26.375" height="0.557" transform="translate(393.459 93.634) rotate(180)" fill="#8ed16f"/>
    <rect id="Rectangle_3818" data-name="Rectangle 3818" width="26.375" height="0.557" transform="translate(393.459 94.185) rotate(180)" fill="#8ed16f"/>
    <rect id="Rectangle_3819" data-name="Rectangle 3819" width="26.375" height="0.557" transform="translate(393.459 94.185) rotate(180)" opacity="0.1"/>
    <rect id="Rectangle_3820" data-name="Rectangle 3820" width="26.375" height="0.557" transform="translate(393.459 94.742) rotate(180)" fill="#8ed16f"/>
    <rect id="Rectangle_3821" data-name="Rectangle 3821" width="26.375" height="0.557" transform="translate(393.459 95.294) rotate(180)" fill="#8ed16f"/>
    <rect id="Rectangle_3822" data-name="Rectangle 3822" width="26.375" height="0.557" transform="translate(393.459 95.294) rotate(180)" opacity="0.1"/>
    <rect id="Rectangle_3823" data-name="Rectangle 3823" width="26.375" height="0.557" transform="translate(393.459 95.851) rotate(180)" fill="#8ed16f"/>
    <rect id="Rectangle_3824" data-name="Rectangle 3824" width="26.375" height="0.557" transform="translate(393.459 96.403) rotate(180)" fill="#8ed16f"/>
    <rect id="Rectangle_3825" data-name="Rectangle 3825" width="26.375" height="0.557" transform="translate(393.459 96.403) rotate(180)" opacity="0.1"/>
    <rect id="Rectangle_3826" data-name="Rectangle 3826" width="26.375" height="0.557" transform="translate(393.459 88.085) rotate(180)" fill="#8ed16f"/>
    <rect id="Rectangle_3827" data-name="Rectangle 3827" width="26.375" height="0.557" transform="matrix(-0.769, -0.639, 0.639, -0.769, 406.019, 91.766)" fill="#8ed16f"/>
    <rect id="Rectangle_3828" data-name="Rectangle 3828" width="26.375" height="0.557" transform="matrix(-0.769, -0.639, 0.639, -0.769, 387.531, 82.893)" fill="#8ed16f"/>
    <rect id="Rectangle_3829" data-name="Rectangle 3829" width="26.375" height="0.557" transform="translate(393.459 88.637) rotate(180)" fill="#8ed16f"/>
    <rect id="Rectangle_3830" data-name="Rectangle 3830" width="26.375" height="0.557" transform="translate(393.459 88.637) rotate(180)" opacity="0.1"/>
    <rect id="Rectangle_3831" data-name="Rectangle 3831" width="26.375" height="0.557" transform="translate(393.459 89.199) rotate(180)" fill="#8ed16f"/>
    <rect id="Rectangle_3832" data-name="Rectangle 3832" width="26.375" height="0.557" transform="translate(393.459 89.751) rotate(180)" fill="#8ed16f"/>
    <rect id="Rectangle_3833" data-name="Rectangle 3833" width="26.375" height="0.557" transform="translate(393.459 89.751) rotate(180)" opacity="0.1"/>
    <rect id="Rectangle_3834" data-name="Rectangle 3834" width="26.375" height="0.557" transform="translate(393.459 90.303) rotate(180)" fill="#8ed16f"/>
    <rect id="Rectangle_3835" data-name="Rectangle 3835" width="26.375" height="0.557" transform="translate(393.459 90.859) rotate(180)" fill="#8ed16f"/>
    <rect id="Rectangle_3836" data-name="Rectangle 3836" width="26.375" height="0.557" transform="translate(393.459 90.859) rotate(180)" opacity="0.1"/>
    <rect id="Rectangle_3837" data-name="Rectangle 3837" width="26.375" height="0.557" transform="translate(393.459 91.411) rotate(180)" fill="#8ed16f"/>
    <rect id="Rectangle_3838" data-name="Rectangle 3838" width="26.375" height="0.557" transform="translate(393.459 91.968) rotate(180)" fill="#8ed16f"/>
    <rect id="Rectangle_3839" data-name="Rectangle 3839" width="26.375" height="0.557" transform="translate(393.459 91.968) rotate(180)" opacity="0.1"/>
    <rect id="Rectangle_3840" data-name="Rectangle 3840" width="9.611" height="18.733" transform="translate(373.192 115.344) rotate(-169.48)" fill="#8ed16f"/>
    <ellipse id="Ellipse_1008" data-name="Ellipse 1008" cx="3.945" cy="1.97" rx="3.945" ry="1.97" transform="translate(367.652 108.836) rotate(-79.48)" fill="#8ed16f"/>
    <ellipse id="Ellipse_1009" data-name="Ellipse 1009" cx="3.945" cy="1.97" rx="3.945" ry="1.97" transform="translate(367.652 108.836) rotate(-79.48)" opacity="0.1"/>
    <rect id="Rectangle_3841" data-name="Rectangle 3841" width="9.611" height="18.733" transform="translate(374.809 154.22) rotate(-169.48)" fill="#8ed16f"/>
    <ellipse id="Ellipse_1010" data-name="Ellipse 1010" cx="3.945" cy="1.97" rx="3.945" ry="1.97" transform="translate(369.264 147.708) rotate(-79.48)" fill="#8ed16f"/>
    <ellipse id="Ellipse_1011" data-name="Ellipse 1011" cx="3.945" cy="1.97" rx="3.945" ry="1.97" transform="translate(369.264 147.708) rotate(-79.48)" opacity="0.1"/>
    <rect id="Rectangle_3842" data-name="Rectangle 3842" width="9.611" height="18.733" transform="matrix(0.476, -0.879, 0.879, 0.476, 326.604, 65.364)" fill="#8ed16f"/>
    <ellipse id="Ellipse_1012" data-name="Ellipse 1012" cx="1.974" cy="3.954" rx="1.974" ry="3.954" transform="translate(334.317 65.797) rotate(-61.39)" fill="#8ed16f"/>
    <ellipse id="Ellipse_1013" data-name="Ellipse 1013" cx="1.974" cy="3.954" rx="1.974" ry="3.954" transform="translate(334.317 65.797) rotate(-61.39)" opacity="0.1"/>
    <rect id="Rectangle_3843" data-name="Rectangle 3843" width="9.611" height="18.733" transform="matrix(0.476, -0.879, 0.879, 0.476, 290.428, 232.184)" fill="#8ed16f"/>
    <ellipse id="Ellipse_1014" data-name="Ellipse 1014" cx="1.97" cy="3.945" rx="1.97" ry="3.945" transform="matrix(0.476, -0.879, 0.879, 0.476, 296.493, 232.383)" fill="#8ed16f"/>
    <ellipse id="Ellipse_1015" data-name="Ellipse 1015" cx="1.97" cy="3.945" rx="1.97" ry="3.945" transform="matrix(0.476, -0.879, 0.879, 0.476, 296.493, 232.383)" opacity="0.1"/>
    <rect id="Rectangle_3844" data-name="Rectangle 3844" width="9.611" height="18.733" transform="matrix(0.476, -0.879, 0.879, 0.476, 268.295, 94.519)" fill="#8ed16f"/>
    <ellipse id="Ellipse_1016" data-name="Ellipse 1016" cx="1.97" cy="3.945" rx="1.97" ry="3.945" transform="matrix(0.476, -0.879, 0.879, 0.476, 274.355, 94.71)" fill="#8ed16f"/>
    <ellipse id="Ellipse_1017" data-name="Ellipse 1017" cx="1.97" cy="3.945" rx="1.97" ry="3.945" transform="matrix(0.476, -0.879, 0.879, 0.476, 274.355, 94.71)" opacity="0.1"/>
    <rect id="Rectangle_3845" data-name="Rectangle 3845" width="9.611" height="18.733" transform="matrix(0.476, -0.879, 0.879, 0.476, 296.036, 65.362)" fill="#8ed16f"/>
    <ellipse id="Ellipse_1018" data-name="Ellipse 1018" cx="1.97" cy="3.945" rx="1.97" ry="3.945" transform="matrix(0.476, -0.879, 0.879, 0.476, 302.096, 65.554)" fill="#8ed16f"/>
    <ellipse id="Ellipse_1019" data-name="Ellipse 1019" cx="1.97" cy="3.945" rx="1.97" ry="3.945" transform="matrix(0.476, -0.879, 0.879, 0.476, 302.096, 65.554)" opacity="0.1"/>
    <rect id="Rectangle_3846" data-name="Rectangle 3846" width="9.611" height="18.733" transform="matrix(0.994, -0.109, 0.109, 0.994, 318.754, 92.358)" fill="#8ed16f"/>
    <ellipse id="Ellipse_1020" data-name="Ellipse 1020" cx="1.97" cy="3.945" rx="1.97" ry="3.945" transform="matrix(0.994, -0.109, 0.109, 0.994, 322.036, 97.455)" fill="#8ed16f"/>
    <ellipse id="Ellipse_1021" data-name="Ellipse 1021" cx="1.97" cy="3.945" rx="1.97" ry="3.945" transform="matrix(0.994, -0.109, 0.109, 0.994, 322.036, 97.455)" opacity="0.1"/>
    <rect id="Rectangle_3847" data-name="Rectangle 3847" width="9.611" height="18.733" transform="matrix(0.994, -0.109, 0.109, 0.994, 384.26, 194.329)" fill="#8ed16f"/>
    <ellipse id="Ellipse_1022" data-name="Ellipse 1022" cx="1.97" cy="3.945" rx="1.97" ry="3.945" transform="matrix(0.994, -0.109, 0.109, 0.994, 387.547, 199.427)" fill="#8ed16f"/>
    <ellipse id="Ellipse_1023" data-name="Ellipse 1023" cx="1.97" cy="3.945" rx="1.97" ry="3.945" transform="matrix(0.994, -0.109, 0.109, 0.994, 387.547, 199.427)" opacity="0.1"/>
    <rect id="Rectangle_3848" data-name="Rectangle 3848" width="9.611" height="18.733" transform="matrix(0.476, -0.879, 0.879, 0.476, 286.319, 139.323)" fill="#8ed16f"/>
    <ellipse id="Ellipse_1024" data-name="Ellipse 1024" cx="1.97" cy="3.945" rx="1.97" ry="3.945" transform="matrix(0.476, -0.879, 0.879, 0.476, 292.376, 139.522)" fill="#8ed16f"/>
    <ellipse id="Ellipse_1025" data-name="Ellipse 1025" cx="1.97" cy="3.945" rx="1.97" ry="3.945" transform="matrix(0.476, -0.879, 0.879, 0.476, 292.376, 139.522)" opacity="0.1"/>
    <rect id="Rectangle_3849" data-name="Rectangle 3849" width="9.611" height="18.733" transform="matrix(0.476, -0.879, 0.879, 0.476, 244.744, 127.449)" fill="#8ed16f"/>
    <ellipse id="Ellipse_1026" data-name="Ellipse 1026" cx="1.974" cy="3.954" rx="1.974" ry="3.954" transform="translate(252.162 128.177) rotate(-61.39)" fill="#8ed16f"/>
    <ellipse id="Ellipse_1027" data-name="Ellipse 1027" cx="1.974" cy="3.954" rx="1.974" ry="3.954" transform="translate(252.162 128.177) rotate(-61.39)" opacity="0.1"/>
    <rect id="Rectangle_3850" data-name="Rectangle 3850" width="9.611" height="18.733" transform="matrix(0.476, -0.879, 0.879, 0.476, 231.429, 327.363)" fill="#8ed16f"/>
    <ellipse id="Ellipse_1028" data-name="Ellipse 1028" cx="1.97" cy="3.945" rx="1.97" ry="3.945" transform="matrix(0.476, -0.879, 0.879, 0.476, 237.488, 327.557)" fill="#8ed16f"/>
    <ellipse id="Ellipse_1029" data-name="Ellipse 1029" cx="1.97" cy="3.945" rx="1.97" ry="3.945" transform="matrix(0.476, -0.879, 0.879, 0.476, 237.488, 327.557)" opacity="0.1"/>
    <rect id="Rectangle_3851" data-name="Rectangle 3851" width="9.611" height="18.733" transform="translate(222.264 331.62) rotate(-79.49)" fill="#8ed16f"/>
    <rect id="Rectangle_3852" data-name="Rectangle 3852" width="9.611" height="18.733" transform="translate(222.264 331.62) rotate(-79.49)" opacity="0.05"/>
    <ellipse id="Ellipse_1030" data-name="Ellipse 1030" cx="1.97" cy="3.945" rx="1.97" ry="3.945" transform="translate(228.093 329.94) rotate(-79.49)" fill="#8ed16f"/>
    <ellipse id="Ellipse_1031" data-name="Ellipse 1031" cx="1.97" cy="3.945" rx="1.97" ry="3.945" transform="translate(228.093 329.94) rotate(-79.49)" opacity="0.1"/>
    <rect id="Rectangle_3853" data-name="Rectangle 3853" width="9.611" height="18.733" transform="translate(223.99 337.287) rotate(-79.49)" fill="#8ed16f"/>
    <ellipse id="Ellipse_1032" data-name="Ellipse 1032" cx="1.97" cy="3.945" rx="1.97" ry="3.945" transform="translate(229.814 335.608) rotate(-79.49)" fill="#8ed16f"/>
    <ellipse id="Ellipse_1033" data-name="Ellipse 1033" cx="1.97" cy="3.945" rx="1.97" ry="3.945" transform="translate(229.814 335.608) rotate(-79.49)" opacity="0.1"/>
    <rect id="Rectangle_3854" data-name="Rectangle 3854" width="9.611" height="18.733" transform="matrix(0.476, -0.879, 0.879, 0.476, 250.862, 351.659)" fill="#8ed16f"/>
    <ellipse id="Ellipse_1034" data-name="Ellipse 1034" cx="1.97" cy="3.945" rx="1.97" ry="3.945" transform="matrix(0.476, -0.879, 0.879, 0.476, 256.927, 351.853)" fill="#8ed16f"/>
    <ellipse id="Ellipse_1035" data-name="Ellipse 1035" cx="1.97" cy="3.945" rx="1.97" ry="3.945" transform="matrix(0.476, -0.879, 0.879, 0.476, 256.927, 351.853)" opacity="0.1"/>
    <rect id="Rectangle_3855" data-name="Rectangle 3855" width="9.611" height="18.733" transform="translate(241.701 355.909) rotate(-79.49)" fill="#8ed16f"/>
    <rect id="Rectangle_3856" data-name="Rectangle 3856" width="9.611" height="18.733" transform="translate(241.701 355.909) rotate(-79.49)" opacity="0.05"/>
    <ellipse id="Ellipse_1036" data-name="Ellipse 1036" cx="1.97" cy="3.945" rx="1.97" ry="3.945" transform="translate(247.526 354.23) rotate(-79.49)" fill="#8ed16f"/>
    <ellipse id="Ellipse_1037" data-name="Ellipse 1037" cx="1.97" cy="3.945" rx="1.97" ry="3.945" transform="translate(247.526 354.23) rotate(-79.49)" opacity="0.1"/>
    <rect id="Rectangle_3857" data-name="Rectangle 3857" width="9.611" height="18.733" transform="translate(243.426 361.583) rotate(-79.49)" fill="#8ed16f"/>
    <ellipse id="Ellipse_1038" data-name="Ellipse 1038" cx="1.97" cy="3.945" rx="1.97" ry="3.945" transform="translate(249.256 359.903) rotate(-79.49)" fill="#8ed16f"/>
    <ellipse id="Ellipse_1039" data-name="Ellipse 1039" cx="1.97" cy="3.945" rx="1.97" ry="3.945" transform="translate(249.256 359.903) rotate(-79.49)" opacity="0.1"/>
    <rect id="Rectangle_3858" data-name="Rectangle 3858" width="9.611" height="18.733" transform="matrix(0.476, -0.879, 0.879, 0.476, 280.02, 336.002)" fill="#8ed16f"/>
    <ellipse id="Ellipse_1040" data-name="Ellipse 1040" cx="1.97" cy="3.945" rx="1.97" ry="3.945" transform="matrix(0.476, -0.879, 0.879, 0.476, 286.076, 336.193)" fill="#8ed16f"/>
    <ellipse id="Ellipse_1041" data-name="Ellipse 1041" cx="1.97" cy="3.945" rx="1.97" ry="3.945" transform="matrix(0.476, -0.879, 0.879, 0.476, 286.076, 336.193)" opacity="0.1"/>
    <rect id="Rectangle_3859" data-name="Rectangle 3859" width="9.611" height="18.733" transform="translate(270.857 340.255) rotate(-79.49)" fill="#8ed16f"/>
    <rect id="Rectangle_3860" data-name="Rectangle 3860" width="9.611" height="18.733" transform="translate(270.857 340.255) rotate(-79.49)" opacity="0.05"/>
    <ellipse id="Ellipse_1042" data-name="Ellipse 1042" cx="1.97" cy="3.945" rx="1.97" ry="3.945" transform="translate(276.681 338.576) rotate(-79.49)" fill="#8ed16f"/>
    <ellipse id="Ellipse_1043" data-name="Ellipse 1043" cx="1.97" cy="3.945" rx="1.97" ry="3.945" transform="translate(276.681 338.576) rotate(-79.49)" opacity="0.1"/>
    <rect id="Rectangle_3861" data-name="Rectangle 3861" width="9.611" height="18.733" transform="translate(272.581 345.927) rotate(-79.49)" fill="#8ed16f"/>
    <ellipse id="Ellipse_1044" data-name="Ellipse 1044" cx="1.97" cy="3.945" rx="1.97" ry="3.945" transform="translate(278.411 344.249) rotate(-79.49)" fill="#8ed16f"/>
    <ellipse id="Ellipse_1045" data-name="Ellipse 1045" cx="1.97" cy="3.945" rx="1.97" ry="3.945" transform="translate(278.411 344.249) rotate(-79.49)" opacity="0.1"/>
  </g>
</svg>
