<svg xmlns="http://www.w3.org/2000/svg" width="56.018" height="24" viewBox="0 0 56.018 24">
  <g id="bracelet" transform="translate(-32 -160.063)">
    <path id="Path_16327" data-name="Path 16327" d="M37.367,172.609A66.085,66.085,0,0,1,53.007,169.9v-8a63.557,63.557,0,0,0-15.113,2.638C34.2,165.779,32,167.321,32,168.665,32,169.939,34,171.4,37.367,172.609Z" transform="translate(0 -1.607)" fill="#00263e"/>
    <path id="Path_16328" data-name="Path 16328" d="M32,243.5v6.565c0,1.171,1.759,2.552,4.705,3.7a51.411,51.411,0,0,0,12.3,2.7v-7.99a57.584,57.584,0,0,1-11.971-2.467A17.419,17.419,0,0,1,32,243.5Z" transform="translate(0 -73.004)" fill="#00263e"/>
    <path id="Path_16329" data-name="Path 16329" d="M327.113,164.538A63.557,63.557,0,0,0,312,161.9v8a66.091,66.091,0,0,1,15.639,2.711c3.368-1.206,5.368-2.67,5.368-3.944C333.007,167.321,330.8,165.779,327.113,164.538Z" transform="translate(-244.989 -1.607)" fill="#00263e"/>
    <path id="Path_16330" data-name="Path 16330" d="M184,284.889v7.994c2.9.263,5.921.4,9,.4s6.1-.135,9-.4v-7.994c-2.9.258-5.924.389-9,.389S186.9,285.147,184,284.889Z" transform="translate(-132.994 -109.218)" fill="#00263e"/>
    <path id="Path_16331" data-name="Path 16331" d="M226,168.177v-8c-1.316-.064-2.655-.1-4-.114v7.995h-2v-7.995c-1.346.012-2.686.051-4,.114v8C219.286,168.022,222.718,168.022,226,168.177Z" transform="translate(-160.992 0)" fill="#00263e"/>
    <path id="Path_16332" data-name="Path 16332" d="M344,248.475v7.99a51.416,51.416,0,0,0,12.3-2.7c2.946-1.145,4.705-2.526,4.705-3.7V243.5a17.448,17.448,0,0,1-5.035,2.509A57.614,57.614,0,0,1,344,248.475Z" transform="translate(-272.987 -73.004)" fill="#00263e"/>
  </g>
</svg>
