<svg xmlns="http://www.w3.org/2000/svg" width="16" height="15.781" viewBox="0 0 16 15.781">
  <g id="c2" transform="translate(-1)">
    <g id="Group_9678" data-name="Group 9678" transform="translate(1 0)">
      <path id="Path_18867" data-name="Path 18867" d="M15.327,26.735H4.03V15.929h6.59L12.15,14.4H3.811A1.309,1.309,0,0,0,2.5,15.694v11.26a1.3,1.3,0,0,0,1.311,1.294H15.529a1.3,1.3,0,0,0,1.311-1.294V18.5L15.31,20.03v6.705Z" transform="translate(-2.5 -12.467)" fill="#8595aa"/>
      <rect id="Rectangle_2922" data-name="Rectangle 2922" width="7.392" height="3.209" transform="translate(6.466 7.263) rotate(-45)" fill="#8595aa"/>
      <path id="Path_18868" data-name="Path 18868" d="M30.128,51.463a.55.55,0,0,0-.137.239l-.461,2.066a.485.485,0,0,0,.58.58l2.049-.5a.487.487,0,0,0,.239-.137l.563-.563L30.691,50.9Z" transform="translate(-24.984 -42.878)" fill="#8595aa"/>
      <path id="Path_18869" data-name="Path 18869" d="M80.778,4.8,79.19,3.216a.484.484,0,0,0-.683,0L77.5,4.223l2.27,2.27,1.007-1.007A.484.484,0,0,0,80.778,4.8Z" transform="translate(-64.919 -3.075)" fill="#8595aa"/>
    </g>
  </g>
</svg>
