<svg xmlns="http://www.w3.org/2000/svg" width="16" height="14.572" viewBox="0 0 16 14.572">
  <g id="c3" transform="translate(-3.2 -4.03)">
    <g id="Group_9674" data-name="Group 9674" transform="translate(3.2 4.03)">
      <path id="Path_18864" data-name="Path 18864" d="M19.2,7.041v8.551A3.011,3.011,0,0,1,16.189,18.6H7.639a3.011,3.011,0,0,1-3.011-3.011v-.611a.43.43,0,0,1,.86,0v.611a2.151,2.151,0,0,0,2.151,2.151h8.551a2.151,2.151,0,0,0,2.151-2.151V7.041A2.151,2.151,0,0,0,16.189,4.89H7.639A2.151,2.151,0,0,0,5.488,7.041v.611a.43.43,0,0,1-.86,0V7.041A3.011,3.011,0,0,1,7.639,4.03h8.551A3.011,3.011,0,0,1,19.2,7.041Zm-8.387,8.688a.429.429,0,0,0,.766.267l3.553-4.413a.439.439,0,0,0,0-.533L11.578,6.636a.429.429,0,0,0-.766.267V8.942H3.63a.43.43,0,0,0-.43.43V13.26a.43.43,0,0,0,.43.43h7.183Z" transform="translate(-3.2 -4.03)" fill="#8595aa"/>
    </g>
  </g>
</svg>
