<svg xmlns="http://www.w3.org/2000/svg" width="445" height="303.033" viewBox="0 0 445 303.033">
  <g id="cash1" transform="translate(0.466 -0.001)">
    <path id="Path_20456" data-name="Path 20456" d="M197.914,782.34c0,7.9-37.029,14.3-82.707,14.3s-82.707-6.4-82.707-14.3c0-1.975,2.311-3.853,6.493-5.562,12.174-4.982,40.206-8.522,73.153-8.727q1.525-.012,3.061-.012C160.886,768.04,197.914,774.444,197.914,782.34Z" transform="translate(-29.795 -493.606)" fill="#3f3d56"/>
    <path id="Path_20457" data-name="Path 20457" d="M122.453,768.07A46.956,46.956,0,0,1,49.3,776.8C61.474,771.815,89.506,768.275,122.453,768.07Z" transform="translate(-40.102 -493.625)" opacity="0.1"/>
    <ellipse id="Ellipse_980" data-name="Ellipse 980" cx="43.5" cy="46.5" rx="43.5" ry="46.5" transform="translate(-0.466 196.548)" fill="#3f3d56"/>
    <path id="Path_20458" data-name="Path 20458" d="M274.927,141.3c6.137,23.644,25.936,38.926,44.267,34.168" transform="translate(-178.528 -109.088)" fill="#3f3d56"/>
    <path id="Path_20459" data-name="Path 20459" d="M386.8,145.787c-6.206-23.909,5.324-47.553,25.78-52.863" transform="translate(-246.133 -79.411)" fill="#7aa93c"/>
    <path id="Path_20460" data-name="Path 20460" d="M307.456,138.773c5.83,22.459,20.006,38.177,31.695,35.143" transform="translate(-198.485 -107.54)" fill="#7aa93c"/>
    <path id="Path_20461" data-name="Path 20461" d="M385.721,124.337c-7.93-30.551,4.785-60.238,28.429-66.376" transform="translate(-245.055 -57.96)" fill="#3f3d56"/>
    <path id="Path_20462" data-name="Path 20462" d="M371.616,226.025s4.665-1.366,5.821-2.743,6.66-4.092,7.432-2.565,9.158,6.216,3.859,7.637-12.552,2.375-14.191,1.881S371.616,226.025,371.616,226.025Z" transform="translate(-237.848 -157.537)" fill="#a8a8a8"/>
    <path id="Path_20463" data-name="Path 20463" d="M388.675,236.836c-5.3,1.421-12.552,2.375-14.191,1.881-1.248-.377-2.288-2.62-2.714-3.669l-.155.047s1.282,3.716,2.921,4.21,8.892-.46,14.191-1.881c1.53-.41,1.917-1.093,1.679-1.893C390.319,236.075,389.814,236.531,388.675,236.836Z" transform="translate(-237.848 -166.607)" opacity="0.2"/>
    <rect id="Rectangle_3796" data-name="Rectangle 3796" width="312" height="181" transform="translate(132.534 48.548)" fill="#f2f2f2"/>
    <rect id="Rectangle_3797" data-name="Rectangle 3797" width="170.825" height="89.471" transform="translate(139.907 103.512)" fill="#7aa93c" opacity="0.3"/>
    <rect id="Rectangle_3798" data-name="Rectangle 3798" width="68.516" height="3.79" transform="translate(323.872 99.611)" fill="#3f3d56"/>
    <rect id="Rectangle_3799" data-name="Rectangle 3799" width="99.712" height="3.79" transform="translate(323.872 106.608)" fill="#3f3d56"/>
    <rect id="Rectangle_3800" data-name="Rectangle 3800" width="68.516" height="3.79" transform="translate(323.872 123.519)" fill="#3f3d56"/>
    <rect id="Rectangle_3801" data-name="Rectangle 3801" width="68.516" height="3.79" transform="translate(323.872 151.508)" fill="#3f3d56"/>
    <rect id="Rectangle_3802" data-name="Rectangle 3802" width="99.712" height="3.79" transform="translate(323.872 130.516)" fill="#3f3d56"/>
    <rect id="Rectangle_3803" data-name="Rectangle 3803" width="99.712" height="3.79" transform="translate(323.872 137.514)" fill="#3f3d56"/>
    <rect id="Rectangle_3804" data-name="Rectangle 3804" width="99.712" height="3.79" transform="translate(323.872 144.511)" fill="#3f3d56"/>
    <rect id="Rectangle_3805" data-name="Rectangle 3805" width="35.862" height="9.913" transform="translate(323.872 168.419)" fill="#7aa93c"/>
    <path id="Path_20464" data-name="Path 20464" d="M339.988,444.239s6.438-18.24,11.087-12.518-7.153,15.379-7.153,15.379Z" transform="translate(-218.444 -286.587)" fill="#a0616a"/>
    <path id="Path_20465" data-name="Path 20465" d="M240.891,419.605l3.873,1.435s1.85,8.221,1.134,9.652-1.073.358,0,3.219,4.292,10.372,4.649,11.445,20.743-6.8,20.743-10.729c0,0,4.292,5.007,6.438,6.08,0,0-23.6,17.167-26.823,19.313s-5.007,1.073-7.868-1.431-15.021-23.247-15.021-23.247Z" transform="translate(-149.747 -279.835)" fill="#575a89"/>
    <path id="Path_20466" data-name="Path 20466" d="M281.91,744.472s-.358,3.934-1.073,4.292-6.08,9.3,0,11.087,9.656,1.073,11.087,1.788,26.466,2.146,26.823-1.788-12.16-4.649-12.16-4.649-11.445-7.51-13.233-11.445S281.91,744.472,281.91,744.472Z" transform="translate(-180.394 -477.738)" fill="#2f2e41"/>
    <path id="Path_20467" data-name="Path 20467" d="M89.547,766.623s-8.583,14.664-6.437,16.452,23.044,8.3,26.108,8.583c3.934.358,6.8-2.861,3.576-4.649s-10.014-9.3-10.014-11.8v-6.437Z" transform="translate(-60.633 -492.737)" fill="#2f2e41"/>
    <path id="Path_20468" data-name="Path 20468" d="M75.291,518.621s-7.511,9.3,4.292,24.32l19.67,25.035S87.093,587.289,86.735,597.3s-2.861,7.868-3.576,12.16-3.934,2.146-1.431,5.365,11.8,6.08,14.663,3.576a8.866,8.866,0,0,0,2.861-7.153c0-1.431,5.007-9.656,5.365-12.16s13.59-22.889,13.59-22.889,4.292-12.16-.715-18.955-8.316-16.433-8.316-16.433,14.753,17.863,25.125,22.155c0,0,3.934.715,3.219,2.5s0,2.861,1.073,4.649,8.583,22.532,11.087,27.9,1.431,8.583,4.292,10.372,15.736.358,15.736-1.431-1.788-6.438-2.861-8.941-9.656-31.473-8.941-36.48-.358-11.8-5.722-14.663-32.546-26.108-33.976-26.108S75.291,518.621,75.291,518.621Z" transform="translate(-54.602 -340.583)" fill="#2f2e41"/>
    <circle id="Ellipse_981" data-name="Ellipse 981" cx="15.021" cy="15.021" r="15.021" transform="translate(77.554 91.845)" fill="#a0616a"/>
    <path id="Path_20469" data-name="Path 20469" d="M215.52,338.171s-4.649,8.226-10.372,9.3,15.021,17.525,15.021,17.525,5.007-15.736,9.3-16.452S215.52,338.171,215.52,338.171Z" transform="translate(-135.105 -229.874)" fill="#a0616a"/>
    <path id="Path_20470" data-name="Path 20470" d="M151.6,383.451c0,4.649-13.948,17.882-13.948,17.882L124.418,412.42s-.358,3.934-1.788,4.292-3.219.358-1.788,2.5,5.007,6.8,1.788,7.51A26.3,26.3,0,0,1,119.7,427c-.858.05-1.867.1-3,.139-2.647.093-5.958.154-9.545.129q-1.529-.005-3.111-.036c-13.523-.268-29.187-1.824-27.907-6.949,2.146-8.583.715-11.445,5.365-16.094s12.16-20.743,12.16-20.743,15.021-25.393,27.539-25.393l2.6-.683a5.954,5.954,0,0,1,6.5,2.5c2.511,3.823,6.47,9.567,8.784,11.42,3.576,2.861,4.134.808,4.134.808S151.6,378.8,151.6,383.451Z" transform="translate(-56.521 -241.535)" fill="#575a89"/>
    <path id="Path_20471" data-name="Path 20471" d="M179.5,565.815s10.372,16.094,3.934,18.955-10.014-16.809-10.014-16.809Z" transform="translate(-116.251 -369.538)" fill="#a0616a"/>
    <path id="Path_20472" data-name="Path 20472" d="M225.017,300.7c.576-.073.759-.8.856-1.373.52-3.068,2.806-5.977,5.878-6.473a8.323,8.323,0,0,1,3.5.282,13.288,13.288,0,0,1,4.494,2.212,7.412,7.412,0,0,0,2.246,1.41c.564.166,2.957,1.23,3.516,1.41,1.229.4,2.247,1.683,3.513,1.428,1.211-.244,1.671-1.707,1.866-2.927.444-2.78-1.148-6.928-2.73-9.256a9.818,9.818,0,0,0-5.263-3.445,37.815,37.815,0,0,0-7.3-1.45c-3.341-.395-6.8-.6-10,.429s-6.117,3.559-6.715,6.87c-.125.69-.148,1.4-.3,2.08-.372,1.669-1.476,3.071-2.12,4.655a8.964,8.964,0,0,0,.273,7.267c.892,1.793,2.443,3.517,2.108,5.492l2.76-2.176a2,2,0,0,0,.921-2.346l-.4-3.456a3.041,3.041,0,0,1,.179-1.868C223.522,297.321,224.055,300.822,225.017,300.7Z" transform="translate(-142.262 -195.531)" fill="#2f2e41"/>
    <path id="Path_20473" data-name="Path 20473" d="M151.041,421.913l3.369,14.009c-3.4.122-7.893.186-12.657.093-1.2-3.605-2.35-7.364-3.23-10.883-3.219-12.875,2.146-32.546,5.007-41.844s10.014-11.8,10.014-11.8a32.615,32.615,0,0,1,8.226,4.292C166.42,379,151.041,421.913,151.041,421.913Z" transform="translate(-94.23 -250.313)" opacity="0.1"/>
    <path id="Path_20474" data-name="Path 20474" d="M158.444,432.585l3.509,14.585c-.858.05-1.867.1-3,.139-2.647.093-5.958.154-9.546.129-1.291-3.83-2.539-7.872-3.48-11.634-3.219-12.875,2.146-32.546,5.007-41.844s9.12.894,9.12.894-2.5-6.08,2.146-2.861S158.444,432.585,158.444,432.585Z" transform="translate(-98.772 -261.701)" opacity="0.1"/>
    <path id="Path_20475" data-name="Path 20475" d="M157.246,369.634s-7.153,2.5-10.014,11.8-8.226,28.969-5.007,41.844,10.014,28.969,10.014,28.969,6.8-5.007,9.3-3.934l-6.8-28.254s15.379-42.917,10.729-46.136A32.628,32.628,0,0,0,157.246,369.634Z" transform="translate(-96.501 -249.177)" fill="#575a89"/>
    <rect id="Rectangle_3806" data-name="Rectangle 3806" width="170.825" height="89.471" transform="translate(132.563 94.236)" fill="#3f3d56"/>
    <ellipse id="Ellipse_982" data-name="Ellipse 982" cx="19.331" cy="19.366" rx="19.331" ry="19.366" transform="translate(201.823 121.357)" fill="#fff"/>
    <path id="Path_20476" data-name="Path 20476" d="M561.049,363.423a23.1,23.1,0,1,0,23.1,23.1A23.1,23.1,0,0,0,561.049,363.423Zm-4.743,35.42L544.466,387l3.321-3.321,8.53,8.53,18-18,3.321,3.321-21.337,21.314Z" transform="translate(-339.895 -245.367)" fill="#7aa93c"/>
  </g>
</svg>
