<svg xmlns="http://www.w3.org/2000/svg" xmlns:xlink="http://www.w3.org/1999/xlink" width="363.224" height="417.848" viewBox="0 0 363.224 417.848">
  <defs>
    <clipPath id="clip-path">
      <path id="Path_20363" data-name="Path 20363" d="M335.781,330.452a2.06,2.06,0,0,1-.435.737c-3.144,2.975-16.564,6.279-28.093,8.66-9.548,1.981-17.763,3.322-17.763,3.322s-6.324-52.553-6.324-58.077-10.2-94.963-10.2-94.963l24.442-1.057,32.427-1.4s.2,2.389.524,6.564C332.5,220.825,339.858,319.963,335.781,330.452Z" transform="translate(-272.97 -187.67)" fill="#92e3a9" stroke="#263238" stroke-linecap="round" stroke-linejoin="round" stroke-width="1"/>
    </clipPath>
    <clipPath id="clip-path-2">
      <path id="Path_20398" data-name="Path 20398" d="M322.788,175l65.121,17.177s-22.888,69.464-27.533,78.079l-7.763,60.555s-41.6-1.83-60.733-7.612c0,0,12.1-63.06,12.745-71.471S322.788,175,322.788,175Z" transform="translate(-291.88 -175)" fill="#92e3a9" stroke="#263238" stroke-linecap="round" stroke-linejoin="round" stroke-width="1"/>
    </clipPath>
    <clipPath id="clip-path-3">
      <path id="Path_20436" data-name="Path 20436" d="M221.879,166.3l-8.615,146.326-84.634-2.78,6.679-112.122,2.078-34.816,36.877,1.483Z" transform="translate(-128.63 -162.91)" fill="#757575" stroke="#263238" stroke-linecap="round" stroke-linejoin="round" stroke-width="1"/>
    </clipPath>
  </defs>
  <g id="Cash" transform="translate(-42.85 -12.936)">
    <g id="freepik--background-simple--inject-99" transform="translate(56.124 27.374)">
      <path id="Path_20324" data-name="Path 20324" d="M66.855,151.66S42.092,215.608,76.891,280s106.474,98.409,163.84,127.5,116.936,14.921,145.242-32.72S375.457,293.128,375.4,225.192s10.17-85.921-26.645-143.315S221.7,11.774,153.451,54.344,66.855,151.66,66.855,151.66Z" transform="translate(-57.797 -29.116)" fill="#fff" opacity="0.7"/>
      <path id="Path_20325" data-name="Path 20325" d="M74.907,155.8C100.5,108.673,164.9,53.66,253.234,76.574s148.022,71.391,138.243,155.731S330.309,386.723,219.617,388.774,18.775,259.137,74.907,155.8Z" transform="translate(-57.732 -33.823)" fill="#f2f2f2"/>
    </g>
    <g id="freepik--Documents--inject-99" transform="translate(43.35 188.252)">
      <rect id="Rectangle_3772" data-name="Rectangle 3772" width="66.364" height="43.574" rx="4.54" transform="translate(289.904 34.367) rotate(-8.8)" fill="none" stroke="#263238" stroke-linecap="round" stroke-linejoin="round" stroke-width="1"/>
      <line id="Line_424" data-name="Line 424" y1="10.152" x2="65.582" transform="translate(291.399 33.866)" fill="none" stroke="#263238" stroke-linecap="round" stroke-linejoin="round" stroke-width="1"/>
      <rect id="Rectangle_3773" data-name="Rectangle 3773" width="10.72" height="15.436" transform="translate(341.261 47.016) rotate(-8.8)" fill="none" stroke="#263238" stroke-linecap="round" stroke-linejoin="round" stroke-width="1"/>
      <path id="Path_20327" data-name="Path 20327" d="M432.121,265.855c2.238-2.664,5.915-.888,5.054,7.381l3.277,1.625.32,2.078-10.587,1.643-.435-2.78,4-1.554S430.016,268.369,432.121,265.855Z" transform="translate(-86.562 -216.34)" fill="none" stroke="#263238" stroke-linecap="round" stroke-linejoin="round" stroke-width="1"/>
      <path id="Path_20328" data-name="Path 20328" d="M406.55,286.425s7.656.062,5.462-1.465-2.522-3.073-.657-3.1,4.992,3.553,4.743,1.368,1.1-.764,1.359-.622,2.469-.746,2.576-.488-.044.977,7.159-.133" transform="translate(-83.967 -218.258)" fill="none" stroke="#263238" stroke-linecap="round" stroke-linejoin="round" stroke-width="1"/>
      <line id="Line_425" data-name="Line 425" y1="4.974" x2="32.116" transform="translate(296.959 45.856)" fill="none" stroke="#263238" stroke-linecap="round" stroke-linejoin="round" stroke-width="1"/>
      <line id="Line_426" data-name="Line 426" y1="2.931" x2="18.918" transform="translate(297.527 51.54)" fill="none" stroke="#263238" stroke-linecap="round" stroke-linejoin="round" stroke-width="1"/>
      <line id="Line_427" data-name="Line 427" y1="4.086" x2="26.387" transform="translate(298.522 56.807)" fill="none" stroke="#263238" stroke-linecap="round" stroke-linejoin="round" stroke-width="1"/>
      <line id="Line_428" data-name="Line 428" y1="4.992" x2="32.205" transform="translate(306.711 31.885)" fill="none" stroke="#263238" stroke-linecap="round" stroke-linejoin="round" stroke-width="1"/>
      <path id="Path_20329" data-name="Path 20329" d="M43.35,224.629l72-14.379L140.5,330.97,63.964,347.383Z" transform="translate(-43.35 -210.25)" fill="none" stroke="#263238" stroke-linecap="round" stroke-linejoin="round" stroke-width="1"/>
      <line id="Line_429" data-name="Line 429" y1="13.829" x2="76.382" transform="translate(17.719 106.083)" fill="none" stroke="#263238" stroke-linecap="round" stroke-linejoin="round" stroke-width="1"/>
      <line id="Line_430" data-name="Line 430" x1="36.477" y2="6.732" transform="translate(48.574 95.816)" fill="none" stroke="#263238" stroke-linecap="round" stroke-linejoin="round" stroke-width="1"/>
      <line id="Line_431" data-name="Line 431" x1="10.658" y2="1.572" transform="translate(68.984 89.758)" fill="none" stroke="#263238" stroke-linecap="round" stroke-linejoin="round" stroke-width="1"/>
      <line id="Line_432" data-name="Line 432" x1="54.445" y2="10.214" transform="translate(26.823 77.43)" fill="none" stroke="#263238" stroke-linecap="round" stroke-linejoin="round" stroke-width="1"/>
      <line id="Line_433" data-name="Line 433" y1="13.154" x2="74.526" transform="translate(9.415 57.305)" fill="none" stroke="#263238" stroke-linecap="round" stroke-linejoin="round" stroke-width="1" stroke-dasharray="1 2"/>
      <line id="Line_434" data-name="Line 434" x1="45.27" y2="9.486" transform="translate(43.334 116.812)" fill="none" stroke="#263238" stroke-linecap="round" stroke-linejoin="round" stroke-width="1"/>
      <line id="Line_435" data-name="Line 435" x1="21.281" y2="3.819" transform="translate(65.973 112.993)" fill="none" stroke="#263238" stroke-linecap="round" stroke-linejoin="round" stroke-width="1"/>
      <line id="Line_436" data-name="Line 436" x1="37.33" y2="7.398" transform="translate(38.413 49.347)" fill="none" stroke="#263238" stroke-linecap="round" stroke-linejoin="round" stroke-width="1"/>
      <line id="Line_437" data-name="Line 437" x1="11.893" y2="2.336" transform="translate(60.902 41.06)" fill="none" stroke="#263238" stroke-linecap="round" stroke-linejoin="round" stroke-width="1"/>
      <line id="Line_438" data-name="Line 438" x1="54.374" y2="10.48" transform="translate(17.719 35.305)" fill="none" stroke="#263238" stroke-linecap="round" stroke-linejoin="round" stroke-width="1"/>
      <line id="Line_439" data-name="Line 439" x1="14.681" y2="3.038" transform="translate(52.473 7.292)" fill="none" stroke="#263238" stroke-linecap="round" stroke-linejoin="round" stroke-width="1"/>
      <line id="Line_440" data-name="Line 440" x1="12.665" y2="2.46" transform="translate(5.054 17.728)" fill="none" stroke="#263238" stroke-linecap="round" stroke-linejoin="round" stroke-width="1"/>
      <path id="Path_20330" data-name="Path 20330" d="M54.23,240.321a6.581,6.581,0,0,1,3.553-4.121" transform="translate(-44.567 -213.152)" fill="none" stroke="#263238" stroke-linecap="round" stroke-linejoin="round" stroke-width="1"/>
      <path id="Path_20331" data-name="Path 20331" d="M59.835,249.2A6.617,6.617,0,0,1,54,242.84" transform="translate(-44.541 -213.895)" fill="none" stroke="#263238" stroke-linecap="round" stroke-linejoin="round" stroke-width="1"/>
      <path id="Path_20332" data-name="Path 20332" d="M65.724,248.3a6.128,6.128,0,0,1-3.224,1.51" transform="translate(-45.492 -214.505)" fill="none" stroke="#263238" stroke-linecap="round" stroke-linejoin="round" stroke-width="1"/>
      <path id="Path_20333" data-name="Path 20333" d="M61.27,235.52a6.626,6.626,0,0,1,5.524,9.93" transform="translate(-45.354 -213.076)" fill="none" stroke="#263238" stroke-linecap="round" stroke-linejoin="round" stroke-width="1"/>
      <path id="Path_20334" data-name="Path 20334" d="M75.4,237.266c-1.181-.373-2.354-.8-3.553-1.066" transform="translate(-46.537 -213.152)" fill="none" stroke="#263238" stroke-linecap="round" stroke-linejoin="round" stroke-width="1"/>
      <path id="Path_20335" data-name="Path 20335" d="M86.151,238.324c-1,2.389-6.617.213-8.251-.284" transform="translate(-47.214 -213.358)" fill="none" stroke="#263238" stroke-linecap="round" stroke-linejoin="round" stroke-width="1"/>
      <path id="Path_20336" data-name="Path 20336" d="M76.37,231.22l10.5,2.469c-.169.7-.3,1.412-.435,2.114" transform="translate(-47.043 -212.595)" fill="none" stroke="#263238" stroke-linecap="round" stroke-linejoin="round" stroke-width="1"/>
      <path id="Path_20337" data-name="Path 20337" d="M70.52,233.609c1.119-2.664.675-3.553,3.464-2.9" transform="translate(-46.388 -212.515)" fill="none" stroke="#263238" stroke-linecap="round" stroke-linejoin="round" stroke-width="1"/>
    </g>
    <g id="freepik--speech-bubble-2--inject-99" transform="translate(125.079 332.107)">
      <path id="Path_20338" data-name="Path 20338" d="M214.75,442.4l13.9,4.263L218.32,434.491a35.722,35.722,0,0,0,9.148-22.861" transform="translate(-144.247 -376.626)" fill="none" stroke="#263238" stroke-linecap="round" stroke-linejoin="round" stroke-width="1"/>
      <path id="Path_20339" data-name="Path 20339" d="M195.76,451.486a46.718,46.718,0,0,0,13.029-6.546" transform="translate(-142.124 -380.351)" fill="none" stroke="#263238" stroke-linecap="round" stroke-linejoin="round" stroke-width="1"/>
      <path id="Path_20340" data-name="Path 20340" d="M135.37,423.21c4.094,19.726,25.89,31.876,48.689,27.151" transform="translate(-135.37 -377.921)" fill="none" stroke="#263238" stroke-linecap="round" stroke-linejoin="round" stroke-width="1"/>
      <path id="Path_20341" data-name="Path 20341" d="M138.83,398.17a35.676,35.676,0,0,0-2.22,5.169" transform="translate(-135.509 -375.121)" fill="none" stroke="#263238" stroke-linecap="round" stroke-linejoin="round" stroke-width="1"/>
      <path id="Path_20342" data-name="Path 20342" d="M218.867,400.384c-4.086-19.726-25.89-31.876-48.68-27.142a45.669,45.669,0,0,0-26.4,15.712" transform="translate(-136.312 -372.218)" fill="none" stroke="#263238" stroke-linecap="round" stroke-linejoin="round" stroke-width="1"/>
      <path id="Path_20343" data-name="Path 20343" d="M196.054,395.352c-6.564-7.15-15.507-2.194-19.229,5.063-6.146-5.329-16.3-6.635-19.726,2.451-5.791,15.3,14.015,24.638,23.181,28.013,1.039.391,1.892.719,2.6.959.577-.488,1.252-1.11,2.069-1.856C192.2,423.436,207.12,407.413,196.054,395.352Z" transform="translate(-137.683 -374.416)" fill="none" stroke="#263238" stroke-linecap="round" stroke-linejoin="round" stroke-width="1"/>
    </g>
    <g id="freepik--speech-bubble-1--inject-99" transform="translate(222.449 56.323)">
      <path id="Path_20344" data-name="Path 20344" d="M260.578,67.3l-13.42-5.587,9.1,13.109A35.7,35.7,0,0,0,245,96.668" transform="translate(-245 -61.71)" fill="none" stroke="#263238" stroke-linecap="round" stroke-linejoin="round" stroke-width="1"/>
      <path id="Path_20345" data-name="Path 20345" d="M280.288,63.79a47.073,47.073,0,0,0-13.6,5.258" transform="translate(-247.426 -61.943)" fill="none" stroke="#263238" stroke-linecap="round" stroke-linejoin="round" stroke-width="1"/>
      <path id="Path_20346" data-name="Path 20346" d="M333.557,94.54c-2.176-20.046-22.7-34.257-45.847-31.708" transform="translate(-249.776 -61.802)" fill="none" stroke="#263238" stroke-linecap="round" stroke-linejoin="round" stroke-width="1"/>
      <path id="Path_20347" data-name="Path 20347" d="M333.2,122.509a35.933,35.933,0,0,0,2.665-4.929" transform="translate(-254.864 -67.958)" fill="none" stroke="#263238" stroke-linecap="round" stroke-linejoin="round" stroke-width="1"/>
      <path id="Path_20348" data-name="Path 20348" d="M245,108.81c2.176,20.028,22.7,34.221,45.847,31.708a45.705,45.705,0,0,0,27.782-13.1" transform="translate(-245 -66.977)" fill="none" stroke="#263238" stroke-linecap="round" stroke-linejoin="round" stroke-width="1"/>
      <circle id="Ellipse_976" data-name="Ellipse 976" cx="21.076" cy="21.076" r="21.076" transform="translate(13.149 26.872) rotate(-28.16)" fill="none" stroke="#263238" stroke-linecap="round" stroke-linejoin="round" stroke-width="1"/>
      <path id="Path_20349" data-name="Path 20349" d="M282.91,103.159l6.306,5.951L299.732,91" transform="translate(-249.24 -64.986)" fill="none" stroke="#263238" stroke-linecap="round" stroke-linejoin="round" stroke-width="1"/>
    </g>
    <g id="freepik--hand-2--inject-99" transform="translate(247.291 156.944)">
      <path id="Path_20350" data-name="Path 20350" d="M321.456,320.043s-3.162,38.262,1.412,47.544,6.866,72.7,4.814,80.672c0,0,14.726,3.713,20.552-1.563s14.788-.2,29.549-5.329S381.9,322.29,381.9,322.29l.453-41.451L358,259.15Z" transform="translate(-278.273 -184.411)" fill="rgba(0,0,0,0.7)" opacity="0.2"/>
      <path id="Path_20351" data-name="Path 20351" d="M335.781,330.452a2.06,2.06,0,0,1-.435.737c-3.144,2.975-16.564,6.279-28.093,8.66-9.548,1.981-17.763,3.322-17.763,3.322s-6.324-52.553-6.324-58.077-10.2-94.963-10.2-94.963l24.442-1.057,32.427-1.4s.2,2.389.524,6.564C332.5,220.825,339.858,319.963,335.781,330.452Z" transform="translate(-272.97 -176.417)" fill="#92e3a9"/>
      <g id="Group_10812" data-name="Group 10812" transform="translate(0 11.253)" clip-path="url(#clip-path)">
        <path id="Path_20352" data-name="Path 20352" d="M336.26,330.891l-28.528,5.835-10.773,2.212c-2.922-2.869-5.151-2.922-5.151-2.922l-.888-8.038-1.394-13.154L277.25,199.1c2.664-1.839,3.979-5.862,3.979-5.862l16.431-.6,28.466-1.039,4.7,3.038C332.983,221.265,340.337,320.4,336.26,330.891Z" transform="translate(-273.449 -188.109)" fill="rgba(0,0,0,0.7)" opacity="0.2"/>
        <path id="Path_20353" data-name="Path 20353" d="M336.26,330.891l-28.528,5.835-10.773,2.212c-2.922-2.869-5.151-2.922-5.151-2.922l-.888-8.038-1.394-13.154L277.25,199.1c2.664-1.839,3.979-5.862,3.979-5.862l16.431-.6,28.466-1.039,4.7,3.038C332.983,221.265,340.337,320.4,336.26,330.891Z" transform="translate(-273.449 -188.109)" fill="none" stroke="#263238" stroke-linecap="round" stroke-linejoin="round" stroke-width="1"/>
        <path id="Path_20354" data-name="Path 20354" d="M295.34,310.068l9.521-.018.009,2.975-2.647.941-6.1.666Z" transform="translate(-275.472 -201.356)" fill="#92e3a9" stroke="#263238" stroke-linecap="round" stroke-linejoin="round" stroke-width="1"/>
        <path id="Path_20355" data-name="Path 20355" d="M296,316.94l7-.24,1.794.853L304.7,321.5l-8.171.089Z" transform="translate(-275.546 -202.1)" fill="#92e3a9" stroke="#263238" stroke-linecap="round" stroke-linejoin="round" stroke-width="1"/>
        <path id="Path_20356" data-name="Path 20356" d="M297.254,324.007l7.994-.577-.089,2.993-3.864,1.368-4.086-.231Z" transform="translate(-275.681 -202.852)" fill="#92e3a9" stroke="#263238" stroke-linecap="round" stroke-linejoin="round" stroke-width="1"/>
        <path id="Path_20357" data-name="Path 20357" d="M297.716,329.76l6.457.329.586,1.652-.941,1.821-5.773.373-.995-2.815Z" transform="translate(-275.663 -203.56)" fill="#92e3a9" stroke="#263238" stroke-linecap="round" stroke-linejoin="round" stroke-width="1"/>
        <path id="Path_20358" data-name="Path 20358" d="M305.253,336.27l.888,2.585a1.936,1.936,0,0,1,0,1.776,1.466,1.466,0,0,1-1.35.48c-.5-.044-.986-.213-1.483-.24-1.5-.062-2.878,1.172-4.352.888-.577-1.6-2.034-3.943-.062-4.663C299.258,336.981,305.467,336.856,305.253,336.27Z" transform="translate(-275.757 -204.288)" fill="#92e3a9" stroke="#263238" stroke-linecap="round" stroke-linejoin="round" stroke-width="1"/>
        <path id="Path_20359" data-name="Path 20359" d="M305.295,344.46a14.585,14.585,0,0,1,.3,1.865,2.38,2.38,0,0,1-.657,2.229,2.664,2.664,0,0,1-1.235.329l-5.134.462a23.553,23.553,0,0,1-.044-2.913c.3-1.155.089-1.057,1.181-1.528C301.44,344.167,303.518,345.339,305.295,344.46Z" transform="translate(-275.825 -205.204)" fill="#92e3a9" stroke="#263238" stroke-linecap="round" stroke-linejoin="round" stroke-width="1"/>
        <path id="Path_20360" data-name="Path 20360" d="M285.13,203s1.936,18.714,2.025,22.417" transform="translate(-274.33 -189.384)" fill="none" stroke="#263238" stroke-linecap="round" stroke-linejoin="round" stroke-width="1"/>
        <line id="Line_441" data-name="Line 441" x2="0.906" y2="10.312" transform="translate(14.975 13.82)" fill="none" stroke="#263238" stroke-linecap="round" stroke-linejoin="round" stroke-width="1"/>
        <path id="Path_20361" data-name="Path 20361" d="M306.12,198.84l1.172,12.088,1.643.16-.533-12.132Z" transform="translate(-276.677 -188.919)" fill="#92e3a9" stroke="#263238" stroke-linecap="round" stroke-linejoin="round" stroke-width="1"/>
        <path id="Path_20362" data-name="Path 20362" d="M337.667,330.452a2.06,2.06,0,0,1-.435.737c-3.144,2.975-16.564,6.279-28.093,8.66v-7.994l-16.778-4.3-2.531-.648,1.137-12.505,4.343-47.783,3.792-74.384.16-3.162,32.463-1.4s.2,2.389.524,6.564C334.389,220.825,341.743,319.963,337.667,330.452Z" transform="translate(-274.855 -187.67)" fill="rgba(0,0,0,0.7)" opacity="0.2"/>
      </g>
      <path id="Path_20364" data-name="Path 20364" d="M335.781,330.452a2.06,2.06,0,0,1-.435.737c-3.144,2.975-16.564,6.279-28.093,8.66-9.548,1.981-17.763,3.322-17.763,3.322s-6.324-52.553-6.324-58.077-10.2-94.963-10.2-94.963l24.442-1.057,32.427-1.4s.2,2.389.524,6.564C332.5,220.825,339.858,319.963,335.781,330.452Z" transform="translate(-272.97 -176.417)" fill="none" stroke="#263238" stroke-linecap="round" stroke-linejoin="round" stroke-width="1"/>
      <path id="Path_20365" data-name="Path 20365" d="M359.035,457.105c.2-1.874-2.744-28.759-2.8-31.681-.142-7.994-2.407-18.483-2.407-18.483-3.162-8.082-5.622-26.707-14.06-38.653s-8.429-26-9.832-37.925-1.057-10.9-.7-21.485a155.8,155.8,0,0,0-1.057-23.812c-.7-7.034-2.1-19.406,0-25.171s7.612-7.105,13.642-1.332,8.491,29.443,8.491,32.365,0,12.052,2.114,15.57c0,0,11.946-6.111,11.946-7.8s-.355-16.6,1.4-17.4l-7.025-22.737,13.323-4.734a34.638,34.638,0,0,1,6.43,7.727,41.691,41.691,0,0,1,3.757,7.541c5.622,14.912,14.655,25.313,16.52,29.6s0,38.36,0,44.693-4.086,35.527-3.979,40.438c.08,3.553,2.478,16.769,4.867,26.9.888,3.908,6.279,32.223,7.105,34.47Z" transform="translate(-279.02 -183.816)" fill="#fff"/>
      <path id="Path_20366" data-name="Path 20366" d="M369.551,279.8c-.089,1.91,2.194,17.133,2.194,17.133,1.581,3.792-7.052,16.724-7.052,16.724-1.865,1.048-2.665,7.549-2.665,7.549-5.844-1.3-19.229-14.752-19.229-14.752s-1.581,5.516-3.357,19.167,9.486,46.078,14.282,68.469,2.514,31.308,2.514,31.308c-.142-7.994-2.407-18.483-2.407-18.483-3.162-8.082-5.622-26.707-14.06-38.653s-8.429-25.97-9.832-37.9-1.057-10.9-.7-21.485a155.8,155.8,0,0,0-1.057-23.812c-.7-7.034-2.1-19.406,0-25.171s7.612-7.105,13.642-1.332,8.491,29.443,8.491,32.365,0,12.052,2.114,15.57c0,0,11.946-6.111,11.946-7.8s-.355-16.6,1.4-17.4l-7.025-22.737,13.323-4.734a34.638,34.638,0,0,1,6.43,7.727C374.2,270.172,369.64,278.61,369.551,279.8Z" transform="translate(-279.02 -183.816)" fill="#92e3a9" opacity="0.4"/>
      <path id="Path_20367" data-name="Path 20367" d="M400.107,391.829c.586-5.329,2.336-17.994,3.446-25.9a27.808,27.808,0,0,1-3.553,9.3s3.784-45.3,4.157-48.059,4.192-15.179,2.789-22.87c1.865,4.281,0,38.36,0,44.693s-4.086,35.527-3.979,40.438c.08,3.553,3.89,26.192,6.279,36.326C404.112,418.3,399.52,397.185,400.107,391.829Z" transform="translate(-287.176 -189.46)" fill="#92e3a9" opacity="0.4"/>
      <path id="Path_20368" data-name="Path 20368" d="M406.76,445.154c-2.807-8.082-11.822-56.488-11.928-61.372s3.979-34.115,3.979-40.438,1.865-40.412,0-44.693-10.9-14.69-16.52-29.6A38.777,38.777,0,0,0,372.1,253.78l-13.323,4.734,7.025,22.737c-1.776.8-1.4,15.712-1.4,17.4s-11.946,7.8-11.946,7.8c-2.114-3.553-2.114-12.648-2.114-15.57s-2.46-26.6-8.491-32.365-11.546-4.441-13.642,1.332-.7,18.136,0,25.171a155.794,155.794,0,0,1,1.057,23.838c-.355,10.587-.711,9.539.7,21.485s1.4,26,9.832,37.943,10.9,30.571,14.06,38.653c0,0,5.969,43.138,5.2,50.164" transform="translate(-279.024 -183.81)" fill="none" stroke="#263238" stroke-linecap="round" stroke-linejoin="round" stroke-width="1"/>
      <path id="Path_20369" data-name="Path 20369" d="M355.62,313.08s2.1,9.832,6.848,14.752" transform="translate(-282.213 -190.442)" fill="none" stroke="#263238" stroke-linecap="round" stroke-linejoin="round" stroke-width="1"/>
      <path id="Path_20370" data-name="Path 20370" d="M357.06,318.13s8.882,2.718,12.594,2.887" transform="translate(-282.374 -191.006)" fill="none" stroke="#263238" stroke-linecap="round" stroke-linejoin="round" stroke-width="1"/>
      <path id="Path_20371" data-name="Path 20371" d="M369.07,304.083s6.324-2.922,10.365-1.164" transform="translate(-283.717 -189.242)" fill="none" stroke="#263238" stroke-linecap="round" stroke-linejoin="round" stroke-width="1"/>
      <path id="Path_20372" data-name="Path 20372" d="M370.65,284.343s4.92-.453,5.968-2.913" transform="translate(-283.894 -186.902)" fill="none" stroke="#263238" stroke-linecap="round" stroke-linejoin="round" stroke-width="1"/>
      <path id="Path_20373" data-name="Path 20373" d="M343.2,385.52s9.45,11.733,12.257,17.7" transform="translate(-280.824 -198.543)" fill="none" stroke="#263238" stroke-linecap="round" stroke-linejoin="round" stroke-width="1"/>
      <path id="Path_20374" data-name="Path 20374" d="M404.516,327.71c-1.581,9.317-3.695,34.79-4.4,39.355" transform="translate(-287.189 -192.078)" fill="none" stroke="#263238" stroke-linecap="round" stroke-linejoin="round" stroke-width="1"/>
      <path id="Path_20375" data-name="Path 20375" d="M408.246,307.93c.266,8.438-1.776,12.825-1.776,12.825" transform="translate(-287.9 -189.866)" fill="none" stroke="#263238" stroke-linecap="round" stroke-linejoin="round" stroke-width="1"/>
      <path id="Path_20376" data-name="Path 20376" d="M322.788,175l65.121,17.177s-22.888,69.464-27.533,78.079l-7.763,60.555s-41.6-1.83-60.733-7.612c0,0,12.1-63.06,12.745-71.471S322.788,175,322.788,175Z" transform="translate(-275.085 -175)" fill="#92e3a9"/>
      <g id="Group_10813" data-name="Group 10813" transform="translate(16.795)" clip-path="url(#clip-path-2)">
        <path id="Path_20377" data-name="Path 20377" d="M309.494,248.725l14.353-61.364s6.173-3.064,8.562-5.862l46.655,13.269s.142,4.574,2.815,7.505l-23.545,67.847-5.711,50.013s-7.594.6-8.322,6.217c0,0-24.62,1.332-41.131-3.02,0,0-1.945-6.066-4.92-9.9Z" transform="translate(-292.592 -175.727)" fill="rgba(0,0,0,0.7)" opacity="0.2"/>
        <path id="Path_20378" data-name="Path 20378" d="M309.494,248.725l14.353-61.364s6.173-3.064,8.562-5.862l46.655,13.269s.142,4.574,2.815,7.505l-23.545,67.847-5.711,50.013s-7.594.6-8.322,6.217c0,0-24.62,1.332-41.131-3.02,0,0-1.945-6.066-4.92-9.9Z" transform="translate(-292.592 -175.727)" fill="none" stroke="#263238" stroke-linecap="round" stroke-linejoin="round" stroke-width="1"/>
        <path id="Path_20379" data-name="Path 20379" d="M324.288,259.085s4.237-15.987,19.158-13.118,6.492,22.568,6.492,22.568.089,15.9-12.017,13.7C327.423,280.339,321.827,274.574,324.288,259.085Z" transform="translate(-295.44 -182.898)" fill="#92e3a9" stroke="#263238" stroke-linecap="round" stroke-linejoin="round" stroke-width="1"/>
        <path id="Path_20380" data-name="Path 20380" d="M332.745,194.67s-4.512,18.27-5.675,21.787" transform="translate(-295.815 -177.2)" fill="none" stroke="#263238" stroke-linecap="round" stroke-linejoin="round" stroke-width="1"/>
        <line id="Line_442" data-name="Line 442" x1="2.629" y2="10.019" transform="translate(38.165 19.051)" fill="none" stroke="#263238" stroke-linecap="round" stroke-linejoin="round" stroke-width="1"/>
        <path id="Path_20381" data-name="Path 20381" d="M374.8,204.36l8.979,3.162-.986,2.815h-2.807l-5.977-1.4Z" transform="translate(-301.065 -178.283)" fill="#92e3a9" stroke="#263238" stroke-linecap="round" stroke-linejoin="round" stroke-width="1"/>
        <path id="Path_20382" data-name="Path 20382" d="M373.087,211.09l6.679,2.1,1.4,1.4-1.4,3.695-7.736-2.638Z" transform="translate(-300.843 -179.036)" fill="#92e3a9" stroke="#263238" stroke-linecap="round" stroke-linejoin="round" stroke-width="1"/>
        <path id="Path_20383" data-name="Path 20383" d="M371.876,218.21l7.736,2.132-1.092,2.789h-4.094l-3.775-1.581Z" transform="translate(-300.689 -179.832)" fill="#92e3a9" stroke="#263238" stroke-linecap="round" stroke-linejoin="round" stroke-width="1"/>
        <path id="Path_20384" data-name="Path 20384" d="M370.514,223.75l5.968,2.46v1.75l-1.492,1.412-5.56-1.581V224.8Z" transform="translate(-300.553 -180.452)" fill="#92e3a9" stroke="#263238" stroke-linecap="round" stroke-linejoin="round" stroke-width="1"/>
        <path id="Path_20385" data-name="Path 20385" d="M375.4,232.509v2.736a1.954,1.954,0,0,1-.542,1.67,1.5,1.5,0,0,1-1.439,0c-.453-.213-.888-.533-1.314-.719-1.394-.56-3.109.142-4.441-.6,0-1.7-.6-4.388,1.5-4.441C369.508,231.177,375.4,233.131,375.4,232.509Z" transform="translate(-300.346 -181.279)" fill="#92e3a9" stroke="#263238" stroke-linecap="round" stroke-linejoin="round" stroke-width="1"/>
        <path id="Path_20386" data-name="Path 20386" d="M372.607,240.2a12.9,12.9,0,0,1-.337,1.856c-.2.79-.577,1.67-1.368,1.883a2.594,2.594,0,0,1-1.27-.107l-4.991-1.315a24.428,24.428,0,0,1,.888-2.753c.675-.986.444-.968,1.625-1.048C369.072,238.64,370.635,240.443,372.607,240.2Z" transform="translate(-300.017 -182.126)" fill="#92e3a9" stroke="#263238" stroke-linecap="round" stroke-linejoin="round" stroke-width="1"/>
        <path id="Path_20387" data-name="Path 20387" d="M354.253,197.84l-2.993,11.768,1.492.7,3.606-11.6Z" transform="translate(-298.521 -177.554)" fill="#92e3a9" stroke="#263238" stroke-linecap="round" stroke-linejoin="round" stroke-width="1"/>
        <path id="Path_20388" data-name="Path 20388" d="M312.35,286.82l9.219,2.389-.746,2.878-2.8.249-6.075-.9Z" transform="translate(-294.124 -187.505)" fill="#92e3a9" stroke="#263238" stroke-linecap="round" stroke-linejoin="round" stroke-width="1"/>
        <path id="Path_20389" data-name="Path 20389" d="M311.217,293.67l6.83,1.528,1.528,1.279-1.084,3.8-7.931-1.972Z" transform="translate(-293.969 -188.271)" fill="#92e3a9" stroke="#263238" stroke-linecap="round" stroke-linejoin="round" stroke-width="1"/>
        <path id="Path_20390" data-name="Path 20390" d="M310.611,300.87l7.887,1.457-.853,2.869-4.077.355-3.9-1.252Z" transform="translate(-293.869 -189.076)" fill="#92e3a9" stroke="#263238" stroke-linecap="round" stroke-linejoin="round" stroke-width="1"/>
        <path id="Path_20391" data-name="Path 20391" d="M309.7,306.5l6.164,1.945.151,1.75-1.368,1.528-5.675-1.1-.258-2.975Z" transform="translate(-293.762 -189.706)" fill="#92e3a9" stroke="#263238" stroke-linecap="round" stroke-linejoin="round" stroke-width="1"/>
        <path id="Path_20392" data-name="Path 20392" d="M315.321,314.81l.24,2.727a1.945,1.945,0,0,1-.4,1.714,1.483,1.483,0,0,1-1.43.115c-.471-.169-.888-.453-1.377-.6-1.43-.444-3.082.4-4.441-.231-.16-1.688-.968-4.316,1.11-4.521C309.344,314,315.374,315.432,315.321,314.81Z" transform="translate(-293.641 -190.547)" fill="#92e3a9" stroke="#263238" stroke-linecap="round" stroke-linejoin="round" stroke-width="1"/>
        <path id="Path_20393" data-name="Path 20393" d="M313.226,322.7a13.381,13.381,0,0,1-.178,1.927c-.133.8-.435,1.714-1.2,1.99a2.592,2.592,0,0,1-1.279,0l-5.08-.888a24.12,24.12,0,0,1,.684-2.824c.586-1.039.355-1,1.528-1.181C309.567,321.451,311.272,323.112,313.226,322.7Z" transform="translate(-293.402 -191.405)" fill="#92e3a9" stroke="#263238" stroke-linecap="round" stroke-linejoin="round" stroke-width="1"/>
        <path id="Path_20394" data-name="Path 20394" d="M355.62,329.273s2.114-23.572,2.114-25.943" transform="translate(-299.008 -189.351)" fill="none" stroke="#263238" stroke-linecap="round" stroke-linejoin="round" stroke-width="1"/>
        <path id="Path_20395" data-name="Path 20395" d="M350.87,329.538s.888-12.257,1.048-14.388" transform="translate(-298.477 -190.673)" fill="none" stroke="#263238" stroke-linecap="round" stroke-linejoin="round" stroke-width="1"/>
        <path id="Path_20396" data-name="Path 20396" d="M331.961,321.38l-2.851,13.953h2.851l2.069-13.953Z" transform="translate(-296.043 -191.37)" fill="#92e3a9" stroke="#263238" stroke-linecap="round" stroke-linejoin="round" stroke-width="1"/>
        <path id="Path_20397" data-name="Path 20397" d="M362.167,275.037c-6.164-1.288-11.662-3.18-15.729-5.906,0,0,2.949,8.473,13.4,22.915l-5.622,43.893s-27.151-1.19-47.668-4.7c6.306-17.763,17.763-51.425,16.4-58.1-1.839-9.157,4.654-19.966,4.654-19.966,20.526-3.695,40.429-19.211,54.089-32.329C374.744,241.411,365.249,268.944,362.167,275.037Z" transform="translate(-293.521 -180.127)" fill="rgba(0,0,0,0.7)" opacity="0.2"/>
      </g>
      <path id="Path_20399" data-name="Path 20399" d="M322.788,175l65.121,17.177s-22.888,69.464-27.533,78.079l-7.763,60.555s-41.6-1.83-60.733-7.612c0,0,12.1-63.06,12.745-71.471S322.788,175,322.788,175Z" transform="translate(-275.085 -175)" fill="none" stroke="#263238" stroke-linecap="round" stroke-linejoin="round" stroke-width="1"/>
      <path id="Path_20400" data-name="Path 20400" d="M362.827,322.225l-9.175,66.4c-2.043-4.343-7.612-11.75-10.489-15.454-1.066-1.386-1.776-2.247-1.776-2.247l-1.625-2.5c-8.429-11.946-8.429-26-9.832-37.943s-1.057-10.9-.7-21.485A155.786,155.786,0,0,0,328.18,285.2c-.7-7.034-2.1-19.406,0-25.171,1.03-2.824,2.887-4.583,5.214-4.956s5.329.693,8.429,3.624c6.031,5.764,8.491,29.443,8.491,32.365s0,12.052,2.114,15.57C352.427,306.585,358.094,317.3,362.827,322.225Z" transform="translate(-279.02 -183.946)" fill="#fff"/>
      <path id="Path_20401" data-name="Path 20401" d="M339.069,363.694a26.048,26.048,0,0,1,4.094,9.486c-1.066-1.386-1.776-2.247-1.776-2.247l-1.625-2.5c-8.429-11.946-8.429-26-9.832-37.943s-1.057-10.9-.7-21.485a155.793,155.793,0,0,0-1.048-23.794c-.7-7.034-2.1-19.406,0-25.171,1.03-2.824,2.887-4.583,5.214-4.956,4.441,1.261,8.882,5.782,10.427,13.518,2.664,12.985-9.352,2.5-12.132,13.5s1.261,13.971,2.922,16.742-.462,8.882-2.922,17.088S333.8,356.953,339.069,363.694Z" transform="translate(-279.02 -183.955)" fill="#92e3a9" opacity="0.4"/>
      <path id="Path_20402" data-name="Path 20402" d="M362.828,322.217c-4.743-4.92-10.4-15.641-10.4-15.641-2.114-3.553-2.114-12.647-2.114-15.57s-2.46-26.6-8.491-32.365-11.546-4.441-13.642,1.332-.7,18.136,0,25.171a155.794,155.794,0,0,1,1.057,23.838c-.355,10.587-.711,9.539.7,21.485s1.4,26,9.832,37.943l1.625,2.5s9.45,11.733,12.257,17.7" transform="translate(-279.02 -183.938)" fill="none" stroke="#263238" stroke-linecap="round" stroke-linejoin="round" stroke-width="1"/>
      <path id="Path_20403" data-name="Path 20403" d="M332.32,298.568s8.056-4.166,12.088-3.81" transform="translate(-279.607 -188.39)" fill="none" stroke="#263238" stroke-linecap="round" stroke-linejoin="round" stroke-width="1"/>
    </g>
    <g id="freepik--hand-1--inject-99" transform="translate(48.368 13.54)">
      <path id="Path_20404" data-name="Path 20404" d="M183.306,153.828s-20.375-22.435-21.778-23.812-2.46-25.3-6.333-35.838-5.746-72.386-5.746-72.386-3.686-4.565-14.077-2.1-20.579-2.114-32.169,4.565,10.889,102.21,10.889,102.21l22.817,72.714Z" transform="translate(-54.69 -14.146)" fill="rgba(0,0,0,0.7)" opacity="0.2"/>
      <path id="Path_20405" data-name="Path 20405" d="M191.613,153.391s-9.13,58.326-18.652,66.053c-5.5,4.441-14.069,6.484-21.671,6.217-5.507-.2-10.516-1.581-13.465-4.094-7.025-5.977-16.875-9.139-21.778-13S111.127,191,107.965,179.4s-7.736-11.946-8.784-23.536-5.276-47.073-12.914-56.923S78.452,81.369,75.29,71.351,49,25.086,49,25.086L105.381,13.54s5.542,22.941,11.475,41.655c2.815,8.882,5.72,16.822,8.153,20.89a174.775,174.775,0,0,1,12.106,24.593c6.377,6.679,9.868,21.476,10.924,34.434h0l15.1,8.42C174.747,146.7,191.613,153.391,191.613,153.391Z" transform="translate(-49 -13.54)" fill="#fff"/>
      <path id="Path_20406" data-name="Path 20406" d="M200.055,158.638s-9.13,58.326-18.652,66.053c-5.5,4.441-14.069,6.484-21.671,6.217-18.03-4.441-22.879-14.495-25.322-16.928-3.251-3.242-7.523-22.995-5.178-34.488s.657-15.747-1.279-21.36C123.664,145.7,136.747,139,138.1,134.293s.888-31.033-5-39.595c-3.126-4.556-11.182-28.039-7.789-34.239,2.815,8.882,5.72,16.822,8.153,20.89a174.773,174.773,0,0,1,12.106,24.593c6.377,6.679,9.868,21.476,10.924,34.434h0l15.1,8.42C183.189,151.95,200.055,158.638,200.055,158.638Z" transform="translate(-57.442 -18.787)" fill="#92e3a9" opacity="0.4"/>
      <path id="Path_20407" data-name="Path 20407" d="M131.3,166.38s-3.18,3.739-5.986,3.739" transform="translate(-57.534 -30.632)" fill="none" stroke="#263238" stroke-linecap="round" stroke-linejoin="round" stroke-width="1"/>
      <path id="Path_20408" data-name="Path 20408" d="M138.722,180.61s-3.419,7.265-8.882,8.882" transform="translate(-58.04 -32.224)" fill="none" stroke="#263238" stroke-linecap="round" stroke-linejoin="round" stroke-width="1"/>
      <path id="Path_20409" data-name="Path 20409" d="M133,227.422s7.736-3.34,8.962-8.962" transform="translate(-58.394 -36.457)" fill="none" stroke="#263238" stroke-linecap="round" stroke-linejoin="round" stroke-width="1"/>
      <path id="Path_20410" data-name="Path 20410" d="M177.286,159.91s-1.936,2.46-1.936,4.441" transform="translate(-63.13 -29.909)" fill="none" stroke="#263238" stroke-linecap="round" stroke-linejoin="round" stroke-width="1"/>
      <path id="Path_20411" data-name="Path 20411" d="M105.416,13.54s12.061,49.888,19.629,62.58a174.774,174.774,0,0,1,12.106,24.593c6.377,6.679,9.868,21.485,10.924,34.443h0l15.1,8.42c11.591,3.162,28.421,9.841,28.421,9.841s-9.13,58.326-18.652,66.053-28.022,8.047-35.127,2.078-16.875-9.139-21.778-13-4.92-17.568-8.082-29.167-7.736-11.946-8.784-23.536S93.9,108.769,86.259,98.92,78.443,81.352,75.281,71.333,49,25.086,49,25.086" transform="translate(-49 -13.54)" fill="none" stroke="#263238" stroke-linecap="round" stroke-linejoin="round" stroke-width="1"/>
      <path id="Path_20412" data-name="Path 20412" d="M221.879,166.74,128.63,310.277l22.009,2.451,66.87,2.78,6.848-127.674Z" transform="translate(-57.905 -30.673)" fill="#263238" stroke="#263238" stroke-linecap="round" stroke-linejoin="round" stroke-width="1"/>
      <path id="Path_20413" data-name="Path 20413" d="M221.879,166.3l-8.615,146.326-84.634-2.78,6.679-112.122,2.078-34.816,36.877,1.483Z" transform="translate(-57.905 -30.244)" fill="#757575"/>
      <g id="Group_10814" data-name="Group 10814" transform="translate(70.725 132.666)" clip-path="url(#clip-path-3)">
        <circle id="Ellipse_977" data-name="Ellipse 977" cx="10.303" cy="10.303" r="10.303" transform="translate(61.666 112.264)" fill="#bfbfbf" stroke="#263238" stroke-miterlimit="10" stroke-width="1"/>
        <line id="Line_443" data-name="Line 443" x2="6.981" y2="0.915" transform="translate(69.064 115.728)" fill="none" stroke="#263238" stroke-linecap="round" stroke-linejoin="round" stroke-width="1"/>
        <line id="Line_444" data-name="Line 444" x2="10.489" y2="1.021" transform="translate(67.19 117.425)" fill="none" stroke="#263238" stroke-linecap="round" stroke-linejoin="round" stroke-width="1"/>
        <line id="Line_445" data-name="Line 445" x2="10.498" y2="1.021" transform="translate(66.026 127.763)" fill="none" stroke="#263238" stroke-linecap="round" stroke-linejoin="round" stroke-width="1"/>
        <path id="Path_20414" data-name="Path 20414" d="M208.131,297.65a1.155,1.155,0,0,0,1.386-.79l.782.08-.79,7.416-1.163-.124.6-5.658-.888-.1Z" transform="translate(-137.513 -177.89)" fill="#263238"/>
        <path id="Path_20415" data-name="Path 20415" d="M212.387,298.1c.462,0,.675.346.622.835v.089l-.453-.044v-.08c0-.213-.053-.311-.2-.329s-.249.062-.266.275.053.4.338.7a1.19,1.19,0,0,1,.417,1c-.053.488-.32.737-.79.684a.671.671,0,0,1-.631-.835v-.187l.444.044v.222c0,.213.062.3.213.32s.258-.053.275-.266-.053-.4-.338-.7a1.19,1.19,0,0,1-.417-1C211.659,298.293,211.934,298.009,212.387,298.1Z" transform="translate(-137.888 -178.027)" fill="#263238"/>
        <path id="Path_20416" data-name="Path 20416" d="M213.444,298.24l1.474.151-.053.435-.5-.053-.275,2.593-.471-.044.275-2.6-.5-.053Z" transform="translate(-138.11 -178.044)" fill="#263238"/>
        <rect id="Rectangle_3774" data-name="Rectangle 3774" width="18.492" height="12.123" rx="0.89" transform="translate(33.073 6.115) rotate(12.31)" fill="#fff" stroke="#263238" stroke-linecap="round" stroke-linejoin="round" stroke-width="1"/>
        <path id="Path_20417" data-name="Path 20417" d="M169.838,181.083l-.062-.062a.262.262,0,0,0-.044-.151.408.408,0,0,1-.1-.142.124.124,0,0,1,0-.053s.044,0,.071-.062a.169.169,0,0,0,.08-.124.1.1,0,0,1,0-.044h.053a.7.7,0,0,0-.213-.426c-.258-.32-.311-.48-.258-.693s.142-.275.293-.249.213.133.169.346v.124l.444.1v-.1a.657.657,0,0,0-.346-.835l.053-.213-.382-.089-.044.222c-.346,0-.568.222-.657.622a1.066,1.066,0,0,0,.329.986c.258.311.311.488.258.693s-.151.275-.3.24-.222-.133-.178-.338l.053-.24-.444-.1v.2a.666.666,0,0,0,.346.888v.213l.382.089.044-.222h.231a.507.507,0,0,0,.187-.115.711.711,0,0,0,.133-.187C169.838,181.137,169.838,181.11,169.838,181.083Z" transform="translate(-133.095 -164.643)" fill="#263238"/>
        <path id="Path_20418" data-name="Path 20418" d="M172.567,181.007a.533.533,0,0,0-.053-.2.222.222,0,0,1,0-.107.142.142,0,0,1,.062-.062c.24-.213-.053-.5-.284-.551a.48.48,0,0,0-.453.124l.187-.693.817.178.089-.426L171.705,179a.739.739,0,0,0-.053.187c0,.062.08.08.08.151v.1a.222.222,0,0,0,.1.124c.044,0,.089.08.08.133a.08.08,0,0,1,0,.053.409.409,0,0,1-.169.2.151.151,0,0,0-.089.053v.053c0,.062-.071.1-.124.133a1.55,1.55,0,0,0-.24.515l.444.1v-.089c.044-.213.16-.266.3-.24s.231.133.178.346l-.142.657a.223.223,0,0,1-.3.231c-.151-.036-.222-.124-.178-.338l.062-.275-.444-.1-.053.249a.719.719,0,1,0,1.394.3,1.856,1.856,0,0,0,.018-.533Z" transform="translate(-133.381 -164.709)" fill="#263238"/>
        <path id="Path_20419" data-name="Path 20419" d="M179.1,182.407a.764.764,0,0,0-.053-.2.222.222,0,0,1,0-.107.142.142,0,0,1,.062-.062c.231-.213-.062-.5-.284-.551a.48.48,0,0,0-.453.124l.187-.693.817.178.089-.426-1.226-.266a.5.5,0,0,0-.053.187c0,.062.071.08.08.151a.333.333,0,0,1,0,.1.222.222,0,0,0,.1.124c.044,0,.089.08.08.133s0,0,0,.053a.382.382,0,0,1-.178.2.16.16,0,0,0-.08.053v.053c0,.053-.062.1-.115.133a1.55,1.55,0,0,0-.24.515l.444.1v-.089c.044-.213.16-.266.3-.24s.222.133.178.346l-.142.657a.223.223,0,0,1-.3.231c-.151-.036-.222-.124-.178-.337l.062-.275-.444-.1-.053.249a.711.711,0,1,0,1.386.3A1.607,1.607,0,0,0,179.1,182.407Z" transform="translate(-134.114 -164.866)" fill="#263238"/>
        <path id="Path_20420" data-name="Path 20420" d="M173.791,180.177c.044-.213.16-.275.3-.24a.2.2,0,0,1,.169.187h.151a.186.186,0,0,0,.089.124c.053.044.124.071.187.115a.693.693,0,0,0-.533-.888.675.675,0,0,0-.888.6,1.145,1.145,0,0,0,0,.169c0,.142,0,.1.142.151s.187.124.062.169h.08v.089c0,.027,0,.044-.044.08a.106.106,0,0,1,0,.071h0s-.071.115-.089.133a.3.3,0,0,1-.107.107c-.115.071-.169,0-.2.178s-.044.2-.062.284a.728.728,0,1,0,1.412.311l.142-.622h-.053a2.018,2.018,0,0,1-.3-.169l-.08-.071-.178.8a.227.227,0,0,1-.3.24c-.142-.036-.222-.133-.178-.346l.258-1.208a.346.346,0,0,1,.053-.213Z" transform="translate(-133.592 -164.759)" fill="#263238"/>
        <path id="Path_20421" data-name="Path 20421" d="M176.183,181.693h.044v-.151h.2l.151-.684a.728.728,0,1,0-1.412-.311v.124c.062.053.1.142.16.187s.16,0,.133.151-.053.124,0,.169.062,0,.071.062a.08.08,0,0,1,0,.1s-.062,0-.071.08,0,.133-.053.151-.169-.107-.266-.1a.2.2,0,0,0-.142.151,2.848,2.848,0,0,0-.1.462.675.675,0,0,0,.542.888.711.711,0,0,0,.6-.107.888.888,0,0,0,.2-.24.249.249,0,0,0,0-.329h-.044l-.062-.213h0l.062-.053c.062-.053,0-.169.089-.231S176.165,181.711,176.183,181.693Zm-.373.6c-.044.213-.16.275-.311.24s-.222-.133-.178-.346l.355-1.6c.044-.213.151-.275.3-.24s.222.133.178.346Z" transform="translate(-133.8 -164.809)" fill="#263238"/>
        <path id="Path_20422" data-name="Path 20422" d="M177.171,183.148l-.1.453-.453-.1.1-.453Z" transform="translate(-133.997 -165.162)" fill="#263238"/>
        <path id="Path_20423" data-name="Path 20423" d="M181.2,182.113c.053,0,.053-.2.071-.275a.728.728,0,1,0-1.412-.311l-.133.6c.115.107,0,.275.053.4s0,0,0,.053-.133.08-.133.151h0s-.071.107-.115.16a.266.266,0,0,0-.044.142.728.728,0,1,0,1.412.311l.107-.488c0-.124.16-.453,0-.551s-.071,0-.089-.062a.142.142,0,0,1,0-.133C181.021,182.016,181.1,182.167,181.2,182.113Zm-.542.782c0,.053-.089.071-.133.142a.959.959,0,0,0-.062.275c-.044.213-.16.266-.3.24s-.231-.133-.178-.346c0-.062.08-.24.062-.293s-.089,0-.124-.107a.515.515,0,0,1,0-.284.15.15,0,0,0,0-.062s-.044-.08,0-.115h0v-.2h0c.284.107.275-.329.32-.506s.16-.275.3-.24.222.133.178.338a2.141,2.141,0,0,0-.107.56.169.169,0,0,1,.142.151.382.382,0,0,0,0,.142v.115c0,.036-.053,0-.089,0a.16.16,0,0,0-.1.115Z" transform="translate(-134.313 -164.918)" fill="#263238"/>
        <path id="Path_20424" data-name="Path 20424" d="M175.83,175l3,.657" transform="translate(-133.908 -164.262)" fill="none" stroke="#263238" stroke-linecap="round" stroke-linejoin="round" stroke-width="1"/>
        <path id="Path_20425" data-name="Path 20425" d="M168.15,173.32l5.329,1.172" transform="translate(-133.05 -164.074)" fill="none" stroke="#263238" stroke-linecap="round" stroke-linejoin="round" stroke-width="1"/>
        <line id="Line_446" data-name="Line 446" x2="3.517" y2="0.764" transform="translate(34.656 11.306)" fill="none" stroke="#263238" stroke-linecap="round" stroke-linejoin="round" stroke-width="1"/>
        <path id="Path_20426" data-name="Path 20426" d="M133,309.958a59.036,59.036,0,0,1,14.291-1.918c8.669-.213,14.211,1.43,21.316-2.087s11.715,2.815,18.509-.7,9.947-9.148,13.873-9.024,9.77-62.785,11.653-73.611,5.889-41.007,7.265-47.135l-7.736,136.4Z" transform="translate(-129.119 -164.316)" fill="#fff" opacity="0.4"/>
        <path id="Path_20427" data-name="Path 20427" d="M133.267,296.67l21.662,26.352L132.05,321.6Z" transform="translate(-129.012 -177.869)" fill="#92e3a9" stroke="#263238" stroke-linecap="round" stroke-linejoin="round" stroke-width="1"/>
        <path id="Path_20428" data-name="Path 20428" d="M194.125,236.18l-.346,10.027a10.658,10.658,0,0,1-11.022,10.285l-10.3-.364a10.658,10.658,0,0,1-10.285-11.067l.462-13.056a10.658,10.658,0,0,1,11.022-10.276l10.3.355a4.444,4.444,0,0,1,.888.062,8.553,8.553,0,0,0,9.281,14.033Z" transform="translate(-132.38 -169.487)" fill="#92e3a9" stroke="#263238" stroke-linecap="round" stroke-linejoin="round" stroke-width="1"/>
        <path id="Path_20429" data-name="Path 20429" d="M199.012,227.616a4.876,4.876,0,1,1-4.707-5.036,4.876,4.876,0,0,1,4.707,5.036Z" transform="translate(-135.411 -169.583)" fill="#92e3a9" stroke="#263238" stroke-linecap="round" stroke-linejoin="round" stroke-width="1"/>
        <path id="Path_20430" data-name="Path 20430" d="M165.47,246.62l15.143-12.949s-1.918-6.937,0-9.13h-7.274a6.874,6.874,0,0,0-6.883,6.439Z" transform="translate(-132.75 -169.802)" fill="#fff" opacity="0.4"/>
        <path id="Path_20431" data-name="Path 20431" d="M192.361,228.027l3.242-3.553s-2.016-1.359-3.242,0S192.361,228.027,192.361,228.027Z" transform="translate(-135.696 -169.727)" fill="#fff" opacity="0.4"/>
        <line id="Line_447" data-name="Line 447" x2="24.416" y2="1.057" transform="translate(55.084 135.668)" fill="none" stroke="#263238" stroke-linecap="round" stroke-linejoin="round" stroke-width="1"/>
        <line id="Line_448" data-name="Line 448" x2="32.871" y2="1.759" transform="translate(46.629 138.128)" fill="none" stroke="#263238" stroke-linecap="round" stroke-linejoin="round" stroke-width="1"/>
        <line id="Line_449" data-name="Line 449" x2="8.606" transform="translate(70.894 145.153)" fill="none" stroke="#263238" stroke-linecap="round" stroke-linejoin="round" stroke-width="1"/>
        <path id="Path_20432" data-name="Path 20432" d="M170.442,218.385c-12.594,6.057-26.236-15.161-31.015-18.083a20.277,20.277,0,0,1-3.277-2.576l2.078-34.816,36.868,1.483c-.24,5.187-.16,10.916.995,14.211C178.578,185.789,183.028,212.337,170.442,218.385Z" transform="translate(-129.471 -162.91)" fill="rgba(0,0,0,0.7)" opacity="0.2"/>
        <path id="Path_20433" data-name="Path 20433" d="M158.87,224.477s10.072,4.37,14.637,1.776,9.486-7.549,10.187-18.554c0,0,6,15.5-6.093,20.144S158.87,224.477,158.87,224.477Z" transform="translate(-132.012 -167.919)" fill="#fff" opacity="0.4"/>
        <path id="Path_20434" data-name="Path 20434" d="M154.45,233.011s20.428,5.489,29.167-4.441c0,0-1.172,5.516-10.6,7.105S154.45,233.011,154.45,233.011Z" transform="translate(-131.518 -170.253)" fill="#fff" opacity="0.4"/>
        <path id="Path_20435" data-name="Path 20435" d="M191.363,193.593c-1.554-2.762.355,22.062.355,22.062S194.525,199.26,191.363,193.593Z" transform="translate(-135.577 -166.317)" fill="#fff" opacity="0.4"/>
      </g>
      <path id="Path_20437" data-name="Path 20437" d="M221.879,166.3l-8.615,146.326-84.634-2.78,6.679-112.122,2.078-34.816,36.877,1.483Z" transform="translate(-57.905 -30.244)" fill="none" stroke="#263238" stroke-linecap="round" stroke-linejoin="round" stroke-width="1"/>
      <path id="Path_20438" data-name="Path 20438" d="M228.412,315.389l-3.082-.782,7.363-134L234,189.456Z" transform="translate(-68.719 -32.224)" fill="#fff" opacity="0.4"/>
      <path id="Path_20439" data-name="Path 20439" d="M169.23,208.455a8.322,8.322,0,0,1-7.585.115,10.88,10.88,0,0,1-4.716-4.849c-3.508-6.324-13-20.73-14.752-24.869s-5.622-15.845-9.486-20.756-5.977-12.3-5.977-12.3l-1.4-71.675c2.1,10.365,7.9,22.133,7.9,22.133A33.182,33.182,0,0,1,145.649,107.5a20.748,20.748,0,0,1,2.425,3.135c5.738,8.882,8.518,24.869,8.82,37.3.355,14.06,4.92,20.428,12.3,32.676S174.026,205.729,169.23,208.455Z" transform="translate(-57.534 -20.315)" fill="#fff"/>
      <path id="Path_20440" data-name="Path 20440" d="M172.1,213.052a8.518,8.518,0,0,1-7.585.115c4.032-1.1,9.326-3.171,8.109-6.217-1.91-4.867-7.5,2.354-10.3,0s-13-15.854-6.528-21.8,4.441-15.907,0-18.714-1.554-9.495-.151-20.019c.888-6.368-2.158-20.792-4.663-31.2,5.738,8.882,8.518,24.869,8.82,37.3.355,14.06,4.92,20.428,12.3,32.676S176.9,210.494,172.1,213.052Z" transform="translate(-60.405 -24.911)" fill="#92e3a9" opacity="0.4"/>
      <path id="Path_20441" data-name="Path 20441" d="M125.31,74.07c2.1,10.365,7.9,22.133,7.9,22.133a33.182,33.182,0,0,1,12.434,11.244c7.381,7.727,10.9,26.352,11.244,40.4s4.92,20.428,12.3,32.676,5.329,25.02,0,27.924c-3.713,2.034-8.784,1.59-12.3-4.734s-13-20.73-14.752-24.869-5.622-15.845-9.486-20.756-5.977-12.3-5.977-12.3" transform="translate(-57.534 -20.309)" fill="none" stroke="#263238" stroke-linecap="round" stroke-linejoin="round" stroke-width="1"/>
      <path id="Path_20442" data-name="Path 20442" d="M151,190.234s5.738-.515,8.367-2.664" transform="translate(-60.407 -33.002)" fill="none" stroke="#263238" stroke-linecap="round" stroke-linejoin="round" stroke-width="1"/>
      <path id="Path_20443" data-name="Path 20443" d="M124.509,156.41s-1.119,2.664,4.743,5.329" transform="translate(-57.435 -29.517)" fill="none" stroke="#263238" stroke-linecap="round" stroke-linejoin="round" stroke-width="1"/>
    </g>
  </g>
</svg>
