<svg xmlns="http://www.w3.org/2000/svg" width="292.524" height="249.904" viewBox="0 0 292.524 249.904">
  <g id="dating" transform="translate(0 0)">
    <path id="Path_18915" data-name="Path 18915" d="M541.129,138.934h-1.352v-37.04a21.438,21.438,0,0,0-21.438-21.438H439.865a21.438,21.438,0,0,0-21.438,21.438V305.1a21.438,21.438,0,0,0,21.438,21.438h78.474A21.438,21.438,0,0,0,539.777,305.1V165.3h1.352Z" transform="translate(-333.559 -80.456)" fill="#3f3d56"/>
    <path id="Path_18916" data-name="Path 18916" d="M530.783,96.951H520.539A7.606,7.606,0,0,1,513.5,107.43H468.54A7.606,7.606,0,0,1,461.5,96.951h-9.568a16.009,16.009,0,0,0-16.009,16.009V315.867a16.009,16.009,0,0,0,16.01,16.009h78.852a16.009,16.009,0,0,0,16.009-16.009h0V112.961a16.009,16.009,0,0,0-16.009-16.009Z" transform="translate(-345.138 -91.374)" fill="#fff"/>
    <path id="Path_18917" data-name="Path 18917" d="M967.391,371.134c-1.657,4.907-4.2,9.378-9.378,9.378s-9.087-4.207-9.378-9.378c-.373-6.608,4.079-9.406,9.378-9.378C964.272,361.787,969.359,365.31,967.391,371.134Z" transform="translate(-684.476 -266.641)" fill="#2f2e41"/>
    <rect id="Rectangle_2912" data-name="Rectangle 2912" width="18.51" height="23.446" transform="translate(264.158 104.282)" fill="#2f2e41"/>
    <path id="Path_18918" data-name="Path 18918" d="M1002.291,440.527h1.574a14.016,14.016,0,0,1,2.1,11.545c-1.749,6.647-.35,7.872-.35,7.872s2.277,7.2-.172,18.044,2.271,13.793,2.271,13.793l-4.373-8.747-2.449-23.091Z" transform="translate(-719.078 -318.779)" fill="#e6e6e6"/>
    <path id="Path_18919" data-name="Path 18919" d="M969.9,415.38s-1.4,5.6-.7,5.6,3.149,2.974,3.149,2.974l1.574,5.773-1.225,4.2-4.2-.875-5.248-5.773-1.574-1.574-1.4-5.073s1.749-2.1.525-3.848S969.9,415.38,969.9,415.38Z" transform="translate(-692.196 -302.115)" fill="#fbbebe"/>
    <path id="Path_18920" data-name="Path 18920" d="M840.676,436.248l-3.849-6.3s-4.154-9.192-7.128-5.868,4.5,10.066,4.5,10.066l3.848,5.073Z" transform="translate(-605.307 -307.415)" fill="#fbbebe"/>
    <path id="Path_18921" data-name="Path 18921" d="M972.139,614.853l-2.8,20.467s.35,1.574-3.149,7.347-12.945,18.368-12.945,18.368l-2.8-5.248s3.324-16.619,9.1-20.117l-.7-25.19Z" transform="translate(-685.691 -431.266)" fill="#fbbebe"/>
    <path id="Path_18922" data-name="Path 18922" d="M934.019,738.268l3.848,7.347s-3.149,4.421-1.924,5.3,2.8,8.747-.525,7.872-5.948-4.373-5.948-4.9,1.924-3.371.875-5.121a8.49,8.49,0,0,0-1.749-2.274l-2.095,2.785-.875-.525,3.844-5.759a4.611,4.611,0,0,1,2.624-2.274Z" transform="translate(-669.262 -515.846)" fill="#2f2e41"/>
    <path id="Path_18923" data-name="Path 18923" d="M948.268,611.949s1.359,19.348-1.615,24.421v25.19l-4.023.525s-8.125-13.336-5.151-26.456-3.07-25.149-3.07-25.149Z" transform="translate(-675.074 -431.266)" fill="#fbbebe"/>
    <circle id="Ellipse_887" data-name="Ellipse 887" cx="7.347" cy="7.347" r="7.347" transform="translate(264.844 102.856)" fill="#fbbebe"/>
    <path id="Path_18924" data-name="Path 18924" d="M899.2,439.923l-7.347-9.271-4.2-2.8-1.749,2.274-4.9,1.4s-3.149.7-6.472,4.548-9.271,6.123-9.271,6.123-10.671-3.5-10.671-4.2-5.073,4.723-3.848,6.822,7.061,8.513,15.632,7.288,11.832-2.39,11.832-2.39,1.574,8.047,6.122,9.621,19.418,2.624,19.418,2.624l3.149-10.5s3.5-4.548-1.225-11.2a43.851,43.851,0,0,0-.6-6.192,4.091,4.091,0,0,0-.8-2.03c-1.225-1.05-7.7-2.8-7.7-2.8s1.05,3.5,1.574,3.674S899.9,439.048,899.2,439.923Z" transform="translate(-619.571 -310.389)" fill="#e6e6e6"/>
    <path id="Path_18925" data-name="Path 18925" d="M920.261,572.189c8.81-.612,13.938.831,16.227,1.931.425.193,2.012.6,2.012.663,0,.525,11.512,1.844,15.885.794s-4.045-43.891-5.969-45.816-.887-8.967-.887-8.967-17.656-2.4-19.23-2.753a.989.989,0,0,0-1.235.446,3.024,3.024,0,0,1-1.2,1.209c-3.714,2.139-6.695,16.932-8.939,25.11C914.479,553.728,920.261,572.189,920.261,572.189Z" transform="translate(-663.104 -370.053)" fill="#2f2e41"/>
    <path id="Path_18926" data-name="Path 18926" d="M960.954,756.893s2.058,7.516,3.324,13.47A8.376,8.376,0,0,0,968.3,774c3.149,1.574-.534,4.189-3.508,4.014s-5.773.175-6.123-.7-1.39-4.681-1.39-4.681l-.574,5.265-1.749.175.574-6.839s-1.4-2.624.525-7l-.486-6.713S960.429,758.642,960.954,756.893Z" transform="translate(-688.675 -528.173)" fill="#2f2e41"/>
    <path id="Path_18927" data-name="Path 18927" d="M972.827,602.616a5.8,5.8,0,0,1,1.193.724c.093-1.653.628-11.651-.014-11.49Z" transform="translate(-700.503 -418.935)" opacity="0.1"/>
    <path id="Path_18928" data-name="Path 18928" d="M945.3,375.076s-.081-.453-3.264.74-5.09,10-3.5,15.171a4.738,4.738,0,0,1-.732,4.638,7.662,7.662,0,0,0,2.716,11.9q.2.086.4.17l1.989,1.193a9.1,9.1,0,0,1-1.266-7.6,21.88,21.88,0,0,0,.395-11.2c-.146-.625-.311-1.269-.5-1.927-1.591-5.569-.817-4.926,4.752-10.495a35.4,35.4,0,0,0,5.967,3.58c2.784,1.193,5.171,2.387,3.182,6.365s-6.762,7.558-3.58,12.729,3.58,3.182,3.182,5.171h0l-.4,1.989,2.387-2.387-1.591,3.182s5.171,0,6.762-3.978l.8.8s3.182-5.569-2.785-10.74c0,0-1.989-1.193.8-5.171s.646-12.53-2.934-14.121S945.3,375.076,945.3,375.076Z" transform="translate(-676.152 -274.99)" fill="#2f2e41"/>
    <rect id="Rectangle_2913" data-name="Rectangle 2913" width="7.571" height="5.889" transform="translate(21.399 117.545) rotate(-87.779)" fill="#2f55d4"/>
    <path id="Path_18929" data-name="Path 18929" d="M309.707,480.363s8.149-3.893,8.018-.531-8.214,5.575-8.214,5.575Z" transform="translate(-261.471 -343.888)" fill="#ffb9b9"/>
    <path id="Path_18930" data-name="Path 18930" d="M230.682,559.414a117.583,117.583,0,0,1,5.265,16.2c1.42,6.79,3.584,16.134.8,22.762s-10.694,26.1-10.775,28.206.678,4.236-1,4.17-10.83-2.946-11.2-4.223,3.121-4.509,3.121-4.509l8.625-27.026-9-17.607-6.491,26.267-1.271,32.784s-6.239-1.926-7.145-.277c0,0-2.8-3.9-3.151-5.594s1.32-34.045,1.32-34.045-5.727-36.844-1.1-36.664S221.406,548.951,230.682,559.414Z" transform="translate(-186.917 -394.488)" fill="#2f2e41"/>
    <path id="Path_18931" data-name="Path 18931" d="M254.67,768.56s4.265,9.426,4.669,9.863,3.183,4.754,1.082,4.672-7.064-2.379-10.716-5.888-8.468-9.589-8.031-9.993a24.807,24.807,0,0,1,3.428-1.551Z" transform="translate(-216.552 -533.978)" fill="#2f2e41"/>
    <path id="Path_18932" data-name="Path 18932" d="M214.032,788.213s.257,4.219,1.033,5.933.678,4.236-1.424,4.154-7.533-.075-7.533-.075-.323-2.538.114-2.942,2.3-6.021,1.505-7.315S214.032,788.213,214.032,788.213Z" transform="translate(-192.955 -548.399)" fill="#2f2e41"/>
    <path id="Path_18933" data-name="Path 18933" d="M207.65,384.75s-4.48,6.982-6.227,8.6,3.167,5.174,3.167,5.174l8.794,1.183s-.111-8,.342-8.826S207.65,384.75,207.65,384.75Z" transform="translate(-189.681 -281.861)" fill="#ffb9b9"/>
    <path id="Path_18934" data-name="Path 18934" d="M209.663,408s-1.812,3.3-3.493,3.232-10.377-3.77-10.749-5.047-2.88,9.149-2.88,9.149l21.279,37.447,5.19-3.587L216.5,427.212l-2.065-11.866Z" transform="translate(-184.051 -295.98)" fill="#fff"/>
    <path id="Path_18935" data-name="Path 18935" d="M181.626,436.566a11.775,11.775,0,0,1,1.305,5.523c0,.084-.007.168-.014.252-.2,3.89-1.634,8.389-2.149,11.661-.373,2.347-.267,4.06,1.107,4.463,3.33.971-.486,1.665,12.4,5.953s15.131.587,15.164-.254-1.824-7.227-1.388-7.631,6.109,5.288,7.823,4.513.2-5.044.2-5.044-3.861-8.989-3.779-11.091-5.848-12.013-5.848-12.013l-4.033-26.255s-1.551-3.428-3.636-3.929a5.165,5.165,0,0,0-3.815.694l3.489,7.712,3.681,13.613-.616,5.027s-4.281-9.006-7.093-12.482-8.807-11.707-8.807-11.707-1.4-4.723-.343-6.134-4.407-1.627-6.737,4.175c-1.235,3.075-3.239,7.662-4.5,11.932-1.119,3.783-1.648,7.319-.539,9.341C175.19,427.974,179.453,432.033,181.626,436.566Z" transform="translate(-171.04 -291.028)" fill="#3f3d56"/>
    <path id="Path_18936" data-name="Path 18936" d="M173.5,456.011c1.695,3.088,5.957,7.147,8.13,11.681.568-2.045,1.26-4.16,1.26-4.16s2.656-14.209-5.2-17.881a5.257,5.257,0,0,0-3.651,1.02C172.916,450.453,172.387,453.989,173.5,456.011Z" transform="translate(-171.04 -322.153)" opacity="0.1"/>
    <path id="Path_18937" data-name="Path 18937" d="M265.646,473.692l6.66,1.942,9.247.359.951,8.035-15.2,1.094S263.512,474.451,265.646,473.692Z" transform="translate(-232.007 -340.729)" fill="#3f3d56"/>
    <path id="Path_18938" data-name="Path 18938" d="M228.833,553.589s8.909,1.478,6.876,4.159-9.926-.138-9.926-.138Z" transform="translate(-206.053 -393.611)" fill="#ffb9b9"/>
    <path id="Path_18939" data-name="Path 18939" d="M198.352,527.964c-.2,3.89-1.634,8.389-2.149,11.661,2.838,2.686,5.537,5.055,6.554,5.095,2.1.081,5.48-.208,6.725.261s1.975-7.5,1.975-7.5a6.892,6.892,0,0,0-4.056-3.946A46.151,46.151,0,0,1,198.352,527.964Z" transform="translate(-186.475 -376.651)" opacity="0.1"/>
    <path id="Path_18940" data-name="Path 18940" d="M174.176,438.184s-7.113-1.118-6.728,10.683-.75,19.334,2.111,21.55,12.153,12.257,14.254,12.339,5.48-.208,6.725.261,1.975-7.5,1.975-7.5a6.892,6.892,0,0,0-4.056-3.946c-3.314-1.391-11.12-6.324-11.055-8.006s1.975-7.5,1.975-7.5S182.031,441.856,174.176,438.184Z" transform="translate(-167.432 -317.209)" fill="#3f3d56"/>
    <circle id="Ellipse_888" data-name="Ellipse 888" cx="9.254" cy="9.254" r="9.254" transform="translate(14.987 94.721)" fill="#ffb9b9"/>
    <path id="Path_18941" data-name="Path 18941" d="M224.664,345.076a1.786,1.786,0,0,0,.778.39.555.555,0,0,0,.643-.446,2.307,2.307,0,0,0,.883,1.132c.432.225,1.1.036,1.163-.447a2.04,2.04,0,0,0,.47.991.7.7,0,0,0,.989.033,25.407,25.407,0,0,0-.132,3.148,4.009,4.009,0,0,1-1.133,2.854c-1.157,1.007-2.9.758-4.419.568a1.34,1.34,0,0,0-.692.038c-.57.243-.544,1.036-.552,1.655a4.6,4.6,0,0,1-4.027,4.368,2.306,2.306,0,0,1-1.714-.418c-.432-.366-.653-.963-1.148-1.238-.805-.448-1.782.205-2.371.914s-1.169,1.58-2.081,1.71c-1.206.172-2.125-1.058-2.576-2.19a12.767,12.767,0,0,1,.254-9.92C211.518,342.726,220.123,341.858,224.664,345.076Z" transform="translate(-194.193 -254.364)" fill="#2f2e41"/>
    <path id="Path_18942" data-name="Path 18942" d="M335.546,461.626c3.031-3.413,8.11-3.158,12.032-1.628,4.853,1.894,8.365,6.106,12.284,9.358a26.7,26.7,0,0,0,6.715,4.216,23.79,23.79,0,0,0,7.634,1.774,23.046,23.046,0,0,0,14.434-3.888,23.926,23.926,0,0,0,8.8-11.047c.212-.547.4-1.1.569-1.665a.508.508,0,0,0-.978-.27,22.667,22.667,0,0,1-7.989,11.446,22.1,22.1,0,0,1-14.081,4.447,22.957,22.957,0,0,1-7.612-1.567,24.871,24.871,0,0,1-6.725-4.118c-3.935-3.255-7.433-7.4-12.223-9.433-3.885-1.652-8.9-2.156-12.429.581a8.474,8.474,0,0,0-1.152,1.078c-.432.487.283,1.207.717.717Z" transform="translate(-278.139 -330.274)" fill="#2f2e41"/>
    <path id="Path_18943" data-name="Path 18943" d="M719.6,343.724c-.636-4.21-4.337-6.971-8.166-8.2-5.081-1.625-10.355-.394-15.471.39a31.352,31.352,0,0,1-8.328.38A22.32,22.32,0,0,1,668.3,309.665c.126-.624.281-1.241.46-1.853a.508.508,0,0,0-.978-.27,23.706,23.706,0,0,0,.619,14.931,23.07,23.07,0,0,0,9.232,11.295,23.827,23.827,0,0,0,14.357,3.625c2.937-.193,5.826-.783,8.732-1.214a26.394,26.394,0,0,1,7.861-.28c3.872.6,8.289,2.653,9.676,6.612a8.154,8.154,0,0,1,.362,1.483c.1.643,1.075.37.978-.27Z" transform="translate(-497.995 -230.524)" fill="#2f2e41"/>
    <path id="Path_18944" data-name="Path 18944" d="M562.586,603.689a11.157,11.157,0,0,0-15.779,15.779l15.779,15.779,15.779-15.779a11.158,11.158,0,0,0-15.779-15.779Z" transform="translate(-416.368 -424.608)" fill="#2f55d4"/>
    <rect id="Rectangle_2914" data-name="Rectangle 2914" width="97.208" height="19.192" transform="translate(133.759 51.213)" fill="#e6e6e6"/>
    <path id="Path_18945" data-name="Path 18945" d="M569.15,253.1h93.064V238.048H569.15Z" transform="translate(-433.319 -184.763)" fill="#fff"/>
    <circle id="Ellipse_889" data-name="Ellipse 889" cx="5.733" cy="5.733" r="5.733" transform="translate(138.245 54.952)" fill="#2f55d4"/>
    <rect id="Rectangle_2915" data-name="Rectangle 2915" width="56.58" height="1.246" transform="translate(157.687 58.441)" fill="#e6e6e6"/>
    <rect id="Rectangle_2916" data-name="Rectangle 2916" width="56.58" height="1.246" transform="translate(157.687 61.682)" fill="#e6e6e6"/>
    <rect id="Rectangle_2917" data-name="Rectangle 2917" width="97.208" height="19.192" transform="translate(72.22 101.255)" fill="#e6e6e6"/>
    <path id="Path_18946" data-name="Path 18946" d="M387.15,401.1h93.064V386.048H387.15Z" transform="translate(-312.858 -282.72)" fill="#fff"/>
    <circle id="Ellipse_890" data-name="Ellipse 890" cx="5.733" cy="5.733" r="5.733" transform="translate(76.706 104.994)" fill="#2f55d4"/>
    <rect id="Rectangle_2918" data-name="Rectangle 2918" width="56.58" height="1.246" transform="translate(96.148 108.484)" fill="#e6e6e6"/>
    <rect id="Rectangle_2919" data-name="Rectangle 2919" width="56.58" height="1.246" transform="translate(96.148 111.724)" fill="#e6e6e6"/>
  </g>
</svg>
