<svg xmlns="http://www.w3.org/2000/svg" width="23.856" height="23.529" viewBox="0 0 23.856 23.529">
  <g id="edit" transform="translate(-1)">
    <g id="Group_9678" data-name="Group 9678" transform="translate(1 0)">
      <path id="Path_18867" data-name="Path 18867" d="M21.624,32.791H4.781V16.68h9.825l2.281-2.28H4.455A1.952,1.952,0,0,0,2.5,16.329V33.117a1.936,1.936,0,0,0,1.955,1.929h17.47a1.936,1.936,0,0,0,1.955-1.929v-12.6L21.6,22.794v10Z" transform="translate(-2.5 -11.517)" fill="#8595aa"/>
      <rect id="Rectangle_2922" data-name="Rectangle 2922" width="11.021" height="4.785" transform="translate(9.641 10.83) rotate(-45)" fill="#8595aa"/>
      <path id="Path_18868" data-name="Path 18868" d="M30.428,51.74a.821.821,0,0,0-.2.356l-.687,3.08a.723.723,0,0,0,.865.865l3.054-.738a.726.726,0,0,0,.356-.2l.84-.84L31.268,50.9Z" transform="translate(-22.759 -38.94)" fill="#8595aa"/>
      <path id="Path_18869" data-name="Path 18869" d="M82.387,5.652,80.02,3.285a.722.722,0,0,0-1.018,0l-1.5,1.5,3.385,3.385,1.5-1.5A.722.722,0,0,0,82.387,5.652Z" transform="translate(-58.741 -3.075)" fill="#8595aa"/>
    </g>
  </g>
</svg>
