<svg xmlns="http://www.w3.org/2000/svg" width="44.146" height="45.333" viewBox="0 0 44.146 45.333">
  <g id="jacket" transform="translate(-2.726 -0.485)">
    <path id="Path_16318" data-name="Path 16318" d="M74.964,103.5a.776.776,0,1,0,.776.776A.776.776,0,0,0,74.964,103.5Z" transform="translate(-45.718 -65.905)" fill="#00263e"/>
    <path id="Path_16319" data-name="Path 16319" d="M42.549,10.554a8.3,8.3,0,0,0-4.773-5.1c-1.145-.459-4.307-1.52-5.653-1.969a.356.356,0,0,1-.244-.341V2.8a1.33,1.33,0,0,0-.573-1.1,3.69,3.69,0,0,0-.494-.216A18.534,18.534,0,0,0,18.747,1.5a2.968,2.968,0,0,0-.454.2,1.33,1.33,0,0,0-.573,1.1V3.14a.356.356,0,0,1-.244.341c-1.346.449-4.508,1.509-5.653,1.969a8.3,8.3,0,0,0-4.773,5.1C3.841,20.23,2.832,39.362,2.727,41.513a1.287,1.287,0,0,0,.018.285l.544,2.986a1.261,1.261,0,0,0,1.239,1.034H9.28a1.266,1.266,0,0,0,1.149-.735l1.383-3.03a1.5,1.5,0,0,0,.09-.281l.351-1.763a.72.72,0,0,0-.027-.379l-1.132-3.219a3.6,3.6,0,0,1-.2-1.045L10.2,18.682a6.628,6.628,0,0,0-.522-2.324l-1.362-3.21a.54.54,0,1,1,.994-.423l1.362,3.21a7.742,7.742,0,0,1,.609,2.7l.692,16.633a2.882,2.882,0,0,0,.161.838L12.94,38.4a1.252,1.252,0,0,0,.915.8s7.832,1.7,7.922,1.7a1.265,1.265,0,0,0,1.257-1.149l.141-1.557c1.081-.038,2.169-.038,3.25,0,.085.955.135,1.523.139,1.558a1.264,1.264,0,0,0,1.524,1.12L35.744,39.2a1.252,1.252,0,0,0,.915-.8l.808-2.291a2.882,2.882,0,0,0,.161-.838l.692-16.633a7.742,7.742,0,0,1,.609-2.7l1.362-3.21a.54.54,0,1,1,.994.421l-1.362,3.21a6.629,6.629,0,0,0-.522,2.325l-.7,16.684a3.6,3.6,0,0,1-.2,1.045l-1.132,3.217a.718.718,0,0,0-.026.383c.108.53.407,1.966.439,2.039l1.383,3.033a1.266,1.266,0,0,0,1.149.735h4.752a1.261,1.261,0,0,0,1.239-1.034l.544-2.99a1.242,1.242,0,0,0,.018-.281c-.1-2.151-1.112-21.282-4.321-30.959Zm-31.788,31.2L9.446,44.633a.18.18,0,0,1-.166.1H4.529a.18.18,0,0,1-.177-.148l-.515-2.839Zm23.679-16.7a.54.54,0,0,1,.609.458l.875,6.157a.543.543,0,0,1-.461.612.532.532,0,0,1-.076,0,.54.54,0,0,1-.533-.461l-.875-6.16a.54.54,0,0,1,.461-.609ZM30.693,2.6a.236.236,0,0,1,.1.2c0,.4,0,.775,0,.922-.472,2.111-4.561,3.831-4.651,3.867a4.069,4.069,0,0,1,1.005-2.954,12.73,12.73,0,0,1,3.318-2.061.229.229,0,0,1,.227.024ZM23.711,4.469a15.126,15.126,0,0,1,2.176,0A6.277,6.277,0,0,0,25.062,8.1a2.679,2.679,0,0,0-.263.187,2.308,2.308,0,0,0-.263-.187,6.284,6.284,0,0,0-.825-3.631Zm1.063,16.017a.028.028,0,0,1,.057,0c.418,4.618.869,9.644,1.208,13.406-.791-.01-1.683-.01-2.475,0ZM25.6,11a.776.776,0,1,1,.778.775A.776.776,0,0,1,25.6,11Zm3.347-8.9a14.2,14.2,0,0,0-2.111,1.369,16.758,16.758,0,0,0-4.074,0A14.356,14.356,0,0,0,20.646,2.1a17.432,17.432,0,0,1,8.3.007ZM13.675,31.668l.875-6.157a.54.54,0,1,1,1.07.151l-.875,6.16a.54.54,0,0,1-.533.461.532.532,0,0,1-.076,0,.543.543,0,0,1-.461-.612Zm8.282,7.994a.177.177,0,0,1-.072.13.18.18,0,0,1-.144.032l-7.652-1.675a.174.174,0,0,1-.133-.115l-.945-2.682a.54.54,0,0,1,.612-.71L22.26,36.3ZM18.8,3.72c0-.148,0-.522,0-.922a.236.236,0,0,1,.1-.2.229.229,0,0,1,.227-.025,12.73,12.73,0,0,1,3.318,2.062,4.069,4.069,0,0,1,1.005,2.954c-.09-.036-4.179-1.756-4.651-3.867Zm4.467,33.4.193-2.142v0l2.669,0c.072.8.137,1.513.193,2.142-1.016-.033-2.039-.033-3.054,0Zm3.1-17.075a.775.775,0,1,1,.775.778.775.775,0,0,1-.775-.778Zm1.665,8.273a.773.773,0,1,1-.548.227.775.775,0,0,1,.548-.227Zm8.546,7.038-.945,2.682a.175.175,0,0,1-.13.115l-7.655,1.675a.2.2,0,0,1-.144-.032.176.176,0,0,1-.072-.13c0-.05-.119-1.336-.3-3.357l8.636-1.663a.54.54,0,0,1,.612.71Zm8.659,9.238a.18.18,0,0,1-.177.148H40.319a.18.18,0,0,1-.166-.1l-1.315-2.882h6.924Z" transform="translate(0 0)" fill="#00263e"/>
  </g>
</svg>
