<svg id="p-w" xmlns="http://www.w3.org/2000/svg" xmlns:xlink="http://www.w3.org/1999/xlink" width="500.58" height="323.642" viewBox="0 0 500.58 323.642">
  <defs>
    <linearGradient id="linear-gradient" x1="0.5" y1="1" x2="0.5" gradientUnits="objectBoundingBox">
      <stop offset="0" stop-color="gray" stop-opacity="0.251"/>
      <stop offset="0.54" stop-color="gray" stop-opacity="0.122"/>
      <stop offset="1" stop-color="gray" stop-opacity="0.102"/>
    </linearGradient>
  </defs>
  <rect id="Rectangle_3726" data-name="Rectangle 3726" width="500.58" height="3.658" transform="translate(0 319.984)" fill="#85848b"/>
  <path id="Path_17177" data-name="Path 17177" d="M838.628,651.474c0,2.814-16.4,11.017-35.885,11.017s-34.664-8.2-34.664-11.017,15.791-1.908,35.293-1.908S838.628,648.655,838.628,651.474Z" transform="translate(-442.038 -396.081)" fill="#504f60"/>
  <path id="Path_17178" data-name="Path 17178" d="M838.628,653.72c0,2.814-16.4,11.017-35.885,11.017s-34.664-8.2-34.664-11.017" transform="translate(-442.038 -398.327)" opacity="0.2"/>
  <path id="Path_17179" data-name="Path 17179" d="M503.119,537.26c3.162.406,6.443.663,9.472-.319.477-.148,1-.477.954-.954a1.155,1.155,0,0,0-.215-.477,29.459,29.459,0,0,1-2.862-5.451.478.478,0,0,0-.176-.248.449.449,0,0,0-.305,0c-1.4.367-2.6,1.269-3.992,1.655a5.681,5.681,0,0,1-2.175.162c-.63-.072-1.488-.591-2.06-.525C502.084,533.187,502.876,535.133,503.119,537.26Z" transform="translate(-302.736 -333.5)" fill="#00aeef"/>
  <path id="Path_17180" data-name="Path 17180" d="M626.192,522.527c2.084-1.431,4.245-2.933,5.475-5.141a.892.892,0,0,0,.148-.444.915.915,0,0,0-.176-.429,17.719,17.719,0,0,0-4.45-4.8,12.976,12.976,0,0,0-2.48,2.289c-.525.553-1.974,1.431-1.989,2.275,0,.477.553,1.03.811,1.431.348.515.677,1.04.992,1.574A18.687,18.687,0,0,1,626.192,522.527Z" transform="translate(-366.006 -324.046)" fill="#00aeef"/>
  <path id="Path_17181" data-name="Path 17181" d="M495.159,547.38a2.122,2.122,0,0,1-.381,1.383,1.874,1.874,0,0,1-.8.477c-4.421,1.583-9.539-.391-13.95,1.168-.906.32-1.765.782-2.676,1.088a14.552,14.552,0,0,1-3.339.591c-1.56.148-3.129.243-4.693.286a11.292,11.292,0,0,1-3.539-.31,4.249,4.249,0,0,1-2.714-2.151,2.065,2.065,0,0,1-.134-1.531,1.645,1.645,0,0,1,.291-.477,4.18,4.18,0,0,1,1.04-.844l1.626-1.049a10.921,10.921,0,0,1,2.466-1.307c.644-.21,1.326-.3,1.979-.477,2.284-.668,4.03-2.48,5.652-4.221l2.213-2.361a2.226,2.226,0,0,1,.768-.615,2.125,2.125,0,0,1,.954-.091,12.751,12.751,0,0,1,6.033,2.022,7.819,7.819,0,0,0,1.488.878,5.313,5.313,0,0,0,4.159-.515c.568-.305.444-.477.682-1.021s.82-.892,1.326-.4a1.4,1.4,0,0,1,.315.6,16.918,16.918,0,0,1,.3,4.917,2.165,2.165,0,0,0,.1.763,4.315,4.315,0,0,0,.434.706,1.59,1.59,0,0,1,.091.181A4.848,4.848,0,0,1,495.159,547.38Z" transform="translate(-282.38 -337.233)" fill="#514e7f"/>
  <path id="Path_17182" data-name="Path 17182" d="M495.159,556.308a2.121,2.121,0,0,1-.381,1.383,1.874,1.874,0,0,1-.8.477c-4.421,1.583-9.539-.391-13.95,1.169-.906.32-1.765.782-2.676,1.087a14.552,14.552,0,0,1-3.339.591c-1.56.148-3.129.243-4.693.286a11.288,11.288,0,0,1-3.539-.31,4.249,4.249,0,0,1-2.714-2.151,2.064,2.064,0,0,1-.134-1.531,1.648,1.648,0,0,1,.291-.477c.258.539.443,1.254.606,1.512a3.1,3.1,0,0,0,2.07,1.493,5.136,5.136,0,0,0,1.908-.243c4.006-.992,8.265-1.006,12.114-2.508a28,28,0,0,1,3.968-1.526,31.177,31.177,0,0,1,4.292-.348c2.261-.181,4.45-.863,6.677-1.221A4.85,4.85,0,0,1,495.159,556.308Z" transform="translate(-282.38 -346.161)" fill="#464353"/>
  <path id="Path_17183" data-name="Path 17183" d="M623.765,525.4a8.037,8.037,0,0,1-2.442,4.349,28.468,28.468,0,0,0-3.419,3.739c-1.145,1.75-1.66,3.92-3.148,5.4a8.632,8.632,0,0,1-1.908,1.359,13.309,13.309,0,0,1-2.456,1.13,18.324,18.324,0,0,1-6.939.377,6.242,6.242,0,0,1-2.2-.425,6.637,6.637,0,0,1-.916-.563,4.373,4.373,0,0,1-1.431-1.431,1.432,1.432,0,0,1-.138-1.04,2.444,2.444,0,0,1,.663-1.011,15.706,15.706,0,0,1,1.679-1.512,10.055,10.055,0,0,0,2.184-1.908,6.159,6.159,0,0,0,.844-1.908,16.913,16.913,0,0,0,.615-3.648,11.562,11.562,0,0,1,.253-2.442c.353-1.259,1.288-2.385,1.183-3.687a.919.919,0,0,1,.048-.558.778.778,0,0,1,.439-.272,7.781,7.781,0,0,1,2.28-.529,2.657,2.657,0,0,1,2.118.83c.324.391.539.954,1.016,1.106a1.611,1.611,0,0,0,.725.029,6.075,6.075,0,0,0,3.339-1.026,4.164,4.164,0,0,0,1.383-3.038c0-.434-.2-.887.477-.954.505-.067.906.477,1.164.811a11.3,11.3,0,0,1,2.232,4.063,1.2,1.2,0,0,1,.424-.081,1.846,1.846,0,0,1,1.521.777A3.028,3.028,0,0,1,623.765,525.4Z" transform="translate(-353.453 -327.215)" fill="#514e7f"/>
  <path id="Path_17184" data-name="Path 17184" d="M623.962,530.589a8.039,8.039,0,0,1-2.442,4.35,28.451,28.451,0,0,0-3.419,3.739c-1.145,1.75-1.66,3.92-3.148,5.4a8.641,8.641,0,0,1-1.908,1.359,13.313,13.313,0,0,1-2.456,1.13,18.322,18.322,0,0,1-6.939.377,6.241,6.241,0,0,1-2.2-.424,6.647,6.647,0,0,1-.916-.563,4.372,4.372,0,0,1-1.431-1.431,3.488,3.488,0,0,1,1.431-.343c1.03.057,1.784,1.03,2.771,1.331,1.407.424,2.809-.568,4.235-.906.93-.219,1.908-.162,2.828-.477a7,7,0,0,0,2.094-1.269A10.655,10.655,0,0,0,614.7,540.7a13.851,13.851,0,0,0,1.312-2.618,37.453,37.453,0,0,1,2.652-5.075,3.593,3.593,0,0,1,.539-.706,7.5,7.5,0,0,1,.73-.529,5.544,5.544,0,0,0,1.684-3.071,5.378,5.378,0,0,1,.377-1.025,1.846,1.846,0,0,1,1.521.777A3.028,3.028,0,0,1,623.962,530.589Z" transform="translate(-353.651 -332.399)" fill="#464353"/>
  <path id="Path_17185" data-name="Path 17185" d="M439.5,209.075a10.115,10.115,0,0,1,2.862,3.338c.668,1.307,4.516,11.446,4.292,12.92,1.254-1.264,6.2-1.469,7.469-2.733.529-.529,3.386-3.172,3.816-3.787s3.615-1.908,3.963-2.556c1.3-2.332-9.233-11.17-7.884-13.473a.6.6,0,0,0,.11-.362.591.591,0,0,0-.176-.281,15.8,15.8,0,0,0-3.048-2.084,4.833,4.833,0,0,1-2.323-2.766,10.014,10.014,0,0,0-2.695,1.822q-2.9,2.485-5.7,5.07c-.73.677-2.141,1.579-2.48,2.547C437.306,207.768,438.8,208.507,439.5,209.075Z" transform="translate(-269.196 -159.584)" fill="#a1616a"/>
  <path id="Path_17186" data-name="Path 17186" d="M462.743,214.13a31.049,31.049,0,0,0-4.512,3.691,8.98,8.98,0,0,0-2.861,4.6c-.134.711-.115,1.431-.224,2.151-.477,3.124-3.176,5.413-4.369,8.337a14.453,14.453,0,0,0-.758,2.79,32.991,32.991,0,0,0-.548,5.475c-.029,1.779,1.717,3,2.356,4.664a28.488,28.488,0,0,1,1.135,5.07,60.074,60.074,0,0,0,2.862,9.4c2.351,6.5,9.973,24.452,12.324,30.953,7.206-1.808,26.389-5.962,32.77-9.772,2.127-1.269-14.761-15.581-12.486-16.569a.849.849,0,0,0,.639-1.2c-2.275-9.949-9.391-18.123-12.62-27.81-1.121-3.362-3.134-6.233-4.66-9.429-1.383-2.895-2.122-6.1-3.777-8.847a5.581,5.581,0,0,0-1.207-1.5,7.112,7.112,0,0,0-1.331-.806C464.531,214.864,463.654,214.593,462.743,214.13Z" transform="translate(-275.384 -168.392)" fill="#514e7f"/>
  <circle id="Ellipse_694" data-name="Ellipse 694" cx="11.279" cy="11.279" r="11.279" transform="translate(159.406 25.802)" fill="#a1616a"/>
  <path id="Path_17187" data-name="Path 17187" d="M466.4,205.991a3.782,3.782,0,0,1,4.24-.611,2.049,2.049,0,0,1,1.259,2.037l5.594.086a11.23,11.23,0,0,1,2.652.243,3.854,3.854,0,0,1,2.213,1.388c.067.091.143.2.257.215a.411.411,0,0,0,.258-.086,4.856,4.856,0,0,1,2.785-.477,15.047,15.047,0,0,1,8.189,3.6,2.648,2.648,0,0,1,.954,1.188c.2.634-.038,1.431.477,1.884,0,5.246,1.8,10.149,3,15.262a6.846,6.846,0,0,0,1.693,2.432,9.812,9.812,0,0,1,1.807,2.7c1.021,2.652-.386,5.771.606,8.432a14.446,14.446,0,0,0,1.908,3.029,7.831,7.831,0,0,1,1.631,3.911c.043.639-.038,1.283,0,1.908a11.533,11.533,0,0,0,.477,2.533q.61,2.308,1.278,4.612c.725,2.48,1.669,5.156,3.892,6.477-5.365.911-11.022,1.8-16.135-.062a8.365,8.365,0,0,1-2.013-1.006c-1.846-1.316-2.738-3.567-3.534-5.695a26.887,26.887,0,0,1-1.97-7.35,8.436,8.436,0,0,0-.339-2.385c-.52-1.383-1.908-2.218-3.167-2.986A15.207,15.207,0,0,1,480.6,244.3a5.928,5.928,0,0,1-1.545-4.455c.1-.787.405-1.545.434-2.337a1.831,1.831,0,0,0-1.083-1.908c-3.906-1.183-5.771-5.809-6.639-9.8a31.437,31.437,0,0,1-.5-6.248l-.053-4.068a5.37,5.37,0,0,1-1.755-3.858,4.589,4.589,0,0,0-.024-1.278,3.526,3.526,0,0,0-.9-1.359A12.134,12.134,0,0,1,466.4,205.991Z" transform="translate(-284.24 -163.611)" fill="#464353"/>
  <path id="Path_17188" data-name="Path 17188" d="M440.349,230.453a31.247,31.247,0,0,1-.124,3.787c-.11.477-.3.954-.439,1.4a8.2,8.2,0,0,0,.52,5.308,29.563,29.563,0,0,0,2.714,4.7,7.637,7.637,0,0,1,.868,1.626,8.419,8.419,0,0,1,.334,1.855,57.627,57.627,0,0,0,1.326,7.5c.534,2.137,6.6,20.4,8.012,22.1a1.8,1.8,0,0,0,1.087.739,1.98,1.98,0,0,0,.925-.191l2.862-1.1a1.871,1.871,0,0,0,.663-.363,1.707,1.707,0,0,0,.41-1.125c.205-2.327-5.876-20.723-6.648-22.921-2.337-6.639-5.447-13.039-6.968-19.912-.425-1.908-.649-4.846-2.046-6.367-.577-.63-.381-.362-1.073-.033a7.814,7.814,0,0,0-1.011.529A3.31,3.31,0,0,0,440.349,230.453Z" transform="translate(-270.202 -175.176)" fill="#464353"/>
  <path id="Path_17189" data-name="Path 17189" d="M556.62,320.79" transform="translate(-331.431 -224.182)" fill="#464353"/>
  <path id="Path_17190" data-name="Path 17190" d="M458.678,239.131c.768,4.059,1.56,8.108,2.347,12.167l11.2-2.933a7.87,7.87,0,0,0-.954-3.339c-1.021-2.561-1.045-5.413-1.87-8.046-.625-2-1.712-3.844-2.3-5.862-.339-1.173-.51-2.385-.844-3.572a25.92,25.92,0,0,0-1.316-3.41,21.348,21.348,0,0,0-2.442-4.526,7.12,7.12,0,0,0-3.773,2.447,5.282,5.282,0,0,0-.7,2.385c-.2,2.513.715,5.041.415,7.54A22.178,22.178,0,0,0,458.678,239.131Z" transform="translate(-279.847 -171.258)" fill="#7aa93c"/>
  <path id="Path_17191" data-name="Path 17191" d="M481.385,347.188c.63,2.385-.281,4.893-1.026,7.254a56.239,56.239,0,0,0-2.28,10.922,9.453,9.453,0,0,1-.563,2.761c-.353.8-.954,1.469-1.364,2.227-1.125,1.994-1.1,4.426-.854,6.706.162,1.5.405,3,.706,4.479.367,1.808.82,3.7.291,5.461.887-.2,1.488.954,1.431,1.855s-.348,1.908.086,2.685c1.1.4,1.106,1.908,1.073,3.076a25.869,25.869,0,0,0,.763,6.009q2.49,11.971,5.284,23.875c4.03,1.25,8.737,2.552,12.582.82a2.523,2.523,0,0,0,1.593-1.6,2.794,2.794,0,0,0-.153-1.231l-1.822-6.629a12.173,12.173,0,0,1-.653-4.9c.177-1.226.711-2.547.11-3.629-.205-.372-.529-.663-.768-1.016-.954-1.4-.453-3.267-.377-4.96a3.931,3.931,0,0,0-.076-1.135,5.676,5.676,0,0,0-.544-1.245,19.037,19.037,0,0,1-2.1-9.472,2.343,2.343,0,0,0-.167-1.235,4,4,0,0,1-.31-.506,1.383,1.383,0,0,1,.1-.911,8.348,8.348,0,0,1-1.469-1.431,2.056,2.056,0,0,0,.353-3.215,1.073,1.073,0,0,0,.51-1.846c-.234-.162-.544-.234-.711-.477-.258-.353-.048-.844.162-1.221l1.111-2.008c.83-1.493,1.016-3.338,1.908-4.769a35.745,35.745,0,0,0,2.938-6.706l3.21-8.857,2.161,1.874a6.831,6.831,0,0,1,1.774,2.022,8.727,8.727,0,0,1,.577,2.423c.792,4.807,3.815,8.976,4.936,13.712a9.031,9.031,0,0,0,1.021,3.062,6.671,6.671,0,0,1,.582.878,4.653,4.653,0,0,1,.243,1.455,6.788,6.788,0,0,0,2.862,4.865c1.063.73,2.385,1.23,2.962,2.385a4.442,4.442,0,0,0,.477,1.016c.515.62,1.626.692,1.846,1.469.124.434-.1.954.138,1.335a1.264,1.264,0,0,0,.529.4l3.1,1.55c3.472,1.736,5.246,5.723,7.807,8.628a18.6,18.6,0,0,1,2.337,3.091c1.107,1.979,1.617,4.464,3.486,5.723a5.276,5.276,0,0,1,1.355,1.006c.587.773.372,1.855.424,2.828s.8,2.132,1.722,1.836a6.79,6.79,0,0,0,0,3.6,18.123,18.123,0,0,0,11-4.455,4.339,4.339,0,0,0,1.788-3,1.077,1.077,0,0,0-.134-.6,1.7,1.7,0,0,0-.7-.529c-2.9-1.574-3.777-5.223-5.246-8.184-1.283-2.614-3.181-4.865-4.769-7.292-3.453-5.222-5.809-11.542-11.031-14.99-1.149-.758-2.485-1.431-3.062-2.685-.32-.7-.358-1.5-.61-2.227a1.933,1.933,0,0,0-1.631-1.431,10,10,0,0,0,.372-3.463,4.37,4.37,0,0,0-.172-1.493,7.262,7.262,0,0,0-.768-1.478,14.184,14.184,0,0,1-1.965-7.631,12.508,12.508,0,0,0-.134-4.116c-.21-.663-.577-1.269-.83-1.908a11.923,11.923,0,0,1-.6-3.586l-.286-4.583a22.546,22.546,0,0,0-.592-4.531c-.954-3.558-1.908-18.462-5.175-20.141s-8.88,9.791-12.558,10.016a16.352,16.352,0,0,0-4.769.92,23.236,23.236,0,0,0-6.5,4.292l-6.763,5.68A24.918,24.918,0,0,1,481.385,347.188Z" transform="translate(-288.824 -225.327)" fill="#464353"/>
  <path id="Path_17192" data-name="Path 17192" d="M417,166.2a8.5,8.5,0,0,1,6.563-3.2,15.284,15.284,0,0,1,7.254,1.822,8.958,8.958,0,0,0,2.118.868c1.192.243,2.518-.081,3.6.477,1.431.758,1.707,2.69,1.583,4.292s-.425,3.382.429,4.769a11.025,11.025,0,0,1,.825,1.245,4.116,4.116,0,0,1-.067,2.652,17.194,17.194,0,0,1-1.369-1.75,1.612,1.612,0,0,0-1.974-.51c-.615.415-.606,1.169-.639,1.846s-.205,1.488-.844,1.707a1.369,1.369,0,0,1-1.431-.558c-1.092-1.335-.654-3.467-1.736-4.812-.615-.763-1.641-1.135-2.208-1.936-.448-.63-.563-1.431-.954-2.108s-1.3-1.173-1.908-.706a2.579,2.579,0,0,0-.51.682,2.933,2.933,0,0,1-3.482,1.049,5.825,5.825,0,0,0-1.507-.653,1.865,1.865,0,0,0-1.722.954,3.724,3.724,0,0,0-.477,1.994,4.594,4.594,0,0,1-.372,2.733,2.827,2.827,0,0,1-.763.725,2.375,2.375,0,0,1-2.642.272,1.984,1.984,0,0,1-.591-1.851,14.961,14.961,0,0,1,.563-1.955c.42-1.478-.129-3.143.329-4.536A14.477,14.477,0,0,1,417,166.2Z" transform="translate(-256.902 -141.645)" fill="#464353"/>
  <path id="Path_17193" data-name="Path 17193" d="M432.781,217.979a1.736,1.736,0,0,0,.1,1.035,1.647,1.647,0,0,0,.563.539,11.57,11.57,0,0,0,5.313,1.722,1.617,1.617,0,0,1,.734.191,1.291,1.291,0,0,1,.31,1.478,3.852,3.852,0,0,0-.339,1.574c.138,1,1.321,1.431,2.318,1.579a5.391,5.391,0,0,0,4.035-.787,6.233,6.233,0,0,0,1.665-2.494c2.738-6.291,3.7-13.244,6.467-19.516a4.14,4.14,0,0,0,.415-1.307,1.288,1.288,0,0,0-.515-1.2c-.515-.32-1.316-.138-1.664-.639-.172-.253-.153-.6-.305-.863-.32-.568-1.159-.477-1.731-.806-.448-.238-.758-.73-1.259-.825a1.583,1.583,0,0,0-1.3.563c-1.626,1.517-2.48,3.668-3.386,5.7a66.82,66.82,0,0,1-4.846,8.985c.215-.334-1.03-2.862-1.517-2.971-.854-.172-1.946,1.326-2.409,1.884a12,12,0,0,0-2.652,6.162Z" transform="translate(-266.636 -159.774)" fill="#7aa93c"/>
  <path id="Path_17194" data-name="Path 17194" d="M463.318,200.32a2.284,2.284,0,0,0-1.769.887,5.046,5.046,0,0,0-.739,2.385A20.724,20.724,0,0,1,458,211.137" transform="translate(-279.846 -161.169)" opacity="0.1"/>
  <path id="Path_17195" data-name="Path 17195" d="M468.538,204.31a2.723,2.723,0,0,0-2.313,1.388,7.8,7.8,0,0,0-.582,2.356,12.929,12.929,0,0,1-2.313,4.955" transform="translate(-282.634 -163.256)" opacity="0.1"/>
  <path id="Path_17196" data-name="Path 17196" d="M419.28,375.283V369.36a16.445,16.445,0,0,0-16.445-16.44H168.9a16.445,16.445,0,0,0-16.445,16.44v10.922Z" transform="translate(-120.029 -240.988)" fill="#33323d"/>
  <path id="Path_17197" data-name="Path 17197" d="M323.373,298.31s-.668,41.426,6.677,55.057S340.542,426.3,340.542,426.3s77,7.965,130.651-9.539,167.823-24.662,167.823-24.662l-19.24-129.673s-95.048-6.1-149.118,19.693S323.373,298.31,323.373,298.31Z" transform="translate(-209.419 -193.323)" fill="#8dd070"/>
  <path id="Path_17198" data-name="Path 17198" d="M323.373,298.31s-.668,41.426,6.677,55.057S340.542,426.3,340.542,426.3s77,7.965,130.651-9.539,167.823-24.662,167.823-24.662l-19.24-129.673s-95.048-6.1-149.118,19.693S323.373,298.31,323.373,298.31Z" transform="translate(-209.419 -193.323)" opacity="0.1"/>
  <path id="Path_17199" data-name="Path 17199" d="M358.6,323.485s-2.409,34.182,3.634,45.1,6.324,59.679,6.324,59.679,69.294,3.215,118.585-13.564,152.872-27.662,152.872-27.662L628.244,281s-85.7-.882-135.726,22.735S358.6,323.485,358.6,323.485Z" transform="translate(-227.606 -203.365)" fill="#8dd070"/>
  <ellipse id="Ellipse_695" data-name="Ellipse 695" cx="17.99" cy="38.584" rx="17.99" ry="38.584" transform="translate(236.761 117.57) rotate(-7.1)" opacity="0.1"/>
  <path id="Path_17200" data-name="Path 17200" d="M538.294,130.66s-92.339,23.37-135.883,64.505S267.2,255.779,267.2,255.779s12.076,39.628,23.246,50.35,32.355,66.2,32.355,66.2,75.723-16.054,121.413-49.191,152.175-74.988,152.175-74.988Z" transform="translate(-180.045 -124.732)" opacity="0.2"/>
  <path id="Path_17201" data-name="Path 17201" d="M264.29,243.344s12.071,39.633,23.231,50.355,32.355,66.194,32.355,66.194,75.732-16.049,121.427-49.186,152.17-74.974,152.17-74.974l-58.1-117.5S443.045,141.6,399.5,182.735,264.29,243.344,264.29,243.344Z" transform="translate(-178.523 -118.23)" fill="#8dd070"/>
  <path id="Path_17202" data-name="Path 17202" d="M264.29,243.344s12.071,39.633,23.231,50.355,32.355,66.194,32.355,66.194,75.732-16.049,121.427-49.186,152.17-74.974,152.17-74.974l-58.1-117.5S443.045,141.6,399.5,182.735,264.29,243.344,264.29,243.344Z" transform="translate(-178.523 -118.23)" opacity="0.1"/>
  <path id="Path_17203" data-name="Path 17203" d="M308,264.692s8.2,33.276,17.3,41.813,24.324,54.847,24.324,54.847,66.933-18.209,108.7-49.305,137.018-73.195,137.018-73.195L551.6,141.5s-81.837,25.454-122.2,63.284S308,264.692,308,264.692Z" transform="translate(-201.386 -130.402)" fill="#8dd070"/>
  <ellipse id="Ellipse_696" data-name="Ellipse 696" cx="17.99" cy="38.584" rx="17.99" ry="38.584" transform="translate(206.51 99.406) rotate(-24.97)" opacity="0.1"/>
  <path id="Path_17204" data-name="Path 17204" d="M425.611,393.808V558.35a14.227,14.227,0,0,1-14.232,14.227H166.712A14.227,14.227,0,0,1,152.49,558.35V377.22c7.011,2.6,7.011,2.6,14.222,2.385H411.379A14.232,14.232,0,0,1,425.611,393.808Z" transform="translate(-120.044 -253.699)" opacity="0.1"/>
  <path id="Path_17205" data-name="Path 17205" d="M425.611,398.192V562.735a14.232,14.232,0,0,1-14.232,14.227H166.712a14.227,14.227,0,0,1-14.222-14.227V381.6c7.011,2.6,7.011,2.6,14.222,2.385H411.379A14.232,14.232,0,0,1,425.611,398.192Z" transform="translate(-120.044 -255.99)" fill="#504f60"/>
  <path id="Path_17206" data-name="Path 17206" d="M638.864,543.937v52.62H587.832a26.311,26.311,0,1,1,0-52.622Z" transform="translate(-333.994 -340.902)" opacity="0.1"/>
  <path id="Path_17207" data-name="Path 17207" d="M640.324,541v52.63H589.292a26.311,26.311,0,1,1,0-52.622Z" transform="translate(-334.758 -339.367)" fill="#33323d"/>
  <circle id="Ellipse_697" data-name="Ellipse 697" cx="10.259" cy="10.259" r="10.259" transform="translate(246.723 219.089)" opacity="0.1"/>
  <circle id="Ellipse_698" data-name="Ellipse 698" cx="10.259" cy="10.259" r="10.259" transform="translate(247.419 217.696)" fill="#7aa93c"/>
  <path id="Path_17208" data-name="Path 17208" d="M874.24,531.974c.405,4.393-2.919,8.656-1.951,12.958.21.921.606,1.789.749,2.719.4,2.556-1.121,4.974-2.575,7.111l-12.5,18.333a11.4,11.4,0,0,1-1.784,2.2c-2.385,2.127-5.971,1.908-9.11,2.542a15.566,15.566,0,0,0-6.1,2.7.391.391,0,0,0-.057.534,5.246,5.246,0,0,0,4.541,2.132c.329.434,0,1.069-.477,1.378-.672.477-1.593.591-1.726,1.727a1.873,1.873,0,0,0,.229,1.145,3.553,3.553,0,0,0,2.184,1.521c4.326,1.321,9-1,12.238-4.164s5.561-7.154,8.738-10.373c1.76-1.779,3.758-3.305,5.571-5.032a63.765,63.765,0,0,0,9.138-11.823,13.193,13.193,0,0,0,1.979-4.025c.343-1.464.181-2.943.567-4.359.506-1.86,1.865-3.339,3-4.9a16.206,16.206,0,0,0,3.406-10.545c-.291-3.758-2.623-7.474-6.172-8.751a5.484,5.484,0,0,0-3.458-.21,8.214,8.214,0,0,0-3.52,2.8l-2.385,2.742a6.427,6.427,0,0,0-1.383,2.1,2.2,2.2,0,0,0,.477,2.332" transform="translate(-480.093 -330.794)" fill="#fbbebe"/>
  <path id="Path_17209" data-name="Path 17209" d="M874.24,531.974c.405,4.393-2.919,8.656-1.951,12.958.21.921.606,1.789.749,2.719.4,2.556-1.121,4.974-2.575,7.111l-12.5,18.333a11.4,11.4,0,0,1-1.784,2.2c-2.385,2.127-5.971,1.908-9.11,2.542a15.566,15.566,0,0,0-6.1,2.7.391.391,0,0,0-.057.534,5.246,5.246,0,0,0,4.541,2.132c.329.434,0,1.069-.477,1.378-.672.477-1.593.591-1.726,1.727a1.873,1.873,0,0,0,.229,1.145,3.553,3.553,0,0,0,2.184,1.521c4.326,1.321,9-1,12.238-4.164s5.561-7.154,8.738-10.373c1.76-1.779,3.758-3.305,5.571-5.032a63.765,63.765,0,0,0,9.138-11.823,13.193,13.193,0,0,0,1.979-4.025c.343-1.464.181-2.943.567-4.359.506-1.86,1.865-3.339,3-4.9a16.206,16.206,0,0,0,3.406-10.545c-.291-3.758-2.623-7.474-6.172-8.751a5.484,5.484,0,0,0-3.458-.21,8.214,8.214,0,0,0-3.52,2.8l-2.385,2.742a6.427,6.427,0,0,0-1.383,2.1,2.2,2.2,0,0,0,.477,2.332" transform="translate(-480.093 -330.794)" opacity="0.05"/>
  <path id="Path_17210" data-name="Path 17210" d="M918.745,771.578c-2.728,1.665-6.129,1.765-9.3,1.378-.51-.062-1.116-.1-1.431.3-.477.572.086,1.431.668,1.874a13.756,13.756,0,0,0,6.386,2.628,42.016,42.016,0,0,0,6.248.415,105.642,105.642,0,0,0,17.079-.625,2.416,2.416,0,0,0,.954-.277,1.746,1.746,0,0,0,.706-1.073,4.257,4.257,0,0,0-1.483-4.063A12.444,12.444,0,0,0,934.588,770l-4.96-1.932c-1.164-.453-3.029-1.655-4.292-1.559C922.96,766.676,920.714,770.425,918.745,771.578Z" transform="translate(-515.139 -457.318)" fill="#3f3d56"/>
  <path id="Path_17211" data-name="Path 17211" d="M918.745,771.578c-2.728,1.665-6.129,1.765-9.3,1.378-.51-.062-1.116-.1-1.431.3-.477.572.086,1.431.668,1.874a13.756,13.756,0,0,0,6.386,2.628,42.016,42.016,0,0,0,6.248.415,105.642,105.642,0,0,0,17.079-.625,2.416,2.416,0,0,0,.954-.277,1.746,1.746,0,0,0,.706-1.073,4.257,4.257,0,0,0-1.483-4.063A12.444,12.444,0,0,0,934.588,770l-4.96-1.932c-1.164-.453-3.029-1.655-4.292-1.559C922.96,766.676,920.714,770.425,918.745,771.578Z" transform="translate(-515.139 -457.318)" opacity="0.05"/>
  <path id="Path_17212" data-name="Path 17212" d="M933.868,608.22c-2.065,2.747-4.2,5.919-3.692,9.319.277,1.832,1.3,3.448,2.056,5.141a36.288,36.288,0,0,1,2.08,7.23c.772,3.6,1.55,7.2,2.022,10.855.539,4.125-1.993,16.063-2.227,20.217a4.274,4.274,0,0,1-.873,2.8c-.272.286-.635.515-.759.887a1.516,1.516,0,0,0,.167,1.049,11.541,11.541,0,0,0,6.2,5.695c2.656,1.116,9.062,3.043,11.957,3.143a2.382,2.382,0,0,0,1.125-.148,2.187,2.187,0,0,0,.868-1c2.075-3.968.081-18.076.11-22.554.029-3.735.911-7.445.749-11.175-.134-2.995-.954-5.923-1.226-8.909-.477-4.893.42-9.811,1.321-14.647.687-3.71,1.378-7.421,2.26-11.084a21.286,21.286,0,0,1,2.385-6.434c.954-1.541,2.294-2.828,3.405-4.292a19.372,19.372,0,0,0,3.815-14.184c-.067-.477-7.154,1.8-7.779,2.07a24.239,24.239,0,0,0-6.935,4.459,58.293,58.293,0,0,0-4.369,5.4q-3.048,3.715-6.019,7.483Q937.12,603.861,933.868,608.22Z" transform="translate(-526.786 -359.804)" fill="#464353"/>
  <path id="Path_17213" data-name="Path 17213" d="M933.868,607.9c-2.065,2.747-4.2,5.923-3.692,9.319.277,1.836,1.3,3.453,2.056,5.146a36.238,36.238,0,0,1,2.08,7.225c.772,3.6,1.55,7.206,2.022,10.855.539,4.13-1.993,16.063-2.227,20.217a4.286,4.286,0,0,1-.873,2.809c-.272.281-.635.51-.759.882a1.51,1.51,0,0,0,.167,1.049,11.681,11.681,0,0,0,6.2,5.723c2.656,1.145,9.062,2.141,11.957,2.237a2.385,2.385,0,0,0,1.125-.148,2.156,2.156,0,0,0,.868-.992c2.075-3.968.081-17.17.11-21.653.029-3.739.911-7.445.749-11.179-.134-3-.954-5.924-1.226-8.9-.477-4.9.42-9.815,1.321-14.651.687-3.706,1.378-7.416,2.26-11.084a21.286,21.286,0,0,1,2.385-6.434c.954-1.541,2.294-2.828,3.405-4.292a19.363,19.363,0,0,0,3.816-14.184c-.067-.477-7.154,1.8-7.779,2.07a24.341,24.341,0,0,0-6.935,4.464,57.59,57.59,0,0,0-4.369,5.4q-3.048,3.715-6.019,7.488Q937.12,603.532,933.868,607.9Z" transform="translate(-526.786 -359.647)" opacity="0.05"/>
  <circle id="Ellipse_699" data-name="Ellipse 699" cx="11.575" cy="11.575" r="11.575" transform="translate(372.528 164.761)" fill="#fbbebe"/>
  <path id="Path_17214" data-name="Path 17214" d="M899.577,484.517a14.989,14.989,0,0,0,9.61,6.706l-.873,3.172c-1.507,5.447-3.2,11.208-7.407,14.985a6.965,6.965,0,0,0-1.173-5.418,20.42,20.42,0,0,0-3.93-4.106l-6.663-5.771a2.007,2.007,0,0,1-.477-.563,1.693,1.693,0,0,1,0-1.269c.849-2.642,3.272-4.292,5.246-6.076a18.171,18.171,0,0,0,2.637-3.071C897.879,481.208,898.7,483.115,899.577,484.517Z" transform="translate(-505.048 -308.667)" fill="#fbbebe"/>
  <path id="Path_17215" data-name="Path 17215" d="M854.685,453.373l-.262-2.175c1.827.477,3.563-1.078,4.731-2.685s2.251-3.5,4.03-4.173c2.16-.811,4.449.477,6.515,1.564a20.6,20.6,0,0,0,7.474,2.432,4.923,4.923,0,0,1,1.235.2c1.345.477,1.984,2.165,2.179,3.7s.143,3.157.806,4.521c.477,1.035,1.364,1.8,1.908,2.823,1.431,2.738.048,6.482,1.541,9.167l-3.711-3.4c-.339-.31-.815-.634-1.192-.372-.3.21-.32.663-.439,1.026a1.948,1.948,0,0,1-2.642.954,7.574,7.574,0,0,1-2.385-2.161,14.475,14.475,0,0,0-5.885-4.464,7.555,7.555,0,0,0-6.2.41c-1.731.978-3,3.257-5.122,3.339-2.909.11-4.121-5.308-5.466-7.45a2.623,2.623,0,0,0,.763-3.281C852.759,453.264,854.642,453.04,854.685,453.373Z" transform="translate(-485.83 -288.674)" fill="#464353"/>
  <path id="Path_17216" data-name="Path 17216" d="M553.543,318.662a22.507,22.507,0,0,0-2.571,2.7,5.4,5.4,0,0,0-1.183,3.467,1.774,1.774,0,0,0,.334,1.016.858.858,0,0,0,.954.291,1.283,1.283,0,0,0,.477-.42,23.014,23.014,0,0,1,1.6-1.736c.2-.205.477-.42.754-.343a.805.805,0,0,1,.324.215,2.194,2.194,0,0,1,.672,1.049,2.471,2.471,0,0,1-.739,2.032,5.206,5.206,0,0,0-1.245,1.841.816.816,0,0,0,0,.591.888.888,0,0,0,.372.315,5.323,5.323,0,0,0,4.5.3c.954-.386,1.8-1.049,2.785-1.393a6.434,6.434,0,0,0,1.231-.477,2.556,2.556,0,0,0,1.092-1.636,6.742,6.742,0,0,0,.072-2.008,23.084,23.084,0,0,0-1.641-7.55.953.953,0,0,0-.277-.4.883.883,0,0,0-.477-.129c-1.221-.129-3.224-.753-4.4-.3a3.111,3.111,0,0,0-1.04.925C554.921,317.25,553.543,318.342,553.543,318.662Z" transform="translate(-327.857 -221.635)" fill="#a1616a"/>
  <path id="Path_17217" data-name="Path 17217" d="M538.069,270.526c0-1.164-1.431-3.973.844-4.159,0-1.245-1.76-2.017-1.431-3.339.1-.439.477-.8.52-1.245.143-1.273-2.156-1.965-1.774-3.186.143-.477.649-.754.758-1.226.258-1.1-1.712-1.593-1.75-2.723,0-.382.215-.739.2-1.121,0-.477-.415-.839-.644-1.254-.6-1.064-.305-2.709-1.393-3.257.72.062.954-1.006.658-1.66s-.9-1.221-.906-1.946a2.944,2.944,0,0,0,0-.792c-.2-.7-1.34-.754-1.531-1.431a6.106,6.106,0,0,1-.024-.782c-.076-.539-.63-.882-1.149-1.035a4.689,4.689,0,0,1-1.536-.549c-.334-.253-.72-.672-1.078-.477-.134.081-.2.234-.3.348-.429.5-1.249.281-1.788-.086a7.346,7.346,0,0,1-2.724-4.917c-.339-1.893-.329-3.849-.753-5.723a12.266,12.266,0,0,0-.515-1.717,9.033,9.033,0,0,1-.8-1.707c-.086-1.1,2.184-.348,3.047-.238a13.572,13.572,0,0,1,2.475.477A26.473,26.473,0,0,1,529,227.893c3.443,1.521,7.6,1.707,10.369,4.264.911.839,1.679,1.941,2.862,2.323a12.965,12.965,0,0,1,1.6.415c1.311.615,1.516,2.356,2.232,3.615a7.073,7.073,0,0,1,.587,1.049,4.041,4.041,0,0,1,.191,1.335l.1,3.305a121.907,121.907,0,0,1-.267,16.592,13.606,13.606,0,0,0,.062,5.432c.143.477.343.925.477,1.407a8.587,8.587,0,0,1,.181,1.717l.076,2.141a.667.667,0,0,1-.1.477.687.687,0,0,1-.577.138c-2.981-.267-5.995-1.946-8.809-.93" transform="translate(-312.771 -174.577)" fill="#464353"/>
  <ellipse id="Ellipse_700" data-name="Ellipse 700" cx="35.274" cy="5.098" rx="35.274" ry="5.098" transform="translate(326.056 250.295)" fill="#504f60"/>
  <path id="Path_17218" data-name="Path 17218" d="M785.377,403.977c-.62-2.657-1.006-4.989-1.006-4.989a10.279,10.279,0,0,0-1.154-5.06V393.2h0v-5.342a18.211,18.211,0,0,1,1.35-2.8c.954-1.679,0-7.831,0-7.831s-3.563-8.675-2.7-14.179-7.316-24.438-7.316-24.438a24.131,24.131,0,0,1,.768-5.408,4.123,4.123,0,0,0,.105-1.135v-.1c-.124-3.629-3-10.431-3-10.431l.386-12.963s1.831-7.631-1.154-17.909c-1.044-3.582-1.712-6.448-2.136-8.661-.048-.248-.1-.477-.134-.72,6.148-.954,10.845-1.717,10.845-1.717s-3.567-14.923-5.976-17.537-4.335-10.822-4.335-10.822-1.254-10.535.773-13.616,2.313-8.394,2.313-8.394,4.621-3.339,5.2-4.85a24.749,24.749,0,0,0,1.541-6.62c0-1.769-.577-3.339-.386-4.292s-1.35-4.478-.577-6.157a4.513,4.513,0,0,0,.305-1.617.2.2,0,0,0,0-.048h0a22.663,22.663,0,0,0-.405-4.378,12.425,12.425,0,0,0-4.579-2.447l-.1-.4-.262-1.049a5.054,5.054,0,0,0-.453-.267V196.7l-.043-1.517.725-3.405c1.431-5.924-6.482-6.806-6.482-6.806A4.172,4.172,0,0,0,765.255,183c-1.588-.558-.262,8.909.477,9.539a37.319,37.319,0,0,1,3.119,4.884h0l.134.238a3.346,3.346,0,0,0-.362.382l.3,2.056.048.315a8.535,8.535,0,0,0-1.264,2.151,4.64,4.64,0,0,1,1.159,3.339,10.7,10.7,0,0,0,.477,4.1c-.086-.1-1.1-1.2-2.118-.93s-3.854,1.121-3.854,1.121-2.118.372-1.908.839-1.431,2.518-1.431,2.518l-5.695-5.4c-.057-.162-.119-.324-.167-.477a13.137,13.137,0,0,1-.477-2.385,13.022,13.022,0,0,0,1.822-.577,3.93,3.93,0,0,0,1.574-1.011,6.1,6.1,0,0,0,.92-2.456,36.131,36.131,0,0,1,2.113-4.712,15.32,15.32,0,0,0,1.073-8.48,5.534,5.534,0,0,0-.873-2.48c-.93-1.278-2.618-1.8-3.844-2.819s-2.017-2.58-3.448-3.339a6.838,6.838,0,0,0-4.321-.372,23.29,23.29,0,0,0-8.075,2.938,4.2,4.2,0,0,1-2.7.887,3.523,3.523,0,0,1-1.946-1.431.454.454,0,0,1,.024-.076.477.477,0,0,1-.062-.076,10.06,10.06,0,0,0-.887,4.264,5.26,5.26,0,0,0,.029.682v.434h0a1.088,1.088,0,0,1-.043.3,2.171,2.171,0,0,1-.534.768,5.152,5.152,0,0,0-.477.634.789.789,0,0,1,.076-.234,3.391,3.391,0,0,0-.591,1.8,1.837,1.837,0,0,0,.429,1.288,6.2,6.2,0,0,0,.93.744,10.844,10.844,0,0,0-.172,1.908,11.022,11.022,0,0,0,5.37,9.4c.067.157.129.32.191.477a13.581,13.581,0,0,1,1.035,6.2,2.9,2.9,0,0,1-.067.448c-.024.148-.143.157-.205.238h0s-9.41.1-11.623-1.908-5.59,4.9-5.59,4.9-3.372.653-4.049,0-4.622-.091-4.622-.091a8.5,8.5,0,0,0-5.88-2.146,17.263,17.263,0,0,0-4.292-2.385h0l-.1-.038h0a4.807,4.807,0,0,0-2.122-.267s-4.626-3.815-5.976-5.876-7.774-9.667-7.8-9.7v-.367l-.071-1.107a3.969,3.969,0,0,1-.577.048c-.033-.11-.081-.238-.129-.386a21.347,21.347,0,0,0-1.364-3.133s0-1.4.405-1.75-.167-5.48-.167-5.48-4.168-9.744-7.9-2.471c0,0-7.059,4.707-1.135,10.192,0,0,2.385,1.145,2.7,2.051.219.587,1.021,2.232,1.56,3.339l.243.477-.067.057.086.916.038.353c-1.116.634-1.874,1.264-1.688,1.736a10.437,10.437,0,0,1,.672,2.518s8.194,10.264,9.252,14.647c0,0,21.972,13.058,29.2,13.988l-1.278,6.51a51.865,51.865,0,0,0-.286,5.318c.1,1.4-.868,7.741-.868,7.741s-1.254,9.329-2.313,10.636-.868,6.9-.868,6.9a47.131,47.131,0,0,1-1.431,7.927,20.253,20.253,0,0,0-.291,7.931s-3.658,8.394,5.108,2.7c0,0,4.292-.267,9.262-.439v.477c0,.639,0,1.331-.033,2.056-.067,4.807-.1,11.446.124,16.445.386,8.861,3.086,26.4,3.086,26.4v8.828a12.013,12.013,0,0,0-.257,2.518,16.389,16.389,0,0,0,2.385,8.818l.677,5.876s1.583,3.873,1.612,6.2a3.249,3.249,0,0,1-.067.558,3.744,3.744,0,0,0-.076.9c-.091,2.671,1.517,9.062,1.517,9.062s.1,6.434,1.059,6.811c.825.32-1.1,3.706-1.674,4.679a1.32,1.32,0,0,1-.033-.181l-.119.191a4.57,4.57,0,0,0-.3,1.631,2.337,2.337,0,0,0,1.069,2.261c1.831,1.121,2.814,2.051,1.259,2.423a16.179,16.179,0,0,0-1.7.358.733.733,0,0,0-.081-.215,1.02,1.02,0,0,0-.634,1.125,4.766,4.766,0,0,0,.568,2.165,23.614,23.614,0,0,0,2.609,4.769l.739-.081a3.607,3.607,0,0,1-.429.8,3.072,3.072,0,0,1-1.087.954,3.367,3.367,0,0,1-1.321.453,3.72,3.72,0,0,0-2.728,1.326c-.954,1.245-1.564,2.938.334,4.426l6.892,2.385s11.856,1.541,11.227-1.121-1.011-4.989-1.011-4.989a10.515,10.515,0,0,0-.954-4.717,6.121,6.121,0,0,0-.42-.7l.42-.043s.868-5.881,2.022-7c.267-.258.329-.477.267-.61.119-.32-.186-.505-.572-.615l-.086.234a5.62,5.62,0,0,0-1.149-.129s-.386-3.076.868-4.2a1.188,1.188,0,0,0,.243-.916,4.925,4.925,0,0,0-.133-1.254.6.6,0,0,1-.043.076,45.183,45.183,0,0,0-2.766-7.235s-.1-2.795.677-3.916-.1-15.2-.1-15.2.291-6.806-.577-9.977,1.059-6.906,1.059-6.906v-.248l-.11-1.073a.291.291,0,0,0,0,.067c-.2-1.8-.563-5.07-.835-6.577-.386-2.146.1-12.4.1-12.4l1.731-4.388,3.086,7.559L756.67,332.2a8.607,8.607,0,0,1,1.66,4.292v.315a5.5,5.5,0,0,0-.038.672,5.992,5.992,0,0,0,1,3.591s.868,4.769,2.218,5.966a5.355,5.355,0,0,1,1.35,3.544s1.636,6.906,2.385,8.108c.649,1.021.682,3.815.677,4.688h0v.248s.229,2.471.219,4.54v.739a.2.2,0,0,0,0-.052,7.181,7.181,0,0,1-.2,1.679l-.029.1a1.219,1.219,0,0,1,.033-.348,17.528,17.528,0,0,0-.477,4.292c-.043,2.48.334,5.418,1.836,7.154,2.6,2.986,4.24,2.614,4.24,2.614s-1.249,3.73-2.795,4.479a.73.73,0,0,0-.162.1,1.643,1.643,0,0,0-.038-.219,1.818,1.818,0,0,0-.477,1.393,10.005,10.005,0,0,0,1.908,5.528,3.116,3.116,0,0,0,1.3.763,2.08,2.08,0,0,1-.243.148,5.182,5.182,0,0,1-.53.253,2.779,2.779,0,0,1-.787.205,3.672,3.672,0,0,0-2.728,1.326c-.954,1.24-1.564,2.933.334,4.421l6.892,2.385S786,406.633,785.377,403.977Z" transform="translate(-393.7 -148.336)" fill="url(#linear-gradient)"/>
  <path id="Path_17219" data-name="Path 17219" d="M802.147,649.138l-6.677-2.385c-1.841-1.488-1.254-3.181-.324-4.426A3.567,3.567,0,0,1,797.788,641a3.169,3.169,0,0,0,1.273-.453,3.052,3.052,0,0,0,1.059-.954,4.931,4.931,0,0,0,.758-2.58s7.326-2.146,9.329,0a5.43,5.43,0,0,1,.887,1.3,10.9,10.9,0,0,1,.954,4.717s.372,2.327.978,4.989S802.147,649.138,802.147,649.138Z" transform="translate(-455.736 -389.089)" fill="#2d293d"/>
  <path id="Path_17220" data-name="Path 17220" d="M870.587,642.227l-6.677-2.385c-1.841-1.488-1.254-3.181-.324-4.421a3.524,3.524,0,0,1,2.637-1.326,2.477,2.477,0,0,0,.763-.205,5.111,5.111,0,0,0,.515-.253c1.865-1.026,1.817-3.544,1.817-3.544s7.321-2.146,9.329,0a5.278,5.278,0,0,1,.7.954,10.6,10.6,0,0,1,1.116,5.065s.372,2.332.954,4.989S870.587,642.227,870.587,642.227Z" transform="translate(-491.534 -385.47)" fill="#2d293d"/>
  <path id="Path_17221" data-name="Path 17221" d="M816.642,637a5.412,5.412,0,0,1,.887,1.3h0l-10.97,1.274a4.925,4.925,0,0,0,.758-2.58S814.639,634.856,816.642,637Z" transform="translate(-462.166 -389.083)" opacity="0.1"/>
  <path id="Path_17222" data-name="Path 17222" d="M884.062,631.068v2.055c-1.708,2.809-9.963,2.194-12.362.787a5.105,5.105,0,0,0,.515-.253c1.865-1.025,1.817-3.544,1.817-3.544s7.321-2.146,9.329,0A5.291,5.291,0,0,1,884.062,631.068Z" transform="translate(-496.239 -385.48)" opacity="0.1"/>
  <path id="Path_17223" data-name="Path 17223" d="M839.2,494.991a18.7,18.7,0,0,0-1.3,2.8v7.369c-1.87,3.076-11.566,2.051-12.877.372s-2.68-6.047-1.207-6.806,2.7-4.479,2.7-4.479-1.588.372-4.106-2.614-1.77-9.605-1.3-11.189,0-6.9,0-6.9.1-3.734-.649-4.946-2.332-8.108-2.332-8.108a5.49,5.49,0,0,0-1.307-3.544c-1.307-1.211-2.146-5.971-2.146-5.971a6.12,6.12,0,0,1-.93-4.011c.277-2.332-1.588-4.85-1.588-4.85l-3.172-10.078-2.986-7.555-1.679,4.383s-.477,10.259-.091,12.4.954,7.836.954,7.836-1.865,3.73-1.025,6.9.534,9.987.534,9.987.839,14.079.091,15.2-.653,3.92-.653,3.92,3.815,8.2,2.614,9.324-.839,4.2-.839,4.2,2.609,0,1.493,1.121-1.96,7-1.96,7l-11.279,1.321a23.457,23.457,0,0,1-2.523-4.769c-1.493-3.467.277-3.076,1.779-3.453s.553-1.3-1.221-2.423-.744-3.639-.744-3.639,2.7-4.569,1.769-4.941-1.026-6.811-1.026-6.811-1.865-7.631-1.4-9.7-1.493-6.992-1.493-6.992l-.653-5.876a16.168,16.168,0,0,1-2.051-11.1V439.3s-2.614-17.532-2.985-26.394c-.239-5.675-.172-13.421-.1-18.252.048-2.709.1-4.507.1-4.507l40.291-4.2a33.657,33.657,0,0,0,.73,5.986c.415,2.213,1.059,5.079,2.07,8.661,2.89,10.259,1.121,17.9,1.121,17.9l-.377,12.968s3.544,8.671,2.8,11.656a24.855,24.855,0,0,0-.754,5.418s7.927,18.934,7.087,24.438,2.609,14.179,2.609,14.179S840.139,493.313,839.2,494.991Z" transform="translate(-450.079 -258.265)" fill="#464353"/>
  <path id="Path_17224" data-name="Path 17224" d="M852.05,510.906l12.267-1.636S857.368,516.362,852.05,510.906Z" transform="translate(-485.96 -322.77)" opacity="0.05"/>
  <path id="Path_17225" data-name="Path 17225" d="M871.6,484.14s.42,4.34-2.237,5.971C869.36,490.111,874.115,489.367,871.6,484.14Z" transform="translate(-495.015 -309.625)" opacity="0.1"/>
  <path id="Path_17226" data-name="Path 17226" d="M856.568,455.2s-10.254,8.442-13.984,7.741S856.568,455.2,856.568,455.2Z" transform="translate(-480.739 -294.488)" opacity="0.1"/>
  <path id="Path_17227" data-name="Path 17227" d="M811.367,521s-7.788,1.769-8.022,4.9S811.367,521,811.367,521Z" transform="translate(-460.482 -328.905)" opacity="0.1"/>
  <path id="Path_17228" data-name="Path 17228" d="M814.506,602.56s-11,2.051-7.879,3.448a53.414,53.414,0,0,0,8.256,2.518S818.436,608.712,814.506,602.56Z" transform="translate(-461.909 -371.567)" opacity="0.05"/>
  <g id="Group_10682" data-name="Group 10682" transform="translate(333.371 131.591)" opacity="0.05">
    <path id="Path_17229" data-name="Path 17229" d="M801.027,612.7a2.17,2.17,0,0,1-1.006-1.593l-.115.2s-1.025,2.518.749,3.634c.2.129.4.258.572.381.329-.062.682-.11,1.021-.2C803.751,614.753,802.8,613.824,801.027,612.7Z" transform="translate(-791.903 -507.63)"/>
    <path id="Path_17230" data-name="Path 17230" d="M831.735,610.788c.305-.277.3-.992.11-1.908a5.365,5.365,0,0,0-.625,2.7A2.332,2.332,0,0,1,831.735,610.788Z" transform="translate(-808.436 -506.463)"/>
    <path id="Path_17231" data-name="Path 17231" d="M827.934,515.59a12.708,12.708,0,0,0-.744,3.429,13.84,13.84,0,0,1,.854-2.356Z" transform="translate(-806.328 -457.666)"/>
    <path id="Path_17232" data-name="Path 17232" d="M881.365,504.21a4.371,4.371,0,0,0,.1-1.021c-.138.7-.234,1.34-.305,1.908C881.222,504.807,881.289,504.53,881.365,504.21Z" transform="translate(-834.558 -451.18)"/>
    <path id="Path_17233" data-name="Path 17233" d="M827.912,582.845a5.978,5.978,0,0,0,.277-2.075,7.042,7.042,0,0,0-.539,2.618A2.506,2.506,0,0,1,827.912,582.845Z" transform="translate(-806.569 -491.76)"/>
    <path id="Path_17234" data-name="Path 17234" d="M815.419,622a37,37,0,0,0-1.283,5.723l-11.28,1.3a23.46,23.46,0,0,1-2.523-4.769,8.684,8.684,0,0,1-.32-.82c-.677.31-.954,1.011-.057,3.057a23.845,23.845,0,0,0,2.528,4.769l11.28-1.307s.839-5.876,1.955-7C816.292,622.419,815.939,622.138,815.419,622Z" transform="translate(-791.786 -513.326)"/>
    <path id="Path_17235" data-name="Path 17235" d="M792.2,486.064s.091,6.434,1.026,6.806h0c.477-1.064.787-2.075.367-2.242-.954-.372-1.026-6.811-1.026-6.811s-1.865-7.631-1.4-9.7-1.493-6.992-1.493-6.992l-.653-5.876a16.169,16.169,0,0,1-2.051-11.1v-9.062s-2.614-17.532-2.986-26.394c-.238-5.675-.172-13.421-.1-18.252,0-.873.029-1.645.043-2.3l-.319.033s-.053,1.793-.1,4.507c-.076,4.831-.148,12.577.1,18.247.372,8.861,2.981,26.4,2.981,26.4v9.062a16.177,16.177,0,0,0,2.056,11.1l.649,5.876s1.96,4.941,1.493,7S792.2,486.064,792.2,486.064Z" transform="translate(-783.448 -394.14)"/>
    <path id="Path_17236" data-name="Path 17236" d="M868.975,626.6a10.9,10.9,0,0,1-1.789-4.431c-1.149,1.04.172,5.075,1.431,6.677,1.3,1.679,11,2.7,12.877-.377V626.7C878.953,629.19,870.205,628.189,868.975,626.6Z" transform="translate(-827.019 -513.415)"/>
    <path id="Path_17237" data-name="Path 17237" d="M899.707,609.292a18.859,18.859,0,0,0-1.307,2.8v1.321a19.627,19.627,0,0,1,.954-1.87,5.721,5.721,0,0,0,.41-2.313S899.721,609.273,899.707,609.292Z" transform="translate(-843.575 -506.646)"/>
    <path id="Path_17238" data-name="Path 17238" d="M866.761,597.333a18.482,18.482,0,0,0,.921-2.218s-1.588.372-4.106-2.614c-1.832-2.17-1.937-6.271-1.674-8.952-.477,1.588-1.216,8.208,1.3,11.194C864.848,596.694,866.093,597.209,866.761,597.333Z" transform="translate(-824.232 -493.214)"/>
    <path id="Path_17239" data-name="Path 17239" d="M844.353,512.814a49.728,49.728,0,0,1,.186,5.528,7.524,7.524,0,0,1,.191-.863c.477-1.588,0-6.9,0-6.9s.1-3.734-.654-4.946-2.308-8.117-2.308-8.117a5.491,5.491,0,0,0-1.307-3.544c-1.307-1.211-2.146-5.971-2.146-5.971a6.137,6.137,0,0,1-.954-4.011c.282-2.332-1.583-4.85-1.583-4.85l-3.172-10.073-2.986-7.555-1.684,4.388s0,.553-.057,1.431l1.364-3.563,2.986,7.54,3.172,10.073s1.865,2.518,1.583,4.85a6.138,6.138,0,0,0,.954,4.011s.839,4.769,2.146,5.971a5.459,5.459,0,0,1,1.3,3.544s1.588,6.9,2.332,8.108S844.353,512.814,844.353,512.814Z" transform="translate(-806.689 -429.379)"/>
  </g>
  <path id="Path_17240" data-name="Path 17240" d="M868.787,199.645l-.7,3.405.043,1.517.029,1.116-3.892.4-.434-.806h0a36.136,36.136,0,0,0-3.019-4.884c-.72-.6-2-10.073-.477-9.51a4.069,4.069,0,0,1,2.165,1.96S870.165,193.721,868.787,199.645Z" transform="translate(-489.92 -156.22)" fill="#ffcdd3"/>
  <path id="Path_17241" data-name="Path 17241" d="M872.776,220.216l-3.892.4-.434-.806h0a3.429,3.429,0,0,1,4.292-.706Z" transform="translate(-494.539 -170.753)" opacity="0.1"/>
  <path id="Path_17242" data-name="Path 17242" d="M873.512,222.45l-5.132,1.188-.11-.763-.291-2.056a3.532,3.532,0,0,1,4.97-.677l.258,1.044Z" transform="translate(-494.293 -171.141)" fill="#00aeef"/>
  <path id="Path_17243" data-name="Path 17243" d="M691.719,192.106l-5.48,2.938-.477-1.03c-.52-1.092-1.3-2.738-1.512-3.339-.324-.906-2.609-2.051-2.609-2.051-5.723-5.48,1.1-10.192,1.1-10.192,3.615-7.273,7.631,2.471,7.631,2.471s.563,5.137.167,5.48-.4,1.75-.4,1.75a21.524,21.524,0,0,1,1.321,3.133C691.628,191.787,691.719,192.106,691.719,192.106Z" transform="translate(-395.629 -148.309)" fill="#ffcdd3"/>
  <path id="Path_17244" data-name="Path 17244" d="M698.747,209.11l-5.48,2.938-.477-1.03c.773-.649,3.515-2.862,4.417-2.771a6.6,6.6,0,0,0,1.3.033C698.656,208.791,698.747,209.11,698.747,209.11Z" transform="translate(-402.657 -165.313)" opacity="0.1"/>
  <path id="Path_17245" data-name="Path 17245" d="M699.467,211.178l-6.157,3.033-.124-1.321-.086-.916s3.567-3.057,4.621-2.938a5.6,5.6,0,0,0,1.607,0l.071,1.107Z" transform="translate(-402.819 -165.726)" fill="#00aeef"/>
  <path id="Path_17246" data-name="Path 17246" d="M822.929,233.892s-26.842,3.029-21.824,1.4c3.491-1.14,4.879-3.339,5.17-5.819a13.976,13.976,0,0,0-1-6.2,27.039,27.039,0,0,0-2.384-4.85S823.4,207.136,819.3,217.4a16.535,16.535,0,0,0-1.164,4.86,13.727,13.727,0,0,0,.529,4.922A14.656,14.656,0,0,0,822.929,233.892Z" transform="translate(-458.986 -167.847)" fill="#ffcdd3"/>
  <path id="Path_17247" data-name="Path 17247" d="M821.937,217.365a16.539,16.539,0,0,0-1.164,4.86c-1.932,1.626-4.049,1.517-6.773,1.517-2.089,0-4.407.506-6.076-.5a27.033,27.033,0,0,0-2.385-4.85S826.043,207.106,821.937,217.365Z" transform="translate(-461.633 -167.831)" opacity="0.1"/>
  <circle id="Ellipse_701" data-name="Ellipse 701" cx="11.098" cy="11.098" r="11.098" transform="translate(340.907 34.43)" fill="#ffcdd3"/>
  <path id="Path_17248" data-name="Path 17248" d="M822.929,248.059s-26.842,3.029-21.824,1.4c3.491-1.14,4.879-3.339,5.17-5.819,1.335-1.431,4.021-2.494,5.723-3.048a8.031,8.031,0,0,1,4.865-.081,6.914,6.914,0,0,1,1.77.82A14.655,14.655,0,0,0,822.929,248.059Z" transform="translate(-458.986 -182.014)" opacity="0.1"/>
  <path id="Path_17249" data-name="Path 17249" d="M873.831,224.226l-5.132,1.188-.11-.763a4.54,4.54,0,0,1,4.936-1.688Z" transform="translate(-494.612 -172.918)" opacity="0.1"/>
  <path id="Path_17250" data-name="Path 17250" d="M699.561,212.39l-6.157,3.033-.124-1.321a44.9,44.9,0,0,1,6.2-2.752Z" transform="translate(-402.913 -166.938)" opacity="0.1"/>
  <path id="Path_17251" data-name="Path 17251" d="M824.716,391.955c-10.4,1.66-25.187,3.777-27.533,3.062-1.951-.591-8.17-.529-13.583-.343.048-2.709.1-4.507.1-4.507l40.291-4.2A33.674,33.674,0,0,0,824.716,391.955Z" transform="translate(-450.157 -258.276)" opacity="0.1"/>
  <path id="Path_17252" data-name="Path 17252" d="M786.071,298.578s-34.23,5.876-37.9,4.769-22.535.091-22.535.091c-8.489,5.69-4.946-2.7-4.946-2.7a20.867,20.867,0,0,1,.281-7.927,48.4,48.4,0,0,0,1.407-7.936s-.186-5.6.839-6.906,2.242-10.631,2.242-10.631.93-6.343.839-7.741.276-5.318.276-5.318l1.216-6.529c-7-.93-28.263-13.988-28.263-13.988-1.025-4.383-8.952-14.642-8.952-14.642a10.809,10.809,0,0,0-.653-2.518c-.558-1.493,7.836-4.478,7.836-4.478s6.248,7.631,7.555,9.7,5.781,5.876,5.781,5.876a4.5,4.5,0,0,1,2.051.267l.11.033h0a16.625,16.625,0,0,1,4.173,2.385,8.108,8.108,0,0,1,5.69,2.146s3.815-.563,4.478.091,3.916,0,3.916,0,3.262-6.9,5.408-4.9,11.251,1.908,11.251,1.908c1.211-1.612,4.163-2.766,6.009-3.339a8.065,8.065,0,0,1,4.865-.081,6.171,6.171,0,0,1,1.908.954l5.537,5.408s1.583-2.056,1.4-2.518,1.865-.839,1.865-.839,2.7-.839,3.73-1.121,1.965.83,2.051.93a11.155,11.155,0,0,1-.477-4.1,4.845,4.845,0,0,0-1.121-3.339c3.262-8.022,10.631-1.307,10.631-1.307s.839,4.383.1,6.062.744,5.222.558,6.157.377,2.518.377,4.292a26.224,26.224,0,0,1-1.493,6.62c-.539,1.493-5.036,4.85-5.036,4.85s-.281,5.318-2.242,8.394-.73,13.6-.73,13.6,1.865,8.208,4.2,10.822S786.071,298.578,786.071,298.578Z" transform="translate(-401.142 -167.341)" fill="#3f3d56"/>
  <path id="Path_17253" data-name="Path 17253" d="M781.814,258.469s-1.026-3.076-1.96-3.339a21.562,21.562,0,0,1-2.7-1.211l.6-1.149s3.5.954,4.063,1.989S781.814,258.469,781.814,258.469Z" transform="translate(-446.783 -188.603)" opacity="0.1"/>
  <path id="Path_17254" data-name="Path 17254" d="M738.309,247.777c-.186.954-8.489,1.769-8.489,1.769l4.2-4.207h0l.105.038h0A16.624,16.624,0,0,1,738.309,247.777Z" transform="translate(-422.026 -184.717)" opacity="0.1"/>
  <circle id="Ellipse_702" data-name="Ellipse 702" cx="0.744" cy="0.744" r="0.744" transform="translate(291.521 49.515)" fill="#575988"/>
  <circle id="Ellipse_703" data-name="Ellipse 703" cx="0.744" cy="0.744" r="0.744" transform="translate(292.475 51.008)" fill="#575988"/>
  <circle id="Ellipse_704" data-name="Ellipse 704" cx="0.744" cy="0.744" r="0.744" transform="translate(293.41 52.386)" fill="#575988"/>
  <circle id="Ellipse_705" data-name="Ellipse 705" cx="0.744" cy="0.744" r="0.744" transform="translate(294.387 53.874)" fill="#575988"/>
  <circle id="Ellipse_706" data-name="Ellipse 706" cx="0.606" cy="0.606" r="0.606" transform="translate(382.444 53.932)" fill="#575988"/>
  <circle id="Ellipse_707" data-name="Ellipse 707" cx="0.606" cy="0.606" r="0.606" transform="translate(382.539 55.31)" fill="#575988"/>
  <circle id="Ellipse_708" data-name="Ellipse 708" cx="0.606" cy="0.606" r="0.606" transform="translate(382.62 56.684)" fill="#575988"/>
  <path id="Path_17255" data-name="Path 17255" d="M787,317.72c-.091-.11,20.937,26.441,37.258,11.1C824.272,328.823,798.484,332.318,787,317.72Z" transform="translate(-451.935 -222.576)" opacity="0.1"/>
  <path id="Path_17256" data-name="Path 17256" d="M761.7,346.66s12.581.343,13.9,3.963v3.768a2.413,2.413,0,0,1-2.342,0c-1.269-.687-8.876-4.55-11.556-2.69Z" transform="translate(-438.701 -237.714)" opacity="0.1"/>
  <path id="Path_17257" data-name="Path 17257" d="M762.19,346.66s12.033.329,13.292,3.782v3.587a2.308,2.308,0,0,1-2.242,0c-1.211-.649-8.485-4.335-11.051-2.561Z" transform="translate(-438.958 -237.714)" fill="#3f3d56"/>
  <path id="Path_17258" data-name="Path 17258" d="M776.1,289.38a40.48,40.48,0,0,0,4.879,8.37,32.844,32.844,0,0,0,7.631,7.378S776.31,291.107,776.1,289.38Z" transform="translate(-446.234 -207.753)" opacity="0.1"/>
  <path id="Path_17259" data-name="Path 17259" d="M767.47,258.73s2.1,9.062,7.507,12.138Z" transform="translate(-441.719 -191.721)" opacity="0.1"/>
  <path id="Path_17260" data-name="Path 17260" d="M760.514,260.647c-.052-.167-1.865,7.154,6.973,11.222C767.487,271.869,763.734,270.6,760.514,260.647Z" transform="translate(-437.983 -192.722)" opacity="0.1"/>
  <path id="Path_17261" data-name="Path 17261" d="M875.906,247.9c-.138,0,4.359,2.862,5.585,4.2C881.491,252.1,878.563,247.713,875.906,247.9Z" transform="translate(-498.437 -186.055)" opacity="0.1"/>
  <path id="Path_17262" data-name="Path 17262" d="M806.107,207.307a1.75,1.75,0,0,0,1.908,1.731c3.381.21,6.906.358,10.016-.954a3.818,3.818,0,0,0,1.526-1.011,6.273,6.273,0,0,0,.887-2.456,35.7,35.7,0,0,1,2.046-4.712,15.788,15.788,0,0,0,1.1-8.466,5.72,5.72,0,0,0-.849-2.475c-.9-1.283-2.532-1.8-3.72-2.823s-1.951-2.58-3.339-3.339a6.409,6.409,0,0,0-4.187-.372,21.98,21.98,0,0,0-7.812,2.933,3.986,3.986,0,0,1-2.614.887,3.5,3.5,0,0,1-1.908-1.474,10.332,10.332,0,0,0-.8,4.841,2.074,2.074,0,0,1-.024.73,2.2,2.2,0,0,1-.52.768c-.834.954-1.354,2.5-.529,3.486.358.424.911.658,1.259,1.092.625.777.415,1.908.4,2.9a1.492,1.492,0,0,0,.248.982,1.431,1.431,0,0,0,1.369.329,3.725,3.725,0,0,1,1.459-.138,2.447,2.447,0,0,1,1.269.954A17.928,17.928,0,0,1,806.107,207.307Z" transform="translate(-457.101 -151.72)" fill="#2d293d"/>
  <g id="Group_10683" data-name="Group 10683" transform="translate(339.776 32.956)" opacity="0.1">
    <path id="Path_17263" data-name="Path 17263" d="M819.953,216.4a3.815,3.815,0,0,1-1.526,1.011c-3.129,1.3-6.649,1.154-10.016.954a1.755,1.755,0,0,1-1.913-1.736,17.4,17.4,0,0,0-2.828-6.563,2.451,2.451,0,0,0-1.269-.978,3.912,3.912,0,0,0-1.459.138,1.431,1.431,0,0,1-1.369-.324,1.493,1.493,0,0,1-.248-.983c0-1,.224-2.122-.4-2.9-.348-.434-.9-.668-1.259-1.1a2.175,2.175,0,0,1-.215-2.223,2.542,2.542,0,0,0-.157,2.971c.358.424.911.658,1.259,1.092.625.782.415,1.908.4,2.9a1.482,1.482,0,0,0,.243.982,1.431,1.431,0,0,0,1.373.329,3.726,3.726,0,0,1,1.459-.138,2.446,2.446,0,0,1,1.269.954,17.429,17.429,0,0,1,2.828,6.567,2.385,2.385,0,0,0,.825,1.512A2.313,2.313,0,0,0,808,219.1c3.382.21,6.906.363,10.016-.954a3.776,3.776,0,0,0,1.526-1.011,2.913,2.913,0,0,0,.477-.9A.235.235,0,0,1,819.953,216.4Z" transform="translate(-796.877 -194.846)"/>
    <path id="Path_17264" data-name="Path 17264" d="M799.966,192.71a1.63,1.63,0,0,0,.339-.563,2.076,2.076,0,0,0,0-.73,10.345,10.345,0,0,1,.52-4.016l-.062-.072a10.254,10.254,0,0,0-.8,4.836A3.427,3.427,0,0,1,799.966,192.71Z" transform="translate(-798.476 -187.33)"/>
  </g>
  <path id="Path_17265" data-name="Path 17265" d="M812.08,248.613s13.864,1.841,15.109-.243" transform="translate(-465.054 -186.302)" opacity="0.1"/>
  <path id="Path_17266" data-name="Path 17266" d="M868.59,236.85s7.707,0,9.4,2.9" transform="translate(-494.612 -180.276)" opacity="0.1"/>
  <path id="Path_17267" data-name="Path 17267" d="M947.822,769.682a12.225,12.225,0,0,1-8.323,3.109c-.782,0-1.865.148-1.869.93a1.31,1.31,0,0,0,.229.639,7.654,7.654,0,0,0,4.292,3.372,15.167,15.167,0,0,0,5.194.329l5.08-.262c.954-.052,1.908-.1,2.862-.219s1.993-.315,2.99-.477a39.123,39.123,0,0,1,7.4-.343,2.24,2.24,0,0,0,1.822-.477c.391-.477.191-1.388.043-2.1-.305-1.474,0-3.019-.281-4.5-.477-2.594-2.723-4.583-5.184-5.523-2.289-.868-6.343-1.865-8.508-.415C951.28,765.265,949.882,767.807,947.822,769.682Z" transform="translate(-530.725 -455.492)" fill="#3f3d56"/>
  <path id="Path_17268" data-name="Path 17268" d="M958.394,583.126c.448,2.132,2.513,3.763,2.571,5.938.052,1.746-1.192,3.21-2.089,4.7a31.408,31.408,0,0,0-2.132,4.827,73.681,73.681,0,0,1-6.257,12.448c-1.192,1.908-2.528,3.944-2.256,6.162a9.237,9.237,0,0,0,1.083,2.948l3.577,7.106a20.578,20.578,0,0,1,1.826,4.488c.31,1.35.339,2.747.52,4.121.563,4.359,2.609,8.747,1.4,12.973-.1.362-.477.8-.768.548a13.593,13.593,0,0,1,2.041,6.935c-.048,1.311-.448,2.68.033,3.9a4.271,4.271,0,0,1,.558,1.536,9.822,9.822,0,0,1-.205,1.054,2.325,2.325,0,0,0,1.784,2.165c.959.319,2,.3,2.971.587,1.86.558,3.191,2.16,4.769,3.272a10.157,10.157,0,0,0,5.494,1.788,1.381,1.381,0,0,0,.811-.162,1.311,1.311,0,0,0,.448-.982,5.457,5.457,0,0,0-1.965-4.741,2.149,2.149,0,0,1-.73-.763,1.844,1.844,0,0,1-.067-.854,64.265,64.265,0,0,0-.21-11.732,17.834,17.834,0,0,1-.186-3.735,15.237,15.237,0,0,0,.3-3.1,16.489,16.489,0,0,0-.954-2.976,21.45,21.45,0,0,1-.477-5.537,48.577,48.577,0,0,0-1.569-9.539,7.218,7.218,0,0,0-1.483-3.443c-.744-.777-1.946-1.521-1.665-2.556a3.031,3.031,0,0,1,.682-1.016,4.078,4.078,0,0,0,.849-3.11,1.4,1.4,0,0,0,1.607-.754,25.147,25.147,0,0,0,12.582-14.308,4.722,4.722,0,0,1,.563-1.278,5.761,5.761,0,0,1,2.3-1.493c2.6-1.312,4.4-3.768,6.052-6.172a10.908,10.908,0,0,0,2.656-7.7l.148-5.6a3.025,3.025,0,0,0-.1-1.1,2.737,2.737,0,0,0-.606-.887,10.772,10.772,0,0,0-5.943-3.2c-1.526-.272-3.086-.219-4.631-.348-3-.248-5.952-1.178-8.948-.954-4.707.348-8.9,3.61-11.117,7.779C960.884,581.82,960.063,583.1,958.394,583.126Z" transform="translate(-536.251 -355.863)" fill="#464353"/>
  <path id="Path_17269" data-name="Path 17269" d="M909.075,504.767a6.261,6.261,0,0,1-.344,2.552,1.783,1.783,0,0,1-2.094,1.073c.243-.549-.4-1.173-1-1.107a1.875,1.875,0,0,0-1.321,1.135,4.221,4.221,0,0,0-.381,2.59c.191,1.1.825,2.151.658,3.253-.134.916-.806,1.827-.448,2.676a4.333,4.333,0,0,0,.864,1.035,2.919,2.919,0,0,1-.31,4.006l9.024.181a6.372,6.372,0,0,0,1.121,4.388,27.663,27.663,0,0,0,20.623,13.464,1.793,1.793,0,0,0-.434,2.742,2.548,2.548,0,0,0,2.9.167,20.642,20.642,0,0,0,2.48-1.86,7.631,7.631,0,0,1,5.1-1.374c1.13.11,2.227.477,3.362.534,3.339.177,6.2-2.227,9.415-3.21,2.342-.72,5-.72,6.963-2.184a2.775,2.775,0,0,0,1.3-2.685,4.5,4.5,0,0,0-.954-1.579,27.262,27.262,0,0,1-2.609-4.888,29.239,29.239,0,0,0-6.52-8.737,58.3,58.3,0,0,0-6.467-4.9,11.027,11.027,0,0,0-1.746-1.054,19.53,19.53,0,0,1-2.385-.954,12.7,12.7,0,0,1-2.485-2.795c-1.789-2.089-4.536-3.047-6.739-4.688-1.479-1.1-2.785-2.552-4.55-3.081-.859-.262-1.77-.281-2.628-.539-1.95-.591-3.372-2.323-5.284-3.024-1.512-.553-3.181-.41-4.769-.606a11.166,11.166,0,0,1-4.984-1.9,5.916,5.916,0,0,0-1.588-.925c-2.418-.734-2.614,3.768-2.862,5.327A51.383,51.383,0,0,0,909.075,504.767Z" transform="translate(-513.068 -313.941)" fill="#7aa93c"/>
  <path id="Path_17270" data-name="Path 17270" d="M883.062,541.939c.405,4.4-2.914,8.656-1.946,12.963.205.916.6,1.788.744,2.719.405,2.552-1.121,4.97-2.575,7.106l-12.5,18.338a11.556,11.556,0,0,1-1.784,2.2c-2.385,2.122-5.971,1.908-9.11,2.537a15.74,15.74,0,0,0-6.1,2.7.4.4,0,0,0-.076.549,5.247,5.247,0,0,0,4.536,2.132c.329.429,0,1.068-.453,1.378-.668.477-1.593.587-1.727,1.726a1.909,1.909,0,0,0,.229,1.145,3.562,3.562,0,0,0,2.184,1.517c4.326,1.326,9-1,12.238-4.164s5.561-7.154,8.738-10.369c1.76-1.784,3.758-3.305,5.571-5.031a63.729,63.729,0,0,0,9.138-11.823,13.088,13.088,0,0,0,1.979-4.025c.338-1.464.181-2.948.567-4.364.506-1.855,1.865-3.339,3-4.894a16.182,16.182,0,0,0,3.405-10.55c-.3-3.763-2.623-7.474-6.172-8.752a5.546,5.546,0,0,0-3.458-.21,8.192,8.192,0,0,0-3.52,2.8l-2.385,2.738a6.387,6.387,0,0,0-1.34,2.1,2.2,2.2,0,0,0,.477,2.337" transform="translate(-484.698 -336.013)" fill="#fbbebe"/>
  <path id="Path_17271" data-name="Path 17271" d="M924.139,512c-1.641.1-3.448.257-4.607,1.431a6.557,6.557,0,0,0-1.164,1.822,18.14,18.14,0,0,0-2.3,7.249,33.171,33.171,0,0,0,.834,6.057c.258,1.679-.4,3.391-.52,5.089a35.328,35.328,0,0,0,6.572-2.528,22.02,22.02,0,0,1,3.849-2c1.96-.653,5.246.477,7.111,1.383.1-1.307-.883-3.586-.777-4.9a5.467,5.467,0,0,1,.291-1.622,9.844,9.844,0,0,1,.987-1.569,6.419,6.419,0,0,0-.577-7.521c-1.655-1.86-4.244-2.556-6.715-2.862a29.028,29.028,0,0,0-4.688-.162" transform="translate(-519.441 -324.117)" fill="#7aa93c"/>
</svg>
