<svg xmlns="http://www.w3.org/2000/svg" width="88.656" height="65.384" viewBox="0 0 88.656 65.384">
  <path id="p1" d="M88.656,80.731v6.649a1.478,1.478,0,0,1-1.478,1.478H1.478A1.478,1.478,0,0,1,0,87.381V80.731a1.478,1.478,0,0,1,1.478-1.478h85.7A1.478,1.478,0,0,1,88.656,80.731Zm0-5.91V70.388A7.388,7.388,0,0,0,81.268,63H7.388A7.388,7.388,0,0,0,0,70.388v4.433A1.478,1.478,0,0,0,1.478,76.3h85.7A1.478,1.478,0,0,0,88.656,74.821ZM71.185,104.08a1.487,1.487,0,0,0-1.124,2,7.757,7.757,0,0,1,0,5.455,1.478,1.478,0,0,0,1.079,1.99,4.8,4.8,0,1,0,.046-9.444ZM1.478,91.813h85.7a1.478,1.478,0,0,1,1.478,1.478V121a7.388,7.388,0,0,1-7.388,7.388H7.388A7.388,7.388,0,0,1,0,121V93.291A1.478,1.478,0,0,1,1.478,91.813Zm25.858,21.61a1.478,1.478,0,0,0-1.478-1.478H13.483a1.478,1.478,0,1,0,0,2.955H25.858A1.478,1.478,0,0,0,27.336,113.423Zm0-9.235a1.478,1.478,0,0,0-1.478-1.478H13.483a1.478,1.478,0,1,0,0,2.955H25.858A1.478,1.478,0,0,0,27.336,104.188Zm52.455,4.618a7.764,7.764,0,0,0-12.375-6.229,7.755,7.755,0,1,0,0,12.458A7.764,7.764,0,0,0,79.791,108.806Z" transform="translate(0 -63)" fill="#8595aa"/>
</svg>
