<svg xmlns="http://www.w3.org/2000/svg" width="82.818" height="83.529" viewBox="0 0 82.818 83.529">
  <g id="p2" transform="translate(-4.18 -3.783)">
    <g id="Group" transform="translate(18.411 29.392)">
      <path id="Path" d="M80.09,43.624a.958.958,0,0,0-.9-.551h-2.8V38.627a6.516,6.516,0,0,0-6.516-6.507H61.943a1.193,1.193,0,0,0-1.193,1.193v1.7A1.193,1.193,0,0,0,61.943,36.2h7.935A2.431,2.431,0,0,1,72.3,38.627v4.446H69.263a.958.958,0,0,0-.9.551.976.976,0,0,0,.154,1.039l4.98,6.127a.967.967,0,0,0,1.491,0l4.97-6.127A.976.976,0,0,0,80.09,43.624Z" transform="translate(-23.857 -32.12)" fill="#8595aa"/>
      <path id="Path-2" data-name="Path" d="M38.375,69.982H30.332A2.431,2.431,0,0,1,27.91,67.56V63.141h2.928a.967.967,0,0,0,.75-1.582l-4.97-6.118a.985.985,0,0,0-.75-.361.958.958,0,0,0-.75.361l-4.98,6.118a.976.976,0,0,0,.759,1.582h2.91v4.446a6.516,6.516,0,0,0,6.507,6.507h8.043a1.084,1.084,0,0,0,1.084-1.084V71.058a1.075,1.075,0,0,0-1.066-1.075Z" transform="translate(-19.927 -34.331)" fill="#8595aa"/>
    </g>
    <path id="Compound_Path" data-name="Compound Path" d="M54.246,21.222,30.171,4.051a1.654,1.654,0,0,0-1.807,0L4.37,21.15a.461.461,0,0,0-.19.38v3.534a.425.425,0,0,0,.4.443h8.305V38.655H9.638a.9.9,0,0,0-.9.9v.8h-1.1a1.2,1.2,0,0,0-1.175,1.22v2.16a1.193,1.193,0,0,0,1.175,1.229H51.011a1.193,1.193,0,0,0,1.13-1.229V41.574a1.2,1.2,0,0,0-1.13-1.2H49.863v-.8a.9.9,0,0,0-.859-.9H46.086V25.524h7.926a.416.416,0,0,0,.407-.443V21.6A.506.506,0,0,0,54.246,21.222ZM34.437,34.236a4.519,4.519,0,0,1-1.5,1.545,6.787,6.787,0,0,1-2.232.849c-.117,0-.587,0-.587.063v.723c0,.47.108.958-.352.958h-1.41c-.334,0-.7.081-.7-.47v-1.03a16.509,16.509,0,0,1-2.033-.217,7.23,7.23,0,0,1-1.636-.551.524.524,0,0,1-.262-.5V33.332a.533.533,0,0,1,.8-.5,5.91,5.91,0,0,0,1.283.651,6.923,6.923,0,0,0,2.4.434,5.115,5.115,0,0,0,1.247-.117,2.838,2.838,0,0,0,.9-.352,1.663,1.663,0,0,0,.533-.533,1.347,1.347,0,0,0,.172-.678,1.446,1.446,0,0,0-.28-.9,3.28,3.28,0,0,0-.768-.714A7.447,7.447,0,0,0,28.87,30c-.452-.208-.9-.416-1.446-.624a7.356,7.356,0,0,1-2.928-2,4.374,4.374,0,0,1-.976-2.856,4.519,4.519,0,0,1,.506-2.25,4.392,4.392,0,0,1,1.392-1.545,6.1,6.1,0,0,1,2.015-.9c.127,0,.235-.063.235-.09V18.592c0-.389.3-.38.307-.38h1.88a.3.3,0,0,1,.271.316v1.039a13.764,13.764,0,0,1,2.151.145,13.068,13.068,0,0,1,1.807.352c.226.072.506.3.506.542v2.106a.678.678,0,0,1-.949.506h-.217a6.9,6.9,0,0,0-1.021-.371,7.456,7.456,0,0,0-1.048-.217,7.781,7.781,0,0,0-.985-.072,4.736,4.736,0,0,0-1.175.127,2.919,2.919,0,0,0-.9.343,1.654,1.654,0,0,0-.56.524,1.356,1.356,0,0,0-.2.7,1.283,1.283,0,0,0,.226.75,2.332,2.332,0,0,0,.633.633,6.452,6.452,0,0,0,.985.578c.389.19.831.389,1.319.6a14.649,14.649,0,0,1,1.807.9,6.109,6.109,0,0,1,1.338,1.021,3.967,3.967,0,0,1,.9,1.365,4.7,4.7,0,0,1,.28,1.807A4.781,4.781,0,0,1,34.437,34.236Z" transform="translate(0)" fill="#8595aa"/>
    <path id="Compound_Path-2" data-name="Compound Path" d="M82.57,58.47H49.63A2.612,2.612,0,0,0,47,61.082V83.738a1.03,1.03,0,0,0,1.03,1.021H84.143a1.03,1.03,0,0,0,1.03-1.021V61.073a2.6,2.6,0,0,0-2.6-2.6ZM79.453,79.735a.56.56,0,0,1-.56.56H53.326a.56.56,0,0,1-.56-.56V64.091a.56.56,0,0,1,.56-.56H78.9a.56.56,0,0,1,.56.56Z" transform="translate(-4.123 -5.265)" fill="#8595aa"/>
    <path id="Path-3" data-name="Path" d="M90.38,90.33a.108.108,0,0,1,.108.108,7.329,7.329,0,0,1-1.645,3.7,6.227,6.227,0,0,1-4.121,1.509H46.2c-2.919,0-5.341-2.711-5.757-5.205a.112.112,0,0,1,.117-.108h19.1a.108.108,0,0,1,.117.1h0a1.184,1.184,0,0,0,1.247,1.1h8.838a1.184,1.184,0,0,0,1.247-1.1h0a.108.108,0,0,1,.117-.1Z" transform="translate(-3.491 -8.333)" fill="#8595aa"/>
    <path id="Path-4" data-name="Path" d="M70.715,73.4a2.2,2.2,0,0,0-.461-.714,3.109,3.109,0,0,0-.732-.569,7.735,7.735,0,0,0-.9-.47c-.262-.108-.5-.217-.7-.316a3.09,3.09,0,0,1-.524-.307,1.464,1.464,0,0,1-.334-.334.759.759,0,0,1-.117-.4.66.66,0,0,1,.108-.371.994.994,0,0,1,.3-.28,1.5,1.5,0,0,1,.47-.181,2.567,2.567,0,0,1,.615-.063,3.616,3.616,0,0,1,.524,0,3.958,3.958,0,0,1,.551.108,3.514,3.514,0,0,1,.542.2h.117a.361.361,0,0,0,.5-.28V68.375c0-.127-.145-.244-.262-.28a7.228,7.228,0,0,0-.9-.19,8.043,8.043,0,0,0-1.139-.081v-.542a.163.163,0,0,0-.145-.172h-.994s-.163,0-.163.2v.605a.326.326,0,0,1-.117,0,3.136,3.136,0,0,0-1.075.47,2.377,2.377,0,0,0-.732.822,2.567,2.567,0,0,0,.244,2.711,3.913,3.913,0,0,0,1.554,1.057l.759.325a5.422,5.422,0,0,1,.615.334,1.654,1.654,0,0,1,.407.38.759.759,0,0,1,.145.461.7.7,0,0,1-.09.361.832.832,0,0,1-.28.28,1.5,1.5,0,0,1-.47.19,2.829,2.829,0,0,1-.66.072,3.9,3.9,0,0,1-1.274-.226A3.462,3.462,0,0,1,65.4,74.8a.28.28,0,0,0-.425.262v1.193a.28.28,0,0,0,.145.28,3.543,3.543,0,0,0,.9.289,7.738,7.738,0,0,0,.949.127v.542c0,.3.2.253.371.253h.741c.244,0,.19-.262.19-.506v-.389h.316a3.615,3.615,0,0,0,1.175-.443,2.241,2.241,0,0,0,.8-.822,2.485,2.485,0,0,0,.3-1.238,2.558,2.558,0,0,0-.145-.949Z" transform="translate(-5.842 -6.097)" fill="#8595aa"/>
  </g>
</svg>
