<svg xmlns="http://www.w3.org/2000/svg" width="199.873" height="395.899" viewBox="0 0 199.873 395.899">
  <g id="pers-svg" transform="translate(-23.097 -460.164)">
    <g id="Group_73" data-name="Group 73">
      <g id="Group_72" data-name="Group 72">
        <rect id="Rectangle_7" data-name="Rectangle 7" width="185.089" height="342.38" rx="23.101" transform="translate(30.225 460.164)" fill="#2c2c2c" opacity="0.15"/>
        <path id="Path_17" data-name="Path 17" d="M30.224,562.568l185.089,147.14V636.343L30.224,489.2Z" fill="#2c2c2c" opacity="0.2"/>
      </g>
    </g>
    <g id="Group_129" data-name="Group 129">
      <g id="Group_78" data-name="Group 78">
        <g id="Group_75" data-name="Group 75">
          <g id="Group_74" data-name="Group 74">
            <rect id="Rectangle_8" data-name="Rectangle 8" width="135.11" height="38.565" transform="translate(56.598 817.498)" fill="#0492c9"/>
          </g>
          <rect id="Rectangle_9" data-name="Rectangle 9" width="135.11" height="17.449" transform="translate(56.598 802.544)" fill="#8ab8b3"/>
        </g>
        <g id="Group_76" data-name="Group 76">
          <rect id="Rectangle_10" data-name="Rectangle 10" width="30.106" height="1.699" transform="translate(109.1 844.515)" fill="#00183d"/>
        </g>
        <g id="Group_77" data-name="Group 77">
          <rect id="Rectangle_11" data-name="Rectangle 11" width="1.7" height="9.387" transform="translate(123.303 844.587)" fill="#00183d"/>
        </g>
      </g>
      <g id="Group_81" data-name="Group 81">
        <path id="Path_18" data-name="Path 18" d="M197.71,625.181c.3-5.267-73.093-21.593-73.093-21.593S48.126,619.65,48.471,624.576c3.795,54.138-.75,185.794-.75,185.794H197.278S194.82,676.124,197.71,625.181Z" fill="#0492c9"/>
        <path id="Path_19" data-name="Path 19" d="M123.1,660.523l23.2-39.5-46.231-.187Z" fill="#2c2c2c"/>
        <path id="Path_20" data-name="Path 20" d="M145.83,621.812l6.807-11.594c-15.028-3.74-28.02-6.63-28.02-6.63s-14.355,3.015-30.6,6.832l6.506,11.208Z" fill="#ffb691"/>
        <g id="Group_79" data-name="Group 79">
          <path id="Path_21" data-name="Path 21" d="M122.044,660.78l-36.623-39.37L93.027,610l1.414.943-6.86,10.291,35.709,38.386Z" fill="#2c2c2c"/>
        </g>
        <g id="Group_80" data-name="Group 80">
          <path id="Path_22" data-name="Path 22" d="M124.193,660.78l-1.245-1.158,35.709-38.386-6.86-10.291L153.21,610l7.605,11.409Z" fill="#2c2c2c"/>
        </g>
      </g>
      <g id="Group_82" data-name="Group 82">
        <path id="Path_23" data-name="Path 23" d="M137.688,620.218l4.544-62.343-39.032.831,6.8,62.1Z" fill="#ffb691"/>
        <path id="Path_24" data-name="Path 24" d="M138.6,606.269l2.913-26.079-33.22-2.268C114.3,593.887,126.721,606.024,138.6,606.269Z" fill="#bf8264"/>
      </g>
      <g id="Group_105" data-name="Group 105">
        <g id="Group_104" data-name="Group 104">
          <g id="Group_87" data-name="Group 87">
            <g id="Group_84" data-name="Group 84">
              <path id="Path_25" data-name="Path 25" d="M154.762,542.543c.084-.816,10.021.179,10.024,9.242,0,7.847-6.152,15.074-12.649,16.149C152.137,567.934,154.76,542.558,154.762,542.543Z" fill="#bf8264"/>
              <g id="Group_83" data-name="Group 83">
                <path id="Path_26" data-name="Path 26" d="M153.958,561.679l-.583-1.6c3.162-1.155,4.142-2.943,3.618-6.6-.42-2.926,2.159-4.4,3.582-4.764l.426,1.645-.213-.822.216.822c-.108.029-2.637.73-2.328,2.878C159.309,557.655,157.854,560.257,153.958,561.679Z" fill="#00183d"/>
              </g>
            </g>
            <g id="Group_86" data-name="Group 86">
              <path id="Path_27" data-name="Path 27" d="M89.443,541.96c-.07-.818-10.023,0-10.187,9.061-.142,7.846,5.882,15.182,12.358,16.373C91.614,567.394,89.444,541.976,89.443,541.96Z" fill="#bf8264"/>
              <g id="Group_85" data-name="Group 85">
                <path id="Path_28" data-name="Path 28" d="M89.9,561.107c-3.87-1.49-5.278-4.118-4.566-8.52.346-2.142-2.169-2.888-2.277-2.919l.459-1.637c1.416.394,3.968,1.909,3.5,4.828-.59,3.646.359,5.453,3.5,6.663Z" fill="#00183d"/>
              </g>
            </g>
          </g>
          <path id="Path_29" data-name="Path 29" d="M86.3,527.406c.472,28.58,6,68.169,36.838,67.66,27.6-.455,35.058-40.258,34.586-68.838s-16.57-34.986-36.293-34.661S85.831,498.825,86.3,527.406Z" fill="#ffb691"/>
          <g id="Group_93" data-name="Group 93">
            <g id="Group_91" data-name="Group 91">
              <g id="Group_90" data-name="Group 90">
                <g id="Group_88" data-name="Group 88">
                  <path id="Path_30" data-name="Path 30" d="M108.01,548.927c-1.291,0-2.335,1.573-2.332,3.509s1.052,3.5,2.342,3.5,2.335-1.574,2.332-3.51S109.3,548.925,108.01,548.927Z" fill="#00183d"/>
                  <path id="Path_31" data-name="Path 31" d="M136.054,548.883c-1.291,0-2.335,1.573-2.332,3.509s1.052,3.5,2.342,3.5,2.335-1.574,2.332-3.51S137.344,548.881,136.054,548.883Z" fill="#00183d"/>
                </g>
                <g id="Group_89" data-name="Group 89">
                  <path id="Path_32" data-name="Path 32" d="M100.322,541.343l14.183-.022A9.311,9.311,0,0,0,100.322,541.343Z" fill="#00183d"/>
                  <path id="Path_33" data-name="Path 33" d="M129.535,541.3l14.182-.023A9.31,9.31,0,0,0,129.535,541.3Z" fill="#00183d"/>
                </g>
              </g>
            </g>
            <g id="Group_92" data-name="Group 92">
              <path id="Path_34" data-name="Path 34" d="M122.41,567.759a5.316,5.316,0,0,1-5.555-4.424c-.331-2.267.96-4.972,4.513-5.864l-.145-10.307,1.7-.024.164,11.737-.719.121c-2.986.5-4.077,2.417-3.832,4.091.242,1.654,1.8,3.277,4.635,2.922l.209,1.687A7.8,7.8,0,0,1,122.41,567.759Z" fill="#00183d"/>
            </g>
          </g>
          <g id="Group_103" data-name="Group 103">
            <g id="Group_98" data-name="Group 98">
              <g id="Group_95" data-name="Group 95">
                <g id="Group_94" data-name="Group 94">
                  <rect id="Rectangle_12" data-name="Rectangle 12" width="1.7" height="22.079" transform="translate(84.546 542.993) rotate(-34.835)" fill="#2c2c2c"/>
                </g>
              </g>
              <g id="Group_97" data-name="Group 97">
                <g id="Group_96" data-name="Group 96">
                  <rect id="Rectangle_13" data-name="Rectangle 13" width="21.616" height="1.7" transform="translate(145.752 559.396) rotate(-55.18)" fill="#2c2c2c"/>
                </g>
              </g>
            </g>
            <path id="Path_35" data-name="Path 35" d="M147.572,584l-8.7,7.282c-8.9,7.441-23.649,7.685-32.785.541l-8.94-6.992a11.706,11.706,0,0,1-4.565-9.021L92.2,552.929c29.165,15.2,59.258-.977,59.258-.977l.378,22.877A11.71,11.71,0,0,1,147.572,584Z" fill="#0492c9"/>
            <g id="Group_99" data-name="Group 99">
              <path id="Path_36" data-name="Path 36" d="M122.087,597.876a26.922,26.922,0,0,1-16.528-5.388l-8.94-6.991a12.535,12.535,0,0,1-4.891-9.677l-.4-24.3,1.266.659c28.437,14.816,58.167-.812,58.464-.971l1.229-.661.4,24.272a12.537,12.537,0,0,1-4.57,9.833l-8.7,7.282A27.115,27.115,0,0,1,122.087,597.876ZM93.074,554.323l.354,21.469a10.846,10.846,0,0,0,4.238,8.366l8.94,6.991c8.86,6.928,23.088,6.694,31.716-.523l8.7-7.282a10.844,10.844,0,0,0,3.96-8.5l-.355-21.539C144.729,556.064,118.583,566.823,93.074,554.323Z" fill="#2c2c2c"/>
            </g>
            <g id="Group_102" data-name="Group 102">
              <g id="Group_100" data-name="Group 100">
                <path id="Path_37" data-name="Path 37" d="M119.715,567.028a48.489,48.489,0,0,1-22.625-5.39l.785-1.508c23.21,12.095,47.526-.666,47.769-.795l.8,1.5A62.8,62.8,0,0,1,119.715,567.028Z" fill="#2c2c2c"/>
              </g>
              <g id="Group_101" data-name="Group 101">
                <path id="Path_38" data-name="Path 38" d="M119.715,574.36a48.487,48.487,0,0,1-22.625-5.389l.785-1.508c23.21,12.094,47.526-.665,47.769-.8l.8,1.5A62.834,62.834,0,0,1,119.715,574.36Z" fill="#2c2c2c"/>
              </g>
            </g>
          </g>
          <path id="Path_39" data-name="Path 39" d="M155.586,506.6c-.356-.43-68.279,1.744-68.279,1.744a15,15,0,0,0-.913,1.207c-4.9,7.132-3.975,32.225-3.975,32.225s3.111,9.168,6.243,6.755c2.355-1.814,6.17-19.418,7.159-31.684,1.827,1.836,50.571,1.836,52.4,0,.989,12.266,4.8,29.87,7.16,31.684,3.132,2.413,6.242-6.755,6.242-6.755S162.358,514.8,155.586,506.6Z" fill="#00183d"/>
          <ellipse id="Ellipse_6" data-name="Ellipse 6" cx="22.931" cy="37.431" rx="22.931" ry="37.431" transform="translate(78.164 521.151) rotate(-82.505)" fill="#00183d"/>
        </g>
      </g>
      <g id="Group_108" data-name="Group 108">
        <g id="Group_107" data-name="Group 107">
          <g id="Group_106" data-name="Group 106">
            <path id="Path_40" data-name="Path 40" d="M212.1,683.3c5.442,26.015,7.336,57.408,4.188,70.944-2.948,12.677-29.316-.38-29.316-.38S180,720.014,178.59,690.827Z" fill="#ffb691"/>
            <path id="Path_41" data-name="Path 41" d="M216.787,715.785,180.024,717.3c-.486-8.193-.991-17.307-1.434-26.472L212.1,683.3A276.815,276.815,0,0,1,216.787,715.785Z" fill="#bf8264"/>
            <path id="Path_42" data-name="Path 42" d="M176.412,715.537,160.446,680.2s26.637-60.405,33.855-58.168c17.252,5.344,21.51,34.167,28.669,88.476Z" fill="#0492c9"/>
          </g>
        </g>
      </g>
      <g id="Group_111" data-name="Group 111">
        <g id="Group_110" data-name="Group 110">
          <g id="Group_109" data-name="Group 109">
            <path id="Path_43" data-name="Path 43" d="M33.967,683.3c-5.442,26.015-7.336,57.408-4.189,70.944,2.949,12.677,29.317-.38,29.317-.38s6.973-33.846,8.382-63.033Z" fill="#ffb691"/>
            <path id="Path_44" data-name="Path 44" d="M29.28,715.785,66.042,717.3c.487-8.193.992-17.307,1.435-26.472L33.967,683.3A276.6,276.6,0,0,0,29.28,715.785Z" fill="#bf8264"/>
            <path id="Path_45" data-name="Path 45" d="M69.655,715.537,85.621,680.2s-26.637-60.405-33.855-58.168C34.514,627.373,30.256,656.2,23.1,710.505Z" fill="#0492c9"/>
          </g>
        </g>
      </g>
      <g id="Group_114" data-name="Group 114">
        <g id="Group_112" data-name="Group 112">
          <rect id="Rectangle_14" data-name="Rectangle 14" width="1.7" height="58.048" transform="translate(53.154 625.664) rotate(-8.979)" fill="#2c2c2c"/>
        </g>
        <g id="Group_113" data-name="Group 113">
          <rect id="Rectangle_15" data-name="Rectangle 15" width="58.048" height="1.7" transform="matrix(0.156, -0.988, 0.988, 0.156, 181.532, 682.735)" fill="#2c2c2c"/>
        </g>
      </g>
      <g id="Group_121" data-name="Group 121">
        <g id="Group_117" data-name="Group 117">
          <g id="Group_116" data-name="Group 116">
            <g id="Group_115" data-name="Group 115">
              <path id="Path_46" data-name="Path 46" d="M61.985,707.482l42.97-5.814s15.379,14.925,12.288,17.011c-19.034,12.843-44.958,12.309-51.421,9.077C57.333,723.511,61.985,707.482,61.985,707.482Z" fill="#005678"/>
            </g>
          </g>
        </g>
        <path id="Path_47" data-name="Path 47" d="M153.673,712.672l-2.634,20.4S58.771,764.2,39.154,761.248c-18.6-2.8-7.094-31.19-7.094-31.19Z" fill="#ffb691"/>
        <g id="Group_120" data-name="Group 120">
          <g id="Group_119" data-name="Group 119">
            <g id="Group_118" data-name="Group 118">
              <path id="Path_48" data-name="Path 48" d="M182.421,707.482s-59.818,1.859-55.259,11.2c10.074,20.634,45.062,10.219,51.525,6.987C187.176,721.421,182.421,707.482,182.421,707.482Z" fill="#005678"/>
            </g>
          </g>
        </g>
      </g>
      <g id="Group_122" data-name="Group 122">
        <path id="Path_49" data-name="Path 49" d="M104.544,701.93l2.634,20.4s78.269,41.616,101.364,39.185c14.579-1.535,7.434-30.782,7.434-30.782Z" fill="#ffb691"/>
        <path id="Path_50" data-name="Path 50" d="M97.282,720.85l7.263-18.92,38.422,8.23-11.246,26.7Z" fill="#005678"/>
      </g>
      <g id="Group_128" data-name="Group 128">
        <g id="Group_123" data-name="Group 123">
          <path id="Path_51" data-name="Path 51" d="M170.033,695.228H129.455V664.474h40.578Zm-38.878-1.7h37.178V666.173H131.155Z" fill="#2c2c2c"/>
        </g>
        <rect id="Rectangle_16" data-name="Rectangle 16" width="6.139" height="12.277" transform="translate(146.675 657.547)" fill="#00183d"/>
        <g id="Group_127" data-name="Group 127">
          <g id="Group_124" data-name="Group 124">
            <path id="Path_52" data-name="Path 52" d="M145.99,686.4H135.85V673.194h10.14Zm-8.44-1.7h6.74v-9.81h-6.74Z" fill="#00183d"/>
          </g>
          <g id="Group_125" data-name="Group 125">
            <rect id="Rectangle_17" data-name="Rectangle 17" width="13.044" height="1.699" transform="translate(149.744 672.811)" fill="#00183d"/>
          </g>
          <g id="Group_126" data-name="Group 126">
            <rect id="Rectangle_18" data-name="Rectangle 18" width="13.044" height="1.699" transform="translate(149.744 678.949)" fill="#00183d"/>
          </g>
        </g>
      </g>
    </g>
  </g>
</svg>
