<svg xmlns="http://www.w3.org/2000/svg" width="62.842" height="33.889" viewBox="0 0 62.842 33.889">
  <g id="sport-shoe" transform="translate(-1.005 -30.021)">
    <path id="Path_16320" data-name="Path 16320" d="M37.225,56.223h0l.016.022C37.233,56.238,37.231,56.229,37.225,56.223Z" transform="translate(-18.156 -13.136)" fill="#00263e"/>
    <path id="Path_16321" data-name="Path 16321" d="M45.252,50.306l-.14-.252c-.005-.009-.012-.017-.018-.026.006.009.013.018.019.028Z" transform="translate(-22.103 -10.03)" fill="#00263e"/>
    <path id="Path_16322" data-name="Path 16322" d="M63.816,48.047A32.784,32.784,0,0,0,61.138,37.4a4.056,4.056,0,0,0-6.687-1.222c-1.631,1.713-5.807,4.086-11.55,3.212a5.052,5.052,0,0,1-4.248-4.665l-.13-1.9a3.017,3.017,0,0,0-1.92-2.593,3.083,3.083,0,0,0-3.246.628c-.811.748-1.963,1.827-3.256,3.042a.5.5,0,0,0-.041.684L35.6,41.2a.748.748,0,0,1-1.147.961L29,35.66a.5.5,0,0,0-.722-.044c-.46.432-.925.869-1.386,1.306a.5.5,0,0,0,.074.782l6.312,4.045a.748.748,0,1,1-.762,1.288l-2.98-1.762a.093.093,0,0,0-.122.135l2.014,2.731a.785.785,0,0,1-.085,1.057.748.748,0,0,1-1.087-.126l-4.6-6.217a.5.5,0,0,0-.744-.065l-1.275,1.2a.5.5,0,0,0,.041.759l4.887,3.714a.748.748,0,1,1-.876,1.214l-2.244-1.619a.092.092,0,0,0-.135.12L26.8,46.849a.748.748,0,1,1-1.308.727L22.4,42.015a.5.5,0,0,0-.779-.119l-.528.5a.5.5,0,0,0-.028.692l2.909,3.253a.774.774,0,0,1,.083.952.748.748,0,0,1-1.173.073l-3.265-3.647a.5.5,0,0,0-.536-.137c-3.548,1.264-13.059,4.647-16.425,5.929a2.418,2.418,0,0,0-1.651,2.015,7.885,7.885,0,0,0,.02.792c.109,3.4,2.472,6.817,6.2,9.026a30.051,30.051,0,0,0,3.241,1.421,29.88,29.88,0,0,0,8.36,1.147H29.6s26.772,0,26.817-.01c6.762-1.166,7.625-12.112,7.4-15.852Zm-1.768,4.979A19.88,19.88,0,0,1,60.59,58.36l-.007,0c-12.222-1-21.305,1.241-30.191,3.221a34.645,34.645,0,0,1-7.54.829H18.835c-1.532,0-6.808-.15-10.379-2.094C5.1,58.5,2.833,55.529,2.553,52.64c7.217,5.674,16.74,6.207,29.108,1.621a49.86,49.86,0,0,1,10.856-2.35,70.9,70.9,0,0,1,19.53,1.116Z" fill="#00263e"/>
  </g>
</svg>
