<svg xmlns="http://www.w3.org/2000/svg" width="8.317" height="11.519" viewBox="0 0 8.317 11.519">
  <path id="t103" d="M354.661,384.181v-.313a.676.676,0,0,0-.678-.674h-.109a.675.675,0,0,0-.677.674v.307H349a1.355,1.355,0,0,0-1.359,1.352v7.834A1.356,1.356,0,0,0,349,394.713h5.6a1.356,1.356,0,0,0,1.359-1.352v-7.834A1.352,1.352,0,0,0,354.661,384.181Zm-2.858,9.591a.726.726,0,1,1,.73-.726A.728.728,0,0,1,351.8,393.772Zm3.167-4.1a1.032,1.032,0,0,1-1.035,1.03h-4.263a1.032,1.032,0,0,1-1.035-1.03v-3.215a1.032,1.032,0,0,1,1.035-1.029h4.263a1.032,1.032,0,0,1,1.035,1.029Z" transform="translate(-347.645 -383.194)" fill="#20364c"/>
</svg>
