<svg xmlns="http://www.w3.org/2000/svg" width="23.8" height="23.8" viewBox="0 0 23.8 23.8">
  <path id="t2" d="M13.387,0A7.6,7.6,0,0,0,5.95,5.95,5.967,5.967,0,0,0,0,11.9a5.873,5.873,0,0,0,.833,2.975H8.925V13.387a4.462,4.462,0,0,1,8.925,0v1.487h5.682a4.123,4.123,0,0,0,.268-1.487,4.839,4.839,0,0,0-2.975-4.462V7.437A7.44,7.44,0,0,0,13.387,0Zm-.476,11.9A1.487,1.487,0,0,0,11.9,13.387V17.85H7.437l5.95,5.95,5.95-5.95H14.875V13.387A1.487,1.487,0,0,0,13.12,11.9a1.487,1.487,0,0,0-.178,0Z" fill="#8595aa"/>
</svg>
