<svg xmlns="http://www.w3.org/2000/svg" width="11.356" height="11.337" viewBox="0 0 11.356 11.337">
  <g id="t44" transform="translate(-1331.784 -411.446)">
    <path id="Path_9" data-name="Path 9" d="M1331.971,415.211h2.356v7.572h-2.356Zm1.178-3.765a1.365,1.365,0,1,1-1.365,1.364,1.364,1.364,0,0,1,1.365-1.364" fill="#fff"/>
    <path id="Path_10" data-name="Path 10" d="M1335.8,415.211h2.256v1.034h.032a2.471,2.471,0,0,1,2.227-1.223c2.38,0,2.821,1.568,2.821,3.607v4.154h-2.351V419.1c0-.878-.017-2.008-1.223-2.008-1.225,0-1.412.956-1.412,1.944v3.746h-2.35Z" fill="#fff"/>
  </g>
</svg>
