<svg xmlns="http://www.w3.org/2000/svg" width="14.668" height="14.669" viewBox="0 0 14.668 14.669">
  <g id="t81" transform="translate(-32.062 -291.016)">
    <g id="Group_33" data-name="Group 33">
      <g id="Group_32" data-name="Group 32">
        <g id="Group_31" data-name="Group 31">
          <g id="Group_30" data-name="Group 30">
            <path id="Path_7" data-name="Path 7" d="M39.4,305.685a7.335,7.335,0,1,1,7.334-7.334A7.342,7.342,0,0,1,39.4,305.685Z" fill="#0492c9"/>
          </g>
        </g>
      </g>
    </g>
    <g id="Group_35" data-name="Group 35">
      <g id="Group_34" data-name="Group 34">
        <path id="Path_8" data-name="Path 8" d="M40.318,302.607H38.475a1.648,1.648,0,0,1-1.646-1.645v-5.223a1.648,1.648,0,0,1,1.646-1.645h1.843a1.647,1.647,0,0,1,1.645,1.645v5.223A1.647,1.647,0,0,1,40.318,302.607ZM38.475,295a.738.738,0,0,0-.737.737v5.223a.737.737,0,0,0,.737.737h1.843a.737.737,0,0,0,.736-.737v-5.223a.737.737,0,0,0-.736-.737Z" fill="#fff"/>
      </g>
      <path id="Path_9" data-name="Path 9" d="M39.943,300.491a.547.547,0,1,1-.547-.547A.547.547,0,0,1,39.943,300.491Z" fill="#fff"/>
    </g>
  </g>
</svg>
