<svg xmlns="http://www.w3.org/2000/svg" width="14.669" height="14.669" viewBox="0 0 14.669 14.669">
  <g id="t82" transform="translate(-32.062 -316.994)">
    <g id="Group_40" data-name="Group 40">
      <g id="Group_39" data-name="Group 39">
        <g id="Group_38" data-name="Group 38">
          <g id="Group_37" data-name="Group 37">
            <path id="Path_10" data-name="Path 10" d="M39.4,331.663a7.335,7.335,0,1,1,7.335-7.334A7.342,7.342,0,0,1,39.4,331.663Z" fill="#0492c9"/>
          </g>
        </g>
      </g>
    </g>
    <path id="Path_11" data-name="Path 11" d="M42.264,321.7H36.529a1.1,1.1,0,0,0-1.094,1.094v3.072a1.1,1.1,0,0,0,1.094,1.1h5.735a1.1,1.1,0,0,0,1.094-1.1v-3.072A1.094,1.094,0,0,0,42.264,321.7Zm-.069.909-2.8,1.227-2.8-1.227Zm.069,3.443H36.529a.186.186,0,0,1-.186-.186v-2.378l3.054,1.338,3.053-1.338v2.378A.186.186,0,0,1,42.264,326.05Z" fill="#fff"/>
  </g>
</svg>
