<svg xmlns="http://www.w3.org/2000/svg" width="16.83" height="16.83" viewBox="0 0 16.83 16.83">
  <g id="t83" transform="translate(-30.982 -341.892)">
    <circle id="Ellipse_2" data-name="Ellipse 2" cx="7.335" cy="7.335" r="7.335" transform="translate(30.982 356.372) rotate(-80.783)" fill="#0492c9"/>
    <g id="Group_19" data-name="Group 19">
      <g id="Group_18" data-name="Group 18">
        <path id="Path_3" data-name="Path 3" d="M39.4,355.743a.376.376,0,0,1-.313-.168l-.5-.755c0-.007-.707-1.07-1.414-2.337a9.4,9.4,0,0,1-1.5-3.889,3.723,3.723,0,0,1,7.447,0,9.4,9.4,0,0,1-1.5,3.889c-.717,1.284-1.409,2.33-1.415,2.34l-.5.752A.375.375,0,0,1,39.4,355.743Zm0-10.122a2.977,2.977,0,0,0-2.973,2.973,9.181,9.181,0,0,0,1.4,3.524c.692,1.24,1.376,2.278,1.382,2.287l.186.282.185-.28c.008-.011.694-1.052,1.384-2.289a9.181,9.181,0,0,0,1.4-3.524A2.977,2.977,0,0,0,39.4,345.621Zm0,5.061a2.111,2.111,0,1,1,2.111-2.11A2.113,2.113,0,0,1,39.4,350.682Zm0-3.471a1.361,1.361,0,1,0,1.361,1.361A1.362,1.362,0,0,0,39.4,347.211Z" fill="#fff"/>
      </g>
    </g>
  </g>
</svg>
