<svg xmlns="http://www.w3.org/2000/svg" width="7.84" height="11.122" viewBox="0 0 7.84 11.122">
  <g id="t92" transform="translate(-69.38 -219.514)">
    <g id="Group_21" data-name="Group 21">
      <path id="Path_25" data-name="Path 25" d="M74.231,227.839a.723.723,0,0,1-.663.406,1.12,1.12,0,0,1-.659-.221,2.709,2.709,0,0,1-.677-.707,6.061,6.061,0,0,1-.9-2.136,2.866,2.866,0,0,1-.036-1.019,1.5,1.5,0,0,1,.125-.4c.028-.061.068-.111.1-.169.044-.048.079-.1.122-.148a.765.765,0,0,1,.16-.121c.033-.014.066-.028.1-.04a.409.409,0,0,1,.107-.026.847.847,0,0,1,.246,0,.891.891,0,0,1,.279.1,2.08,2.08,0,0,0,2.135-.029l-1.446-3.813a2.067,2.067,0,0,0-1.294.778l-.373.485a3.468,3.468,0,0,1-.338.372c-.114.112-.228.231-.342.333s-.223.227-.336.331c-.058.05-.109.115-.164.172l-.164.173c-.1.121-.2.254-.291.384a4.77,4.77,0,0,0-.225.423,3.679,3.679,0,0,0-.259.885,5.175,5.175,0,0,0,.029,1.663,9.454,9.454,0,0,0,.386,1.477,8.919,8.919,0,0,0,.618,1.406,5.032,5.032,0,0,0,1.053,1.344,3.664,3.664,0,0,0,.8.54c.15.074.314.13.473.19.165.042.333.086.5.113l.253.026a1.965,1.965,0,0,0,.252.015l.249,0c.083,0,.169.006.247,0,.158-.009.328-.007.488-.015a4.457,4.457,0,0,1,.493-.006l.485.028a1.879,1.879,0,0,0,1.455-.571l-1.2-3.176A1.876,1.876,0,0,0,74.231,227.839Z" fill="#73a7c0"/>
    </g>
  </g>
</svg>
