<svg xmlns="http://www.w3.org/2000/svg" width="10.146" height="10.146" viewBox="0 0 10.146 10.146">
  <g id="t93" transform="translate(-64.761 -257.592)">
    <g id="Group_28" data-name="Group 28">
      <path id="Path_26" data-name="Path 26" d="M69.834,267.738a5.073,5.073,0,1,1,5.073-5.073A5.079,5.079,0,0,1,69.834,267.738Zm0-9.574a4.5,4.5,0,1,0,4.5,4.5A4.506,4.506,0,0,0,69.834,258.164Z" fill="#73a7c0"/>
    </g>
    <g id="Group_29" data-name="Group 29">
      <path id="Path_27" data-name="Path 27" d="M68.32,258.126s1.272,2.181,0,2.467-2.13,2.072-2.13,2.072l-1.09-.678S66.806,258.375,68.32,258.126Z" fill="#73a7c0"/>
    </g>
    <g id="Group_30" data-name="Group 30">
      <path id="Path_28" data-name="Path 28" d="M66.19,262.665s2.676.215,2.7.5.265,2.459,0,2.159-1.287.028-1.287.028V266.9l-1.409-2.117Z" fill="#73a7c0"/>
    </g>
    <g id="Group_31" data-name="Group 31">
      <path id="Path_29" data-name="Path 29" d="M73.3,259.367,72.049,260.4s-.428,1.912,0,2.269.529,2.116.529,2.116v1.8S76.691,263,73.3,259.367Z" fill="#73a7c0"/>
    </g>
  </g>
</svg>
