<svg xmlns="http://www.w3.org/2000/svg" width="5.971" height="12.694" viewBox="0 0 5.971 12.694">
  <path id="tem24" d="M429.4,791.625v3.114c0,.1.014.092-.088.092h-2.462c-.1,0-.088.008-.088-.091q0-3.1,0-6.192c0-.109.013-.095-.1-.1h-1.238c-.017,0-.034,0-.051,0-.034,0-.051-.008-.048-.044a.321.321,0,0,0,0-.044v-2.045c0-.089-.01-.082.083-.082h1.246c.063,0,.064,0,.064-.065,0-.613,0-1.226,0-1.839a2.3,2.3,0,0,1,.228-1.035,1.9,1.9,0,0,1,.958-.9,3.02,3.02,0,0,1,.9-.236,4.393,4.393,0,0,1,.526-.028h1.927c.028,0,.04.011.039.039s0,.03,0,.044v2.022c0,.013,0,.025,0,.037,0,.034-.009.051-.045.048-.019,0-.039,0-.058,0H430.1a1,1,0,0,0-.359.057.567.567,0,0,0-.389.548c0,.064,0,.127,0,.191q0,.516,0,1.033c0,.077-.006.071.071.071h1.78c.107,0,.093-.005.087.09q-.042.585-.085,1.169c-.02.282-.041.565-.061.847-.005.081.005.077-.085.077H429.49c-.1,0-.093-.013-.093.094Z" transform="translate(-425.322 -782.137)" fill="#a8dbf8"/>
</svg>
