<svg xmlns="http://www.w3.org/2000/svg" width="11.672" height="7.502" viewBox="0 0 11.672 7.502">
  <g id="tem32" transform="translate(-54.012 -349.535)">
    <path id="Path_10" data-name="Path 10" d="M54.165,350.379l5.683,2.489,5.683-2.489c.017-.007.034,0,.051,0a1.341,1.341,0,0,0-1.243-.844H55.357a1.341,1.341,0,0,0-1.243.844C54.131,350.383,54.148,350.372,54.165,350.379Z" fill="#dabf99"/>
    <path id="Path_11" data-name="Path 11" d="M59.994,353.6a.359.359,0,0,1-.292,0l-5.69-2.492v4.585a1.347,1.347,0,0,0,1.345,1.346h8.982a1.347,1.347,0,0,0,1.345-1.346v-4.585Z" fill="#dabf99"/>
  </g>
</svg>
