<svg xmlns="http://www.w3.org/2000/svg" width="291.258" height="50.166" viewBox="0 0 291.258 50.166">
  <path id="tem3-svg" d="M535.4,133.189l-8.2-5.768a3.777,3.777,0,0,0-2.132-3.461L487.85,106.23a3.643,3.643,0,0,0-4.246.821l-21.026,22.6-47.255-23.12a3.629,3.629,0,0,0-3.074-.058A3.747,3.747,0,0,0,410.2,108.8L403.2,131.609l-64.325-24.745a3.663,3.663,0,0,0-4.512,1.652l-12.32,21.9-42.02-21.141a3.63,3.63,0,0,0-3.315.022,3.761,3.761,0,0,0-1.964,2.724l-3.04,18.132-7.066-2.557a3.619,3.619,0,0,0-2.941.209l-8.5-3.4a3.672,3.672,0,0,0-4.731,1.986,3.827,3.827,0,0,0-.313,1.692,3.715,3.715,0,0,0-1.964,1.723,3.821,3.821,0,0,0,.915,4.748l5.158,4.254a3.694,3.694,0,0,0,.839.52l33.559,15.035a3.629,3.629,0,0,0,3.131-.075,3.76,3.76,0,0,0,1.951-2.5L295.229,137l36.621,18.64a3.629,3.629,0,0,0,1.649.4,3.685,3.685,0,0,0,3.215-1.9l13.855-24.8,67.651,26.118a3.624,3.624,0,0,0,2.881-.114,3.742,3.742,0,0,0,1.924-2.189l6.427-19.1,38.9,19.122a3.646,3.646,0,0,0,4.3-.811l21.293-23.051,12.326,5.786a3.67,3.67,0,0,0,4.9-1.849,3.778,3.778,0,0,0,.191-.589l4.19,1.166,5.059,2.761a3.728,3.728,0,0,0,3.644,3.441l3.623.041a3.791,3.791,0,0,0,2.463-.923l1.564.647a3.668,3.668,0,0,0,4.644-1.7A3.817,3.817,0,0,0,535.4,133.189Z" transform="translate(-245.736 -105.875)" fill="#f6deb2"/>
</svg>
