<svg xmlns="http://www.w3.org/2000/svg" width="13.281" height="9.131" viewBox="0 0 13.281 9.131">
  <g id="tem43" transform="translate(0 -80)">
    <g id="Group_80" data-name="Group 80" transform="translate(8.804 81.683)">
      <g id="Group_79" data-name="Group 79">
        <path id="Path_70" data-name="Path 70" d="M339.392,147.846l4.477,2.831V144.9Z" transform="translate(-339.392 -144.896)" fill="#404040"/>
      </g>
    </g>
    <g id="Group_82" data-name="Group 82" transform="translate(0 81.683)">
      <g id="Group_81" data-name="Group 81">
        <path id="Path_71" data-name="Path 71" d="M0,144.9v5.781l4.477-2.831Z" transform="translate(0 -144.896)" fill="#404040"/>
      </g>
    </g>
    <g id="Group_84" data-name="Group 84" transform="translate(0.025 80)">
      <g id="Group_83" data-name="Group 83">
        <path id="Path_72" data-name="Path 72" d="M13.386,80H1.765a.82.82,0,0,0-.805.706l6.616,4.359,6.616-4.359A.82.82,0,0,0,13.386,80Z" transform="translate(-0.96 -80)" fill="#404040"/>
      </g>
    </g>
    <g id="Group_86" data-name="Group 86" transform="translate(0.027 85.134)">
      <g id="Group_85" data-name="Group 85">
        <path id="Path_73" data-name="Path 73" d="M9.041,277.921l-1.175.774a.417.417,0,0,1-.457,0l-1.175-.774-5.211,3.3a.818.818,0,0,0,.8.7H13.449a.818.818,0,0,0,.8-.7Z" transform="translate(-1.024 -277.92)" fill="#404040"/>
      </g>
    </g>
  </g>
</svg>
