<svg xmlns="http://www.w3.org/2000/svg" width="11.342" height="16.706" viewBox="0 0 11.342 16.706">
  <path id="tem42" d="M65.941,465.065c0-.045-.005-.089-.008-.133l-.006-.088c0-.028,0-.056-.006-.083s-.007-.072-.011-.108l-.009-.078c0-.038-.007-.075-.012-.113s-.009-.058-.014-.088l-.012-.075c-.006-.043-.013-.085-.02-.126s-.013-.068-.02-.1l-.018-.09c-.007-.032-.013-.063-.02-.093-.01-.045-.022-.089-.033-.133l-.019-.075-.018-.07c-.014-.048-.029-.1-.044-.142l-.018-.059c-.007-.023-.013-.047-.021-.067-.015-.047-.032-.093-.049-.139l-.022-.061c-.008-.022-.015-.043-.023-.063-.02-.052-.041-.1-.063-.152l-.024-.057-.02-.046c-.03-.068-.062-.134-.1-.2l-.022-.047c-.034-.065-.069-.129-.112-.207l-.017-.031c-.039-.067-.081-.134-.128-.209l-.013-.021c-.043-.066-.088-.131-.137-.2l-.013-.019c-.05-.068-.1-.134-.151-.2l-.012-.016c-.054-.067-.111-.133-.172-.2s-.119-.13-.181-.192h0a5.635,5.635,0,0,0-4.1-1.58,5.426,5.426,0,0,0-5.671,5.671,6.074,6.074,0,0,0,.763,2.948l.085.157.01.017.143.219c.015.025.031.049.04.061l3.628,6.1h0l.841,1.413a.249.249,0,0,0,.216.123h0a.251.251,0,0,0,.216-.125l.82-1.411h0l3.539-6.089c.031-.047.057-.089.084-.134s.056-.092.1-.15l.013-.023c.072-.135.182-.331.188-.341a6.022,6.022,0,0,0,.664-2.762C65.948,465.27,65.945,465.167,65.941,465.065Zm-2.987.322c0,.019-.006.037-.009.055l-.014.094c-.005.039-.01.079-.018.119s-.014.056-.021.084l-.025.1c-.007.025-.013.051-.02.076s-.026.074-.04.11l-.033.09a.467.467,0,0,1-.018.048c-.02.048-.043.094-.066.14l-.012.024c-.007.013-.014.028-.02.042l-.014.028c-.032.06-.069.118-.106.175l-.028.047c-.042.063-.088.122-.133.179l-.021.028c-.049.06-.1.121-.172.191a2.691,2.691,0,0,1-1.891.8H60.26a2.7,2.7,0,0,1,0-5.407h.031a2.68,2.68,0,0,1,1.885.791l.016.018c.06.06.115.122.166.184l.018.024c.046.059.092.118.142.194l.02.033c.037.058.073.115.106.175,0,.009.009.019.014.03l.027.056c.025.049.05.1.072.149.007.017.012.033.018.05l.032.088c.014.036.028.072.04.109s.014.052.02.077l.024.1c.008.028.016.056.022.086s.013.078.018.118l.014.094c0,.018.007.036.009.055.009.091.013.183.013.275S62.963,465.3,62.954,465.387Z" transform="translate(-54.606 -459.703)" fill="#404040"/>
</svg>
