<svg xmlns="http://www.w3.org/2000/svg" width="12.318" height="12.317" viewBox="0 0 12.318 12.317">
  <path id="tem41" d="M64.9,447.084l-1.866-.373a1.168,1.168,0,0,0-1.315.728c-.261.664-.8,1.339-1.876.777a9.9,9.9,0,0,1-3.326-3.326,1.216,1.216,0,0,1,.777-1.875,1.169,1.169,0,0,0,.729-1.315l-.374-1.866a1.155,1.155,0,0,0-1.338-.92,3.551,3.551,0,0,0-1.862,1.006c-1.789,1.789-.914,5.465,1.993,8.372s6.583,3.781,8.371,1.993a3.556,3.556,0,0,0,1.007-1.863A1.156,1.156,0,0,0,64.9,447.084Z" transform="translate(-53.522 -438.894)" fill="#404040"/>
</svg>
