<svg xmlns="http://www.w3.org/2000/svg" width="476.891" height="341.701" viewBox="0 0 476.891 341.701">
  <g id="tst" transform="translate(0 0)">
    <ellipse id="Ellipse_714" data-name="Ellipse 714" cx="3.96" cy="2.695" rx="3.96" ry="2.695" transform="translate(446.699 296.476)" fill="#7aa93c"/>
    <path id="Path_17338" data-name="Path 17338" d="M1028.75,709.26s18.808,32.679,18.313,37.4" transform="translate(-578.094 -410.088)" fill="#7aa93c"/>
    <rect id="Rectangle_3757" data-name="Rectangle 3757" width="207.385" height="316.769" transform="translate(27.475 24.253)" fill="#f2f2f2"/>
    <path id="Path_17339" data-name="Path 17339" d="M402.413,446.331H172.755V104.814H402.413Zm-228.668-.99H401.423V105.8H173.745Z" transform="translate(-145.775 -104.814)" fill="#3f3d56"/>
    <path id="Path_17340" data-name="Path 17340" d="M758.126,174.79S757,170.719,755.3,169.7v5.089s-6.786-1.018-11.593,4.071l4.524,1.018s-6.645,2.205-8.058,11.705L743,190.227l7.634,16.286,4.807-8.821,9.614,9.839-2.262-5.429,3.676,1.7-2.545-4.411,11.31,5.089-.848-2.714,4.144,6.944s14.235-14.747-1.317-30.354C777.212,178.352,770.142,170.888,758.126,174.79Z" transform="translate(-432.348 -137.585)" fill="#2f2e41"/>
    <path id="Path_17341" data-name="Path 17341" d="M773.81,246.31s4.215,16.017,2.951,18.125,12.223,13.488,12.223,13.488l13.067-2.529.843-18.125s-11.8-10.116-9.273-17.7Z" transform="translate(-449.337 -172.87)" fill="#ffb9b9"/>
    <path id="Path_17342" data-name="Path 17342" d="M773.81,246.31s4.215,16.017,2.951,18.125,12.223,13.488,12.223,13.488l13.067-2.529.843-18.125s-11.8-10.116-9.273-17.7Z" transform="translate(-449.337 -172.87)" opacity="0.1"/>
    <path id="Path_17343" data-name="Path 17343" d="M749.848,457.578s-3.372,21.075-.843,38.357,3.794,29.927,2.529,32.456-2.529,2.108-1.686,5.058,2.529,1.686.843,4.636-1.265,8.009-1.265,9.273-2.107,28.663,0,31.613,2.951,2.529,2.951,2.529l2.529,15.174,13.488-2.108-2.107-13.91s5.058-2.529,2.95-4.215-3.372-1.686-2.107-1.686,3.372-.422,1.686-1.265-.422-23.6-.422-23.6,2.951-41.729,14.752-40.465,21.076,25.712,21.076,25.712l3.372,10.959s1.264,20.654,2.108,22.34.421,2.107,0,2.951-3.372-1.264-.421,2.107,2.95,4.637,2.95,4.637l1.9,22.129,13.7-8.641V578.55s2.529-4.215,1.686-7.587-.843-19.389,0-22.34.422-3.793-.422-5.058-2.95-.422-1.264-3.372,2.951-10.538.422-16.017-16.439-59.432-22.34-62.383S749.848,457.578,749.848,457.578Z" transform="translate(-436.334 -282.977)" fill="#2f2e41"/>
    <path id="Path_17344" data-name="Path 17344" d="M773.385,719.311s-9.695-1.686-10.116.843a28.851,28.851,0,0,0,0,6.323s-3.372.421-2.951,3.372.843,10.959.843,10.959-5.269,12.435-2.318,15.385c.03.029,5.82-.211,9.149-.211h12.137s1.686-5.9,0-6.744-5.479-8.43-5.058-10.116,0-13.91,0-13.91l-1.862.105Z" transform="translate(-441.325 -414.887)" fill="#3f3d56"/>
    <path id="Path_17345" data-name="Path 17345" d="M881.914,727.46l-5.058,3.794s2.108,7.166.843,8.43-4,15.807-1.476,16.65,18.125-.421,18.125-.421,17.493.632,17.914-.211a5.849,5.849,0,0,0-3.794-7.587c-5.058-1.686-8.009-1.265-9.695-6.323a125.085,125.085,0,0,0-5.48-12.645l-.843-9.273s-5.058.843-5.9.843-5.058,2.107-4.636,3.793A5.738,5.738,0,0,1,881.914,727.46Z" transform="translate(-500.538 -415.449)" fill="#3f3d56"/>
    <circle id="Ellipse_715" data-name="Ellipse 715" cx="17.492" cy="17.492" r="17.492" transform="translate(314.146 43.724)" fill="#ffb9b9"/>
    <path id="Path_17346" data-name="Path 17346" d="M782.463,277.513l6.323-11.051s14.753-.751,15.6.935,8.009,85.144,8.009,85.144,3.372,4.636,1.265,7.587l-2.108,2.951v5.9s-10.538,8.43-24.869,6.744-32.456-9.273-32.456-9.273l3.794-23.6-.422-69.548,8.493-4.139s9.632,6.668,11.318,8.776S782.463,277.513,782.463,277.513Z" transform="translate(-439.444 -186.37)" fill="#3f3d56"/>
    <path id="Path_17347" data-name="Path 17347" d="M753.087,277.562l-1.9-11.17-25.923,18.336L739.6,326.878s-8.852,16.017-7.166,21.918a102,102,0,0,1,2.529,14.753s22.761,5.9,22.34,2.951,0-16.017,0-16.017,7.369-54.587,3.684-62.91S753.087,277.562,753.087,277.562Z" transform="translate(-424.821 -186.419)" fill="#d0cde1"/>
    <path id="Path_17348" data-name="Path 17348" d="M824.227,269.921l-4-7.8c0-.244,28.45,3.691,29.716,6.112l-3.372,64.912s.422,9.273,2.529,11.8,1.686,6.744.843,7.166-14.753,4.637-14.753,4.637-13.488-23.183-12.224-51S824.227,269.921,824.227,269.921Z" transform="translate(-472.778 -184.257)" fill="#d0cde1"/>
    <path id="Path_17349" data-name="Path 17349" d="M869.181,274.364l4.464-.95a9.438,9.438,0,0,1,3.966,4.322c1.265,2.951,16.017,34.563,16.017,36.671s.421,17.7-8.852,17.7-16.439-39.622-16.439-39.622Z" transform="translate(-497.078 -189.965)" fill="#d0cde1"/>
    <path id="Path_17350" data-name="Path 17350" d="M624.055,383.775l7.587,11.381,4.215-14.331-2.95-4.215Z" transform="translate(-315.178 -190.206)" fill="#ffb9b9"/>
    <path id="Path_17351" data-name="Path 17351" d="M601.354,199.044l-3.793-.421-9.273,49.737L604.3,298.1l13.91-10.538-9.694-33.3,3.371-25.712Z" transform="translate(-297.113 -100.314)" fill="#d0cde1"/>
    <path id="Path_17352" data-name="Path 17352" d="M791.236,203.622c-2.316-8.442-9.559-14.6-18.142-14.6a18.474,18.474,0,0,0-15.127,8.146l4.328,8.294,4.315-7.115,8.631,7.936-2.031-4.378,3.3,1.368-2.284-3.557,10.154,4.1-.762-2.189,4.823,6.294A18.975,18.975,0,0,0,791.236,203.622Z" transform="translate(-441.336 -147.341)" fill="#2f2e41"/>
    <path id="Path_17353" data-name="Path 17353" d="M746.261,208.812l11.357,9.9-5.878-12.853Z" transform="translate(-376.897 -103.97)" opacity="0.1"/>
    <path id="Path_17354" data-name="Path 17354" d="M831.8,272.94l-.4-.157,2.136-5.365a1.242,1.242,0,0,0-.695-1.614l-12.113-4.823a1.243,1.243,0,0,0-1.614.695l-9.935,24.955a1.242,1.242,0,0,0,.7,1.614l12.113,4.823a1.242,1.242,0,0,0,1.614-.695l5.125-12.873.4.157Z" transform="translate(-467.155 -183.641)" fill="#2f2e41"/>
    <circle id="Ellipse_716" data-name="Ellipse 716" cx="2.126" cy="2.126" r="2.126" transform="translate(354.808 84.105)" fill="#00aeef"/>
    <path id="Path_17355" data-name="Path 17355" d="M839.731,299.109s-5.479-16.86-12.224-13.91,2.529,20.654,2.529,20.654l5.9,3.793Z" transform="translate(-475.215 -195.742)" fill="#ffb9b9"/>
    <path id="Path_17356" data-name="Path 17356" d="M872.613,333.432,843.108,310.25l-10.537,15.6s27.819,29.505,34.142,23.6S872.613,333.432,872.613,333.432Z" transform="translate(-479.014 -208.569)" fill="#d0cde1"/>
    <rect id="Rectangle_3758" data-name="Rectangle 3758" width="476.891" height="1.109" transform="translate(0 340.592)" fill="#2f2e41"/>
    <circle id="Ellipse_717" data-name="Ellipse 717" cx="1.485" cy="1.485" r="1.485" transform="translate(31.434 3.96)" fill="#3f3d56"/>
    <circle id="Ellipse_718" data-name="Ellipse 718" cx="1.485" cy="1.485" r="1.485" transform="translate(36.879 3.96)" fill="#3f3d56"/>
    <circle id="Ellipse_719" data-name="Ellipse 719" cx="1.485" cy="1.485" r="1.485" transform="translate(42.323 3.96)" fill="#3f3d56"/>
    <circle id="Ellipse_720" data-name="Ellipse 720" cx="1.485" cy="1.485" r="1.485" transform="translate(47.768 3.96)" fill="#3f3d56"/>
    <circle id="Ellipse_721" data-name="Ellipse 721" cx="1.485" cy="1.485" r="1.485" transform="translate(53.212 3.96)" fill="#3f3d56"/>
    <rect id="Rectangle_3759" data-name="Rectangle 3759" width="21.778" height="1.98" transform="translate(129.93 4.455)" fill="#3f3d56"/>
    <rect id="Rectangle_3760" data-name="Rectangle 3760" width="15.344" height="1.98" transform="translate(36.384 14.849)" fill="#3f3d56"/>
    <rect id="Rectangle_3761" data-name="Rectangle 3761" width="15.344" height="1.98" transform="translate(36.384 17.818)" fill="#3f3d56"/>
    <rect id="Rectangle_3762" data-name="Rectangle 3762" width="15.344" height="1.98" transform="translate(36.384 20.788)" fill="#3f3d56"/>
    <rect id="Rectangle_3763" data-name="Rectangle 3763" width="176.203" height="123.738" transform="translate(58.657 105.92)" fill="#3f3d56"/>
    <rect id="Rectangle_3764" data-name="Rectangle 3764" width="66.324" height="14.354" transform="translate(70.536 125.718)" fill="#f2f2f2"/>
    <rect id="Rectangle_3765" data-name="Rectangle 3765" width="21.778" height="14.354" transform="translate(194.274 207.88)" fill="#f2f2f2"/>
    <rect id="Rectangle_3766" data-name="Rectangle 3766" width="66.324" height="14.354" transform="translate(70.536 152.445)" fill="#f2f2f2"/>
    <rect id="Rectangle_3767" data-name="Rectangle 3767" width="66.324" height="14.354" transform="translate(70.536 179.173)" fill="#f2f2f2"/>
    <path id="Path_17357" data-name="Path 17357" d="M511.727,373.735v-1.68a4.843,4.843,0,0,1-2.546-.732l.4-1.115a4.437,4.437,0,0,0,2.4.715c1.181,0,1.98-.682,1.98-1.631,0-.915-.649-1.481-1.88-1.98-1.7-.665-2.746-1.431-2.746-2.879a2.729,2.729,0,0,1,2.513-2.679v-1.681h1.031v1.614a4.44,4.44,0,0,1,2.163.582l-.416,1.1a4.021,4.021,0,0,0-2.1-.566c-1.281,0-1.764.765-1.764,1.431,0,.865.616,1.3,2.063,1.9,1.714.7,2.579,1.564,2.579,3.045A2.894,2.894,0,0,1,512.776,372v1.731Z" transform="translate(-315.687 -233.733)" fill="#7aa93c"/>
    <path id="Path_17358" data-name="Path 17358" d="M528.727,373.735v-1.68a4.845,4.845,0,0,1-2.546-.732l.4-1.115a4.437,4.437,0,0,0,2.4.715c1.181,0,1.98-.682,1.98-1.631,0-.915-.649-1.481-1.88-1.98-1.7-.665-2.746-1.431-2.746-2.879a2.729,2.729,0,0,1,2.513-2.679v-1.681h1.032v1.614a4.441,4.441,0,0,1,2.163.582l-.416,1.1a4.021,4.021,0,0,0-2.1-.566c-1.281,0-1.764.765-1.764,1.431,0,.865.616,1.3,2.063,1.9,1.714.7,2.579,1.564,2.579,3.045A2.894,2.894,0,0,1,529.776,372v1.731Z" transform="translate(-324.273 -233.733)" fill="#7aa93c"/>
    <path id="Path_17359" data-name="Path 17359" d="M545.727,373.735v-1.68a4.844,4.844,0,0,1-2.546-.732l.4-1.115a4.437,4.437,0,0,0,2.4.715c1.181,0,1.98-.682,1.98-1.631,0-.915-.649-1.481-1.88-1.98-1.7-.665-2.746-1.431-2.746-2.879a2.729,2.729,0,0,1,2.513-2.679v-1.681h1.031v1.614a4.44,4.44,0,0,1,2.163.582l-.416,1.1a4.022,4.022,0,0,0-2.1-.566c-1.281,0-1.764.765-1.764,1.431,0,.865.616,1.3,2.063,1.9,1.714.7,2.579,1.564,2.579,3.045A2.894,2.894,0,0,1,546.776,372v1.731Z" transform="translate(-332.858 -233.733)" fill="#7aa93c"/>
    <path id="Path_17360" data-name="Path 17360" d="M511.727,426.735v-1.68a4.845,4.845,0,0,1-2.546-.732l.4-1.115a4.435,4.435,0,0,0,2.4.715c1.181,0,1.98-.682,1.98-1.631,0-.915-.649-1.481-1.88-1.98-1.7-.666-2.746-1.431-2.746-2.879a2.729,2.729,0,0,1,2.513-2.679v-1.681h1.031v1.614a4.437,4.437,0,0,1,2.163.582l-.416,1.1a4.021,4.021,0,0,0-2.1-.566c-1.281,0-1.764.765-1.764,1.431,0,.865.616,1.3,2.063,1.9,1.714.7,2.579,1.564,2.579,3.045A2.894,2.894,0,0,1,512.776,425v1.731Z" transform="translate(-315.687 -260.5)" fill="#7aa93c"/>
    <path id="Path_17361" data-name="Path 17361" d="M528.727,426.735v-1.68a4.846,4.846,0,0,1-2.546-.732l.4-1.115a4.436,4.436,0,0,0,2.4.715c1.181,0,1.98-.682,1.98-1.631,0-.915-.649-1.481-1.88-1.98-1.7-.666-2.746-1.431-2.746-2.879a2.729,2.729,0,0,1,2.513-2.679v-1.681h1.032v1.614a4.438,4.438,0,0,1,2.163.582l-.416,1.1a4.021,4.021,0,0,0-2.1-.566c-1.281,0-1.764.765-1.764,1.431,0,.865.616,1.3,2.063,1.9,1.714.7,2.579,1.564,2.579,3.045A2.894,2.894,0,0,1,529.776,425v1.731Z" transform="translate(-324.273 -260.5)" fill="#7aa93c"/>
    <path id="Path_17362" data-name="Path 17362" d="M545.727,426.735v-1.68a4.846,4.846,0,0,1-2.546-.732l.4-1.115a4.436,4.436,0,0,0,2.4.715c1.181,0,1.98-.682,1.98-1.631,0-.915-.649-1.481-1.88-1.98-1.7-.666-2.746-1.431-2.746-2.879a2.729,2.729,0,0,1,2.513-2.679v-1.681h1.031v1.614a4.437,4.437,0,0,1,2.163.582l-.416,1.1a4.022,4.022,0,0,0-2.1-.566c-1.281,0-1.764.765-1.764,1.431,0,.865.616,1.3,2.063,1.9,1.714.7,2.579,1.564,2.579,3.045A2.894,2.894,0,0,1,546.776,425v1.731Z" transform="translate(-332.858 -260.5)" fill="#7aa93c"/>
    <path id="Path_17363" data-name="Path 17363" d="M511.727,479.735v-1.68a4.845,4.845,0,0,1-2.546-.732l.4-1.115a4.437,4.437,0,0,0,2.4.716c1.181,0,1.98-.682,1.98-1.631,0-.915-.649-1.481-1.88-1.98-1.7-.665-2.746-1.431-2.746-2.879a2.729,2.729,0,0,1,2.513-2.679v-1.681h1.032v1.614a4.44,4.44,0,0,1,2.163.582l-.416,1.1a4.022,4.022,0,0,0-2.1-.566c-1.281,0-1.764.765-1.764,1.431,0,.865.616,1.3,2.063,1.9,1.714.7,2.579,1.564,2.579,3.045A2.894,2.894,0,0,1,512.776,478v1.731Z" transform="translate(-315.687 -287.268)" fill="#7aa93c"/>
    <path id="Path_17364" data-name="Path 17364" d="M528.727,479.735v-1.68a4.845,4.845,0,0,1-2.546-.732l.4-1.115a4.437,4.437,0,0,0,2.4.716c1.181,0,1.98-.682,1.98-1.631,0-.915-.649-1.481-1.88-1.98-1.7-.665-2.746-1.431-2.746-2.879a2.729,2.729,0,0,1,2.513-2.679v-1.681h1.032v1.614a4.44,4.44,0,0,1,2.163.582l-.416,1.1a4.021,4.021,0,0,0-2.1-.566c-1.281,0-1.764.765-1.764,1.431,0,.865.616,1.3,2.063,1.9,1.714.7,2.579,1.564,2.579,3.045A2.894,2.894,0,0,1,529.776,478v1.731Z" transform="translate(-324.273 -287.268)" fill="#7aa93c"/>
    <path id="Path_17365" data-name="Path 17365" d="M545.727,479.735v-1.68a4.845,4.845,0,0,1-2.546-.732l.4-1.115a4.437,4.437,0,0,0,2.4.716c1.181,0,1.98-.682,1.98-1.631,0-.915-.649-1.481-1.88-1.98-1.7-.665-2.745-1.431-2.745-2.879a2.729,2.729,0,0,1,2.513-2.679v-1.681h1.031v1.614a4.44,4.44,0,0,1,2.163.582l-.416,1.1a4.021,4.021,0,0,0-2.1-.566c-1.281,0-1.764.765-1.764,1.431,0,.865.616,1.3,2.063,1.9,1.714.7,2.579,1.564,2.579,3.045A2.894,2.894,0,0,1,546.776,478v1.731Z" transform="translate(-332.858 -287.268)" fill="#7aa93c"/>
    <path id="Path_17366" data-name="Path 17366" d="M405.243,434.173l-3.29-4.387.779-.585,2.68,3.574,10.553-8.634.617.754Z" transform="translate(-203.006 -214.212)" fill="#3f3d56"/>
    <path id="Path_17367" data-name="Path 17367" d="M1026.686,713.814v19.117c-3.94-5.459-11.8-11.08-26.523-15.643l26.523,36.432V754l.144-.08.045.062s.038-.051.105-.148C1030.071,752.04,1055.987,735.9,1026.686,713.814Z" transform="translate(-563.656 -412.388)" fill="#3f3d56"/>
    <rect id="Rectangle_3768" data-name="Rectangle 3768" width="2.475" height="2.475" transform="translate(235.971 4.547)" fill="#00aeef"/>
    <rect id="Rectangle_3769" data-name="Rectangle 3769" width="2.475" height="2.475" transform="translate(239.93 4.547)" fill="#00aeef"/>
    <rect id="Rectangle_3770" data-name="Rectangle 3770" width="2.475" height="2.475" transform="translate(243.89 4.547)" fill="#00aeef"/>
    <rect id="Rectangle_3771" data-name="Rectangle 3771" width="2.475" height="2.475" transform="translate(247.85 4.547)" fill="#f2f2f2"/>
  </g>
</svg>
