<svg id="upload" xmlns="http://www.w3.org/2000/svg" width="55.027" height="50.442" viewBox="0 0 55.027 50.442">
  <path id="Path_17368" data-name="Path 17368" d="M21.976,38.5H16.244a2.87,2.87,0,0,1-2.866-2.866V25.891H8.219a1.721,1.721,0,0,1-1.247-2.9L17.863,11.522a1.774,1.774,0,0,1,2.495,0L31.248,22.986A1.719,1.719,0,0,1,30,25.891H24.842v9.744A2.87,2.87,0,0,1,21.976,38.5Z" transform="translate(8.404 11.94)" fill="#8595aa"/>
  <path id="Path_17369" data-name="Path 17369" d="M42.813,10a17.468,17.468,0,0,0-32.26,4.361,11.649,11.649,0,0,0-.209,23.173,6.29,6.29,0,0,1,1.7-4.764L22.942,21.307a6.571,6.571,0,0,1,9.141,0L42.976,32.771a6.29,6.29,0,0,1,1.72,4.4A13.864,13.864,0,0,0,42.813,10Z" transform="translate(0 -1)" fill="#8595aa"/>
</svg>
